<svg xmlns="http://www.w3.org/2000/svg" xmlns:xlink="http://www.w3.org/1999/xlink" width="118" height="118" viewBox="0 0 118 118">
  <defs>
    <filter id="Trazado_896985" x="0" y="0" width="118" height="118" filterUnits="userSpaceOnUse">
      <feOffset dy="3" input="SourceAlpha"/>
      <feGaussianBlur stdDeviation="3" result="blur"/>
      <feFlood flood-opacity="0.161"/>
      <feComposite operator="in" in2="blur"/>
      <feComposite in="SourceGraphic"/>
    </filter>
    <clipPath id="clip-path">
      <path id="path4668" d="M0-682.665H78.961V-603.7H0Z" transform="translate(0 682.665)"/>
    </clipPath>
  </defs>
  <g id="Grupo_1230984" data-name="Grupo 1230984" transform="translate(-196.967 -5429.179)">
    <g id="Grupo_1212718" data-name="Grupo 1212718" transform="translate(205.967 5435.179)">
      <g id="Grupo_1212199" data-name="Grupo 1212199">
        <g id="Grupo_1200068" data-name="Grupo 1200068">
          <g id="Grupo_1198724" data-name="Grupo 1198724">
            <g id="Grupo_1198140" data-name="Grupo 1198140">
              <g id="Grupo_1111318" data-name="Grupo 1111318" transform="translate(0)">
                <g id="Grupo_1109826" data-name="Grupo 1109826" transform="translate(0 0)">
                  <g id="Grupo_1098742" data-name="Grupo 1098742">
                    <g transform="matrix(1, 0, 0, 1, -9, -6)" filter="url(#Trazado_896985)">
                      <g id="Trazado_896985-2" data-name="Trazado 896985" transform="translate(9 6)" fill="#d0c110" opacity="0.859">
                        <path d="M 49.99993515014648 99.5 C 43.31726837158203 99.5 36.83476257324219 98.19129943847656 30.73248100280762 95.61025238037109 C 24.83812141418457 93.11714172363281 19.54434776306152 89.54795837402344 14.99820137023926 85.00179290771484 C 10.45204162597656 80.45565032958984 6.88285493850708 75.16187286376953 4.389748573303223 69.26751708984375 C 1.808695197105408 63.16523742675781 0.5000017881393433 56.6827278137207 0.5000017881393433 50.00006103515625 C 0.5000017881393433 43.31726455688477 1.808695197105408 36.83475494384766 4.389748573303223 30.73247528076172 C 6.88285493850708 24.83811569213867 10.45204162597656 19.54434204101562 14.99820137023926 14.99819660186768 C 19.54434776306152 10.45203590393066 24.83812141418457 6.88284969329834 30.73248100280762 4.389742851257324 C 36.83476257324219 1.808689475059509 43.31726837158203 0.4999961853027344 49.99993515014648 0.4999961853027344 C 56.68260192871094 0.4999961853027344 63.16510772705078 1.808689475059509 69.26738739013672 4.389742851257324 C 75.16175079345703 6.88284969329834 80.45552062988281 10.45203590393066 85.00167083740234 14.99819660186768 C 89.54782867431641 19.54434204101562 93.11701202392578 24.83811569213867 95.61012268066406 30.73247528076172 C 98.19117736816406 36.83475494384766 99.49987030029297 43.31726455688477 99.49987030029297 49.99993133544922 C 99.49987030029297 56.6827278137207 98.19117736816406 63.16523742675781 95.61012268066406 69.26751708984375 C 93.11701202392578 75.16187286376953 89.54782867431641 80.45565032958984 85.00167083740234 85.00179290771484 C 80.45552062988281 89.54795837402344 75.16175079345703 93.11714172363281 69.26738739013672 95.61025238037109 C 63.16510772705078 98.19129943847656 56.68260192871094 99.5 49.99993515014648 99.5 Z" stroke="none"/>
                        <path d="M 49.99993515014648 0.9999923706054688 C 43.38454818725586 0.9999923706054688 36.96757507324219 2.29541015625 30.92725372314453 4.850250244140625 C 25.09249877929688 7.318145751953125 19.85213470458984 10.85135650634766 15.35174560546875 15.35174560546875 C 10.85136413574219 19.85212707519531 7.318145751953125 25.09249114990234 4.850257873535156 30.92724609375 C 2.295417785644531 36.96757125854492 1 43.38454437255859 1 50.00006103515625 C 1 56.61544799804688 2.295417785644531 63.03242111206055 4.850257873535156 69.07273864746094 C 7.318145751953125 74.90750122070312 10.85136413574219 80.14786529541016 15.35174560546875 84.64824676513672 C 19.85213470458984 89.14863586425781 25.09249877929688 92.68184661865234 30.92725372314453 95.14974212646484 C 36.96757507324219 97.70458221435547 43.38454818725586 99 49.99993515014648 99 C 56.61532211303711 99 63.03229522705078 97.70458221435547 69.07261657714844 95.14974212646484 C 74.90737915039062 92.68184661865234 80.14773559570312 89.14863586425781 84.64812469482422 84.64824676513672 C 89.14850616455078 80.14786529541016 92.68172454833984 74.90750122070312 95.14961242675781 69.07273864746094 C 97.70445251464844 63.03242111206055 98.99987030029297 56.61544799804688 98.99987030029297 49.99993133544922 C 98.99987030029297 43.38454437255859 97.70445251464844 36.96757125854492 95.14961242675781 30.92724609375 C 92.68172454833984 25.09249114990234 89.14850616455078 19.85212707519531 84.64812469482422 15.35174560546875 C 80.14773559570312 10.85135650634766 74.90737915039062 7.318145751953125 69.07261657714844 4.850250244140625 C 63.03229522705078 2.29541015625 56.61532211303711 0.9999923706054688 49.99993515014648 0.9999923706054688 M 49.99993515014648 -7.62939453125e-06 C 77.6141357421875 -7.62939453125e-06 99.99987030029297 22.38572692871094 99.99987030029297 49.99993133544922 L 99.99987030029297 50.00006103515625 C 99.99987030029297 77.61426544189453 77.6141357421875 100 49.99993515014648 100 C 22.38573455810547 100 0 77.61426544189453 0 50.00006103515625 L 0 49.99993133544922 C 0 22.38572692871094 22.38573455810547 -7.62939453125e-06 49.99993515014648 -7.62939453125e-06 Z" stroke="none" fill="#fff"/>
                      </g>
                    </g>
                    <g id="Rectángulo_400907" data-name="Rectángulo 400907" fill="none" stroke="#fff" stroke-width="1">
                      <rect width="100" height="100" rx="50" stroke="none"/>
                      <rect x="0.5" y="0.5" width="99" height="99" rx="49.5" fill="none"/>
                    </g>
                  </g>
                </g>
              </g>
            </g>
          </g>
        </g>
      </g>
    </g>
    <g id="g4662" transform="translate(216.486 6128.367)">
      <g id="g4664" transform="translate(0 -682.665)">
        <g id="g4666" clip-path="url(#clip-path)">
          <g id="g4672" transform="translate(1.869 1.982)">
            <path id="path4674" d="M-575.085-287.542a37.609,37.609,0,0,1-37.609,37.609A37.609,37.609,0,0,1-650.3-287.542a37.609,37.609,0,0,1,37.609-37.609,37.609,37.609,0,0,1,37.609,37.609" transform="translate(650.302 325.151)" fill="#fea82f"/>
          </g>
          <g id="g4676" transform="translate(1.869 1.982)">
            <path id="path4678" d="M-575.085-287.542a37.609,37.609,0,0,1-37.609,37.609A37.609,37.609,0,0,1-650.3-287.542a37.609,37.609,0,0,1,37.609-37.609A37.609,37.609,0,0,1-575.085-287.542Z" transform="translate(650.302 325.151)" fill="none" stroke="#000" stroke-linecap="round" stroke-linejoin="round" stroke-miterlimit="10" stroke-width="1.3"/>
          </g>
          <g id="g4680" transform="translate(8.335 8.284)">
            <path id="path4682" d="M-477.034-238.517a31.2,31.2,0,0,1-31.2,31.2,31.2,31.2,0,0,1-31.2-31.2,31.2,31.2,0,0,1,31.2-31.2,31.2,31.2,0,0,1,31.2,31.2" transform="translate(539.427 269.714)" fill="#fff"/>
          </g>
          <g id="g4684" transform="translate(8.335 8.284)">
            <path id="path4686" d="M-477.034-238.517a31.2,31.2,0,0,1-31.2,31.2,31.2,31.2,0,0,1-31.2-31.2,31.2,31.2,0,0,1,31.2-31.2A31.2,31.2,0,0,1-477.034-238.517Z" transform="translate(539.427 269.714)" fill="none" stroke="#000" stroke-linecap="round" stroke-linejoin="round" stroke-miterlimit="10" stroke-width="1.3"/>
          </g>
          <g id="g4688" transform="translate(14.774 39.591)">
            <path id="path4690" d="M-185.066-188.844a24.7,24.7,0,0,1-24.206-24.7" transform="translate(209.271 213.543)" fill="none" stroke="#000" stroke-linecap="round" stroke-linejoin="round" stroke-miterlimit="10" stroke-width="1.3"/>
          </g>
          <g id="g4692" transform="translate(50.679 39.591)">
            <path id="path4694" d="M-103.244,0a24.7,24.7,0,0,1-13.179,21.857q-.161.085-.324.168" transform="translate(116.748)" fill="none" stroke="#000" stroke-linecap="round" stroke-linejoin="round" stroke-miterlimit="10" stroke-width="1.3"/>
          </g>
          <g id="g4696" transform="translate(21.267 39.591)">
            <path id="path4698" d="M-278.471,0a18.211,18.211,0,0,1-18.211,18.211A18.211,18.211,0,0,1-314.894,0" transform="translate(314.894)" fill="none" stroke="#000" stroke-linecap="round" stroke-linejoin="round" stroke-miterlimit="10" stroke-width="1.3"/>
          </g>
          <g id="g4700" transform="translate(29.72 13.507)">
            <path id="path4702" d="M-114.343-164.371l5.011-19.276-.373-.167a23.506,23.506,0,0,0-19.593.167h0l4.914,18.905" transform="translate(129.298 185.87)" fill="#fd3c65" stroke="#000" stroke-linecap="round" stroke-linejoin="round" stroke-miterlimit="10" stroke-width="1.3"/>
          </g>
          <g id="g4704" transform="translate(32.719 32.721)">
            <path id="path4706" d="M-103.362-51.68a6.76,6.76,0,0,1-6.759,6.759,6.76,6.76,0,0,1-6.76-6.759,6.76,6.76,0,0,1,6.76-6.759,6.76,6.76,0,0,1,6.759,6.759" transform="translate(116.881 58.44)" fill="#808793"/>
          </g>
          <g id="g4708" transform="translate(32.719 32.721)">
            <path id="path4710" d="M-103.362-51.68a6.76,6.76,0,0,1-6.759,6.759,6.76,6.76,0,0,1-6.76-6.759,6.76,6.76,0,0,1,6.76-6.759A6.76,6.76,0,0,1-103.362-51.68Z" transform="translate(116.881 58.44)" fill="none" stroke="#000" stroke-linecap="round" stroke-linejoin="round" stroke-miterlimit="10" stroke-width="1.3"/>
          </g>
          <g id="g4712" transform="translate(45.135 63.642)">
            <path id="path4714" d="M-.072-.2-.081-.229" transform="translate(0.081 0.229)" fill="none" stroke="#000" stroke-linecap="round" stroke-linejoin="round" stroke-miterlimit="10" stroke-width="1.3"/>
          </g>
        </g>
      </g>
    </g>
  </g>
</svg>
