<svg xmlns="http://www.w3.org/2000/svg" xmlns:xlink="http://www.w3.org/1999/xlink" width="118" height="118" viewBox="0 0 118 118">
  <defs>
    <filter id="Trazado_896985" x="0" y="0" width="118" height="118" filterUnits="userSpaceOnUse">
      <feOffset dy="3" input="SourceAlpha"/>
      <feGaussianBlur stdDeviation="3" result="blur"/>
      <feFlood flood-opacity="0.161"/>
      <feComposite operator="in" in2="blur"/>
      <feComposite in="SourceGraphic"/>
    </filter>
  </defs>
  <g id="Grupo_1230982" data-name="Grupo 1230982" transform="translate(9 6)">
    <g id="Grupo_1212716" data-name="Grupo 1212716" transform="translate(0 0)">
      <g id="Grupo_1212198" data-name="Grupo 1212198">
        <g id="Grupo_1200012" data-name="Grupo 1200012">
          <g id="Grupo_1198723" data-name="Grupo 1198723">
            <g id="Grupo_1198139" data-name="Grupo 1198139">
              <g id="Grupo_1111318" data-name="Grupo 1111318">
                <g id="Grupo_1109826" data-name="Grupo 1109826">
                  <g id="Grupo_1098742" data-name="Grupo 1098742">
                    <g transform="matrix(1, 0, 0, 1, -9, -6)" filter="url(#Trazado_896985)">
                      <g id="Trazado_896985-2" data-name="Trazado 896985" transform="translate(9 6)" fill="#d0c110" opacity="0.859">
                        <path d="M 49.99993515014648 99.5 C 43.31726837158203 99.5 36.83476257324219 98.19129943847656 30.73248100280762 95.61025238037109 C 24.83812141418457 93.11714172363281 19.54434776306152 89.54795837402344 14.99820137023926 85.00179290771484 C 10.45204162597656 80.45565032958984 6.88285493850708 75.16187286376953 4.389748573303223 69.26751708984375 C 1.808695197105408 63.16523742675781 0.5000017881393433 56.6827278137207 0.5000017881393433 50.00006103515625 C 0.5000017881393433 43.31726455688477 1.808695197105408 36.83475494384766 4.389748573303223 30.73247528076172 C 6.88285493850708 24.83811569213867 10.45204162597656 19.54434204101562 14.99820137023926 14.99819660186768 C 19.54434776306152 10.45203590393066 24.83812141418457 6.88284969329834 30.73248100280762 4.389742851257324 C 36.83476257324219 1.808689475059509 43.31726837158203 0.4999961853027344 49.99993515014648 0.4999961853027344 C 56.68260192871094 0.4999961853027344 63.16510772705078 1.808689475059509 69.26738739013672 4.389742851257324 C 75.16175079345703 6.88284969329834 80.45552062988281 10.45203590393066 85.00167083740234 14.99819660186768 C 89.54782867431641 19.54434204101562 93.11701202392578 24.83811569213867 95.61012268066406 30.73247528076172 C 98.19117736816406 36.83475494384766 99.49987030029297 43.31726455688477 99.49987030029297 49.99993133544922 C 99.49987030029297 56.6827278137207 98.19117736816406 63.16523742675781 95.61012268066406 69.26751708984375 C 93.11701202392578 75.16187286376953 89.54782867431641 80.45565032958984 85.00167083740234 85.00179290771484 C 80.45552062988281 89.54795837402344 75.16175079345703 93.11714172363281 69.26738739013672 95.61025238037109 C 63.16510772705078 98.19129943847656 56.68260192871094 99.5 49.99993515014648 99.5 Z" stroke="none"/>
                        <path d="M 49.99993515014648 0.9999923706054688 C 43.38454818725586 0.9999923706054688 36.96757507324219 2.29541015625 30.92725372314453 4.850250244140625 C 25.09249877929688 7.318145751953125 19.85213470458984 10.85135650634766 15.35174560546875 15.35174560546875 C 10.85136413574219 19.85212707519531 7.318145751953125 25.09249114990234 4.850257873535156 30.92724609375 C 2.295417785644531 36.96757125854492 1 43.38454437255859 1 50.00006103515625 C 1 56.61544799804688 2.295417785644531 63.03242111206055 4.850257873535156 69.07273864746094 C 7.318145751953125 74.90750122070312 10.85136413574219 80.14786529541016 15.35174560546875 84.64824676513672 C 19.85213470458984 89.14863586425781 25.09249877929688 92.68184661865234 30.92725372314453 95.14974212646484 C 36.96757507324219 97.70458221435547 43.38454818725586 99 49.99993515014648 99 C 56.61532211303711 99 63.03229522705078 97.70458221435547 69.07261657714844 95.14974212646484 C 74.90737915039062 92.68184661865234 80.14773559570312 89.14863586425781 84.64812469482422 84.64824676513672 C 89.14850616455078 80.14786529541016 92.68172454833984 74.90750122070312 95.14961242675781 69.07273864746094 C 97.70445251464844 63.03242111206055 98.99987030029297 56.61544799804688 98.99987030029297 49.99993133544922 C 98.99987030029297 43.38454437255859 97.70445251464844 36.96757125854492 95.14961242675781 30.92724609375 C 92.68172454833984 25.09249114990234 89.14850616455078 19.85212707519531 84.64812469482422 15.35174560546875 C 80.14773559570312 10.85135650634766 74.90737915039062 7.318145751953125 69.07261657714844 4.850250244140625 C 63.03229522705078 2.29541015625 56.61532211303711 0.9999923706054688 49.99993515014648 0.9999923706054688 M 49.99993515014648 -7.62939453125e-06 C 77.6141357421875 -7.62939453125e-06 99.99987030029297 22.38572692871094 99.99987030029297 49.99993133544922 L 99.99987030029297 50.00006103515625 C 99.99987030029297 77.61426544189453 77.6141357421875 100 49.99993515014648 100 C 22.38573455810547 100 0 77.61426544189453 0 50.00006103515625 L 0 49.99993133544922 C 0 22.38572692871094 22.38573455810547 -7.62939453125e-06 49.99993515014648 -7.62939453125e-06 Z" stroke="none" fill="#fff"/>
                      </g>
                    </g>
                    <g id="Rectángulo_400907" data-name="Rectángulo 400907" transform="translate(0)" fill="none" stroke="#fff" stroke-width="1">
                      <rect width="100" height="100" rx="50" stroke="none"/>
                      <rect x="0.5" y="0.5" width="99" height="99" rx="49.5" fill="none"/>
                    </g>
                  </g>
                </g>
              </g>
            </g>
          </g>
        </g>
      </g>
    </g>
    <g id="radar_8459443" transform="translate(17.229 17.232)">
      <g id="Grupo_1230965" data-name="Grupo 1230965" transform="translate(0.772 0.772)">
        <g id="Grupo_1230953" data-name="Grupo 1230953" transform="translate(0)">
          <path id="Trazado_1184788" data-name="Trazado 1184788" d="M65.995,34a32.446,32.446,0,0,0-.475-5.522A32.017,32.017,0,1,0,56.5,56.736L33.75,34Z" transform="translate(-1.998 -1.998)" fill="#7cb5e8"/>
        </g>
        <g id="Grupo_1230954" data-name="Grupo 1230954" transform="translate(31.751 31.999)">
          <path id="Trazado_1184789" data-name="Trazado 1184789" d="M32.76,33,55.509,55.749A32.009,32.009,0,0,0,65,33Z" transform="translate(-32.76 -33)" fill="#e2e2e2"/>
        </g>
        <g id="Grupo_1230955" data-name="Grupo 1230955" transform="translate(31.225 0.002)" opacity="0.3">
          <path id="Trazado_1184790" data-name="Trazado 1184790" d="M65.021,34a32.139,32.139,0,0,1-1.042,8.113A32.413,32.413,0,0,1,33.179,2,32.007,32.007,0,0,1,64.547,28.475,31.344,31.344,0,0,1,65.021,34Z" transform="translate(-32.25 -2)" fill="#fff"/>
        </g>
        <g id="Grupo_1230956" data-name="Grupo 1230956" transform="translate(25.806 25.806)">
          <ellipse id="Elipse_12549" data-name="Elipse 12549" cx="6.193" cy="6.193" rx="6.193" ry="6.193" fill="#4e6575"/>
        </g>
        <g id="Grupo_1230957" data-name="Grupo 1230957" transform="translate(30.069 25.806)" opacity="0.2">
          <path id="Trazado_1184791" data-name="Trazado 1184791" d="M33.06,27a6.1,6.1,0,0,0-1.693.237,6.1,6.1,0,0,0-.237,1.693,6.2,6.2,0,0,0,6.193,6.193,6.1,6.1,0,0,0,1.693-.237,6.1,6.1,0,0,0,.237-1.693A6.191,6.191,0,0,0,33.06,27Z" transform="translate(-31.13 -27)" fill="#e2e2e2"/>
        </g>
        <g id="Grupo_1230958" data-name="Grupo 1230958" transform="translate(11.356 44.055)">
          <ellipse id="Elipse_12550" data-name="Elipse 12550" cx="4.129" cy="4.129" rx="4.129" ry="4.129" transform="translate(0)" fill="#ef4a51"/>
        </g>
        <g id="Grupo_1230959" data-name="Grupo 1230959" transform="translate(16.516 18.24)">
          <ellipse id="Elipse_12551" data-name="Elipse 12551" cx="4.129" cy="4.129" rx="4.129" ry="4.129" fill="#ef4a51"/>
        </g>
        <g id="Grupo_1230960" data-name="Grupo 1230960" transform="translate(13.42 44.055)" opacity="0.3">
          <path id="Trazado_1184792" data-name="Trazado 1184792" d="M17.064,44.68a4.053,4.053,0,0,0-2.013.547,3.868,3.868,0,0,0-.052.485,4.128,4.128,0,0,0,4.129,4.129,4.053,4.053,0,0,0,2.013-.547,3.494,3.494,0,0,0,.052-.485A4.134,4.134,0,0,0,17.064,44.68Z" transform="translate(-15 -44.68)" fill="#e2e2e2"/>
        </g>
        <g id="Grupo_1230961" data-name="Grupo 1230961" transform="translate(18.581 18.24)" opacity="0.3">
          <path id="Trazado_1184793" data-name="Trazado 1184793" d="M22.064,19.67a4.053,4.053,0,0,0-2.013.547A3.673,3.673,0,0,0,20,20.7a4.128,4.128,0,0,0,4.129,4.129,4.053,4.053,0,0,0,2.013-.547,3.868,3.868,0,0,0,.052-.485A4.128,4.128,0,0,0,22.064,19.67Z" transform="translate(-20 -19.67)" fill="#e2e2e2"/>
        </g>
        <g id="Grupo_1230962" data-name="Grupo 1230962" transform="translate(42.605 2.544)" opacity="0.3">
          <path id="Trazado_1184794" data-name="Trazado 1184794" d="M63.449,25.155A31.987,31.987,0,0,0,45.51,4.6c-1.724-.753-3.138,1.693-1.528,2.673a2.388,2.388,0,0,0,.361.186A28.757,28.757,0,0,1,60.548,26.146a1.383,1.383,0,0,0,.258.485A1.549,1.549,0,0,0,63.449,25.155Z" transform="translate(-43.276 -4.463)" fill="#fff"/>
        </g>
        <g id="Grupo_1230963" data-name="Grupo 1230963" transform="translate(50.258 5.163)">
          <ellipse id="Elipse_12552" data-name="Elipse 12552" cx="4.129" cy="4.129" rx="4.129" ry="4.129" fill="#ef4a51"/>
        </g>
        <g id="Grupo_1230964" data-name="Grupo 1230964" transform="translate(52.322 5.163)" opacity="0.3">
          <path id="Trazado_1184795" data-name="Trazado 1184795" d="M54.754,7a4.053,4.053,0,0,0-2.013.547,3.868,3.868,0,0,0-.052.485,4.128,4.128,0,0,0,4.129,4.129,4.053,4.053,0,0,0,2.013-.547,3.869,3.869,0,0,0,.052-.485A4.128,4.128,0,0,0,54.754,7Z" transform="translate(-52.69 -7)" fill="#e2e2e2"/>
        </g>
      </g>
      <g id="Grupo_1230981" data-name="Grupo 1230981">
        <g id="Grupo_1230966" data-name="Grupo 1230966" transform="translate(25.804 25.804)">
          <path id="Trazado_1184796" data-name="Trazado 1184796" d="M33.217,40.184a6.967,6.967,0,1,1,6.967-6.967A6.978,6.978,0,0,1,33.217,40.184Zm0-12.386a5.419,5.419,0,1,0,5.419,5.419A5.418,5.418,0,0,0,33.217,27.8Z" transform="translate(-26.25 -26.25)"/>
        </g>
        <g id="Grupo_1230967" data-name="Grupo 1230967" transform="translate(50.246 5.161)">
          <path id="Trazado_1184797" data-name="Trazado 1184797" d="M54.833,16.056a4.9,4.9,0,1,1,4.9-4.9A4.907,4.907,0,0,1,54.833,16.056Zm0-8.257a3.355,3.355,0,1,0,3.355,3.355A3.361,3.361,0,0,0,54.833,7.8Z" transform="translate(-49.93 -6.25)"/>
        </g>
        <g id="Grupo_1230968" data-name="Grupo 1230968" transform="translate(11.354 44.063)">
          <path id="Trazado_1184798" data-name="Trazado 1184798" d="M17.153,53.746a4.9,4.9,0,1,1,4.9-4.9A4.907,4.907,0,0,1,17.153,53.746Zm0-8.257a3.355,3.355,0,1,0,3.355,3.355A3.361,3.361,0,0,0,17.153,45.488Z" transform="translate(-12.25 -43.94)"/>
        </g>
        <g id="Grupo_1230969" data-name="Grupo 1230969" transform="translate(16.515 18.238)">
          <path id="Trazado_1184799" data-name="Trazado 1184799" d="M22.153,28.726a4.9,4.9,0,1,1,4.9-4.9A4.907,4.907,0,0,1,22.153,28.726Zm0-8.257a3.355,3.355,0,1,0,3.355,3.355A3.361,3.361,0,0,0,22.153,20.468Z" transform="translate(-17.25 -18.92)"/>
        </g>
        <g id="Grupo_1230970" data-name="Grupo 1230970" transform="translate(31.997)">
          <path id="Trazado_1184800" data-name="Trazado 1184800" d="M33.024,28.6a.78.78,0,0,1-.774-.774V2.024a.774.774,0,0,1,1.548,0v25.8A.78.78,0,0,1,33.024,28.6Z" transform="translate(-32.25 -1.25)"/>
        </g>
        <g id="Grupo_1230971" data-name="Grupo 1230971" transform="translate(38.19 31.997)">
          <path id="Trazado_1184801" data-name="Trazado 1184801" d="M64.828,33.8h-25.8a.774.774,0,0,1,0-1.548h25.8a.774.774,0,0,1,0,1.548Z" transform="translate(-38.25 -32.25)"/>
        </g>
        <g id="Grupo_1230972" data-name="Grupo 1230972" transform="translate(0 31.997)">
          <path id="Trazado_1184802" data-name="Trazado 1184802" d="M27.828,33.8H2.024a.774.774,0,0,1,0-1.548h25.8a.774.774,0,0,1,0,1.548Z" transform="translate(-1.25 -32.25)"/>
        </g>
        <g id="Grupo_1230973" data-name="Grupo 1230973" transform="translate(32 32)">
          <path id="Trazado_1184803" data-name="Trazado 1184803" d="M59.819,60.593a.766.766,0,0,1-.547-.227l-26.8-26.8a.774.774,0,1,1,1.094-1.094l26.8,26.8a.779.779,0,0,1,0,1.094.811.811,0,0,1-.547.227Z" transform="translate(-32.252 -32.252)"/>
        </g>
        <g id="Grupo_1230974" data-name="Grupo 1230974" transform="translate(31.997 38.19)">
          <path id="Trazado_1184804" data-name="Trazado 1184804" d="M33.024,65.6a.78.78,0,0,1-.774-.774v-25.8a.774.774,0,0,1,1.548,0v25.8A.78.78,0,0,1,33.024,65.6Z" transform="translate(-32.25 -38.25)"/>
        </g>
        <g id="Grupo_1230975" data-name="Grupo 1230975" transform="translate(8.598 8.598)">
          <path id="Trazado_1184805" data-name="Trazado 1184805" d="M52.343,48.74a.815.815,0,0,1-.475-.155.773.773,0,0,1-.145-1.084,22.386,22.386,0,0,0,4.645-13.738A22.62,22.62,0,1,0,15.061,46.5a.773.773,0,1,1-1.28.867A24.172,24.172,0,1,1,57.927,33.753a23.927,23.927,0,0,1-4.965,14.677A.777.777,0,0,1,52.343,48.74Z" transform="translate(-9.58 -9.58)"/>
        </g>
        <g id="Grupo_1230976" data-name="Grupo 1230976" transform="translate(18.436 48.535)">
          <path id="Trazado_1184806" data-name="Trazado 1184806" d="M33.447,56.682A23.971,23.971,0,0,1,19.44,52.2a.778.778,0,1,1,.9-1.27A22.614,22.614,0,0,0,49.445,48.5a.774.774,0,0,1,1.094,1.094A24,24,0,0,1,33.447,56.682Z" transform="translate(-19.112 -48.273)"/>
        </g>
        <g id="Grupo_1230977" data-name="Grupo 1230977" transform="translate(23.774 17.206)">
          <path id="Trazado_1184807" data-name="Trazado 1184807" d="M45.7,42.3a.8.8,0,0,1-.423-.124.771.771,0,0,1-.227-1.073,14.019,14.019,0,0,0-19.56-19.271.774.774,0,1,1-.857-1.29A15.57,15.57,0,0,1,46.348,41.949a.765.765,0,0,1-.65.351Z" transform="translate(-24.283 -17.92)"/>
        </g>
        <g id="Grupo_1230978" data-name="Grupo 1230978" transform="translate(17.206 25.899)">
          <path id="Trazado_1184808" data-name="Trazado 1184808" d="M33.485,48.779A15.551,15.551,0,0,1,19.313,26.794a.771.771,0,1,1,1.4.64,13.885,13.885,0,0,0-1.259,5.78A14.03,14.03,0,0,0,33.475,47.231a13.887,13.887,0,0,0,9.909-4.108.774.774,0,0,1,1.094,1.094,15.392,15.392,0,0,1-10.993,4.562Z" transform="translate(-17.92 -26.342)"/>
        </g>
        <g id="Grupo_1230979" data-name="Grupo 1230979" transform="translate(56.686 12.295)">
          <path id="Trazado_1184809" data-name="Trazado 1184809" d="M56.944,54.767a.807.807,0,0,1-.5-.175.782.782,0,0,1-.1-1.094,31.3,31.3,0,0,0,7.132-19.859,30.875,30.875,0,0,0-6.637-19.229.762.762,0,0,1,.134-1.084.771.771,0,0,1,1.084.134,32.454,32.454,0,0,1,6.967,20.179,32.812,32.812,0,0,1-7.483,20.85A.768.768,0,0,1,56.944,54.767Z" transform="translate(-56.169 -13.162)"/>
        </g>
        <g id="Grupo_1230980" data-name="Grupo 1230980">
          <path id="Trazado_1184810" data-name="Trazado 1184810" d="M34.021,66.793a32.771,32.771,0,1,1,0-65.543A32.433,32.433,0,0,1,53.829,7.918a.773.773,0,0,1-.939,1.228,31.222,31.222,0,1,0-18.868,56.1A31.028,31.028,0,0,0,56.1,56.1a.774.774,0,1,1,1.094,1.094A32.549,32.549,0,0,1,34.021,66.793Z" transform="translate(-1.25 -1.25)"/>
        </g>
      </g>
    </g>
  </g>
</svg>
