<svg xmlns="http://www.w3.org/2000/svg" xmlns:xlink="http://www.w3.org/1999/xlink" width="190" height="148" viewBox="0 0 190 148">
  <defs>
    <clipPath id="clip-path">
      <rect id="Rectángulo_408961" data-name="Rectángulo 408961" width="190" height="148" transform="translate(1230.126 2621)" fill="#fff" stroke="#707070" stroke-width="1"/>
    </clipPath>
  </defs>
  <g id="Enmascarar_grupo_1098783" data-name="Enmascarar grupo 1098783" transform="translate(-1230.126 -2621)" clip-path="url(#clip-path)">
    <g id="Grupo_1212635" data-name="Grupo 1212635" transform="translate(6.605 -3)">
      <g id="Grupo_1212431" data-name="Grupo 1212431" transform="translate(16)">
        <rect id="Rectángulo_408801" data-name="Rectángulo 408801" width="94" height="55" rx="12" transform="translate(1247.126 2681)" fill="#497d74"/>
        <rect id="Rectángulo_408800" data-name="Rectángulo 408800" width="74" height="119" rx="12" transform="translate(1290.126 2642)" fill="#345953"/>
      </g>
    </g>
    <g id="Page-1" transform="translate(1273.127 2645.806)">
      <g id="_090---Entreprenuerial-Studies" data-name="090---Entreprenuerial-Studies" transform="translate(0 -0.001)">
        <path id="Shape" d="M38.731,76.054v3.773A3.784,3.784,0,0,0,42.5,83.6H6.66A5.66,5.66,0,0,1,1,77.941V62.848q0-1.075.057-2.094A27.921,27.921,0,0,1,19.356,36.4l8.037-3.018h.019s0,2.094,4.83,3.811a19.794,19.794,0,0,0,9.188.943l3.924,34.147H42.5A3.784,3.784,0,0,0,38.731,76.054Z" transform="translate(0.887 27.71)" fill="#ef314c"/>
        <path id="Shape-2" data-name="Shape" d="M32.26,72.281h2.849L31.185,38.134A19.794,19.794,0,0,1,22,37.191c-4.83-1.717-4.83-3.811-4.83-3.811h-.019l-4.594,1.726a10.723,10.723,0,0,0,3.783,2.075,19.794,19.794,0,0,0,9.188.943l3.924,34.156H26.6a3.784,3.784,0,0,0-3.773,3.773v3.773A3.784,3.784,0,0,0,26.6,83.6h5.66a3.784,3.784,0,0,1-3.773-3.773V76.054A3.784,3.784,0,0,1,32.26,72.281Z" transform="translate(11.131 27.71)" fill="#bb193b"/>
        <path id="Shape-3" data-name="Shape" d="M61.04,29.187V50.656a9.118,9.118,0,0,1-.283,2.283H43.589A14.581,14.581,0,0,0,44.91,51.58a14,14,0,0,0,2.566-4.6l2.113-6.339a5.707,5.707,0,0,0,0-11.414s-2.868-5.754-7.15-5.754c-15.753,0-18.62-7.15-18.62-7.15A7.633,7.633,0,0,1,18.1,23.47v5.754a5.707,5.707,0,1,0,0,11.414l2.113,6.339a14.3,14.3,0,0,0,2.547,4.6,19.388,19.388,0,0,0,3.83,3.339l-.019.019a9.142,9.142,0,0,1-3.509,5.735h-6.4A10.012,10.012,0,0,1,6.651,50.656V29.9A27.661,27.661,0,0,1,33.421,2,27.25,27.25,0,0,1,61.04,29.187Z" transform="translate(5.895 -0.112)" fill="sienna"/>
        <path id="Shape-4" data-name="Shape" d="M22.721,44.848a14.3,14.3,0,0,1-2.547-4.6l-2.113-6.339a5.707,5.707,0,1,1,0-11.414V16.738a8.678,8.678,0,0,0,4.415-3,9.829,9.829,0,0,1-4.358-4.15,7.633,7.633,0,0,1-5.716,7.15V22.5a5.707,5.707,0,1,0,0,11.414l2.113,6.339a14.3,14.3,0,0,0,2.547,4.6,19.388,19.388,0,0,0,3.83,3.339l-.019.019a9.142,9.142,0,0,1-3.509,5.735h5.66a9.142,9.142,0,0,0,3.509-5.735l.019-.019a19.388,19.388,0,0,1-3.83-3.343Z" transform="translate(5.936 6.62)" fill="#783e22"/>
        <path id="Shape-5" data-name="Shape" d="M41.612,9.982A27.1,27.1,0,0,0,21.973,2c-.815.013-1.617.077-2.411.162A27.225,27.225,0,0,1,43.933,29.187V50.656a9.117,9.117,0,0,1-.283,2.283h5.66a9.118,9.118,0,0,0,.283-2.283V29.187a27.061,27.061,0,0,0-7.98-19.205Z" transform="translate(17.343 -0.112)" fill="#783e22"/>
        <rect id="Rectangle-path" width="72" height="12" rx="2" transform="translate(40 99.196)" fill="#7f8e94"/>
        <path id="Shape-6" data-name="Shape" d="M59.66,54H54a3.784,3.784,0,0,1,3.773,3.773v3.773A3.784,3.784,0,0,1,54,65.319h5.66a3.784,3.784,0,0,0,3.773-3.773V57.773A3.784,3.784,0,0,0,59.66,54Z" transform="translate(47.875 45.991)" fill="#545c60"/>
        <path id="Shape-7" data-name="Shape" d="M29.017,41.086a19.794,19.794,0,0,1-9.188-.943C15,38.426,15,36.332,15,36.332c.226-.189.434-.34.641-.528h.019a9.142,9.142,0,0,0,3.509-5.735l.019-.019c.358.264.736.509,1.113.736a12.778,12.778,0,0,0,6.131,2.17,7.425,7.425,0,0,0,1.868-.264,5.513,5.513,0,0,0-.057,1.679Z" transform="translate(13.299 24.757)" fill="#dfc49c"/>
        <path id="Shape-8" data-name="Shape" d="M52.6,28.21a5.7,5.7,0,0,1-5.716,5.7l-2.113,6.339a14,14,0,0,1-2.566,4.6,14.582,14.582,0,0,1-1.321,1.358h-2.32A5.66,5.66,0,0,0,33,50.83a7.425,7.425,0,0,1-1.868.264A12.778,12.778,0,0,1,25,48.925c-.377-.226-.755-.472-1.113-.736a19.388,19.388,0,0,1-3.83-3.339,14.3,14.3,0,0,1-2.547-4.6L15.4,33.908a5.707,5.707,0,0,1,0-11.414V16.74a7.633,7.633,0,0,0,5.716-7.15s2.868,7.15,18.62,7.15c4.283,0,7.15,5.754,7.15,5.754A5.7,5.7,0,0,1,52.6,28.21Z" transform="translate(8.595 6.618)" fill="#ffe0b2"/>
        <path id="Shape-9" data-name="Shape" d="M33.812,46.208h2.32a14.581,14.581,0,0,0,1.321-1.358,14,14,0,0,0,2.566-4.6l2.113-6.339a5.707,5.707,0,0,0,0-11.414s-2.868-5.754-7.15-5.754c-15.753,0-18.62-7.15-18.62-7.15a6.861,6.861,0,0,1-1.3,4.15,28.734,28.734,0,0,0,14.262,3c4.283,0,7.15,5.754,7.15,5.754a5.707,5.707,0,1,1,0,11.414L34.36,40.243a14,14,0,0,1-2.566,4.6A14.58,14.58,0,0,1,30.473,46.2Z" transform="translate(13.352 6.618)" fill="#dfc49c"/>
        <path id="Shape-10" data-name="Shape" d="M89.879,35.3l-4.7,40.863H26.736L22.812,42.017,22.038,35.3a5.513,5.513,0,0,1,.057-1.679A5.66,5.66,0,0,1,27.66,29h56.6a5.66,5.66,0,0,1,5.622,6.3Z" transform="translate(19.504 23.826)" fill="#9e9e9e"/>
        <path id="Shape-11" data-name="Shape" d="M57.66,29H52a5.66,5.66,0,0,1,5.622,6.3l-4.7,40.863h5.66l4.7-40.863A5.66,5.66,0,0,0,57.66,29Z" transform="translate(46.101 23.826)" fill="#707070"/>
        <ellipse id="Oval" cx="9.5" cy="9" rx="9.5" ry="9" transform="translate(66 70.196)" fill="#f5f5f5"/>
        <g id="Grupo_1230848" data-name="Grupo 1230848">
          <path id="Shape-12" data-name="Shape" d="M107.534,99.1H106.8l4.456-38.756a7.546,7.546,0,0,0-7.5-8.408H68.8c0-.132.023-.262.023-.4V30.075A29.134,29.134,0,0,0,39.288,1,29.57,29.57,0,0,0,10.659,30.792V51.544a11.919,11.919,0,0,0,9.372,11.627l-.458.172A29.742,29.742,0,0,0,.057,89.359C.021,90.072,0,90.8,0,91.556v15.093A7.546,7.546,0,0,0,7.546,114.2h99.988a5.66,5.66,0,0,0,5.66-5.66v-3.773a5.66,5.66,0,0,0-5.66-5.66Zm-.943-42.121a3.7,3.7,0,0,1,.921,2.93L103.006,99.1H47.919L44.183,66.6v-.015l-.768-6.678a3.692,3.692,0,0,1,.921-2.924,3.788,3.788,0,0,1,2.828-1.27h56.6A3.788,3.788,0,0,1,106.591,56.981ZM49.349,51.267c-.189.217-.394.443-.624.672h-1.56a7.559,7.559,0,0,0-5.646,2.537,7.461,7.461,0,0,0-1.37,2.317c-.143.013-.289.032-.417.032a10.967,10.967,0,0,1-5.148-1.887,19.509,19.509,0,0,1-4.475-3.673A12.383,12.383,0,0,1,27.9,47.271l-2.113-6.337A1.887,1.887,0,0,0,24,39.644,3.82,3.82,0,1,1,24,32a1.887,1.887,0,0,0,1.887-1.887V25.683a9.859,9.859,0,0,0,4.781-4.413c2.724,2.317,7.965,4.973,17.67,4.973,2.534,0,4.8,3.4,5.471,4.716a1.887,1.887,0,0,0,1.687,1.045,3.82,3.82,0,1,1,0,7.641,1.887,1.887,0,0,0-1.788,1.29l-2.111,6.333A12.178,12.178,0,0,1,49.349,51.267ZM33.537,58.683A13.64,13.64,0,0,0,39.7,60.6l.519,4.513a17.99,17.99,0,0,1-6.456-.987,9.029,9.029,0,0,1-3.068-1.632,11.565,11.565,0,0,0,2.845-3.807ZM14.432,51.542V30.79A25.78,25.78,0,0,1,39.342,4.774a25.363,25.363,0,0,1,25.706,25.3V51.542c0,.136-.017.264-.023.4H53.5a16.224,16.224,0,0,0,1.658-3.479l1.726-5.177a7.593,7.593,0,0,0-.257-14.972c-1.158-1.887-4.1-5.848-8.3-5.848-14.027,0-16.856-5.941-16.87-5.965a1.887,1.887,0,0,0-3.637.7,5.631,5.631,0,0,1-4.288,5.32,1.887,1.887,0,0,0-1.428,1.83v4.105a7.592,7.592,0,0,0,.485,14.821l1.728,5.182a16.136,16.136,0,0,0,2.888,5.214,20.186,20.186,0,0,0,3.13,2.89A7.59,7.59,0,0,1,28.2,59.673H22.563a8.142,8.142,0,0,1-8.131-8.131ZM3.773,106.649V91.556q0-1.024.051-2A25.965,25.965,0,0,1,20.9,66.874l6.456-2.422A11.012,11.012,0,0,0,32.5,67.68a21.847,21.847,0,0,0,7.2,1.222c.313,0,.623-.049.943-.062L44.123,99.1h-.732a5.66,5.66,0,0,0-5.66,5.66v3.773a5.6,5.6,0,0,0,.347,1.887h-21.1V89.67a1.887,1.887,0,1,0-3.773,0v20.752H7.546a3.773,3.773,0,0,1-3.773-3.773Zm105.648,1.887a1.887,1.887,0,0,1-1.887,1.887H43.391a1.887,1.887,0,0,1-1.887-1.887v-3.773a1.887,1.887,0,0,1,1.887-1.887h64.143a1.887,1.887,0,0,1,1.887,1.887Z" transform="translate(0 -0.999)"/>
          <path id="Shape-13" data-name="Shape" d="M45.319,59.639A11.319,11.319,0,1,0,34,48.319,11.319,11.319,0,0,0,45.319,59.639Zm0-18.866a7.546,7.546,0,1,1-7.546,7.546A7.546,7.546,0,0,1,45.319,40.773Z" transform="translate(30.143 30.919)"/>
        </g>
      </g>
    </g>
  </g>
</svg>
