<svg xmlns="http://www.w3.org/2000/svg" width="51.522" height="47.503" viewBox="0 0 51.522 47.503">
  <g id="graphic-design_525578_1_" data-name="graphic-design_525578 (1)" transform="translate(0 -19.972)">
    <path id="Trazado_900510" data-name="Trazado 900510" d="M199.817,342.281H185.711l2.113-11.789H197.7Z" transform="translate(-167.023 -279.273)" fill="#aeafb0"/>
    <g id="Grupo_1212403" data-name="Grupo 1212403" transform="translate(19.882 51.219)" opacity="0.2">
      <path id="Trazado_900511" data-name="Trazado 900511" d="M208.224,330.492h-9.879l-.773,4.313H209Z" transform="translate(-197.572 -330.492)"/>
    </g>
    <path id="Trazado_900512" data-name="Trazado 900512" d="M57.037,59.524H9.195a1.043,1.043,0,0,1-1.04-1.04V28.762a1.043,1.043,0,0,1,1.04-1.04H57.037a1.043,1.043,0,0,1,1.04,1.04V58.484A1.043,1.043,0,0,1,57.037,59.524Z" transform="translate(-7.334 -6.97)" fill="#fff"/>
    <g id="Grupo_1212404" data-name="Grupo 1212404" transform="translate(0.8 20.752)">
      <path id="Trazado_900513" data-name="Trazado 900513" d="M7.952,289.64v4.406a1.043,1.043,0,0,0,1.04,1.04H56.834a1.043,1.043,0,0,0,1.04-1.04V289.64Z" transform="translate(-7.952 -263.283)" fill="#727171"/>
      <path id="Trazado_900514" data-name="Trazado 900514" d="M57.875,28.762a1.043,1.043,0,0,0-1.04-1.04H8.993a1.043,1.043,0,0,0-1.04,1.04v3.892H57.875Z" transform="translate(-7.953 -27.722)" fill="#727171"/>
    </g>
    <rect id="Rectángulo_408894" data-name="Rectángulo 408894" width="7.442" height="11.371" transform="translate(39.157 30.739)" fill="#ffdb4c"/>
    <path id="Trazado_900515" data-name="Trazado 900515" d="M79.449,189.257l1.183-.786a.52.52,0,0,0,.147-.719l-.283-.429a.52.52,0,0,1,.389-.8l3.062-.27a.52.52,0,0,1,.565.55l-.21,3.378a.52.52,0,0,1-.876.346l-.167-.158a.52.52,0,0,0-.713,0l-1.253,1.178a.52.52,0,0,1-.759-.051l-1.2-1.472A.52.52,0,0,1,79.449,189.257Z" transform="translate(-71.245 -149.542)" fill="#48c2e0"/>
    <path id="Trazado_900516" data-name="Trazado 900516" d="M57.037,451.329H9.195a1.04,1.04,0,0,1-1.04-1.04v-1.607a1.04,1.04,0,0,1,1.04-1.04H57.037a1.04,1.04,0,0,1,1.04,1.04v1.607A1.04,1.04,0,0,1,57.037,451.329Z" transform="translate(-7.334 -384.635)" fill="#332e2f"/>
    <g id="Grupo_1212405" data-name="Grupo 1212405" transform="translate(19.676 30.351)">
      <path id="Trazado_900517" data-name="Trazado 900517" d="M198.147,126.245h-2.094a.52.52,0,0,1-.52-.52v-2.094a.52.52,0,0,1,.52-.52h2.094a.52.52,0,0,1,.52.52v2.094A.52.52,0,0,1,198.147,126.245Z" transform="translate(-195.533 -123.111)" fill="#48c2e0"/>
      <path id="Trazado_900518" data-name="Trazado 900518" d="M198.147,211.969h-2.094a.52.52,0,0,1-.52-.52v-2.094a.52.52,0,0,1,.52-.52h2.094a.52.52,0,0,1,.52.52v2.094A.52.52,0,0,1,198.147,211.969Z" transform="translate(-195.533 -200.209)" fill="#48c2e0"/>
      <path id="Trazado_900519" data-name="Trazado 900519" d="M285.7,126.245h-2.094a.52.52,0,0,1-.52-.52v-2.094a.52.52,0,0,1,.52-.52H285.7a.52.52,0,0,1,.52.52v2.094A.52.52,0,0,1,285.7,126.245Z" transform="translate(-274.278 -123.111)" fill="#48c2e0"/>
      <path id="Trazado_900520" data-name="Trazado 900520" d="M285.7,211.969h-2.094a.52.52,0,0,1-.52-.52v-2.094a.52.52,0,0,1,.52-.52H285.7a.52.52,0,0,1,.52.52v2.094A.52.52,0,0,1,285.7,211.969Z" transform="translate(-274.278 -200.209)" fill="#48c2e0"/>
    </g>
    <path id="Trazado_900521" data-name="Trazado 900521" d="M49.7,19.972H1.86a1.822,1.822,0,0,0-1.82,1.82v3.644a.772.772,0,0,0,0,.495V41.237a.78.78,0,1,0,1.56,0V26.464H49.963V46.329H1.6V45.221a.78.78,0,1,0-1.56,0v6.293a1.822,1.822,0,0,0,1.82,1.82H19.63l-1.594,8.895H1.86a1.822,1.822,0,0,0-1.82,1.82v1.607a1.822,1.822,0,0,0,1.82,1.82H49.7a1.822,1.822,0,0,0,1.82-1.82V64.048a1.822,1.822,0,0,0-1.82-1.82H33.446l-1.594-8.895h8.377a.78.78,0,1,0,0-1.56H1.86a.263.263,0,0,1-.26-.26V47.888H49.963v3.626a.263.263,0,0,1-.26.26H44.031a.78.78,0,1,0,0,1.56H49.7a1.822,1.822,0,0,0,1.82-1.82V21.792A1.822,1.822,0,0,0,49.7,19.972Zm.26,44.076v1.607a.26.26,0,0,1-.26.26H1.86a.26.26,0,0,1-.26-.26V64.048a.26.26,0,0,1,.26-.26H49.7A.26.26,0,0,1,49.963,64.048Zm-19.7-10.714,1.594,8.895H19.62l1.594-8.895ZM1.6,24.9V21.792a.263.263,0,0,1,.26-.26H49.7a.263.263,0,0,1,.26.26V24.9Z" transform="translate(0)"/>
    <path id="Trazado_900522" data-name="Trazado 900522" d="M188.563,123.988a.78.78,0,0,0-.78.78V127.9a.78.78,0,0,0,.78.78H191.7a.78.78,0,0,0,.78-.78v-.787h4.117v.787a.78.78,0,0,0,.78.78h3.134a.78.78,0,0,0,.78-.78v-3.134a.78.78,0,0,0-.78-.78h-.787v-3.933h.787a.78.78,0,0,0,.78-.78v-3.134a.78.78,0,0,0-.78-.78h-3.134a.78.78,0,0,0-.78.78v.787h-4.117v-.787a.78.78,0,0,0-.78-.78h-3.134a.78.78,0,0,0-.78.78v3.134a.78.78,0,0,0,.78.78h.787v3.933Zm2.354,3.134h-1.574v-1.574h1.574Zm8.811,0h-1.574v-1.574h1.574Zm-1.574-10.2h1.574v1.574h-1.574Zm-8.811,0h1.574v1.574h-1.574Zm1.567,3.134h.787a.78.78,0,0,0,.78-.78v-.787h4.117v.787a.78.78,0,0,0,.78.78h.787v3.933h-.787a.78.78,0,0,0-.78.78v.787h-4.117v-.787a.78.78,0,0,0-.78-.78h-.787Z" transform="translate(-168.886 -85.79)"/>
    <path id="Trazado_900523" data-name="Trazado 900523" d="M389.6,132.151a.78.78,0,0,0,.78-.78V120a.78.78,0,0,0-.78-.78h-7.442a.78.78,0,0,0-.78.78v11.372a.78.78,0,0,0,.78.78Zm-.78-11.372v9.812h-5.882v-1.909h4.093a.78.78,0,1,0,0-1.56h-4.093V124.8h4.093a.78.78,0,1,0,0-1.56h-4.093v-2.457Z" transform="translate(-343 -89.26)"/>
    <path id="Trazado_900524" data-name="Trazado 900524" d="M69.042,182.029a.78.78,0,0,0,.166.609l1.913,2.349a.779.779,0,0,0,.541.285l.064,0a.779.779,0,0,0,.516-.2l1.546-1.365.75.709a.78.78,0,0,0,1.314-.518l.317-5.089a.78.78,0,0,0-.847-.825l-4.531.4a.78.78,0,0,0-.583,1.206l.619.94-1.445.96A.782.782,0,0,0,69.042,182.029Zm3.514-1.7-.328-.5,2.327-.205-.157,2.522-.057-.054a.78.78,0,0,0-1.052-.018l-1.471,1.3-.858-1.053,1.376-.914A.78.78,0,0,0,72.556,180.327Z" transform="translate(-62.086 -142.114)"/>
  </g>
</svg>
