<svg xmlns="http://www.w3.org/2000/svg" xmlns:xlink="http://www.w3.org/1999/xlink" width="118" height="118" viewBox="0 0 118 118">
  <defs>
    <filter id="Trazado_896985" x="0" y="0" width="118" height="118" filterUnits="userSpaceOnUse">
      <feOffset dy="3" input="SourceAlpha"/>
      <feGaussianBlur stdDeviation="3" result="blur"/>
      <feFlood flood-opacity="0.161"/>
      <feComposite operator="in" in2="blur"/>
      <feComposite in="SourceGraphic"/>
    </filter>
    <clipPath id="clip-path">
      <path id="path1716" d="M0-682.665H66.585v66.585H0Z" transform="translate(0 682.665)"/>
    </clipPath>
  </defs>
  <g id="Grupo_1230926" data-name="Grupo 1230926" transform="translate(-201.802 -14953.424)">
    <g id="Grupo_1212503" data-name="Grupo 1212503" transform="translate(0.949 -10392.836)">
      <g id="Grupo_1212200" data-name="Grupo 1212200" transform="translate(3.962 7417.26)">
        <g id="Grupo_1200012" data-name="Grupo 1200012" transform="translate(-0.949 13650.111)">
          <g id="Grupo_1198723" data-name="Grupo 1198723" transform="translate(0.95 -182.434)">
            <g id="Grupo_1198139" data-name="Grupo 1198139" transform="translate(-129 615.322)">
              <g id="Grupo_1111318" data-name="Grupo 1111318" transform="translate(334.891 3852)">
                <g id="Grupo_1109826" data-name="Grupo 1109826" transform="translate(0)">
                  <g id="Grupo_1098742" data-name="Grupo 1098742" transform="translate(0 0)">
                    <g transform="matrix(1, 0, 0, 1, -9, -6)" filter="url(#Trazado_896985)">
                      <g id="Trazado_896985-2" data-name="Trazado 896985" transform="translate(9 6)" fill="#d0c110" opacity="0.859">
                        <path d="M 49.99993515014648 99.5 C 43.31726837158203 99.5 36.83476257324219 98.19129943847656 30.73248100280762 95.61025238037109 C 24.83812141418457 93.11714172363281 19.54434776306152 89.54795837402344 14.99820137023926 85.00179290771484 C 10.45204162597656 80.45565032958984 6.88285493850708 75.16187286376953 4.389748573303223 69.26751708984375 C 1.808695197105408 63.16523742675781 0.5000017881393433 56.6827278137207 0.5000017881393433 50.00006103515625 C 0.5000017881393433 43.31726455688477 1.808695197105408 36.83475494384766 4.389748573303223 30.73247528076172 C 6.88285493850708 24.83811569213867 10.45204162597656 19.54434204101562 14.99820137023926 14.99819660186768 C 19.54434776306152 10.45203590393066 24.83812141418457 6.88284969329834 30.73248100280762 4.389742851257324 C 36.83476257324219 1.808689475059509 43.31726837158203 0.4999961853027344 49.99993515014648 0.4999961853027344 C 56.68260192871094 0.4999961853027344 63.16510772705078 1.808689475059509 69.26738739013672 4.389742851257324 C 75.16175079345703 6.88284969329834 80.45552062988281 10.45203590393066 85.00167083740234 14.99819660186768 C 89.54782867431641 19.54434204101562 93.11701202392578 24.83811569213867 95.61012268066406 30.73247528076172 C 98.19117736816406 36.83475494384766 99.49987030029297 43.31726455688477 99.49987030029297 49.99993133544922 C 99.49987030029297 56.6827278137207 98.19117736816406 63.16523742675781 95.61012268066406 69.26751708984375 C 93.11701202392578 75.16187286376953 89.54782867431641 80.45565032958984 85.00167083740234 85.00179290771484 C 80.45552062988281 89.54795837402344 75.16175079345703 93.11714172363281 69.26738739013672 95.61025238037109 C 63.16510772705078 98.19129943847656 56.68260192871094 99.5 49.99993515014648 99.5 Z" stroke="none"/>
                        <path d="M 49.99993515014648 0.9999923706054688 C 43.38454818725586 0.9999923706054688 36.96757507324219 2.29541015625 30.92725372314453 4.850250244140625 C 25.09249877929688 7.318145751953125 19.85213470458984 10.85135650634766 15.35174560546875 15.35174560546875 C 10.85136413574219 19.85212707519531 7.318145751953125 25.09249114990234 4.850257873535156 30.92724609375 C 2.295417785644531 36.96757125854492 1 43.38454437255859 1 50.00006103515625 C 1 56.61544799804688 2.295417785644531 63.03242111206055 4.850257873535156 69.07273864746094 C 7.318145751953125 74.90750122070312 10.85136413574219 80.14786529541016 15.35174560546875 84.64824676513672 C 19.85213470458984 89.14863586425781 25.09249877929688 92.68184661865234 30.92725372314453 95.14974212646484 C 36.96757507324219 97.70458221435547 43.38454818725586 99 49.99993515014648 99 C 56.61532211303711 99 63.03229522705078 97.70458221435547 69.07261657714844 95.14974212646484 C 74.90737915039062 92.68184661865234 80.14773559570312 89.14863586425781 84.64812469482422 84.64824676513672 C 89.14850616455078 80.14786529541016 92.68172454833984 74.90750122070312 95.14961242675781 69.07273864746094 C 97.70445251464844 63.03242111206055 98.99987030029297 56.61544799804688 98.99987030029297 49.99993133544922 C 98.99987030029297 43.38454437255859 97.70445251464844 36.96757125854492 95.14961242675781 30.92724609375 C 92.68172454833984 25.09249114990234 89.14850616455078 19.85212707519531 84.64812469482422 15.35174560546875 C 80.14773559570312 10.85135650634766 74.90737915039062 7.318145751953125 69.07261657714844 4.850250244140625 C 63.03229522705078 2.29541015625 56.61532211303711 0.9999923706054688 49.99993515014648 0.9999923706054688 M 49.99993515014648 -7.62939453125e-06 C 77.6141357421875 -7.62939453125e-06 99.99987030029297 22.38572692871094 99.99987030029297 49.99993133544922 L 99.99987030029297 50.00006103515625 C 99.99987030029297 77.61426544189453 77.6141357421875 100 49.99993515014648 100 C 22.38573455810547 100 0 77.61426544189453 0 50.00006103515625 L 0 49.99993133544922 C 0 22.38572692871094 22.38573455810547 -7.62939453125e-06 49.99993515014648 -7.62939453125e-06 Z" stroke="none" fill="#fff"/>
                      </g>
                    </g>
                    <g id="Rectángulo_400907" data-name="Rectángulo 400907" transform="translate(0)" fill="none" stroke="#fff" stroke-width="1">
                      <rect width="100" height="100" rx="50" stroke="none"/>
                      <rect x="0.5" y="0.5" width="99" height="99" rx="49.5" fill="none"/>
                    </g>
                  </g>
                </g>
              </g>
            </g>
          </g>
        </g>
      </g>
    </g>
    <g id="g1710" transform="translate(227.51 15655.797)">
      <g id="g1712" transform="translate(0 -682.665)">
        <g id="g1714" clip-path="url(#clip-path)">
          <g id="g1720" transform="translate(20.233 1.3)">
            <path id="path1722" d="M-152.886-87.446l.062-.117a.293.293,0,0,1,.546.069c.314,1.416,1.221,3.991,3.653,3.991h3.766a2.305,2.305,0,0,0,2.146-3.153c-1.576-3.96-5.315-10.242-13.189-10.242-7.173,0-11.414,4.046-13.387,9.9a2.306,2.306,0,0,0,2.19,3.034h8.29a6.7,6.7,0,0,0,5.923-3.487" transform="translate(169.41 96.897)" fill="#ffc135"/>
          </g>
          <g id="g1724" transform="translate(12.889 52.391)">
            <path id="path1726" d="M-349.58-55.894h-34.756a3.026,3.026,0,0,1-3.026-3.026v-3.015h40.808v3.015a3.026,3.026,0,0,1-3.026,3.026" transform="translate(387.362 61.935)" fill="#bdd3dd"/>
          </g>
          <g id="g1728" transform="translate(11.277 27.697)">
            <path id="path1730" d="M-377.378-228.484H-414.92a1.633,1.633,0,0,1-1.633-1.633l-1.612-21.428a1.633,1.633,0,0,1,1.633-1.633h40.782a1.633,1.633,0,0,1,1.633,1.633l-1.612,21.428a1.647,1.647,0,0,1-1.65,1.633" transform="translate(418.164 253.178)" fill="#5c90ae"/>
          </g>
          <g id="g1732" transform="translate(11.277 27.697)">
            <path id="path1734" d="M-377.378-228.484H-414.92a1.633,1.633,0,0,1-1.633-1.633l-1.612-21.428a1.633,1.633,0,0,1,1.633-1.633h40.782a1.633,1.633,0,0,1,1.633,1.633l-1.612,21.428A1.647,1.647,0,0,1-377.378-228.484Z" transform="translate(418.164 253.178)" fill="none" stroke="#000" stroke-linecap="round" stroke-linejoin="round" stroke-miterlimit="10" stroke-width="1.3"/>
          </g>
          <g id="g1736" transform="translate(11.277 27.697)">
            <path id="path1738" d="M-377.378-228.484H-414.92a1.633,1.633,0,0,1-1.633-1.633l-1.612-21.428a1.633,1.633,0,0,1,1.633-1.633h40.782a1.633,1.633,0,0,1,1.633,1.633l-1.612,21.428A1.647,1.647,0,0,1-377.378-228.484Z" transform="translate(418.164 253.178)" fill="none" stroke="#000" stroke-linecap="round" stroke-linejoin="round" stroke-miterlimit="10" stroke-width="1.3"/>
          </g>
          <g id="g1740" transform="translate(11.277 27.697)">
            <path id="path1742" d="M-377.378-228.484H-414.92a1.633,1.633,0,0,1-1.633-1.633l-1.612-21.428a1.633,1.633,0,0,1,1.633-1.633h40.782a1.633,1.633,0,0,1,1.633,1.633l-1.612,21.428A1.647,1.647,0,0,1-377.378-228.484Z" transform="translate(418.164 253.178)" fill="none" stroke="#000" stroke-linecap="round" stroke-linejoin="round" stroke-miterlimit="10" stroke-width="1.3"/>
          </g>
          <g id="g1744" transform="translate(11.277 27.697)">
            <path id="path1746" d="M-377.378-228.484H-414.92a1.633,1.633,0,0,1-1.633-1.633l-1.612-21.428a1.633,1.633,0,0,1,1.633-1.633h40.782a1.633,1.633,0,0,1,1.633,1.633l-1.612,21.428A1.647,1.647,0,0,1-377.378-228.484Z" transform="translate(418.164 253.178)" fill="none" stroke="#000" stroke-linecap="round" stroke-linejoin="round" stroke-miterlimit="10" stroke-width="1.3"/>
          </g>
          <g id="g1748" transform="translate(5.707 37.74)">
            <path id="path1750" d="M-95.22-191.452h-4.346a5.945,5.945,0,0,1-5.945-5.945v-2.47a11.284,11.284,0,0,1,2.142-6.407l4.06-5.87.979,13.017a1.633,1.633,0,0,0,1.633,1.633h-1.633v2.931a3.11,3.11,0,0,0,3.11,3.11" transform="translate(105.512 212.143)" fill="#f574a9"/>
          </g>
          <g id="g1752" transform="translate(50.586 37.742)">
            <path id="path1754" d="M0-191.434H4.346a5.945,5.945,0,0,0,5.945-5.945v-2.47a11.284,11.284,0,0,0-2.143-6.407l-4.043-5.868-.979,13.015a1.647,1.647,0,0,1-1.65,1.633H3.11v2.931A3.11,3.11,0,0,1,0-191.434" transform="translate(0 212.123)" fill="#f574a9"/>
          </g>
          <g id="g1756" transform="translate(5.707 37.74)">
            <path id="path1758" d="M-95.22-191.452h-4.346a5.945,5.945,0,0,1-5.945-5.945v-2.47a11.284,11.284,0,0,1,2.142-6.407l4.06-5.87.979,13.017a1.633,1.633,0,0,0,1.633,1.633h-1.633v2.931A3.11,3.11,0,0,0-95.22-191.452Z" transform="translate(105.512 212.143)" fill="none" stroke="#000" stroke-linecap="round" stroke-linejoin="round" stroke-miterlimit="10" stroke-width="1.3"/>
          </g>
          <g id="g1760" transform="translate(50.586 37.742)">
            <path id="path1762" d="M0-191.434H4.346a5.945,5.945,0,0,0,5.945-5.945v-2.47a11.284,11.284,0,0,0-2.143-6.407l-4.043-5.868-.979,13.015a1.647,1.647,0,0,1-1.65,1.633H3.11v2.931A3.11,3.11,0,0,1,0-191.434Z" transform="translate(0 212.123)" fill="none" stroke="#000" stroke-linecap="round" stroke-linejoin="round" stroke-miterlimit="10" stroke-width="1.3"/>
          </g>
          <g id="g1764" transform="translate(22.291 10.475)">
            <path id="path1766" d="M-207.347-48.845v3.724a11.479,11.479,0,0,1-3.462,8.22h-15.551a11.168,11.168,0,0,1-3.4-8.035v-3.908a11.159,11.159,0,0,1,.1-1.52c.049,0,.1,0,.15,0h8.29a6.7,6.7,0,0,0,5.924-3.487c.02-.039.04-.078.062-.116a.293.293,0,0,1,.547.069c.314,1.415,1.22,3.99,3.653,3.99h3.633c.032.35.049.7.049,1.06" transform="translate(229.757 54.124)" fill="#ffdad5"/>
          </g>
          <g id="g1768" transform="translate(22.291 10.475)">
            <path id="path1770" d="M-207.347-48.845v3.724a11.479,11.479,0,0,1-3.462,8.22h-15.551a11.168,11.168,0,0,1-3.4-8.035v-3.908a11.159,11.159,0,0,1,.1-1.52c.049,0,.1,0,.15,0h8.29a6.7,6.7,0,0,0,5.924-3.487c.02-.039.04-.078.062-.116a.293.293,0,0,1,.547.069c.314,1.415,1.22,3.99,3.653,3.99h3.633C-207.364-49.555-207.347-49.2-207.347-48.845Z" transform="translate(229.757 54.124)" fill="none" stroke="#000" stroke-linecap="round" stroke-linejoin="round" stroke-miterlimit="10" stroke-width="1.3"/>
          </g>
          <g id="g1772" transform="translate(20.233 1.3)">
            <path id="path1774" d="M-152.886-87.446l.062-.117a.293.293,0,0,1,.546.069c.314,1.416,1.221,3.991,3.653,3.991h3.766a2.305,2.305,0,0,0,2.146-3.153c-1.576-3.96-5.315-10.242-13.189-10.242-7.173,0-11.414,4.046-13.387,9.9a2.306,2.306,0,0,0,2.19,3.034h8.29A6.7,6.7,0,0,0-152.886-87.446Z" transform="translate(169.41 96.897)" fill="none" stroke="#000" stroke-linecap="round" stroke-linejoin="round" stroke-miterlimit="10" stroke-width="1.3"/>
          </g>
          <g id="g1776" transform="translate(20.233 1.3)">
            <path id="path1778" d="M-152.886-87.446l.062-.117a.293.293,0,0,1,.546.069c.314,1.416,1.221,3.991,3.653,3.991h3.766a2.305,2.305,0,0,0,2.146-3.153c-1.576-3.96-5.315-10.242-13.189-10.242-7.173,0-11.414,4.046-13.387,9.9a2.306,2.306,0,0,0,2.19,3.034h8.29A6.7,6.7,0,0,0-152.886-87.446Z" transform="translate(169.41 96.897)" fill="none" stroke="#000" stroke-linecap="round" stroke-linejoin="round" stroke-miterlimit="10" stroke-width="1.3"/>
          </g>
          <g id="g1780" transform="translate(32.418 18.814)">
            <path id="path1782" d="M-12.45,0-13.8,3.695h2.115" transform="translate(13.796)" fill="none" stroke="#000" stroke-linecap="round" stroke-linejoin="round" stroke-miterlimit="10" stroke-width="1.3"/>
          </g>
          <g id="g1784" transform="translate(29.734 37.654)">
            <path id="path1786" d="M-73.068-32a3.728,3.728,0,0,1-3.949,3.458A3.728,3.728,0,0,1-80.965-32a3.728,3.728,0,0,1,3.949-3.458A3.728,3.728,0,0,1-73.068-32" transform="translate(80.965 35.456)" fill="#eaf0f0"/>
          </g>
          <g id="g1788" transform="translate(29.734 37.654)">
            <path id="path1790" d="M-73.068-32a3.728,3.728,0,0,1-3.949,3.458A3.728,3.728,0,0,1-80.965-32a3.728,3.728,0,0,1,3.949-3.458A3.728,3.728,0,0,1-73.068-32Z" transform="translate(80.965 35.456)" fill="none" stroke="#000" stroke-linecap="round" stroke-linejoin="round" stroke-miterlimit="10" stroke-width="1.3"/>
          </g>
          <g id="g1792" transform="translate(1.3 58.432)">
            <path id="path1794" d="M-348.322-63.4h22.912a3.426,3.426,0,0,0,3.426-3.426,3.426,3.426,0,0,0-3.426-3.426h-57.132a3.426,3.426,0,0,0-3.426,3.426,3.426,3.426,0,0,0,3.426,3.426h34.22Z" transform="translate(385.968 70.253)" fill="#eaf0f0"/>
          </g>
          <g id="g1796" transform="translate(1.3 58.432)">
            <path id="path1798" d="M-348.322-63.4h22.912a3.426,3.426,0,0,0,3.426-3.426,3.426,3.426,0,0,0-3.426-3.426h-57.132a3.426,3.426,0,0,0-3.426,3.426,3.426,3.426,0,0,0,3.426,3.426h22.776" transform="translate(385.968 70.253)" fill="none" stroke="#000" stroke-linecap="round" stroke-linejoin="round" stroke-miterlimit="10" stroke-width="1.3"/>
          </g>
          <g id="g1800" transform="translate(33.293 65.285)">
            <path id="path1802" d="M0,0H0" fill="none" stroke="#000" stroke-linecap="round" stroke-linejoin="round" stroke-miterlimit="10" stroke-width="1.3"/>
          </g>
        </g>
      </g>
    </g>
  </g>
</svg>
