<svg xmlns="http://www.w3.org/2000/svg" xmlns:xlink="http://www.w3.org/1999/xlink" width="88" height="88" viewBox="0 0 88 88">
  <defs>
    <filter id="Trazado_896985" x="0" y="0" width="88" height="88" filterUnits="userSpaceOnUse">
      <feOffset dy="3" input="SourceAlpha"/>
      <feGaussianBlur stdDeviation="3" result="blur"/>
      <feFlood flood-opacity="0.161"/>
      <feComposite operator="in" in2="blur"/>
      <feComposite in="SourceGraphic"/>
    </filter>
  </defs>
  <g id="Grupo_1212748" data-name="Grupo 1212748" transform="translate(-196.967 -9157.271)">
    <g id="Grupo_1212198" data-name="Grupo 1212198" transform="translate(205.967 9163.27)">
      <g id="Grupo_1200012" data-name="Grupo 1200012" transform="translate(0 0)">
        <g id="Grupo_1198723" data-name="Grupo 1198723" transform="translate(0 0)">
          <g id="Grupo_1198139" data-name="Grupo 1198139">
            <g id="Grupo_1111318" data-name="Grupo 1111318">
              <g id="Grupo_1109826" data-name="Grupo 1109826" transform="translate(0)">
                <g id="Grupo_1098742" data-name="Grupo 1098742">
                  <g transform="matrix(1, 0, 0, 1, -9, -6)" filter="url(#Trazado_896985)">
                    <g id="Trazado_896985-2" data-name="Trazado 896985" transform="translate(9 6)" fill="#d0c110" opacity="0.859">
                      <path d="M 34.99995040893555 69.49998474121094 C 30.34226989746094 69.49998474121094 25.82417106628418 68.58788299560547 21.57117080688477 66.78900909423828 C 17.4630012512207 65.05139923095703 13.77338027954102 62.56376266479492 10.6048002243042 59.39518356323242 C 7.436220645904541 56.22661209106445 4.948580265045166 52.53699111938477 3.210970401763916 48.4288215637207 C 1.412100434303284 44.17582321166992 0.5000004172325134 39.65772247314453 0.5000004172325134 35.00004196166992 C 0.5000004172325134 30.34233283996582 1.412100434303284 25.82422256469727 3.210970401763916 21.57120323181152 C 4.948580265045166 17.46302223205566 7.436220645904541 13.77339267730713 10.6048002243042 10.60481262207031 C 13.77338027954102 7.436232566833496 17.46298980712891 4.948582172393799 21.57117080688477 3.210972309112549 C 25.82417106628418 1.412102341651917 30.34226036071777 0.500002384185791 34.99995040893555 0.500002384185791 C 39.65763092041016 0.500002384185791 44.17573165893555 1.412102341651917 48.42873001098633 3.210972309112549 C 52.53689956665039 4.948582172393799 56.22652053833008 7.436222553253174 59.39509963989258 10.60480213165283 C 62.56367874145508 13.77338218688965 65.05132293701172 17.46299171447754 66.78893280029297 21.57116317749023 C 68.58779907226562 25.82416152954102 69.49990081787109 30.34226226806641 69.49990081787109 34.99994277954102 C 69.49990081787109 39.65765380859375 68.58779907226562 44.17576217651367 66.78893280029297 48.42878341674805 C 65.05132293701172 52.53696060180664 62.56367874145508 56.22659301757812 59.39509963989258 59.39517211914062 C 56.22652053833008 62.56375122070312 52.53691101074219 65.05139923095703 48.42873001098633 66.78900909423828 C 44.17573165893555 68.58788299560547 39.65763854980469 69.49998474121094 34.99995040893555 69.49998474121094 Z" stroke="none"/>
                      <path d="M 34.99995040893555 1 C 30.40954208374023 1 25.95698165893555 1.898811340332031 21.76594161987305 3.671485900878906 C 17.71736907958984 5.383880615234375 14.08116912841797 7.835540771484375 10.95835113525391 10.9583625793457 C 7.835540771484375 14.08119201660156 5.383872985839844 17.71740341186523 3.671470642089844 21.76598358154297 C 1.898811340332031 25.95703125 1 30.40961074829102 1 35.00004196166992 C 1 39.5904541015625 1.898811340332031 44.04301452636719 3.671470642089844 48.23405456542969 C 5.383872985839844 52.28262329101562 7.835540771484375 55.9188117980957 10.95835113525391 59.04163360595703 C 14.08116912841797 62.16445159912109 17.71736907958984 64.61611175537109 21.76594161987305 66.32851409912109 C 25.95698165893555 68.10117340087891 30.40954208374023 68.99998474121094 34.99995040893555 68.99998474121094 C 39.59036254882812 68.99998474121094 44.04292297363281 68.10117340087891 48.23396301269531 66.32851409912109 C 52.28253173828125 64.61610412597656 55.91873168945312 62.16444396972656 59.04154968261719 59.04162216186523 C 62.16436004638672 55.91879272460938 64.61602783203125 52.2825927734375 66.32843017578125 48.23401260375977 C 68.10108947753906 44.04295349121094 68.99990081787109 39.59037017822266 68.99990081787109 34.99994277954102 C 68.99990081787109 30.40954208374023 68.10108947753906 25.95698165893555 66.32843017578125 21.76594161987305 C 64.61602783203125 17.71737289428711 62.16436004638672 14.08117294311523 59.04154968261719 10.95835113525391 C 55.91873168945312 7.835533142089844 52.28253173828125 5.383872985839844 48.23396301269531 3.671470642089844 C 44.04292297363281 1.898811340332031 39.59036254882812 1 34.99995040893555 1 M 34.99995040893555 0 C 54.32989120483398 0 69.99990081787109 15.67001342773438 69.99990081787109 34.99994277954102 L 69.99990081787109 35.00004196166992 C 69.99990081787109 54.32998275756836 54.32989120483398 69.99998474121094 34.99995040893555 69.99998474121094 C 15.67000961303711 69.99998474121094 0 54.32998275756836 0 35.00004196166992 L 0 34.99994277954102 C 0 15.67001342773438 15.67000961303711 0 34.99995040893555 0 Z" stroke="none" fill="#fff"/>
                    </g>
                  </g>
                  <g id="Rectángulo_400907" data-name="Rectángulo 400907" transform="translate(0)" fill="none" stroke="#fff" stroke-width="1">
                    <rect width="70" height="70" rx="35" stroke="none"/>
                    <rect x="0.5" y="0.5" width="69" height="69" rx="34.5" fill="none"/>
                  </g>
                </g>
              </g>
            </g>
          </g>
        </g>
      </g>
    </g>
    <g id="layered_7826713" transform="translate(200.103 9150.6)">
      <path id="Trazado_901806" data-name="Trazado 901806" d="M68.374,58.492l-2.4,1.291a1.361,1.361,0,1,0,1.29,2.4l2.4-1.291a1.361,1.361,0,0,0-1.29-2.4Z" transform="translate(-4.558 -2.398)"/>
      <path id="Trazado_901807" data-name="Trazado 901807" d="M53.165,66.607l-3.76,2.024a1.361,1.361,0,1,0,1.29,2.4L54.455,69a1.361,1.361,0,1,0-1.29-2.4Z" transform="translate(-3.028 -3.148)"/>
      <path id="Trazado_901808" data-name="Trazado 901808" d="M61.45,62.145l-3.76,2.024a1.361,1.361,0,1,0,1.29,2.4l3.76-2.024a1.361,1.361,0,1,0-1.29-2.4Z" transform="translate(-3.793 -2.736)"/>
      <path id="Trazado_901809" data-name="Trazado 901809" d="M44.774,71.067l-1.753.944-1.753-.944a1.362,1.362,0,1,0-1.291,2.4l2.4,1.291a1.363,1.363,0,0,0,1.291,0l2.4-1.291a1.362,1.362,0,1,0-1.291-2.4Z" transform="translate(-2.157 -3.56)"/>
      <path id="Trazado_901810" data-name="Trazado 901810" d="M28.459,64.171,24.7,62.146a1.361,1.361,0,1,0-1.292,2.4l3.76,2.025a1.361,1.361,0,1,0,1.292-2.4Z" transform="translate(-0.627 -2.736)"/>
      <path id="Trazado_901811" data-name="Trazado 901811" d="M36.744,68.631l-3.76-2.024A1.361,1.361,0,1,0,31.693,69l3.76,2.024a1.361,1.361,0,1,0,1.291-2.4Z" transform="translate(-1.392 -3.148)"/>
      <path id="Trazado_901812" data-name="Trazado 901812" d="M20.311,59.783l-2.4-1.291a1.362,1.362,0,1,0-1.291,2.4l2.4,1.291a1.362,1.362,0,0,0,1.291-2.4Z" transform="translate(0 -2.398)"/>
      <path id="Trazado_901813" data-name="Trazado 901813" d="M63.816,48.493,40.864,60.85,17.914,48.493a1.361,1.361,0,1,0-1.291,2.4l23.6,12.7a1.356,1.356,0,0,0,1.291,0l23.6-12.7a1.361,1.361,0,1,0-1.291-2.4Z" transform="translate(0 -1.475)"/>
      <path id="Trazado_901814" data-name="Trazado 901814" d="M65.068,37.275l-23.59-11.8a1.384,1.384,0,0,0-1.225,0l-23.59,11.8a1.359,1.359,0,0,0-.036,2.414L40.217,52.4a1.371,1.371,0,0,0,1.3,0L65.1,39.689a1.348,1.348,0,0,0,.717-1.216A1.367,1.367,0,0,0,65.068,37.275ZM40.861,49.646l-20.64-11.11,20.64-10.32L61.51,38.536Z" transform="translate(0 0.649)"/>
      <path id="Trazado_901815" data-name="Trazado 901815" d="M61.949,38.83,41.3,49.939,20.66,38.83,41.3,28.51Z" transform="translate(-0.439 0.356)" fill="#0af3f4"/>
    </g>
  </g>
</svg>
