<svg xmlns="http://www.w3.org/2000/svg" width="623.568" height="696.846" viewBox="0 0 623.568 696.846">
  <g id="Grupo_1230605" data-name="Grupo 1230605" transform="translate(-513.935 -19754.999)">
    <g id="Grupo_1212761" data-name="Grupo 1212761" transform="translate(327 19759)">
      <path id="Trazado_901068" data-name="Trazado 901068" d="M489.032,271.863V216.692a28.352,28.352,0,0,0-28.39-28.39H306.39a28.39,28.39,0,0,1,0-56.78H577.42a28.39,28.39,0,0,0,0-56.78h-60a28.352,28.352,0,0,1-28.39-28.39V12" transform="translate(-14.919 -4.429)" fill="none" stroke="#579aa3" stroke-miterlimit="10" stroke-width="6"/>
      <path id="Trazado_901069" data-name="Trazado 901069" d="M509.485,299.165H488.95a2.645,2.645,0,0,1-2.65-2.65V294.15a2.645,2.645,0,0,1,2.65-2.65h20.535a2.645,2.645,0,0,1,2.65,2.65v2.366A2.586,2.586,0,0,1,509.485,299.165Z" transform="translate(-26.098 -19.429)" fill="#579aa3"/>
      <path id="Trazado_901070" data-name="Trazado 901070" d="M509.107,286.355H489.423a3.151,3.151,0,0,1-3.123-3.123v-1.609a3.151,3.151,0,0,1,3.123-3.123h19.684a3.151,3.151,0,0,1,3.123,3.123v1.609a3.151,3.151,0,0,1-3.123,3.123Z" transform="translate(-26.098 -18.732)" fill="#579aa3"/>
      <path id="Trazado_901071" data-name="Trazado 901071" d="M508.719,292.408H489.982a2.1,2.1,0,0,1-2.082-2.082v-2.744a2.1,2.1,0,0,1,2.082-2.082h18.737a2.184,2.184,0,0,1,2.177,2.082v2.744a2.122,2.122,0,0,1-2.177,2.082Z" transform="translate(-26.184 -19.107)" fill="#579aa3"/>
      <path id="Trazado_901072" data-name="Trazado 901072" d="M480.032,263.863V208.692a28.352,28.352,0,0,0-28.39-28.39H297.39a28.39,28.39,0,0,1,0-56.78H568.42a28.39,28.39,0,1,0,0-56.78h-60a28.352,28.352,0,0,1-28.39-28.39V4" transform="translate(-14.436 -4)" fill="none" stroke="#2f3140" stroke-linecap="round" stroke-linejoin="round" stroke-width="8"/>
      <path id="Trazado_901073" data-name="Trazado 901073" d="M501.485,299.165H480.95a2.645,2.645,0,0,1-2.65-2.65V294.15a2.645,2.645,0,0,1,2.65-2.65h20.535a2.645,2.645,0,0,1,2.65,2.65v2.366A2.586,2.586,0,0,1,501.485,299.165Z" transform="translate(-25.669 -19.429)" fill="#2f3140"/>
      <path id="Trazado_901074" data-name="Trazado 901074" d="M501.107,286.355H481.423a3.151,3.151,0,0,1-3.123-3.123v-1.609a3.151,3.151,0,0,1,3.123-3.123h19.684a3.151,3.151,0,0,1,3.123,3.123v1.609A3.151,3.151,0,0,1,501.107,286.355Z" transform="translate(-25.669 -18.732)" fill="#2f3140"/>
      <path id="Trazado_901075" data-name="Trazado 901075" d="M500.719,291.962H481.982a2.1,2.1,0,0,1-2.082-2.082v-1.8A2.1,2.1,0,0,1,481.982,286h18.737a2.1,2.1,0,0,1,2.082,2.082v1.8A1.986,1.986,0,0,1,500.719,291.962Z" transform="translate(-25.755 -19.134)" fill="#2f3140"/>
      <path id="Trazado_901076" data-name="Trazado 901076" d="M587.259,361.272a40.4,40.4,0,0,0-5.583-9.085c-.189-.379-.284-.757-.473-1.136-5.3-13.627-20.63-22.144-20.63-22.144a155.929,155.929,0,0,0-42.49-17.318,5.673,5.673,0,0,0-7.1,5.489v16.845H476.916V317.078a5.673,5.673,0,0,0-7.1-5.489,154.738,154.738,0,0,0-42.49,17.318S412,337.33,406.7,351.051c-4.826,12.3-11.356,33.122-17.318,58.1L380.58,412a601.564,601.564,0,0,0-11.451,64.824l8.233-2.555c-.852,6.53-1.514,13.154-2.082,19.778l-8.044,2.082c-2.177,28.2-1.419,55.834,4.353,78.64l8.706,1.325c.095.284.189.662.284.946,30,71.827,47.033,114.317,60,123.023,12.776,8.612,38.61,10.694,53.468,10.126,14.668.662,40.124-.757,53.089-9.179a28.148,28.148,0,0,0,2.744-1.893c13.911-8.706,30.188-42.964,58.673-106.368l5.678-12.681.095-.284c21.387-67.1-12.4-183.683-27.065-218.508Z" transform="translate(-19.648 -20.497)" fill="#579aa3" stroke="#579aa3" stroke-miterlimit="10" stroke-width="6"/>
      <path id="Trazado_901077" data-name="Trazado 901077" d="M382.541,484.3h-10.41l-14.2,3.691c-2.177,28.2-1.419,55.834,4.353,78.64l28.2,4.258Z" transform="translate(-19.149 -29.776)" fill="#7c7c94"/>
      <path id="Trazado_901078" data-name="Trazado 901078" d="M382.541,484.3h-10.41l-14.2,3.691c-2.177,28.2-1.419,55.834,4.353,78.64l28.2,4.258Z" transform="translate(-19.149 -29.776)" fill="none" stroke="#2f3140" stroke-linecap="round" stroke-linejoin="round" stroke-width="3"/>
      <path id="Trazado_901079" data-name="Trazado 901079" d="M373.916,459.6l12.3-65.3-14.668,4.732A601.563,601.563,0,0,0,360.1,463.855Z" transform="translate(-19.325 -24.946)" fill="#7c7c94"/>
      <path id="Trazado_901080" data-name="Trazado 901080" d="M385.541,484.3h-10.41l-14.195,3.691c-2.177,28.2-1.42,55.834,4.353,78.64l28.2,4.258Z" transform="translate(-19.31 -29.776)" fill="#6c6d81"/>
      <path id="Trazado_901081" data-name="Trazado 901081" d="M376.916,459.6l12.3-65.3-14.668,4.732A601.563,601.563,0,0,0,363.1,463.855Z" transform="translate(-19.486 -24.946)" fill="#6c6d81"/>
      <path id="Trazado_901082" data-name="Trazado 901082" d="M373.916,459.6l12.3-65.3-14.668,4.732A601.563,601.563,0,0,0,360.1,463.855Z" transform="translate(-19.325 -24.946)" fill="none" stroke="#2f3140" stroke-linecap="round" stroke-linejoin="round" stroke-width="3"/>
      <path id="Trazado_901083" data-name="Trazado 901083" d="M588.319,344c-5.962-14.2-22.05-22.9-23.753-23.753A164.993,164.993,0,0,0,548.1,312.3V684.114c1.136-.568,2.366-1.23,3.407-1.893,13.911-8.706,29.526-43.626,58.1-106.936L615.29,562.6l.095-.284c21.387-66.906-12.4-183.4-27.065-218.319Z" transform="translate(-29.415 -20.546)" fill="#565864"/>
      <path id="Trazado_901084" data-name="Trazado 901084" d="M588.319,344c-5.962-14.2-22.05-22.9-23.753-23.753A164.993,164.993,0,0,0,548.1,312.3V684.114c1.136-.568,2.366-1.23,3.407-1.893,13.911-8.706,29.526-43.626,58.1-106.936L615.29,562.6l.095-.284c21.387-66.906-12.4-183.4-27.065-218.319Z" transform="translate(-29.415 -20.546)" fill="none" stroke="#2f3140" stroke-linecap="round" stroke-linejoin="round" stroke-width="3"/>
      <path id="Trazado_901085" data-name="Trazado 901085" d="M572.446,332.751c-5.3-13.627-20.63-22.144-20.63-22.144a155.931,155.931,0,0,0-42.49-17.318,5.673,5.673,0,0,0-7.1,5.489v16.939H468.16V298.873a5.673,5.673,0,0,0-7.1-5.489,154.741,154.741,0,0,0-42.49,17.318s-15.331,8.422-20.63,22.144c-14.857,37.948-46.37,158.038-26.213,225.89,30,71.827,47.033,114.317,60,123.023,12.775,8.612,38.61,10.694,53.468,10.126,14.857.662,40.692-1.419,53.468-10.126,12.87-8.706,30-51.2,60-123.023C618.817,490.789,587.3,370.7,572.446,332.751Z" transform="translate(-19.599 -19.515)" fill="#51566a"/>
      <path id="Trazado_901086" data-name="Trazado 901086" d="M567.809,388.869a405.947,405.947,0,0,0-6.057-70.88,60.5,60.5,0,0,0-9.936-7.381,155.931,155.931,0,0,0-42.49-17.318,5.673,5.673,0,0,0-7.1,5.489v16.939H468.16V298.873a5.673,5.673,0,0,0-7.1-5.489,154.741,154.741,0,0,0-42.49,17.318s-15.331,8.422-20.63,22.144c-14.857,37.948-46.37,158.038-26.213,225.89q13.2,31.8,23.374,55.644c12.681,7.192,26.119,11.072,40.125,11.072,73.246-.095,132.581-105.989,132.581-236.583Z" transform="translate(-19.599 -19.515)" fill="#6c6d81"/>
      <path id="Trazado_901087" data-name="Trazado 901087" d="M572.446,332.751c-5.3-13.627-20.63-22.144-20.63-22.144a155.931,155.931,0,0,0-42.49-17.318,5.673,5.673,0,0,0-7.1,5.489v16.939H468.16V298.873a5.673,5.673,0,0,0-7.1-5.489,154.741,154.741,0,0,0-42.49,17.318s-15.331,8.422-20.63,22.144c-14.857,37.948-46.37,158.038-26.213,225.89,30,71.827,47.033,114.317,60,123.023,12.775,8.612,38.61,10.694,53.468,10.126,14.857.662,40.692-1.419,53.468-10.126,12.87-8.706,30-51.2,60-123.023C618.817,490.789,587.3,370.7,572.446,332.751Z" transform="translate(-19.599 -19.515)" fill="none" stroke="#2f3140" stroke-linecap="round" stroke-linejoin="round" stroke-width="6"/>
      <path id="Trazado_901088" data-name="Trazado 901088" d="M468.325,310.13V298.68a5.641,5.641,0,0,0-7-5.489A153.784,153.784,0,0,0,418.548,310.6s-15.52,8.422-20.819,22.144c-8.706,22.144-23,72.3-29.431,123.686a5.615,5.615,0,0,0,8.233,5.678c13.911-7.476,28.768-15.331,38.989-20.157,23.091-10.977,54.6-20.346,65.676-23.469a5.566,5.566,0,0,0,4.069-5.394v-91.7a5.594,5.594,0,0,0-5.583-5.583h-5.773a5.739,5.739,0,0,1-5.583-5.678Z" transform="translate(-19.763 -19.511)" fill="none" stroke="#2f3140" stroke-linecap="round" stroke-linejoin="round" stroke-width="6"/>
      <path id="Trazado_901089" data-name="Trazado 901089" d="M579.252,332.751c-5.3-13.627-20.63-22.144-20.63-22.144a155.93,155.93,0,0,0-42.49-17.318,5.673,5.673,0,0,0-7.1,5.489v16.939H492V417.354s40.976,10.977,69.555,24.6c10.22,4.826,25.078,12.681,38.894,20.157a5.615,5.615,0,0,0,8.233-5.678C602.248,405.051,587.958,354.9,579.252,332.751Z" transform="translate(-26.404 -19.515)" fill="none" stroke="#2f3140" stroke-linecap="round" stroke-linejoin="round" stroke-width="6"/>
      <path id="Trazado_901090" data-name="Trazado 901090" d="M491.034,525.243A17.084,17.084,0,0,1,474,508.209V309.479a9.188,9.188,0,0,1,9.179-9.179h15.8a9.188,9.188,0,0,1,9.179,9.179v198.73a17.165,17.165,0,0,1-17.129,17.034Z" transform="translate(-25.438 -19.902)" fill="#7c7c94"/>
      <path id="Trazado_901091" data-name="Trazado 901091" d="M508.063,353.295V309.479a9.188,9.188,0,0,0-9.179-9.179h-15.8a9.188,9.188,0,0,0-9.179,9.179V497.61l34.163-144.316Z" transform="translate(-25.433 -19.902)" fill="#9093a2"/>
      <path id="Trazado_901092" data-name="Trazado 901092" d="M499.052,470.657V443.876a7.476,7.476,0,1,0-14.952,0v26.781Z" transform="translate(-25.98 -27.206)" fill="#3c4155"/>
      <path id="Trazado_901093" data-name="Trazado 901093" d="M499.052,480.6v26.781a7.476,7.476,0,0,1-14.952,0V480.6Z" transform="translate(-25.98 -29.578)" fill="#3c4155"/>
      <path id="Trazado_901094" data-name="Trazado 901094" d="M491.034,525.243A17.084,17.084,0,0,1,474,508.209V309.574a9.289,9.289,0,0,1,9.274-9.274h15.615a9.289,9.289,0,0,1,9.274,9.274V508.209a17.165,17.165,0,0,1-17.129,17.034Z" transform="translate(-25.438 -19.902)" fill="none" stroke="#2f3140" stroke-linecap="round" stroke-linejoin="round" stroke-width="6"/>
      <path id="Trazado_901095" data-name="Trazado 901095" d="M494.492,403.193H488.34a6.341,6.341,0,0,1-6.34-6.34V354.74a6.341,6.341,0,0,1,6.34-6.34h6.151a6.341,6.341,0,0,1,6.34,6.34v42.112A6.281,6.281,0,0,1,494.492,403.193Z" transform="translate(-25.867 -22.483)" fill="#3b4254"/>
      <path id="Trazado_901096" data-name="Trazado 901096" d="M483.1,400.5h16.845" transform="translate(-25.926 -25.279)" fill="none" stroke="#c06d4f" stroke-linecap="round" stroke-linejoin="round" stroke-width="2"/>
      <path id="Trazado_901097" data-name="Trazado 901097" d="M483.1,394.5h16.845" transform="translate(-25.926 -24.957)" fill="none" stroke="#c06d4f" stroke-linecap="round" stroke-linejoin="round" stroke-width="2"/>
      <path id="Trazado_901098" data-name="Trazado 901098" d="M483.1,388.5h16.845" transform="translate(-25.926 -24.635)" fill="none" stroke="#c06d4f" stroke-linecap="round" stroke-linejoin="round" stroke-width="2"/>
      <path id="Trazado_901099" data-name="Trazado 901099" d="M483.1,382.5h16.845" transform="translate(-25.926 -24.313)" fill="none" stroke="#c06d4f" stroke-linecap="round" stroke-linejoin="round" stroke-width="2"/>
      <path id="Trazado_901100" data-name="Trazado 901100" d="M483.1,376.5h16.845" transform="translate(-25.926 -23.991)" fill="none" stroke="#c06d4f" stroke-linecap="round" stroke-linejoin="round" stroke-width="2"/>
      <path id="Trazado_901101" data-name="Trazado 901101" d="M483.1,370.5h16.845" transform="translate(-25.926 -23.669)" fill="none" stroke="#c06d4f" stroke-linecap="round" stroke-linejoin="round" stroke-width="2"/>
      <path id="Trazado_901102" data-name="Trazado 901102" d="M483.1,364.5h16.845" transform="translate(-25.926 -23.347)" fill="none" stroke="#c06d4f" stroke-linecap="round" stroke-linejoin="round" stroke-width="2"/>
      <path id="Trazado_901103" data-name="Trazado 901103" d="M483.1,358.5h16.845" transform="translate(-25.926 -23.025)" fill="none" stroke="#c06d4f" stroke-linecap="round" stroke-linejoin="round" stroke-width="2"/>
      <path id="Trazado_901104" data-name="Trazado 901104" d="M483.1,352.5h16.845" transform="translate(-25.926 -22.703)" fill="none" stroke="#c06d4f" stroke-linecap="round" stroke-linejoin="round" stroke-width="2"/>
      <path id="Trazado_901105" data-name="Trazado 901105" d="M494.4,403.193h-6.151a7.22,7.22,0,0,1-7-6.34,240.716,240.716,0,0,1,0-42.112,7.22,7.22,0,0,1,7-6.34H494.4a7.22,7.22,0,0,1,7,6.34,240.716,240.716,0,0,1,0,42.112A7.147,7.147,0,0,1,494.4,403.193Z" transform="translate(-25.778 -22.483)" fill="none" stroke="#2f3140" stroke-linecap="round" stroke-linejoin="round" stroke-width="3"/>
      <path id="Trazado_901106" data-name="Trazado 901106" d="M496.195,403.187h-9.463A4.686,4.686,0,0,1,482,398.456V353.032a4.686,4.686,0,0,1,4.732-4.732h9.463a4.686,4.686,0,0,1,4.732,4.732v45.424A4.745,4.745,0,0,1,496.195,403.187Z" transform="translate(-25.867 -22.478)" fill="none" stroke="#2f3140" stroke-linecap="round" stroke-linejoin="round" stroke-width="3"/>
      <path id="Trazado_901107" data-name="Trazado 901107" d="M499.052,470.657V443.876a7.476,7.476,0,1,0-14.952,0v26.781Z" transform="translate(-25.98 -27.206)" fill="none" stroke="#2f3140" stroke-linecap="round" stroke-linejoin="round" stroke-width="3"/>
      <path id="Trazado_901108" data-name="Trazado 901108" d="M499.052,480.6v26.781a7.476,7.476,0,0,1-14.952,0V480.6Z" transform="translate(-25.98 -29.578)" fill="none" stroke="#2f3140" stroke-linecap="round" stroke-linejoin="round" stroke-width="3"/>
    </g>
    <rect id="Rectángulo_423263" data-name="Rectángulo 423263" width="165" height="38" rx="19" transform="translate(513.935 19994)" fill="#345953"/>
    <rect id="Rectángulo_423266" data-name="Rectángulo 423266" width="165" height="38" rx="19" transform="translate(902.594 19994)" fill="#345953"/>
    <rect id="Rectángulo_423267" data-name="Rectángulo 423267" width="170" height="38" rx="19" transform="translate(967.503 20247)" fill="#345953"/>
    <path id="Trazado_1185122" data-name="Trazado 1185122" d="M1.016,0V-11.375H5a5.232,5.232,0,0,1,3.141.793,2.712,2.712,0,0,1,1.07,2.324,2.57,2.57,0,0,1-.43,1.473,2.482,2.482,0,0,1-1.2.934,2.4,2.4,0,0,1,1.379.883,2.61,2.61,0,0,1,.5,1.625A3,3,0,0,1,8.422-.859,4.713,4.713,0,0,1,5.438,0ZM3.359-4.953v3.07H5.367A1.938,1.938,0,0,0,6.66-2.277a1.353,1.353,0,0,0,.465-1.09A1.428,1.428,0,0,0,5.508-4.953Zm0-1.656H5.094q1.773-.031,1.773-1.414a1.307,1.307,0,0,0-.449-1.113A2.363,2.363,0,0,0,5-9.477H3.359Zm7.367,2.3a5.013,5.013,0,0,1,.484-2.242A3.546,3.546,0,0,1,12.605-8.07a4.069,4.069,0,0,1,2.113-.539,3.849,3.849,0,0,1,2.793,1.047,4.2,4.2,0,0,1,1.207,2.844l.016.578A4.418,4.418,0,0,1,17.648-1.02,3.775,3.775,0,0,1,14.734.156a3.793,3.793,0,0,1-2.918-1.172A4.5,4.5,0,0,1,10.727-4.2Zm2.258.16A3.16,3.16,0,0,0,13.438-2.3a1.5,1.5,0,0,0,1.3.638,1.5,1.5,0,0,0,1.281-.63,3.457,3.457,0,0,0,.461-2.015,3.128,3.128,0,0,0-.461-1.831,1.5,1.5,0,0,0-1.3-.649,1.474,1.474,0,0,0-1.281.646A3.516,3.516,0,0,0,12.984-4.144Zm9.844-6.387v2.078h1.445V-6.8H22.828v4.219a1.007,1.007,0,0,0,.18.672.9.9,0,0,0,.688.2,3.6,3.6,0,0,0,.664-.055V-.047a4.648,4.648,0,0,1-1.367.2,2.156,2.156,0,0,1-2.422-2.4V-6.8H19.336V-8.453H20.57v-2.078ZM25.18-4.3a5.013,5.013,0,0,1,.484-2.242A3.546,3.546,0,0,1,27.059-8.07a4.069,4.069,0,0,1,2.113-.539,3.849,3.849,0,0,1,2.793,1.047,4.2,4.2,0,0,1,1.207,2.844l.016.578A4.418,4.418,0,0,1,32.1-1.02,3.775,3.775,0,0,1,29.188.156,3.793,3.793,0,0,1,26.27-1.016,4.5,4.5,0,0,1,25.18-4.2Zm2.258.16A3.16,3.16,0,0,0,27.891-2.3a1.5,1.5,0,0,0,1.3.638,1.5,1.5,0,0,0,1.281-.63,3.457,3.457,0,0,0,.461-2.015,3.128,3.128,0,0,0-.461-1.831,1.5,1.5,0,0,0-1.3-.649,1.474,1.474,0,0,0-1.281.646A3.516,3.516,0,0,0,27.438-4.144ZM29.617-12h2.461L29.914-9.578H28.078Zm7.039,3.547.07.977a2.951,2.951,0,0,1,2.43-1.133,2.453,2.453,0,0,1,2,.789,3.682,3.682,0,0,1,.672,2.359V0H39.57V-5.406a1.465,1.465,0,0,0-.312-1.043,1.4,1.4,0,0,0-1.039-.324,1.553,1.553,0,0,0-1.43.813V0H34.531V-8.453ZM49.906,0H47.641V-8.453h2.266Zm-2.4-10.641a1.112,1.112,0,0,1,.34-.836,1.277,1.277,0,0,1,.926-.328,1.28,1.28,0,0,1,.922.328,1.105,1.105,0,0,1,.344.836,1.108,1.108,0,0,1-.348.844,1.283,1.283,0,0,1-.918.328,1.283,1.283,0,0,1-.918-.328A1.108,1.108,0,0,1,47.508-10.641Zm6.852,8.82h4.133V0H51.477V-1.375l3.977-5.258H51.594v-1.82h6.773v1.33Zm5.2-2.484a5.053,5.053,0,0,1,.887-3.148,2.9,2.9,0,0,1,2.434-1.156A2.6,2.6,0,0,1,65.039-7.57l.148-.883h1.984V3.25H64.906V-.727a2.6,2.6,0,0,1-2.047.883,2.878,2.878,0,0,1-2.406-1.172A5.3,5.3,0,0,1,59.555-4.3Zm2.258.16A3.314,3.314,0,0,0,62.238-2.3a1.363,1.363,0,0,0,1.2.634,1.518,1.518,0,0,0,1.469-.829v-3.5a1.506,1.506,0,0,0-1.453-.8,1.38,1.38,0,0,0-1.211.634A3.661,3.661,0,0,0,61.813-4.144Zm12.2,3.285A2.831,2.831,0,0,1,71.7.156a2.67,2.67,0,0,1-2.074-.781,3.335,3.335,0,0,1-.73-2.289V-8.453h2.258v5.467q0,1.322,1.2,1.322a1.63,1.63,0,0,0,1.578-.8V-8.453H76.2V0H74.07ZM80.281,0H78.016V-8.453h2.266Zm-2.4-10.641a1.112,1.112,0,0,1,.34-.836,1.277,1.277,0,0,1,.926-.328,1.28,1.28,0,0,1,.922.328,1.105,1.105,0,0,1,.344.836,1.108,1.108,0,0,1-.348.844,1.283,1.283,0,0,1-.918.328A1.283,1.283,0,0,1,78.23-9.8,1.108,1.108,0,0,1,77.883-10.641ZM86.031.156A4.15,4.15,0,0,1,83-.984a4.054,4.054,0,0,1-1.168-3.039v-.219a5.106,5.106,0,0,1,.492-2.277,3.612,3.612,0,0,1,1.395-1.547,3.914,3.914,0,0,1,2.059-.543,3.508,3.508,0,0,1,2.73,1.094,4.444,4.444,0,0,1,1,3.1v.922H84.125a2.1,2.1,0,0,0,.66,1.328,2,2,0,0,0,1.395.5,2.437,2.437,0,0,0,2.039-.945l1.109,1.242A3.389,3.389,0,0,1,87.953-.246,4.511,4.511,0,0,1,86.031.156Zm-.258-6.945a1.411,1.411,0,0,0-1.09.455,2.357,2.357,0,0,0-.535,1.3h3.141v-.181a1.681,1.681,0,0,0-.406-1.165A1.456,1.456,0,0,0,85.773-6.789Zm9.766.453a6.134,6.134,0,0,0-.812-.062,1.654,1.654,0,0,0-1.68.867V0H90.789V-8.453h2.133l.063,1.008a2.092,2.092,0,0,1,1.883-1.164,2.366,2.366,0,0,1,.7.1Zm.734,2.047a5.094,5.094,0,0,1,.887-3.148,2.877,2.877,0,0,1,2.426-1.172,2.589,2.589,0,0,1,2.039.922V-12h2.266V0h-2.039l-.109-.9A2.657,2.657,0,0,1,99.57.156,2.869,2.869,0,0,1,97.176-1.02,5.258,5.258,0,0,1,96.273-4.289Zm2.258.168A3.337,3.337,0,0,0,98.945-2.3a1.349,1.349,0,0,0,1.2.634,1.511,1.511,0,0,0,1.477-.884V-5.889a1.489,1.489,0,0,0-1.461-.884Q98.531-6.773,98.531-4.121Zm6.758-.184a5.013,5.013,0,0,1,.484-2.242,3.546,3.546,0,0,1,1.395-1.523,4.069,4.069,0,0,1,2.113-.539,3.849,3.849,0,0,1,2.793,1.047,4.2,4.2,0,0,1,1.207,2.844l.016.578a4.418,4.418,0,0,1-1.086,3.121A3.775,3.775,0,0,1,109.3.156a3.793,3.793,0,0,1-2.918-1.172,4.5,4.5,0,0,1-1.09-3.187Zm2.258.16A3.16,3.16,0,0,0,108-2.3a1.5,1.5,0,0,0,1.3.638,1.5,1.5,0,0,0,1.281-.63,3.457,3.457,0,0,0,.461-2.015,3.128,3.128,0,0,0-.461-1.831,1.5,1.5,0,0,0-1.3-.649A1.474,1.474,0,0,0,108-6.144,3.516,3.516,0,0,0,107.547-4.144Z" transform="translate(556.344 20019)" fill="#fff"/>
    <path id="Trazado_1185123" data-name="Trazado 1185123" d="M1.016,0V-11.375H5a5.232,5.232,0,0,1,3.141.793,2.712,2.712,0,0,1,1.07,2.324,2.57,2.57,0,0,1-.43,1.473,2.482,2.482,0,0,1-1.2.934,2.4,2.4,0,0,1,1.379.883,2.61,2.61,0,0,1,.5,1.625A3,3,0,0,1,8.422-.859,4.713,4.713,0,0,1,5.438,0ZM3.359-4.953v3.07H5.367A1.938,1.938,0,0,0,6.66-2.277a1.353,1.353,0,0,0,.465-1.09A1.428,1.428,0,0,0,5.508-4.953Zm0-1.656H5.094q1.773-.031,1.773-1.414a1.307,1.307,0,0,0-.449-1.113A2.363,2.363,0,0,0,5-9.477H3.359Zm7.367,2.3a5.013,5.013,0,0,1,.484-2.242A3.546,3.546,0,0,1,12.605-8.07a4.069,4.069,0,0,1,2.113-.539,3.849,3.849,0,0,1,2.793,1.047,4.2,4.2,0,0,1,1.207,2.844l.016.578A4.418,4.418,0,0,1,17.648-1.02,3.775,3.775,0,0,1,14.734.156a3.793,3.793,0,0,1-2.918-1.172A4.5,4.5,0,0,1,10.727-4.2Zm2.258.16A3.16,3.16,0,0,0,13.438-2.3a1.5,1.5,0,0,0,1.3.638,1.5,1.5,0,0,0,1.281-.63,3.457,3.457,0,0,0,.461-2.015,3.128,3.128,0,0,0-.461-1.831,1.5,1.5,0,0,0-1.3-.649,1.474,1.474,0,0,0-1.281.646A3.516,3.516,0,0,0,12.984-4.144Zm9.844-6.387v2.078h1.445V-6.8H22.828v4.219a1.007,1.007,0,0,0,.18.672.9.9,0,0,0,.688.2,3.6,3.6,0,0,0,.664-.055V-.047a4.648,4.648,0,0,1-1.367.2,2.156,2.156,0,0,1-2.422-2.4V-6.8H19.336V-8.453H20.57v-2.078ZM25.18-4.3a5.013,5.013,0,0,1,.484-2.242A3.546,3.546,0,0,1,27.059-8.07a4.069,4.069,0,0,1,2.113-.539,3.849,3.849,0,0,1,2.793,1.047,4.2,4.2,0,0,1,1.207,2.844l.016.578A4.418,4.418,0,0,1,32.1-1.02,3.775,3.775,0,0,1,29.188.156,3.793,3.793,0,0,1,26.27-1.016,4.5,4.5,0,0,1,25.18-4.2Zm2.258.16A3.16,3.16,0,0,0,27.891-2.3a1.5,1.5,0,0,0,1.3.638,1.5,1.5,0,0,0,1.281-.63,3.457,3.457,0,0,0,.461-2.015,3.128,3.128,0,0,0-.461-1.831,1.5,1.5,0,0,0-1.3-.649,1.474,1.474,0,0,0-1.281.646A3.516,3.516,0,0,0,27.438-4.144ZM29.617-12h2.461L29.914-9.578H28.078Zm7.039,3.547.07.977a2.951,2.951,0,0,1,2.43-1.133,2.453,2.453,0,0,1,2,.789,3.682,3.682,0,0,1,.672,2.359V0H39.57V-5.406a1.465,1.465,0,0,0-.312-1.043,1.4,1.4,0,0,0-1.039-.324,1.553,1.553,0,0,0-1.43.813V0H34.531V-8.453ZM47.172-4.289a5.094,5.094,0,0,1,.887-3.148,2.877,2.877,0,0,1,2.426-1.172,2.589,2.589,0,0,1,2.039.922V-12h2.266V0H52.75l-.109-.9A2.657,2.657,0,0,1,50.469.156,2.869,2.869,0,0,1,48.074-1.02,5.258,5.258,0,0,1,47.172-4.289Zm2.258.168A3.337,3.337,0,0,0,49.844-2.3a1.349,1.349,0,0,0,1.2.634,1.511,1.511,0,0,0,1.477-.884V-5.889a1.489,1.489,0,0,0-1.461-.884Q49.43-6.773,49.43-4.121Zm11,4.277A4.15,4.15,0,0,1,57.4-.984a4.054,4.054,0,0,1-1.168-3.039v-.219a5.106,5.106,0,0,1,.492-2.277,3.612,3.612,0,0,1,1.395-1.547,3.914,3.914,0,0,1,2.059-.543,3.508,3.508,0,0,1,2.73,1.094,4.444,4.444,0,0,1,1,3.1v.922H58.523a2.1,2.1,0,0,0,.66,1.328,2,2,0,0,0,1.395.5,2.437,2.437,0,0,0,2.039-.945l1.109,1.242A3.389,3.389,0,0,1,62.352-.246,4.511,4.511,0,0,1,60.43.156Zm-.258-6.945a1.411,1.411,0,0,0-1.09.455,2.357,2.357,0,0,0-.535,1.3h3.141v-.181a1.681,1.681,0,0,0-.406-1.165A1.456,1.456,0,0,0,60.172-6.789Zm9.766.453a6.134,6.134,0,0,0-.812-.062,1.654,1.654,0,0,0-1.68.867V0H65.188V-8.453H67.32l.063,1.008a2.092,2.092,0,0,1,1.883-1.164,2.366,2.366,0,0,1,.7.1ZM74.914.156A4.15,4.15,0,0,1,71.887-.984a4.054,4.054,0,0,1-1.168-3.039v-.219a5.106,5.106,0,0,1,.492-2.277,3.612,3.612,0,0,1,1.395-1.547,3.914,3.914,0,0,1,2.059-.543,3.508,3.508,0,0,1,2.73,1.094,4.444,4.444,0,0,1,1,3.1v.922H73.008a2.1,2.1,0,0,0,.66,1.328,2,2,0,0,0,1.395.5A2.437,2.437,0,0,0,77.1-2.609l1.109,1.242A3.389,3.389,0,0,1,76.836-.246,4.511,4.511,0,0,1,74.914.156Zm-.258-6.945a1.411,1.411,0,0,0-1.09.455,2.357,2.357,0,0,0-.535,1.3h3.141v-.181a1.681,1.681,0,0,0-.406-1.165A1.456,1.456,0,0,0,74.656-6.789Zm8.531,5.125A1.481,1.481,0,0,0,84.2-2.008a1.2,1.2,0,0,0,.406-.914h2.117a2.9,2.9,0,0,1-.469,1.574A3.093,3.093,0,0,1,85-.238a3.949,3.949,0,0,1-1.77.395A3.67,3.67,0,0,1,80.367-1,4.56,4.56,0,0,1,79.32-4.18v-.148a4.508,4.508,0,0,1,1.039-3.117,3.627,3.627,0,0,1,2.852-1.164,3.555,3.555,0,0,1,2.543.9,3.2,3.2,0,0,1,.973,2.4H84.609A1.551,1.551,0,0,0,84.2-6.377a1.354,1.354,0,0,0-1.031-.412,1.36,1.36,0,0,0-1.191.575,3.333,3.333,0,0,0-.4,1.866v.235a3.375,3.375,0,0,0,.4,1.878A1.377,1.377,0,0,0,83.188-1.664Zm7.031-5.867a2.818,2.818,0,0,1,2.258-1.078q2.75,0,2.789,3.2V0H93.008V-5.352A1.57,1.57,0,0,0,92.7-6.426a1.34,1.34,0,0,0-1.039-.348,1.537,1.537,0,0,0-1.437.766V0H87.961V-12h2.258Zm6.4,3.227A5.013,5.013,0,0,1,97.1-6.547,3.546,3.546,0,0,1,98.5-8.07a4.069,4.069,0,0,1,2.113-.539A3.849,3.849,0,0,1,103.4-7.562a4.2,4.2,0,0,1,1.207,2.844l.016.578a4.418,4.418,0,0,1-1.086,3.121A3.775,3.775,0,0,1,100.625.156a3.793,3.793,0,0,1-2.918-1.172A4.5,4.5,0,0,1,96.617-4.2Zm2.258.16A3.16,3.16,0,0,0,99.328-2.3a1.5,1.5,0,0,0,1.3.638,1.5,1.5,0,0,0,1.281-.63,3.457,3.457,0,0,0,.461-2.015,3.128,3.128,0,0,0-.461-1.831,1.5,1.5,0,0,0-1.3-.649,1.474,1.474,0,0,0-1.281.646A3.516,3.516,0,0,0,98.875-4.144Z" transform="translate(945.003 20019)" fill="#fff"/>
    <path id="Trazado_1185124" data-name="Trazado 1185124" d="M5.227-4.164H3.359V0H1.016V-11.375H5.242a4.778,4.778,0,0,1,3.109.9A3.1,3.1,0,0,1,9.445-7.937,3.5,3.5,0,0,1,8.941-6,3.437,3.437,0,0,1,7.414-4.758L9.875-.109V0H7.359Zm-1.867-1.9H5.25a1.936,1.936,0,0,0,1.367-.449A1.606,1.606,0,0,0,7.1-7.75a1.719,1.719,0,0,0-.457-1.266,1.9,1.9,0,0,0-1.4-.461H3.359Zm12.781,5.2A2.831,2.831,0,0,1,13.828.156a2.67,2.67,0,0,1-2.074-.781,3.335,3.335,0,0,1-.73-2.289V-8.453h2.258v5.467q0,1.322,1.2,1.322a1.63,1.63,0,0,0,1.578-.8V-8.453h2.266V0H16.2ZM23.922.156A4.15,4.15,0,0,1,20.895-.984a4.054,4.054,0,0,1-1.168-3.039v-.219a5.106,5.106,0,0,1,.492-2.277,3.612,3.612,0,0,1,1.395-1.547,3.914,3.914,0,0,1,2.059-.543A3.508,3.508,0,0,1,26.4-7.516a4.444,4.444,0,0,1,1,3.1v.922H22.016a2.1,2.1,0,0,0,.66,1.328,2,2,0,0,0,1.395.5,2.437,2.437,0,0,0,2.039-.945l1.109,1.242A3.389,3.389,0,0,1,25.844-.246,4.511,4.511,0,0,1,23.922.156Zm-.258-6.945a1.411,1.411,0,0,0-1.09.455,2.357,2.357,0,0,0-.535,1.3H25.18v-.181a1.681,1.681,0,0,0-.406-1.165A1.456,1.456,0,0,0,23.664-6.789Zm4.664,2.5a5.094,5.094,0,0,1,.887-3.148,2.877,2.877,0,0,1,2.426-1.172,2.589,2.589,0,0,1,2.039.922V-12h2.266V0H33.906L33.8-.9A2.657,2.657,0,0,1,31.625.156,2.869,2.869,0,0,1,29.23-1.02,5.258,5.258,0,0,1,28.328-4.289Zm2.258.168A3.337,3.337,0,0,0,31-2.3a1.349,1.349,0,0,0,1.2.634,1.511,1.511,0,0,0,1.477-.884V-5.889a1.489,1.489,0,0,0-1.461-.884Q30.586-6.773,30.586-4.121ZM42.594,0a2.507,2.507,0,0,1-.227-.758,2.732,2.732,0,0,1-2.133.914,3,3,0,0,1-2.059-.719,2.312,2.312,0,0,1-.816-1.812,2.389,2.389,0,0,1,1-2.062,4.915,4.915,0,0,1,2.879-.727h1.039v-.484a1.393,1.393,0,0,0-.3-.937,1.183,1.183,0,0,0-.949-.352,1.345,1.345,0,0,0-.895.273.929.929,0,0,0-.324.75H37.547A2.268,2.268,0,0,1,38-7.273a3,3,0,0,1,1.281-.98,4.669,4.669,0,0,1,1.859-.355,3.689,3.689,0,0,1,2.48.785,2.747,2.747,0,0,1,.918,2.207v3.664a4.041,4.041,0,0,0,.336,1.82V0ZM40.727-1.57a1.945,1.945,0,0,0,.922-.223,1.462,1.462,0,0,0,.625-.6V-3.844H41.43q-1.7,0-1.8,1.172l-.008.133a.9.9,0,0,0,.3.7A1.153,1.153,0,0,0,40.727-1.57Zm9.18-2.719a5.094,5.094,0,0,1,.887-3.148,2.877,2.877,0,0,1,2.426-1.172,2.589,2.589,0,0,1,2.039.922V-12h2.266V0H55.484l-.109-.9A2.657,2.657,0,0,1,53.2.156,2.869,2.869,0,0,1,50.809-1.02,5.258,5.258,0,0,1,49.906-4.289Zm2.258.168A3.337,3.337,0,0,0,52.578-2.3a1.349,1.349,0,0,0,1.2.634,1.511,1.511,0,0,0,1.477-.884V-5.889A1.489,1.489,0,0,0,53.8-6.773Q52.164-6.773,52.164-4.121Zm11,4.277A4.15,4.15,0,0,1,60.137-.984a4.054,4.054,0,0,1-1.168-3.039v-.219a5.106,5.106,0,0,1,.492-2.277,3.612,3.612,0,0,1,1.395-1.547,3.914,3.914,0,0,1,2.059-.543,3.508,3.508,0,0,1,2.73,1.094,4.444,4.444,0,0,1,1,3.1v.922H61.258a2.1,2.1,0,0,0,.66,1.328,2,2,0,0,0,1.395.5,2.437,2.437,0,0,0,2.039-.945l1.109,1.242A3.389,3.389,0,0,1,65.086-.246,4.511,4.511,0,0,1,63.164.156Zm-.258-6.945a1.411,1.411,0,0,0-1.09.455,2.357,2.357,0,0,0-.535,1.3h3.141v-.181a1.681,1.681,0,0,0-.406-1.165A1.456,1.456,0,0,0,62.906-6.789ZM70.3,0H68.039V-12H70.3ZM80.9-6.336a6.134,6.134,0,0,0-.812-.062,1.654,1.654,0,0,0-1.68.867V0H76.148V-8.453h2.133l.063,1.008a2.092,2.092,0,0,1,1.883-1.164,2.366,2.366,0,0,1,.7.1ZM86.648,0a2.507,2.507,0,0,1-.227-.758,2.732,2.732,0,0,1-2.133.914A3,3,0,0,1,82.23-.562a2.312,2.312,0,0,1-.816-1.812,2.389,2.389,0,0,1,1-2.062,4.915,4.915,0,0,1,2.879-.727h1.039v-.484a1.393,1.393,0,0,0-.3-.937,1.183,1.183,0,0,0-.949-.352,1.345,1.345,0,0,0-.895.273.929.929,0,0,0-.324.75H81.6a2.268,2.268,0,0,1,.453-1.359,3,3,0,0,1,1.281-.98A4.669,4.669,0,0,1,85.2-8.609a3.689,3.689,0,0,1,2.48.785,2.747,2.747,0,0,1,.918,2.207v3.664a4.041,4.041,0,0,0,.336,1.82V0ZM84.781-1.57a1.945,1.945,0,0,0,.922-.223,1.462,1.462,0,0,0,.625-.6V-3.844h-.844q-1.7,0-1.8,1.172l-.008.133a.9.9,0,0,0,.3.7A1.153,1.153,0,0,0,84.781-1.57Zm8.25-8.961v2.078h1.445V-6.8H93.031v4.219a1.007,1.007,0,0,0,.18.672.9.9,0,0,0,.688.2,3.6,3.6,0,0,0,.664-.055V-.047a4.648,4.648,0,0,1-1.367.2,2.156,2.156,0,0,1-2.422-2.4V-6.8H89.539V-8.453h1.234v-2.078ZM95.383-4.3a5.013,5.013,0,0,1,.484-2.242A3.546,3.546,0,0,1,97.262-8.07a4.069,4.069,0,0,1,2.113-.539,3.849,3.849,0,0,1,2.793,1.047,4.2,4.2,0,0,1,1.207,2.844l.016.578A4.418,4.418,0,0,1,102.3-1.02,3.775,3.775,0,0,1,99.391.156a3.793,3.793,0,0,1-2.918-1.172A4.5,4.5,0,0,1,95.383-4.2Zm2.258.16A3.16,3.16,0,0,0,98.094-2.3a1.5,1.5,0,0,0,1.3.638,1.5,1.5,0,0,0,1.281-.63,3.457,3.457,0,0,0,.461-2.015,3.128,3.128,0,0,0-.461-1.831,1.5,1.5,0,0,0-1.3-.649,1.474,1.474,0,0,0-1.281.646A3.516,3.516,0,0,0,97.641-4.144ZM99.82-12h2.461l-2.164,2.422H98.281Zm7.039,3.547.07.977a2.951,2.951,0,0,1,2.43-1.133,2.453,2.453,0,0,1,2,.789,3.682,3.682,0,0,1,.672,2.359V0h-2.258V-5.406a1.465,1.465,0,0,0-.312-1.043,1.4,1.4,0,0,0-1.039-.324,1.553,1.553,0,0,0-1.43.813V0h-2.258V-8.453Z" transform="translate(1011.913 20272)" fill="#fff"/>
    <g id="Grupo_1230601" data-name="Grupo 1230601" transform="translate(523.983 20043.027)">
      <path id="Trazado_1054039" data-name="Trazado 1054039" d="M925.719,2720h120.754l71.732,72.942" transform="translate(-916.955 -2713.356)" fill="none" stroke="#000" stroke-linecap="round" stroke-width="2"/>
      <g id="Grupo_1230600" data-name="Grupo 1230600">
        <g id="Grupo_1208262" data-name="Grupo 1208262" transform="translate(194.889 73.223)">
          <path id="Trazado_1043527" data-name="Trazado 1043527" d="M6.361,0a6.361,6.361,0,1,0,6.361,6.361A6.361,6.361,0,0,0,6.361,0Z" transform="translate(0 0)" fill="#497d74"/>
          <g id="Grupo_1181473" data-name="Grupo 1181473" transform="matrix(-0.998, -0.07, 0.07, -0.998, 11.122, 11.838)">
            <g id="Elipse_12494" data-name="Elipse 12494" transform="translate(0.131 0.131)" fill="#48396f" stroke="#345953" stroke-width="1">
              <circle cx="5" cy="5" r="5" stroke="none"/>
              <circle cx="5" cy="5" r="4.5" fill="none"/>
            </g>
            <g id="Trazado_1043525" data-name="Trazado 1043525" transform="translate(0)" fill="#fff">
              <path d="M 5.130859375 9.761719703674316 C 2.577399492263794 9.761719703674316 0.4999993741512299 7.684319496154785 0.4999993741512299 5.130859375 C 0.4999993741512299 2.577399492263794 2.577399492263794 0.4999993741512299 5.130859375 0.4999993741512299 C 7.684319496154785 0.4999993741512299 9.761719703674316 2.577399492263794 9.761719703674316 5.130859375 C 9.761719703674316 7.684319496154785 7.684319496154785 9.761719703674316 5.130859375 9.761719703674316 Z" stroke="none"/>
              <path d="M 5.130859375 9.261719703674316 C 7.408619403839111 9.261719703674316 9.261719703674316 7.408619403839111 9.261719703674316 5.130859375 C 9.261719703674316 2.853099346160889 7.408619403839111 0.9999994039535522 5.130859375 0.9999994039535522 C 2.853099346160889 0.9999994039535522 0.9999994039535522 2.853099346160889 0.9999994039535522 5.130859375 C 0.9999994039535522 7.408619403839111 2.853099346160889 9.261719703674316 5.130859375 9.261719703674316 M 5.130859375 10.26171970367432 C 2.297159433364868 10.26171970367432 -6.24999984211172e-07 7.964559555053711 -6.24999984211172e-07 5.130859375 C -6.24999984211172e-07 2.297159433364868 2.297159433364868 -6.24999984211172e-07 5.130859375 -6.24999984211172e-07 C 7.964559555053711 -6.24999984211172e-07 10.26171970367432 2.297159433364868 10.26171970367432 5.130859375 C 10.26171970367432 7.964559555053711 7.964559555053711 10.26171970367432 5.130859375 10.26171970367432 Z" stroke="none" fill="#345953"/>
            </g>
            <g id="Trazado_1043526" data-name="Trazado 1043526" transform="translate(0)" fill="#fff">
              <path d="M 5.130859375 9.761719703674316 C 2.577399492263794 9.761719703674316 0.4999993741512299 7.684319496154785 0.4999993741512299 5.130859375 C 0.4999993741512299 2.577399492263794 2.577399492263794 0.4999993741512299 5.130859375 0.4999993741512299 C 7.684319496154785 0.4999993741512299 9.761719703674316 2.577399492263794 9.761719703674316 5.130859375 C 9.761719703674316 7.684319496154785 7.684319496154785 9.761719703674316 5.130859375 9.761719703674316 Z" stroke="none"/>
              <path d="M 5.130859375 9.261719703674316 C 7.408619403839111 9.261719703674316 9.261719703674316 7.408619403839111 9.261719703674316 5.130859375 C 9.261719703674316 2.853099346160889 7.408619403839111 0.9999994039535522 5.130859375 0.9999994039535522 C 2.853099346160889 0.9999994039535522 0.9999994039535522 2.853099346160889 0.9999994039535522 5.130859375 C 0.9999994039535522 7.408619403839111 2.853099346160889 9.261719703674316 5.130859375 9.261719703674316 M 5.130859375 10.26171970367432 C 2.297159433364868 10.26171970367432 -6.24999984211172e-07 7.964559555053711 -6.24999984211172e-07 5.130859375 C -6.24999984211172e-07 2.297159433364868 2.297159433364868 -6.24999984211172e-07 5.130859375 -6.24999984211172e-07 C 7.964559555053711 -6.24999984211172e-07 10.26171970367432 2.297159433364868 10.26171970367432 5.130859375 C 10.26171970367432 7.964559555053711 7.964559555053711 10.26171970367432 5.130859375 10.26171970367432 Z" stroke="none" fill="#345953"/>
            </g>
          </g>
        </g>
        <g id="Grupo_1230598" data-name="Grupo 1230598" transform="translate(0 0)">
          <path id="Trazado_1043527-2" data-name="Trazado 1043527" d="M6.361,0a6.361,6.361,0,1,0,6.361,6.361A6.361,6.361,0,0,0,6.361,0Z" transform="translate(0 0)" fill="#497d74"/>
          <g id="Grupo_1181473-2" data-name="Grupo 1181473" transform="matrix(-0.998, -0.07, 0.07, -0.998, 11.122, 11.838)">
            <g id="Elipse_12494-2" data-name="Elipse 12494" transform="translate(0.131 0.131)" fill="#48396f" stroke="#345953" stroke-width="1">
              <circle cx="5" cy="5" r="5" stroke="none"/>
              <circle cx="5" cy="5" r="4.5" fill="none"/>
            </g>
            <g id="Trazado_1043525-2" data-name="Trazado 1043525" transform="translate(0)" fill="#fff">
              <path d="M 5.130859375 9.761719703674316 C 2.577399492263794 9.761719703674316 0.4999993741512299 7.684319496154785 0.4999993741512299 5.130859375 C 0.4999993741512299 2.577399492263794 2.577399492263794 0.4999993741512299 5.130859375 0.4999993741512299 C 7.684319496154785 0.4999993741512299 9.761719703674316 2.577399492263794 9.761719703674316 5.130859375 C 9.761719703674316 7.684319496154785 7.684319496154785 9.761719703674316 5.130859375 9.761719703674316 Z" stroke="none"/>
              <path d="M 5.130859375 9.261719703674316 C 7.408619403839111 9.261719703674316 9.261719703674316 7.408619403839111 9.261719703674316 5.130859375 C 9.261719703674316 2.853099346160889 7.408619403839111 0.9999994039535522 5.130859375 0.9999994039535522 C 2.853099346160889 0.9999994039535522 0.9999994039535522 2.853099346160889 0.9999994039535522 5.130859375 C 0.9999994039535522 7.408619403839111 2.853099346160889 9.261719703674316 5.130859375 9.261719703674316 M 5.130859375 10.26171970367432 C 2.297159433364868 10.26171970367432 -6.24999984211172e-07 7.964559555053711 -6.24999984211172e-07 5.130859375 C -6.24999984211172e-07 2.297159433364868 2.297159433364868 -6.24999984211172e-07 5.130859375 -6.24999984211172e-07 C 7.964559555053711 -6.24999984211172e-07 10.26171970367432 2.297159433364868 10.26171970367432 5.130859375 C 10.26171970367432 7.964559555053711 7.964559555053711 10.26171970367432 5.130859375 10.26171970367432 Z" stroke="none" fill="#345953"/>
            </g>
            <g id="Trazado_1043526-2" data-name="Trazado 1043526" transform="translate(0)" fill="#fff">
              <path d="M 5.130859375 9.761719703674316 C 2.577399492263794 9.761719703674316 0.4999993741512299 7.684319496154785 0.4999993741512299 5.130859375 C 0.4999993741512299 2.577399492263794 2.577399492263794 0.4999993741512299 5.130859375 0.4999993741512299 C 7.684319496154785 0.4999993741512299 9.761719703674316 2.577399492263794 9.761719703674316 5.130859375 C 9.761719703674316 7.684319496154785 7.684319496154785 9.761719703674316 5.130859375 9.761719703674316 Z" stroke="none"/>
              <path d="M 5.130859375 9.261719703674316 C 7.408619403839111 9.261719703674316 9.261719703674316 7.408619403839111 9.261719703674316 5.130859375 C 9.261719703674316 2.853099346160889 7.408619403839111 0.9999994039535522 5.130859375 0.9999994039535522 C 2.853099346160889 0.9999994039535522 0.9999994039535522 2.853099346160889 0.9999994039535522 5.130859375 C 0.9999994039535522 7.408619403839111 2.853099346160889 9.261719703674316 5.130859375 9.261719703674316 M 5.130859375 10.26171970367432 C 2.297159433364868 10.26171970367432 -6.24999984211172e-07 7.964559555053711 -6.24999984211172e-07 5.130859375 C -6.24999984211172e-07 2.297159433364868 2.297159433364868 -6.24999984211172e-07 5.130859375 -6.24999984211172e-07 C 7.964559555053711 -6.24999984211172e-07 10.26171970367432 2.297159433364868 10.26171970367432 5.130859375 C 10.26171970367432 7.964559555053711 7.964559555053711 10.26171970367432 5.130859375 10.26171970367432 Z" stroke="none" fill="#345953"/>
            </g>
          </g>
        </g>
      </g>
    </g>
    <g id="Grupo_1230603" data-name="Grupo 1230603" transform="translate(849.935 20043.027)">
      <path id="Trazado_1054039-2" data-name="Trazado 1054039" d="M1118.2,2720H997.451l-71.732,72.942" transform="translate(-919.358 -2713.356)" fill="none" stroke="#000" stroke-linecap="round" stroke-width="2"/>
      <g id="Grupo_1230600-2" data-name="Grupo 1230600" transform="translate(0 0)">
        <g id="Grupo_1208262-2" data-name="Grupo 1208262" transform="translate(0 73.223)">
          <path id="Trazado_1043527-3" data-name="Trazado 1043527" d="M6.361,0A6.361,6.361,0,1,1,0,6.361,6.361,6.361,0,0,1,6.361,0Z" transform="translate(0 0)" fill="#497d74"/>
          <g id="Grupo_1181473-3" data-name="Grupo 1181473" transform="matrix(0.998, -0.07, 0.07, 0.998, 0.885, 1.601)">
            <g id="Elipse_12494-3" data-name="Elipse 12494" transform="translate(0.131 0.131)" fill="#48396f" stroke="#345953" stroke-width="1">
              <ellipse cx="5" cy="5" rx="5" ry="5" stroke="none"/>
              <ellipse cx="5" cy="5" rx="4.5" ry="4.5" fill="none"/>
            </g>
            <g id="Trazado_1043525-3" data-name="Trazado 1043525" transform="translate(0)" fill="#fff">
              <path d="M 5.130860805511475 9.761723518371582 C 2.577400922775269 9.761723518371582 0.5000008344650269 7.684323787689209 0.5000008344650269 5.130863666534424 C 0.5000008344650269 2.577403783798218 2.577400922775269 0.5000036954879761 5.130860805511475 0.5000036954879761 C 7.68432092666626 0.5000036954879761 9.761720657348633 2.577403783798218 9.761720657348633 5.130863666534424 C 9.761720657348633 7.684323787689209 7.68432092666626 9.761723518371582 5.130860805511475 9.761723518371582 Z" stroke="none"/>
              <path d="M 5.130860805511475 1.000003814697266 C 2.853100776672363 1.000003814697266 1.000000953674316 2.853103637695312 1.000000953674316 5.130863666534424 C 1.000000953674316 7.408623695373535 2.853100776672363 9.261723518371582 5.130860805511475 9.261723518371582 C 7.408620834350586 9.261723518371582 9.261720657348633 7.408623695373535 9.261720657348633 5.130863666534424 C 9.261720657348633 2.853103637695312 7.408620834350586 1.000003814697266 5.130860805511475 1.000003814697266 M 5.130860805511475 3.814697265625e-06 C 7.964560508728027 3.814697265625e-06 10.26172065734863 2.297173500061035 10.26172065734863 5.130863666534424 C 10.26172065734863 7.964563369750977 7.964550971984863 10.26172351837158 5.130860805511475 10.26172351837158 C 2.297160625457764 10.26172351837158 9.5367431640625e-07 7.964553833007812 9.5367431640625e-07 5.130863666534424 C 9.5367431640625e-07 2.297163486480713 2.297170639038086 3.814697265625e-06 5.130860805511475 3.814697265625e-06 Z" stroke="none" fill="#345953"/>
            </g>
            <g id="Trazado_1043526-3" data-name="Trazado 1043526" transform="translate(0)" fill="#fff">
              <path d="M 5.130860805511475 9.761723518371582 C 2.577400922775269 9.761723518371582 0.5000008344650269 7.684323787689209 0.5000008344650269 5.130863666534424 C 0.5000008344650269 2.577403783798218 2.577400922775269 0.5000036954879761 5.130860805511475 0.5000036954879761 C 7.68432092666626 0.5000036954879761 9.761720657348633 2.577403783798218 9.761720657348633 5.130863666534424 C 9.761720657348633 7.684323787689209 7.68432092666626 9.761723518371582 5.130860805511475 9.761723518371582 Z" stroke="none"/>
              <path d="M 5.130860805511475 1.000003814697266 C 2.853100776672363 1.000003814697266 1.000000953674316 2.853103637695312 1.000000953674316 5.130863666534424 C 1.000000953674316 7.408623695373535 2.853100776672363 9.261723518371582 5.130860805511475 9.261723518371582 C 7.408620834350586 9.261723518371582 9.261720657348633 7.408623695373535 9.261720657348633 5.130863666534424 C 9.261720657348633 2.853103637695312 7.408620834350586 1.000003814697266 5.130860805511475 1.000003814697266 M 5.130860805511475 3.814697265625e-06 C 7.964560508728027 3.814697265625e-06 10.26172065734863 2.297173500061035 10.26172065734863 5.130863666534424 C 10.26172065734863 7.964563369750977 7.964550971984863 10.26172351837158 5.130860805511475 10.26172351837158 C 2.297160625457764 10.26172351837158 9.5367431640625e-07 7.964553833007812 9.5367431640625e-07 5.130863666534424 C 9.5367431640625e-07 2.297163486480713 2.297170639038086 3.814697265625e-06 5.130860805511475 3.814697265625e-06 Z" stroke="none" fill="#345953"/>
            </g>
          </g>
        </g>
        <g id="Grupo_1230598-2" data-name="Grupo 1230598" transform="translate(194.889 0)">
          <path id="Trazado_1043527-4" data-name="Trazado 1043527" d="M6.361,0A6.361,6.361,0,1,1,0,6.361,6.361,6.361,0,0,1,6.361,0Z" transform="translate(0 0)" fill="#497d74"/>
          <g id="Grupo_1181473-4" data-name="Grupo 1181473" transform="matrix(0.998, -0.07, 0.07, 0.998, 0.885, 1.601)">
            <g id="Elipse_12494-4" data-name="Elipse 12494" transform="translate(0.131 0.131)" fill="#48396f" stroke="#345953" stroke-width="1">
              <ellipse cx="5" cy="5" rx="5" ry="5" stroke="none"/>
              <ellipse cx="5" cy="5" rx="4.5" ry="4.5" fill="none"/>
            </g>
            <g id="Trazado_1043525-4" data-name="Trazado 1043525" transform="translate(0)" fill="#fff">
              <path d="M 5.130860805511475 9.761723518371582 C 2.577400922775269 9.761723518371582 0.5000008344650269 7.684323787689209 0.5000008344650269 5.130863666534424 C 0.5000008344650269 2.577403783798218 2.577400922775269 0.5000036954879761 5.130860805511475 0.5000036954879761 C 7.68432092666626 0.5000036954879761 9.761720657348633 2.577403783798218 9.761720657348633 5.130863666534424 C 9.761720657348633 7.684323787689209 7.68432092666626 9.761723518371582 5.130860805511475 9.761723518371582 Z" stroke="none"/>
              <path d="M 5.130860805511475 1.000003814697266 C 2.853100776672363 1.000003814697266 1.000000953674316 2.853103637695312 1.000000953674316 5.130863666534424 C 1.000000953674316 7.408623695373535 2.853100776672363 9.261723518371582 5.130860805511475 9.261723518371582 C 7.408620834350586 9.261723518371582 9.261720657348633 7.408623695373535 9.261720657348633 5.130863666534424 C 9.261720657348633 2.853103637695312 7.408620834350586 1.000003814697266 5.130860805511475 1.000003814697266 M 5.130860805511475 3.814697265625e-06 C 7.964560508728027 3.814697265625e-06 10.26172065734863 2.297173500061035 10.26172065734863 5.130863666534424 C 10.26172065734863 7.964563369750977 7.964550971984863 10.26172351837158 5.130860805511475 10.26172351837158 C 2.297160625457764 10.26172351837158 9.5367431640625e-07 7.964553833007812 9.5367431640625e-07 5.130863666534424 C 9.5367431640625e-07 2.297163486480713 2.297170639038086 3.814697265625e-06 5.130860805511475 3.814697265625e-06 Z" stroke="none" fill="#345953"/>
            </g>
            <g id="Trazado_1043526-4" data-name="Trazado 1043526" transform="translate(0)" fill="#fff">
              <path d="M 5.130860805511475 9.761723518371582 C 2.577400922775269 9.761723518371582 0.5000008344650269 7.684323787689209 0.5000008344650269 5.130863666534424 C 0.5000008344650269 2.577403783798218 2.577400922775269 0.5000036954879761 5.130860805511475 0.5000036954879761 C 7.68432092666626 0.5000036954879761 9.761720657348633 2.577403783798218 9.761720657348633 5.130863666534424 C 9.761720657348633 7.684323787689209 7.68432092666626 9.761723518371582 5.130860805511475 9.761723518371582 Z" stroke="none"/>
              <path d="M 5.130860805511475 1.000003814697266 C 2.853100776672363 1.000003814697266 1.000000953674316 2.853103637695312 1.000000953674316 5.130863666534424 C 1.000000953674316 7.408623695373535 2.853100776672363 9.261723518371582 5.130860805511475 9.261723518371582 C 7.408620834350586 9.261723518371582 9.261720657348633 7.408623695373535 9.261720657348633 5.130863666534424 C 9.261720657348633 2.853103637695312 7.408620834350586 1.000003814697266 5.130860805511475 1.000003814697266 M 5.130860805511475 3.814697265625e-06 C 7.964560508728027 3.814697265625e-06 10.26172065734863 2.297173500061035 10.26172065734863 5.130863666534424 C 10.26172065734863 7.964563369750977 7.964550971984863 10.26172351837158 5.130860805511475 10.26172351837158 C 2.297160625457764 10.26172351837158 9.5367431640625e-07 7.964553833007812 9.5367431640625e-07 5.130863666534424 C 9.5367431640625e-07 2.297163486480713 2.297170639038086 3.814697265625e-06 5.130860805511475 3.814697265625e-06 Z" stroke="none" fill="#345953"/>
            </g>
          </g>
        </g>
      </g>
    </g>
    <g id="Grupo_1230604" data-name="Grupo 1230604" transform="translate(800.515 20110.635)">
      <path id="Trazado_1054039-3" data-name="Trazado 1054039" d="M1134.412,2908.333H1003.491L925.719,2720" transform="translate(-919.358 -2713.641)" fill="none" stroke="#000" stroke-linecap="round" stroke-width="2"/>
      <g id="Grupo_1230600-3" data-name="Grupo 1230600" transform="translate(0 0)">
        <g id="Grupo_1208262-3" data-name="Grupo 1208262">
          <path id="Trazado_1043527-5" data-name="Trazado 1043527" d="M6.361,12.723A6.361,6.361,0,1,0,0,6.361,6.361,6.361,0,0,0,6.361,12.723Z" fill="#497d74"/>
          <g id="Grupo_1181473-5" data-name="Grupo 1181473" transform="matrix(0.998, 0.07, -0.07, 0.998, 1.601, 0.885)">
            <g id="Elipse_12494-5" data-name="Elipse 12494" transform="translate(0.131 0.131)" fill="#48396f" stroke="#345953" stroke-width="1">
              <ellipse cx="5" cy="5" rx="5" ry="5" stroke="none"/>
              <ellipse cx="5" cy="5" rx="4.5" ry="4.5" fill="none"/>
            </g>
            <g id="Trazado_1043525-5" data-name="Trazado 1043525" transform="translate(0 0)" fill="#fff">
              <path d="M 5.130859851837158 9.761719703674316 C 2.577399969100952 9.761719703674316 0.4999998509883881 7.684319496154785 0.4999998509883881 5.130859375 C 0.4999998509883881 2.577399492263794 2.577399969100952 0.4999993741512299 5.130859851837158 0.4999993741512299 C 7.684319972991943 0.4999993741512299 9.761719703674316 2.577399492263794 9.761719703674316 5.130859375 C 9.761719703674316 7.684319496154785 7.684319972991943 9.761719703674316 5.130859851837158 9.761719703674316 Z" stroke="none"/>
              <path d="M 5.130859851837158 9.261719703674316 C 7.40861988067627 9.261719703674316 9.261719703674316 7.408619403839111 9.261719703674316 5.130859375 C 9.261719703674316 2.853099346160889 7.40861988067627 0.9999994039535522 5.130859851837158 0.9999994039535522 C 2.853099822998047 0.9999994039535522 0.9999998807907104 2.853099346160889 0.9999998807907104 5.130859375 C 0.9999998807907104 7.408619403839111 2.853099822998047 9.261719703674316 5.130859851837158 9.261719703674316 M 5.130859851837158 10.26171970367432 C 2.297159910202026 10.26171970367432 -1.481628402189017e-07 7.964559555053711 -1.481628402189017e-07 5.130859375 C -1.481628402189017e-07 2.297159433364868 2.297159910202026 -6.24999984211172e-07 5.130859851837158 -6.24999984211172e-07 C 7.964560031890869 -6.24999984211172e-07 10.26171970367432 2.297159433364868 10.26171970367432 5.130859375 C 10.26171970367432 7.964559555053711 7.964560031890869 10.26171970367432 5.130859851837158 10.26171970367432 Z" stroke="none" fill="#345953"/>
            </g>
            <g id="Trazado_1043526-5" data-name="Trazado 1043526" transform="translate(0 0)" fill="#fff">
              <path d="M 5.130859851837158 9.761719703674316 C 2.577399969100952 9.761719703674316 0.4999998509883881 7.684319496154785 0.4999998509883881 5.130859375 C 0.4999998509883881 2.577399492263794 2.577399969100952 0.4999993741512299 5.130859851837158 0.4999993741512299 C 7.684319972991943 0.4999993741512299 9.761719703674316 2.577399492263794 9.761719703674316 5.130859375 C 9.761719703674316 7.684319496154785 7.684319972991943 9.761719703674316 5.130859851837158 9.761719703674316 Z" stroke="none"/>
              <path d="M 5.130859851837158 9.261719703674316 C 7.40861988067627 9.261719703674316 9.261719703674316 7.408619403839111 9.261719703674316 5.130859375 C 9.261719703674316 2.853099346160889 7.40861988067627 0.9999994039535522 5.130859851837158 0.9999994039535522 C 2.853099822998047 0.9999994039535522 0.9999998807907104 2.853099346160889 0.9999998807907104 5.130859375 C 0.9999998807907104 7.408619403839111 2.853099822998047 9.261719703674316 5.130859851837158 9.261719703674316 M 5.130859851837158 10.26171970367432 C 2.297159910202026 10.26171970367432 -1.481628402189017e-07 7.964559555053711 -1.481628402189017e-07 5.130859375 C -1.481628402189017e-07 2.297159433364868 2.297159910202026 -6.24999984211172e-07 5.130859851837158 -6.24999984211172e-07 C 7.964560031890869 -6.24999984211172e-07 10.26171970367432 2.297159433364868 10.26171970367432 5.130859375 C 10.26171970367432 7.964559555053711 7.964560031890869 10.26171970367432 5.130859851837158 10.26171970367432 Z" stroke="none" fill="#345953"/>
            </g>
          </g>
        </g>
        <g id="Grupo_1230598-3" data-name="Grupo 1230598" transform="translate(211.096 188.614)">
          <path id="Trazado_1043527-6" data-name="Trazado 1043527" d="M6.361,12.723A6.361,6.361,0,1,0,0,6.361,6.361,6.361,0,0,0,6.361,12.723Z" fill="#497d74"/>
          <g id="Grupo_1181473-6" data-name="Grupo 1181473" transform="matrix(0.998, 0.07, -0.07, 0.998, 1.601, 0.885)">
            <g id="Elipse_12494-6" data-name="Elipse 12494" transform="translate(0.131 0.131)" fill="#48396f" stroke="#345953" stroke-width="1">
              <ellipse cx="5" cy="5" rx="5" ry="5" stroke="none"/>
              <ellipse cx="5" cy="5" rx="4.5" ry="4.5" fill="none"/>
            </g>
            <g id="Trazado_1043525-6" data-name="Trazado 1043525" transform="translate(0 0)" fill="#fff">
              <path d="M 5.130859851837158 9.761719703674316 C 2.577399969100952 9.761719703674316 0.4999998509883881 7.684319496154785 0.4999998509883881 5.130859375 C 0.4999998509883881 2.577399492263794 2.577399969100952 0.4999993741512299 5.130859851837158 0.4999993741512299 C 7.684319972991943 0.4999993741512299 9.761719703674316 2.577399492263794 9.761719703674316 5.130859375 C 9.761719703674316 7.684319496154785 7.684319972991943 9.761719703674316 5.130859851837158 9.761719703674316 Z" stroke="none"/>
              <path d="M 5.130859851837158 9.261719703674316 C 7.40861988067627 9.261719703674316 9.261719703674316 7.408619403839111 9.261719703674316 5.130859375 C 9.261719703674316 2.853099346160889 7.40861988067627 0.9999994039535522 5.130859851837158 0.9999994039535522 C 2.853099822998047 0.9999994039535522 0.9999998807907104 2.853099346160889 0.9999998807907104 5.130859375 C 0.9999998807907104 7.408619403839111 2.853099822998047 9.261719703674316 5.130859851837158 9.261719703674316 M 5.130859851837158 10.26171970367432 C 2.297159910202026 10.26171970367432 -1.481628402189017e-07 7.964559555053711 -1.481628402189017e-07 5.130859375 C -1.481628402189017e-07 2.297159433364868 2.297159910202026 -6.24999984211172e-07 5.130859851837158 -6.24999984211172e-07 C 7.964560031890869 -6.24999984211172e-07 10.26171970367432 2.297159433364868 10.26171970367432 5.130859375 C 10.26171970367432 7.964559555053711 7.964560031890869 10.26171970367432 5.130859851837158 10.26171970367432 Z" stroke="none" fill="#345953"/>
            </g>
            <g id="Trazado_1043526-6" data-name="Trazado 1043526" transform="translate(0 0)" fill="#fff">
              <path d="M 5.130859851837158 9.761719703674316 C 2.577399969100952 9.761719703674316 0.4999998509883881 7.684319496154785 0.4999998509883881 5.130859375 C 0.4999998509883881 2.577399492263794 2.577399969100952 0.4999993741512299 5.130859851837158 0.4999993741512299 C 7.684319972991943 0.4999993741512299 9.761719703674316 2.577399492263794 9.761719703674316 5.130859375 C 9.761719703674316 7.684319496154785 7.684319972991943 9.761719703674316 5.130859851837158 9.761719703674316 Z" stroke="none"/>
              <path d="M 5.130859851837158 9.261719703674316 C 7.40861988067627 9.261719703674316 9.261719703674316 7.408619403839111 9.261719703674316 5.130859375 C 9.261719703674316 2.853099346160889 7.40861988067627 0.9999994039535522 5.130859851837158 0.9999994039535522 C 2.853099822998047 0.9999994039535522 0.9999998807907104 2.853099346160889 0.9999998807907104 5.130859375 C 0.9999998807907104 7.408619403839111 2.853099822998047 9.261719703674316 5.130859851837158 9.261719703674316 M 5.130859851837158 10.26171970367432 C 2.297159910202026 10.26171970367432 -1.481628402189017e-07 7.964559555053711 -1.481628402189017e-07 5.130859375 C -1.481628402189017e-07 2.297159433364868 2.297159910202026 -6.24999984211172e-07 5.130859851837158 -6.24999984211172e-07 C 7.964560031890869 -6.24999984211172e-07 10.26171970367432 2.297159433364868 10.26171970367432 5.130859375 C 10.26171970367432 7.964559555053711 7.964560031890869 10.26171970367432 5.130859851837158 10.26171970367432 Z" stroke="none" fill="#345953"/>
            </g>
          </g>
        </g>
      </g>
    </g>
  </g>
</svg>
