<svg xmlns="http://www.w3.org/2000/svg" xmlns:xlink="http://www.w3.org/1999/xlink" width="88" height="88" viewBox="0 0 88 88">
  <defs>
    <filter id="Trazado_896985" x="0" y="0" width="88" height="88" filterUnits="userSpaceOnUse">
      <feOffset dy="3" input="SourceAlpha"/>
      <feGaussianBlur stdDeviation="3" result="blur"/>
      <feFlood flood-opacity="0.161"/>
      <feComposite operator="in" in2="blur"/>
      <feComposite in="SourceGraphic"/>
    </filter>
  </defs>
  <g id="Grupo_1231310" data-name="Grupo 1231310" transform="translate(-824.72 -16733.871)">
    <g id="Grupo_1212749" data-name="Grupo 1212749" transform="translate(627.753 7576.601)">
      <g id="Grupo_1212198" data-name="Grupo 1212198" transform="translate(205.967 9163.27)">
        <g id="Grupo_1200012" data-name="Grupo 1200012" transform="translate(0 0)">
          <g id="Grupo_1198723" data-name="Grupo 1198723" transform="translate(0 0)">
            <g id="Grupo_1198139" data-name="Grupo 1198139">
              <g id="Grupo_1111318" data-name="Grupo 1111318">
                <g id="Grupo_1109826" data-name="Grupo 1109826" transform="translate(0)">
                  <g id="Grupo_1098742" data-name="Grupo 1098742">
                    <g transform="matrix(1, 0, 0, 1, -9, -6)" filter="url(#Trazado_896985)">
                      <g id="Trazado_896985-2" data-name="Trazado 896985" transform="translate(9 6)" fill="#d0c110" opacity="0.859">
                        <path d="M 34.99995040893555 69.49998474121094 C 30.34226989746094 69.49998474121094 25.82417106628418 68.58788299560547 21.57117080688477 66.78900909423828 C 17.4630012512207 65.05139923095703 13.77338027954102 62.56376266479492 10.6048002243042 59.39518356323242 C 7.436220645904541 56.22661209106445 4.948580265045166 52.53699111938477 3.210970401763916 48.4288215637207 C 1.412100434303284 44.17582321166992 0.5000004172325134 39.65772247314453 0.5000004172325134 35.00004196166992 C 0.5000004172325134 30.34233283996582 1.412100434303284 25.82422256469727 3.210970401763916 21.57120323181152 C 4.948580265045166 17.46302223205566 7.436220645904541 13.77339267730713 10.6048002243042 10.60481262207031 C 13.77338027954102 7.436232566833496 17.46298980712891 4.948582172393799 21.57117080688477 3.210972309112549 C 25.82417106628418 1.412102341651917 30.34226036071777 0.500002384185791 34.99995040893555 0.500002384185791 C 39.65763092041016 0.500002384185791 44.17573165893555 1.412102341651917 48.42873001098633 3.210972309112549 C 52.53689956665039 4.948582172393799 56.22652053833008 7.436222553253174 59.39509963989258 10.60480213165283 C 62.56367874145508 13.77338218688965 65.05132293701172 17.46299171447754 66.78893280029297 21.57116317749023 C 68.58779907226562 25.82416152954102 69.49990081787109 30.34226226806641 69.49990081787109 34.99994277954102 C 69.49990081787109 39.65765380859375 68.58779907226562 44.17576217651367 66.78893280029297 48.42878341674805 C 65.05132293701172 52.53696060180664 62.56367874145508 56.22659301757812 59.39509963989258 59.39517211914062 C 56.22652053833008 62.56375122070312 52.53691101074219 65.05139923095703 48.42873001098633 66.78900909423828 C 44.17573165893555 68.58788299560547 39.65763854980469 69.49998474121094 34.99995040893555 69.49998474121094 Z" stroke="none"/>
                        <path d="M 34.99995040893555 1 C 30.40954208374023 1 25.95698165893555 1.898811340332031 21.76594161987305 3.671485900878906 C 17.71736907958984 5.383880615234375 14.08116912841797 7.835540771484375 10.95835113525391 10.9583625793457 C 7.835540771484375 14.08119201660156 5.383872985839844 17.71740341186523 3.671470642089844 21.76598358154297 C 1.898811340332031 25.95703125 1 30.40961074829102 1 35.00004196166992 C 1 39.5904541015625 1.898811340332031 44.04301452636719 3.671470642089844 48.23405456542969 C 5.383872985839844 52.28262329101562 7.835540771484375 55.9188117980957 10.95835113525391 59.04163360595703 C 14.08116912841797 62.16445159912109 17.71736907958984 64.61611175537109 21.76594161987305 66.32851409912109 C 25.95698165893555 68.10117340087891 30.40954208374023 68.99998474121094 34.99995040893555 68.99998474121094 C 39.59036254882812 68.99998474121094 44.04292297363281 68.10117340087891 48.23396301269531 66.32851409912109 C 52.28253173828125 64.61610412597656 55.91873168945312 62.16444396972656 59.04154968261719 59.04162216186523 C 62.16436004638672 55.91879272460938 64.61602783203125 52.2825927734375 66.32843017578125 48.23401260375977 C 68.10108947753906 44.04295349121094 68.99990081787109 39.59037017822266 68.99990081787109 34.99994277954102 C 68.99990081787109 30.40954208374023 68.10108947753906 25.95698165893555 66.32843017578125 21.76594161987305 C 64.61602783203125 17.71737289428711 62.16436004638672 14.08117294311523 59.04154968261719 10.95835113525391 C 55.91873168945312 7.835533142089844 52.28253173828125 5.383872985839844 48.23396301269531 3.671470642089844 C 44.04292297363281 1.898811340332031 39.59036254882812 1 34.99995040893555 1 M 34.99995040893555 0 C 54.32989120483398 0 69.99990081787109 15.67001342773438 69.99990081787109 34.99994277954102 L 69.99990081787109 35.00004196166992 C 69.99990081787109 54.32998275756836 54.32989120483398 69.99998474121094 34.99995040893555 69.99998474121094 C 15.67000961303711 69.99998474121094 0 54.32998275756836 0 35.00004196166992 L 0 34.99994277954102 C 0 15.67001342773438 15.67000961303711 0 34.99995040893555 0 Z" stroke="none" fill="#fff"/>
                      </g>
                    </g>
                    <g id="Rectángulo_400907" data-name="Rectángulo 400907" transform="translate(0)" fill="none" stroke="#fff" stroke-width="1">
                      <rect width="70" height="70" rx="35" stroke="none"/>
                      <rect x="0.5" y="0.5" width="69" height="69" rx="34.5" fill="none"/>
                    </g>
                  </g>
                </g>
              </g>
            </g>
          </g>
        </g>
      </g>
    </g>
    <g id="_x30_1_Typography" transform="translate(838.568 16697.797)">
      <g id="Grupo_1230938" data-name="Grupo 1230938" transform="translate(7.042 60.103)">
        <path id="Trazado_1184738" data-name="Trazado 1184738" d="M40.413,108.066v28.3a2.335,2.335,0,0,1-2.335,2.335H15.09a2.335,2.335,0,0,1-2.335-2.335v-28.3a2.335,2.335,0,0,1,2.335-2.335H38.078A2.334,2.334,0,0,1,40.413,108.066Z" transform="translate(-12.202 -101.313)" fill="#72a3db"/>
        <path id="Trazado_1184739" data-name="Trazado 1184739" d="M99.249,70.722V96.488a2.3,2.3,0,0,1-2.3,2.3H73.892a2.3,2.3,0,0,1-2.3-2.3V68.117a2.3,2.3,0,0,1,2.3-2.3h20.45Z" transform="translate(-65.34 -65.263)" fill="#ece9eb"/>
        <path id="Trazado_1184740" data-name="Trazado 1184740" d="M158.03,194.784v1.207a1.112,1.112,0,0,1-1.017,1.13,1.072,1.072,0,0,1-1.129-1.071v-.343h-3.551v8.468a1.073,1.073,0,0,1-2.145,0v-8.468h-3.551v.283a1.114,1.114,0,0,1-.994,1.13,1.074,1.074,0,0,1-1.151-1.07v-1.266a1.223,1.223,0,0,1,1.223-1.223h11.092A1.223,1.223,0,0,1,158.03,194.784Z" transform="translate(-131.181 -180.636)" fill="#f02836"/>
        <path id="Trazado_1184741" data-name="Trazado 1184741" d="M103.678,328.162a1.335,1.335,0,1,1-1.335-1.335A1.334,1.334,0,0,1,103.678,328.162Z" transform="translate(-91.907 -300.996)" fill="#ffbc42"/>
        <path id="Trazado_1184742" data-name="Trazado 1184742" d="M302.859,328.162a1.335,1.335,0,1,1-1.336-1.335A1.334,1.334,0,0,1,302.859,328.162Z" transform="translate(-271.799 -300.996)" fill="#ffbc42"/>
        <path id="Trazado_1184743" data-name="Trazado 1184743" d="M311.426,70.722h-4.3a.6.6,0,0,1-.6-.6v-4.3Z" transform="translate(-277.517 -65.263)" fill="#67625e"/>
        <path id="Trazado_1184744" data-name="Trazado 1184744" d="M103.678,154.722a1.335,1.335,0,1,1-1.335-1.335A1.334,1.334,0,0,1,103.678,154.722Z" transform="translate(-91.907 -144.353)" fill="#ffbc42"/>
        <path id="Trazado_1184745" data-name="Trazado 1184745" d="M302.859,154.722a1.335,1.335,0,1,1-1.336-1.335A1.334,1.334,0,0,1,302.859,154.722Z" transform="translate(-271.799 -144.353)" fill="#ffbc42"/>
        <path id="Trazado_1184746" data-name="Trazado 1184746" d="M317.258,98.939l-13.243,13.243-5.666.378.378-5.666L311.97,93.652a1.873,1.873,0,0,1,2.649,0l2.639,2.639A1.873,1.873,0,0,1,317.258,98.939Z" transform="translate(-270.138 -89.907)" fill="#aacd6e"/>
        <path id="Trazado_1184747" data-name="Trazado 1184747" d="M298.9,233.782l-.168.168-.378,5.666,5.666-.378.168-.168Z" transform="translate(-270.138 -216.962)" fill="#ece9eb"/>
        <path id="Trazado_1184748" data-name="Trazado 1184748" d="M428.3,100.488l1.548-1.548a1.873,1.873,0,0,0,0-2.649l-2.639-2.639a1.873,1.873,0,0,0-2.649,0L423.017,95.2Z" transform="translate(-382.732 -89.907)" fill="#67625e"/>
        <path id="Trazado_1184749" data-name="Trazado 1184749" d="M0,0H13.928V2.691H0Z" transform="translate(30.445 18.514) rotate(-45)" fill="#ece9eb"/>
        <path id="Trazado_1184750" data-name="Trazado 1184750" d="M408.114,116.373l-.811.811a.613.613,0,0,1-.867,0L400.252,111a.613.613,0,0,1,0-.867l.811-.811a.613.613,0,0,1,.867,0l6.183,6.183A.613.613,0,0,1,408.114,116.373Z" transform="translate(-362.01 -104.394)" fill="#ece9eb"/>
        <path id="Trazado_1184751" data-name="Trazado 1184751" d="M9.931,98.046H32.919A2.889,2.889,0,0,0,35.8,95.16v-.979H38.65A2.856,2.856,0,0,0,41.5,91.328v-6.74a.552.552,0,0,0-1.1,0v6.74a1.75,1.75,0,0,1-1.748,1.748H15.6a1.752,1.752,0,0,1-1.752-1.748V62.959A1.754,1.754,0,0,1,15.6,61.207h19.9v3.752a1.157,1.157,0,0,0,1.156,1.156H40.4v2.531a.552.552,0,1,0,1.1,0V65.562a.582.582,0,0,0-.162-.39l-4.907-4.907a.585.585,0,0,0-.39-.162H15.6a2.86,2.86,0,0,0-2.857,2.857v1.008H9.931a2.893,2.893,0,0,0-2.89,2.89v28.3a2.891,2.891,0,0,0,2.89,2.886ZM36.648,65.01a.051.051,0,0,1-.051-.051v-2.97l3.021,3.021h-2.97Zm-28.5,1.847a1.787,1.787,0,0,1,1.785-1.785H12.74V91.328A2.858,2.858,0,0,0,15.6,94.181H34.7v.979a1.784,1.784,0,0,1-1.782,1.782H9.931A1.785,1.785,0,0,1,8.146,95.16Z" transform="translate(-7.042 -60.103)"/>
        <path id="Trazado_1184752" data-name="Trazado 1184752" d="M146.111,200.653a1.627,1.627,0,0,0,1.625-1.625v-7.915h2.46a1.622,1.622,0,0,0,1.695,1.414,1.654,1.654,0,0,0,1.541-1.682v-1.207a1.777,1.777,0,0,0-1.775-1.775H140.565a1.777,1.777,0,0,0-1.775,1.775V190.9a1.627,1.627,0,0,0,1.743,1.621,1.652,1.652,0,0,0,1.486-1.412h2.467v7.915A1.627,1.627,0,0,0,146.111,200.653Zm-4.623-10.645a.552.552,0,0,0-.552.552v.283a.564.564,0,0,1-.482.58.522.522,0,0,1-.559-.519v-1.266a.671.671,0,0,1,.671-.671h11.092a.671.671,0,0,1,.671.671v1.207a.56.56,0,0,1-.493.579.519.519,0,0,1-.549-.52v-.343a.552.552,0,0,0-.552-.552h-3.551a.552.552,0,0,0-.552.552v8.467a.521.521,0,1,1-1.041,0V190.56a.552.552,0,0,0-.552-.552h-3.551Z" transform="translate(-126.031 -175.49)"/>
        <path id="Trazado_1184753" data-name="Trazado 1184753" d="M116.478,152.489a.552.552,0,0,0,.552-.552v-.566a1.882,1.882,0,1,0-2.341-2.354h-15.7a1.882,1.882,0,1,0-2.351,2.351v13.209a1.882,1.882,0,1,0,2.354,2.341h15.7a1.882,1.882,0,1,0,2.344-2.344v-.6a.552.552,0,0,0-1.1,0v.607a1.882,1.882,0,0,0-1.237,1.237h-15.7a1.882,1.882,0,0,0-1.247-1.24v-13.2a1.882,1.882,0,0,0,1.25-1.25h15.7a1.882,1.882,0,0,0,1.24,1.247v.569A.552.552,0,0,0,116.478,152.489Zm0,13.1a.783.783,0,1,1-.783.783A.784.784,0,0,1,116.483,165.587Zm-18.509.757c0,.007,0,.014,0,.022s0,.018,0,.026a.789.789,0,1,1,0-.048Zm-.759-15.989-.026,0-.022,0a.782.782,0,1,1,.807-.807c0,.007,0,.014,0,.022s0,.018,0,.026A.782.782,0,0,1,97.215,150.355Zm19.268-1.564a.783.783,0,0,1,.014,1.565l-.018,0h-.014a.782.782,0,0,1,.018-1.565Z" transform="translate(-86.758 -139.204)"/>
        <path id="Trazado_1184754" data-name="Trazado 1184754" d="M309.854,88.112a2.425,2.425,0,0,0-3.428,0h0l-1.161,1.161a1.192,1.192,0,0,0-1.619.024l-.811.811a1.165,1.165,0,0,0-.024,1.619l-9.629,9.629h0a.552.552,0,0,0-.16.354l-.379,5.665a.554.554,0,0,0,.588.589l5.664-.377a.586.586,0,0,0,.354-.16h0l9.628-9.625.14.14a1.165,1.165,0,0,0,1.648,0l.811-.811a1.165,1.165,0,0,0,0-1.648l-.141-.141,1.158-1.158a2.428,2.428,0,0,0,0-3.43Zm-2.648.782a1.352,1.352,0,0,1,1.868,0l2.638,2.638a1.323,1.323,0,0,1,0,1.869l-1.157,1.157-4.507-4.507Zm-13.419,17.925.276-4.136,3.861,3.861Zm2.426-3.547,9.068-9.067,1.122,1.122-9.068,9.068Zm-.781-.781-.912-.912,9.068-9.068.912.912Zm3.6,3.6-.912-.912,9.068-9.068.913.913ZM310.7,96.348l-.811.811a.062.062,0,0,1-.087,0l-6.183-6.183a.062.062,0,0,1,0-.087l.811-.811a.061.061,0,0,1,.086,0l6.183,6.183A.061.061,0,0,1,310.7,96.348Z" transform="translate(-264.983 -84.759)"/>
      </g>
    </g>
  </g>
</svg>
