<svg xmlns="http://www.w3.org/2000/svg" xmlns:xlink="http://www.w3.org/1999/xlink" width="88" height="88" viewBox="0 0 88 88">
  <defs>
    <filter id="Trazado_896985" x="0" y="0" width="88" height="88" filterUnits="userSpaceOnUse">
      <feOffset dy="3" input="SourceAlpha"/>
      <feGaussianBlur stdDeviation="3" result="blur"/>
      <feFlood flood-opacity="0.161"/>
      <feComposite operator="in" in2="blur"/>
      <feComposite in="SourceGraphic"/>
    </filter>
  </defs>
  <g id="Grupo_1230882" data-name="Grupo 1230882" transform="translate(-510.669 -1402.432)">
    <g id="Grupo_1212720" data-name="Grupo 1212720" transform="translate(313.703 -7754.838)">
      <g id="Grupo_1212198" data-name="Grupo 1212198" transform="translate(205.967 9163.27)">
        <g id="Grupo_1200012" data-name="Grupo 1200012" transform="translate(0 0)">
          <g id="Grupo_1198723" data-name="Grupo 1198723" transform="translate(0 0)">
            <g id="Grupo_1198139" data-name="Grupo 1198139">
              <g id="Grupo_1111318" data-name="Grupo 1111318">
                <g id="Grupo_1109826" data-name="Grupo 1109826" transform="translate(0)">
                  <g id="Grupo_1098742" data-name="Grupo 1098742">
                    <g transform="matrix(1, 0, 0, 1, -9, -6)" filter="url(#Trazado_896985)">
                      <g id="Trazado_896985-2" data-name="Trazado 896985" transform="translate(9 6)" fill="#d0c110" opacity="0.859">
                        <path d="M 34.99995040893555 69.49998474121094 C 30.34226989746094 69.49998474121094 25.82417106628418 68.58788299560547 21.57117080688477 66.78900909423828 C 17.4630012512207 65.05139923095703 13.77338027954102 62.56376266479492 10.6048002243042 59.39518356323242 C 7.436220645904541 56.22661209106445 4.948580265045166 52.53699111938477 3.210970401763916 48.4288215637207 C 1.412100434303284 44.17582321166992 0.5000004172325134 39.65772247314453 0.5000004172325134 35.00004196166992 C 0.5000004172325134 30.34233283996582 1.412100434303284 25.82422256469727 3.210970401763916 21.57120323181152 C 4.948580265045166 17.46302223205566 7.436220645904541 13.77339267730713 10.6048002243042 10.60481262207031 C 13.77338027954102 7.436232566833496 17.46298980712891 4.948582172393799 21.57117080688477 3.210972309112549 C 25.82417106628418 1.412102341651917 30.34226036071777 0.500002384185791 34.99995040893555 0.500002384185791 C 39.65763092041016 0.500002384185791 44.17573165893555 1.412102341651917 48.42873001098633 3.210972309112549 C 52.53689956665039 4.948582172393799 56.22652053833008 7.436222553253174 59.39509963989258 10.60480213165283 C 62.56367874145508 13.77338218688965 65.05132293701172 17.46299171447754 66.78893280029297 21.57116317749023 C 68.58779907226562 25.82416152954102 69.49990081787109 30.34226226806641 69.49990081787109 34.99994277954102 C 69.49990081787109 39.65765380859375 68.58779907226562 44.17576217651367 66.78893280029297 48.42878341674805 C 65.05132293701172 52.53696060180664 62.56367874145508 56.22659301757812 59.39509963989258 59.39517211914062 C 56.22652053833008 62.56375122070312 52.53691101074219 65.05139923095703 48.42873001098633 66.78900909423828 C 44.17573165893555 68.58788299560547 39.65763854980469 69.49998474121094 34.99995040893555 69.49998474121094 Z" stroke="none"/>
                        <path d="M 34.99995040893555 1 C 30.40954208374023 1 25.95698165893555 1.898811340332031 21.76594161987305 3.671485900878906 C 17.71736907958984 5.383880615234375 14.08116912841797 7.835540771484375 10.95835113525391 10.9583625793457 C 7.835540771484375 14.08119201660156 5.383872985839844 17.71740341186523 3.671470642089844 21.76598358154297 C 1.898811340332031 25.95703125 1 30.40961074829102 1 35.00004196166992 C 1 39.5904541015625 1.898811340332031 44.04301452636719 3.671470642089844 48.23405456542969 C 5.383872985839844 52.28262329101562 7.835540771484375 55.9188117980957 10.95835113525391 59.04163360595703 C 14.08116912841797 62.16445159912109 17.71736907958984 64.61611175537109 21.76594161987305 66.32851409912109 C 25.95698165893555 68.10117340087891 30.40954208374023 68.99998474121094 34.99995040893555 68.99998474121094 C 39.59036254882812 68.99998474121094 44.04292297363281 68.10117340087891 48.23396301269531 66.32851409912109 C 52.28253173828125 64.61610412597656 55.91873168945312 62.16444396972656 59.04154968261719 59.04162216186523 C 62.16436004638672 55.91879272460938 64.61602783203125 52.2825927734375 66.32843017578125 48.23401260375977 C 68.10108947753906 44.04295349121094 68.99990081787109 39.59037017822266 68.99990081787109 34.99994277954102 C 68.99990081787109 30.40954208374023 68.10108947753906 25.95698165893555 66.32843017578125 21.76594161987305 C 64.61602783203125 17.71737289428711 62.16436004638672 14.08117294311523 59.04154968261719 10.95835113525391 C 55.91873168945312 7.835533142089844 52.28253173828125 5.383872985839844 48.23396301269531 3.671470642089844 C 44.04292297363281 1.898811340332031 39.59036254882812 1 34.99995040893555 1 M 34.99995040893555 0 C 54.32989120483398 0 69.99990081787109 15.67001342773438 69.99990081787109 34.99994277954102 L 69.99990081787109 35.00004196166992 C 69.99990081787109 54.32998275756836 54.32989120483398 69.99998474121094 34.99995040893555 69.99998474121094 C 15.67000961303711 69.99998474121094 0 54.32998275756836 0 35.00004196166992 L 0 34.99994277954102 C 0 15.67001342773438 15.67000961303711 0 34.99995040893555 0 Z" stroke="none" fill="#fff"/>
                      </g>
                    </g>
                    <g id="Rectángulo_400907" data-name="Rectángulo 400907" transform="translate(0)" fill="none" stroke="#fff" stroke-width="1">
                      <rect width="70" height="70" rx="35" stroke="none"/>
                      <rect x="0.5" y="0.5" width="69" height="69" rx="34.5" fill="none"/>
                    </g>
                  </g>
                </g>
              </g>
            </g>
          </g>
        </g>
      </g>
    </g>
    <g id="pen_1151143" transform="translate(532.249 1421.014)">
      <path id="Trazado_1184511" data-name="Trazado 1184511" d="M380.495,145.059a1.168,1.168,0,0,1,.174.016v.206a.892.892,0,0,0-.4-.2.94.94,0,0,1,.213-.023Zm0,0" transform="translate(-344.599 -131.622)" fill="#ff9801"/>
      <path id="Trazado_1184512" data-name="Trazado 1184512" d="M409.51,160.345v3.328a1.228,1.228,0,0,1-.2.656l-2.767,4.142a1.227,1.227,0,0,0-.2.656v2.41h-2.371v-2.41a1.227,1.227,0,0,1,.2-.656l2.767-4.142a1.224,1.224,0,0,0,.2-.656v-3.328a1.234,1.234,0,0,0-.111-.506l-1.241-2.616-.474-1-3.707-7.825v-3.32a1.164,1.164,0,0,1,.174-.016h.008a.957.957,0,0,1,.869.553l5.027,10.607.474,1,1.241,2.616a1.246,1.246,0,0,1,.111.506Zm0,0" transform="translate(-363.955 -131.622)" fill="#f57c00"/>
      <path id="Trazado_1184513" data-name="Trazado 1184513" d="M376.4,145.082a.891.891,0,0,0-.4.2v-.206a1.162,1.162,0,0,1,.174-.016h.008A.941.941,0,0,1,376.4,145.082Zm0,0" transform="translate(-340.728 -131.622)" fill="#ff9801"/>
      <path id="Trazado_1184514" data-name="Trazado 1184514" d="M314.225,160.575V163.9a1.224,1.224,0,0,1-.2.656l-2.766,4.142a1.227,1.227,0,0,0-.2.656v2.41h-8.695v-2.41a1.227,1.227,0,0,0-.2-.656l-.292-.435-.783-1.178-1.692-2.53a1.224,1.224,0,0,1-.2-.656v-3.328a1.24,1.24,0,0,1,.111-.506l5.422-11.445,1.32-2.782a.606.606,0,0,1,1.051-.332v11.777a2.266,2.266,0,0,0-.4.182,2.346,2.346,0,0,0-1.186,2.047,2.371,2.371,0,1,0,4.126-1.589,2.183,2.183,0,0,0-.965-.64v-8.663l3.707,7.825.474,1,1.241,2.616a1.234,1.234,0,0,1,.111.506Zm0,0" transform="translate(-271.042 -131.852)" fill="#ff9801"/>
      <path id="Trazado_1184515" data-name="Trazado 1184515" d="M365.265,11.684a3.162,3.162,0,0,1-3.162,3.162,2.966,2.966,0,0,1-1.186-.237,3.152,3.152,0,0,1,0-5.849,2.966,2.966,0,0,1,1.186-.237,3.161,3.161,0,0,1,3.162,3.162Zm0,0" transform="translate(-325.243 -7.733)" fill="#4527a0"/>
      <g id="Grupo_1230881" data-name="Grupo 1230881" transform="translate(1.291 0.79)">
        <path id="Trazado_1184516" data-name="Trazado 1184516" d="M362.893,14.007c0-1.615-.885-2.925-1.976-2.925s-1.976,1.309-1.976,2.925.885,2.925,1.976,2.925S362.893,15.622,362.893,14.007Zm0,0" transform="translate(-326.534 -10.845)" fill="#673ab7"/>
        <path id="Trazado_1184517" data-name="Trazado 1184517" d="M15.4,11.685a3.162,3.162,0,1,1-3.162-3.162A3.162,3.162,0,0,1,15.4,11.685Zm0,0" transform="translate(-9.074 -8.523)" fill="#673ab7"/>
        <path id="Trazado_1184518" data-name="Trazado 1184518" d="M15.4,361.552a3.162,3.162,0,1,1-3.162-3.162A3.162,3.162,0,0,1,15.4,361.552Zm0,0" transform="translate(-9.074 -325.983)" fill="#673ab7"/>
        <path id="Trazado_1184519" data-name="Trazado 1184519" d="M197.993,196.258h1.581a1.186,1.186,0,0,1,1.186,1.186v1.581a1.186,1.186,0,0,1-1.186,1.185h-1.581a1.185,1.185,0,0,1-1.185-1.185v-1.581A1.186,1.186,0,0,1,197.993,196.258Zm0,0" transform="translate(-179.419 -178.869)" fill="#673ab7"/>
      </g>
      <path id="Trazado_1184520" data-name="Trazado 1184520" d="M337.4,428.114v2.429H324.753v-2.429a1.344,1.344,0,0,1,1.185-1.458h10.276a1.344,1.344,0,0,1,1.186,1.458Zm0,0" transform="translate(-294.217 -387.136)" fill="#607d8b"/>
      <path id="Trazado_1184521" data-name="Trazado 1184521" d="M335.084,428.114v2.429H324.808v-2.429c0-.806.43-1.458.964-1.458h8.349c.533,0,.964.651.964,1.458Zm0,0" transform="translate(-294.271 -387.136)" fill="#cfd8dc"/>
      <path id="Trazado_1184522" data-name="Trazado 1184522" d="M337.455,460.789v2.767a1.186,1.186,0,0,1-1.186,1.186H325.994a1.186,1.186,0,0,1-1.185-1.186v-2.767Zm0,0" transform="translate(-294.272 -418.107)" fill="#37474f"/>
      <path id="Trazado_1184523" data-name="Trazado 1184523" d="M335.036,460.789v2.767a1.09,1.09,0,0,1-.964,1.186h-8.348a1.09,1.09,0,0,1-.964-1.186v-2.767Zm0,0" transform="translate(-294.223 -418.107)" fill="#607d8b"/>
      <path id="Trazado_1184524" data-name="Trazado 1184524" d="M307.111,145.074v11.983a2.346,2.346,0,0,0-1.581,2.229,2.382,2.382,0,0,0,.261,1.083,22.027,22.027,0,0,0-4.7,6.489l-1.692-2.53a1.224,1.224,0,0,1-.2-.656v-3.328a1.241,1.241,0,0,1,.111-.506l6.742-14.227a.957.957,0,0,1,.869-.553h.008a1.162,1.162,0,0,1,.174.016Zm0,0" transform="translate(-271.042 -131.622)" fill="#fec108"/>
      <path id="Trazado_1184525" data-name="Trazado 1184525" d="M407.684,156.219a14.789,14.789,0,0,0-2.3.435,14.445,14.445,0,0,0-2.505.9l-.308.142c-.016-.016-.024-.031-.04-.039a2.092,2.092,0,0,0-.925-.6V145.074a1.176,1.176,0,0,1,.174-.016h.008a.957.957,0,0,1,.869.553Zm0,0" transform="translate(-363.956 -131.622)" fill="#ff9801"/>
      <path id="Trazado_1184526" data-name="Trazado 1184526" d="M405.384,192.116a14.448,14.448,0,0,0-2.505.9c-.119.031-.237.063-.348.1a2.092,2.092,0,0,0-.925-.6V184.14Zm0,0" transform="translate(-363.956 -167.084)" fill="#fec108"/>
      <path id="Trazado_1184527" data-name="Trazado 1184527" d="M3.712,7.825v1.66a.791.791,0,0,0,1.581,0V7.825A3.964,3.964,0,0,0,8.375,4.742h1.66a.79.79,0,0,0,0-1.581H8.375A3.952,3.952,0,1,0,3.712,7.825ZM4.5,1.58A2.371,2.371,0,1,1,2.131,3.952,2.371,2.371,0,0,1,4.5,1.58Zm0,0" transform="translate(-0.05 0)"/>
      <path id="Trazado_1184528" data-name="Trazado 1184528" d="M4.453,334.533a3.959,3.959,0,0,0,3.873-3.162h1.66a.791.791,0,0,0,0-1.581H8.326a3.964,3.964,0,0,0-3.082-3.082v-1.66a.791.791,0,0,0-1.581,0v1.66a3.952,3.952,0,0,0,.791,7.825Zm0-6.324a2.371,2.371,0,1,1-2.371,2.371A2.372,2.372,0,0,1,4.453,328.209Zm0,0" transform="translate(0 -294.222)"/>
      <path id="Trazado_1184529" data-name="Trazado 1184529" d="M325.6,4.742h1.66a3.964,3.964,0,0,0,3.082,3.082v1.66a.79.79,0,0,0,1.581,0V7.824a3.952,3.952,0,1,0-4.663-4.663H325.6a.79.79,0,0,0,0,1.581Zm5.533-3.162a2.371,2.371,0,1,1-2.371,2.371,2.371,2.371,0,0,1,2.371-2.371Zm0,0" transform="translate(-294.272 0)"/>
      <path id="Trazado_1184530" data-name="Trazado 1184530" d="M233.439,35.706h4.268a.79.79,0,0,0,0-1.581h-4.268a.79.79,0,0,0,0,1.581Zm0,0" transform="translate(-210.649 -30.964)"/>
      <path id="Trazado_1184531" data-name="Trazado 1184531" d="M141.279,35.706h4.268a.79.79,0,0,0,0-1.581h-4.268a.79.79,0,0,0,0,1.581Zm0,0" transform="translate(-127.025 -30.964)"/>
      <path id="Trazado_1184532" data-name="Trazado 1184532" d="M35.462,232.1a.791.791,0,0,0-.791.79v4.268a.791.791,0,0,0,1.581,0v-4.268A.791.791,0,0,0,35.462,232.1Zm0,0" transform="translate(-31.01 -210.599)"/>
      <path id="Trazado_1184533" data-name="Trazado 1184533" d="M36.253,140.728a.791.791,0,0,0-1.581,0V145a.791.791,0,0,0,1.581,0Zm0,0" transform="translate(-31.01 -126.975)"/>
      <path id="Trazado_1184534" data-name="Trazado 1184534" d="M237.707,385.57a.791.791,0,0,0,0-1.581h-4.268a.791.791,0,0,0,0,1.581Zm0,0" transform="translate(-210.649 -348.42)"/>
      <path id="Trazado_1184535" data-name="Trazado 1184535" d="M145.547,385.57a.791.791,0,0,0,0-1.581h-4.268a.791.791,0,0,0,0,1.581Zm0,0" transform="translate(-127.025 -348.42)"/>
      <path id="Trazado_1184536" data-name="Trazado 1184536" d="M301.121,136.521a2.762,2.762,0,0,1-2.4.064,1.757,1.757,0,0,0-1.115.939l-6.738,14.228a1.981,1.981,0,0,0-.191.844v3.327a1.978,1.978,0,0,0,.332,1.1l2.766,4.144a.392.392,0,0,1,.066.22v1.628a1.97,1.97,0,0,0-.793,1.571v4.742a1.976,1.976,0,0,0,1.976,1.976h10.276a1.976,1.976,0,0,0,1.976-1.976v-4.742a1.969,1.969,0,0,0-.791-1.571v-1.628a.394.394,0,0,1,.067-.219l2.767-4.146a1.978,1.978,0,0,0,.329-1.1V152.6a1.977,1.977,0,0,0-.19-.846l-6.738-14.227A1.763,1.763,0,0,0,301.121,136.521Zm-.964,13.437a1.581,1.581,0,1,1-1.581,1.581A1.581,1.581,0,0,1,300.157,149.958Zm5.138,14.228a.4.4,0,0,1,.4.4v1.186H294.624v-1.186a.4.4,0,0,1,.4-.4Zm0,5.533H295.019a.4.4,0,0,1-.4-.4v-1.976H305.69v1.976A.4.4,0,0,1,305.294,169.718Zm2.767-17.123v3.327a.4.4,0,0,1-.066.219l-2.767,4.146a1.976,1.976,0,0,0-.329,1.1V162.6h-9.485v-1.222a1.978,1.978,0,0,0-.332-1.1l-2.767-4.144a.394.394,0,0,1-.063-.22V152.6a.4.4,0,0,1,.038-.168l6.739-14.228c.066-.138.337-.093.337.075v10.214a3.162,3.162,0,1,0,1.581,0V138.275a.184.184,0,0,1,.338-.075l6.738,14.228a.4.4,0,0,1,.038.167Zm0,0" transform="translate(-263.297 -123.874)"/>
      <path id="Trazado_1184537" data-name="Trazado 1184537" d="M188.273,189.7v1.581a1.976,1.976,0,0,0,1.976,1.976h1.581a1.976,1.976,0,0,0,1.976-1.976V189.7a1.976,1.976,0,0,0-1.976-1.976h-1.581a1.976,1.976,0,0,0-1.976,1.976Zm1.581,0a.4.4,0,0,1,.4-.4h1.581a.4.4,0,0,1,.4.4v1.581a.4.4,0,0,1-.4.4h-1.581a.4.4,0,0,1-.4-.4Zm0,0" transform="translate(-170.383 -170.335)"/>
    </g>
  </g>
</svg>
