<svg xmlns="http://www.w3.org/2000/svg" width="85.001" height="85" viewBox="0 0 85.001 85">
  <g id="Grupo_1230897" data-name="Grupo 1230897" transform="translate(-180.05 -4659.908)">
    <g id="Grupo_1212472" data-name="Grupo 1212472" transform="translate(180.05 4659.907)">
      <g id="Grupo_1198274" data-name="Grupo 1198274" transform="translate(0 0)">
        <g id="Grupo_1112424" data-name="Grupo 1112424">
          <g id="Grupo_1112415" data-name="Grupo 1112415">
            <g id="Grupo_1098742" data-name="Grupo 1098742" transform="translate(0 0)">
              <g id="Rect치ngulo_400898" data-name="Rect치ngulo 400898" transform="translate(0.001)" fill="#f5f2ce" stroke="#908619" stroke-width="3">
                <rect width="85" height="85" rx="42.5" stroke="none"/>
                <rect x="1.5" y="1.5" width="82" height="82" rx="41" fill="none"/>
              </g>
              <g id="Rect치ngulo_400907" data-name="Rect치ngulo 400907" fill="none" stroke="#908619" stroke-width="3">
                <rect width="85" height="85" rx="42.5" stroke="none"/>
                <rect x="1.5" y="1.5" width="82" height="82" rx="41" fill="none"/>
              </g>
            </g>
          </g>
        </g>
      </g>
    </g>
    <g id="rhinoceros_6282846" transform="translate(190.664 4667.157)">
      <g id="Grupo_1230888" data-name="Grupo 1230888" transform="translate(50.801 16.108)">
        <path id="Trazado_1184559" data-name="Trazado 1184559" d="M66.692,33.55c0-.008-.008-.008-.017-.008l-6.7-2.271C66.961,29.033,68.8,18.25,68.8,18.25c2.809,8.016-2.111,15.3-2.111,15.3Z" transform="translate(-59.139 -17.406)" fill="#544f55"/>
        <path id="Trazado_1184560" data-name="Trazado 1184560" d="M66.533,34.232a.778.778,0,0,1-.244-.034.351.351,0,0,1-.084-.034L59.552,31.91a.844.844,0,0,1-.572-.807.823.823,0,0,1,.58-.791C65.97,28.26,67.8,18.048,67.812,17.948a.84.84,0,0,1,1.623-.135c2.919,8.319-1.993,15.738-2.2,16.049a.863.863,0,0,1-.7.37Zm-4.45-3.247,4.071,1.379a18.846,18.846,0,0,0,2.414-10.733C67.585,24.643,65.625,28.849,62.084,30.985Z" transform="translate(-58.98 -17.246)"/>
      </g>
      <g id="Grupo_1230889" data-name="Grupo 1230889" transform="translate(43.059 23.589)">
        <path id="Trazado_1184561" data-name="Trazado 1184561" d="M56.239,32.244l-5.459-1.06a15.355,15.355,0,0,0,5.728-4.054A6.606,6.606,0,0,1,56.239,32.244Z" transform="translate(-49.935 -26.298)" fill="#544f55"/>
        <path id="Trazado_1184562" data-name="Trazado 1184562" d="M56.071,32.928a1.03,1.03,0,0,1-.16-.017l-5.459-1.06a.837.837,0,0,1-.151-1.6,14.487,14.487,0,0,0,5.375-3.785.825.825,0,0,1,.765-.32.834.834,0,0,1,.664.5,7.425,7.425,0,0,1-.278,5.8A.826.826,0,0,1,56.071,32.928ZM53.2,30.665l2.355.454a5.914,5.914,0,0,0,.32-2.406A15.146,15.146,0,0,1,53.2,30.665Z" transform="translate(-49.776 -26.14)"/>
      </g>
      <g id="Grupo_1230890" data-name="Grupo 1230890" transform="translate(20.65 10.08)">
        <path id="Trazado_1184563" data-name="Trazado 1184563" d="M30.759,19.256a7.147,7.147,0,0,0-.993,5.324s-5.366.05-5.619-4.66a7.2,7.2,0,0,1,.034-1.279c.37-4.147,3.566-7.486,7.326-7.562,0,0,.034,3.264.74,4.551C32.609,16.287,31.633,17.6,30.759,19.256Z" transform="translate(-23.293 -10.239)" fill="#544f55"/>
        <path id="Trazado_1184564" data-name="Trazado 1184564" d="M29.557,25.262c-2.145,0-6.182-1.136-6.409-5.459a7.914,7.914,0,0,1,.042-1.422c.4-4.559,3.987-8.218,8.142-8.3a.913.913,0,0,1,.606.236.841.841,0,0,1,.252.6,12.05,12.05,0,0,0,.639,4.155c.5.917-.109,1.985-.875,3.331-.193.345-.4.707-.606,1.085a6.4,6.4,0,0,0-.925,4.694.841.841,0,0,1-.8,1.077.237.237,0,0,1-.067.008Zm.976-13.424a7.308,7.308,0,0,0-5.678,6.721,6.551,6.551,0,0,0-.034,1.152c.143,2.734,2.4,3.533,3.76,3.768a8.879,8.879,0,0,1,1.27-4.778c.21-.4.429-.782.631-1.136a6.647,6.647,0,0,0,.841-1.766,11.121,11.121,0,0,1-.791-3.962Z" transform="translate(-23.134 -10.08)"/>
      </g>
      <g id="Grupo_1230891" data-name="Grupo 1230891" transform="translate(7.5 13.991)">
        <path id="Trazado_1184565" data-name="Trazado 1184565" d="M60.92,40.67c-.2-2.237-.034-6-2.1-7.4a4.477,4.477,0,0,0-.463-.278c0-.008-.008-.008-.017-.008l-6.7-2.271h-.008c-.765-.177-1.531-.32-2.271-.437A22.156,22.156,0,0,0,46.873,30a7.658,7.658,0,0,1-2.969-.791H43.9a10.056,10.056,0,0,1-3.381-2.6,22.387,22.387,0,0,0-12.4-6.78,7.147,7.147,0,0,0-.993,5.324s-5.366.05-5.619-4.66a7.2,7.2,0,0,1,.034-1.279H21.53C16.1,19.281,11.521,17.068,7.5,14.73l3.76,46.43c7.722-.841,5.661-4.214,10.5-5.694,2.187-.664,2.473-4.8,2.473-4.8,5.047.379,7.04-2.456,7.04-2.456a6.086,6.086,0,0,0,1.808.4c7.377.5,13.492-2.044,17.016-1.85l-.328-.252a13.458,13.458,0,0,1-2.111-1.623L49.767,46.5a6.065,6.065,0,0,0,3.02,1.026,5.161,5.161,0,0,0,4.6-2.145,1.979,1.979,0,0,0,1.3,0c1.321-.5,2.439-2.481,2.229-4.71ZM41.212,37.979A2.229,2.229,0,1,1,43.45,35.75,2.227,2.227,0,0,1,41.212,37.979ZM53.527,44.01a17.052,17.052,0,0,1,3.179,1.127Z" transform="translate(-7.5 -14.73)" fill="#544f55" stroke="#000" stroke-linecap="round" stroke-linejoin="round" stroke-miterlimit="10" stroke-width="2"/>
      </g>
      <g id="Grupo_1230892" data-name="Grupo 1230892" transform="translate(38.142 31.933)">
        <path id="Trazado_1184566" data-name="Trazado 1184566" d="M47,42.2a3.07,3.07,0,1,1,3.079-3.07A3.076,3.076,0,0,1,47,42.2Zm0-4.45a1.388,1.388,0,1,0,1.4,1.388A1.389,1.389,0,0,0,47,37.751Z" transform="translate(-43.93 -36.06)"/>
      </g>
      <g id="Grupo_1230893" data-name="Grupo 1230893" transform="translate(50.79 29.12)">
        <path id="Trazado_1184567" data-name="Trazado 1184567" d="M66.506,36.681a.818.818,0,0,1-.412-.109,27.23,27.23,0,0,0-6.468-2.187A.845.845,0,1,1,60,32.736a29.379,29.379,0,0,1,6.923,2.355.85.85,0,0,1-.412,1.59Z" transform="translate(-58.966 -32.716)"/>
      </g>
      <g id="Grupo_1230894" data-name="Grupo 1230894" transform="translate(55.865 43.548)">
        <path id="Trazado_1184568" data-name="Trazado 1184568" d="M65.858,51.569a.812.812,0,0,1-.362-.084l-.034-.017A.838.838,0,0,1,65,50.711a.821.821,0,0,1,.084-.37.841.841,0,0,1,1.127-.387.871.871,0,0,1,.488.774.753.753,0,0,1-.084.353.841.841,0,0,1-.757.488Z" transform="translate(-65 -49.869)"/>
      </g>
      <g id="Grupo_1230895" data-name="Grupo 1230895" transform="translate(22.584 33.853)">
        <path id="Trazado_1184569" data-name="Trazado 1184569" d="M34.119,52.8a.9.9,0,0,1-.294-.05c-6.334-2.347-8.294-12.97-8.378-13.416a.841.841,0,1,1,1.657-.294c.017.1,1.876,10.127,7.3,12.138a.837.837,0,0,1-.286,1.623Z" transform="translate(-25.433 -38.343)"/>
      </g>
      <g id="Grupo_1230896" data-name="Grupo 1230896" transform="translate(53.512 36.398)">
        <path id="Trazado_1184570" data-name="Trazado 1184570" d="M63.041,45.567a.866.866,0,0,1-.379-.093.84.84,0,0,1-.37-1.127,5.752,5.752,0,0,1,4.063-2.969.842.842,0,0,1,.244,1.665,4.021,4.021,0,0,0-2.8,2.069A.858.858,0,0,1,63.041,45.567Z" transform="translate(-62.202 -41.369)"/>
      </g>
    </g>
  </g>
</svg>
