<svg xmlns="http://www.w3.org/2000/svg" width="136.001" height="119" viewBox="0 0 136.001 119">
  <g id="Grupo_1231089" data-name="Grupo 1231089" transform="translate(-4525.551 -10358.883)">
    <g id="Grupo_1230737" data-name="Grupo 1230737" transform="translate(4544.552 10358.883)">
      <g id="Grupo_1230660" data-name="Grupo 1230660" transform="translate(0)">
        <rect id="Rect치ngulo_423318" data-name="Rect치ngulo 423318" width="94" height="55" rx="12" transform="translate(0 39)" fill="#497d74"/>
        <rect id="Rect치ngulo_423319" data-name="Rect치ngulo 423319" width="74" height="119" rx="12" transform="translate(43)" fill="#345953"/>
      </g>
    </g>
    <g id="Layer_1" transform="translate(4285.651 9537.604)">
      <g id="Grupo_1231087" data-name="Grupo 1231087" transform="translate(239.9 845.796)">
        <g id="Grupo_1231086" data-name="Grupo 1231086" transform="translate(0 0)">
          <g id="Grupo_1231085" data-name="Grupo 1231085">
            <g id="Grupo_1231084" data-name="Grupo 1231084">
              <g id="Grupo_1231068" data-name="Grupo 1231068" transform="translate(5.905 13.094)">
                <path id="Trazado_1184996" data-name="Trazado 1184996" d="M479.607,1206.625c-8.83,0-17.048-2.533-24.845-5.645a2.247,2.247,0,0,1,1.662-4.176c13.774,5.491,28.932,9.081,46.466-1.724a2.248,2.248,0,1,1,2.356,3.829C496.111,1204.543,487.609,1206.625,479.607,1206.625Zm-84.313-2.641a2.252,2.252,0,0,1-1.735-3.679c7.909-9.6,16.342-14.476,25.778-14.908,8.63-.4,17.244,2.946,25.319,6.4a2.248,2.248,0,1,1-1.766,4.134c-17.275-7.392-30.671-11.2-45.857,7.23A2.256,2.256,0,0,1,395.294,1203.983Z" transform="translate(-393.044 -1185.365)" fill-rule="evenodd"/>
              </g>
              <g id="Grupo_1231069" data-name="Grupo 1231069" transform="translate(83.654 39.952)">
                <path id="Trazado_1184997" data-name="Trazado 1184997" d="M2414.811,1926.477a2.244,2.244,0,0,1-2.24-2.063l-3.27-40.115a2.25,2.25,0,0,1,3.521-2.032l33.108,22.882a2.249,2.249,0,0,1-1.408,4.1l-18.991-1.114-8.715,17.121A2.256,2.256,0,0,1,2414.811,1926.477Zm-.64-37.809,2.236,27.467,5.781-11.349a2.243,2.243,0,0,1,2.133-1.226l12.447.729Z" transform="translate(-2409.293 -1881.864)" fill-rule="evenodd"/>
              </g>
              <g id="Grupo_1231070" data-name="Grupo 1231070" transform="translate(0 27.216)">
                <path id="Trazado_1184998" data-name="Trazado 1184998" d="M253.971,1567.915H242.148a2.248,2.248,0,0,1-2.248-2.248v-11.819a2.248,2.248,0,0,1,2.248-2.248h11.823a2.248,2.248,0,0,1,2.248,2.248v11.819A2.251,2.251,0,0,1,253.971,1567.915Zm-9.575-4.5h7.323v-7.323H244.4Z" transform="translate(-239.9 -1551.6)" fill-rule="evenodd"/>
              </g>
              <g id="Grupo_1231071" data-name="Grupo 1231071" transform="translate(114.684 16.57)">
                <path id="Trazado_1184999" data-name="Trazado 1184999" d="M3228.071,1291.815h-11.823a2.248,2.248,0,0,1-2.248-2.248v-11.819a2.248,2.248,0,0,1,2.248-2.248h11.823a2.248,2.248,0,0,1,2.248,2.248v11.819A2.25,2.25,0,0,1,3228.071,1291.815Zm-9.575-4.5h7.323V1280H3218.5Z" transform="translate(-3214 -1275.5)" fill-rule="evenodd"/>
              </g>
              <g id="Grupo_1231072" data-name="Grupo 1231072" transform="translate(54.39 15.559)">
                <path id="Trazado_1185000" data-name="Trazado 1185000" d="M1664.467,1265.615h-11.819a2.248,2.248,0,0,1-2.248-2.248v-11.819a2.248,2.248,0,0,1,2.248-2.248h11.819a2.248,2.248,0,0,1,2.248,2.248v11.815A2.251,2.251,0,0,1,1664.467,1265.615Zm-9.571-4.5h7.323v-7.323H1654.9Z" transform="translate(-1650.4 -1249.3)" fill-rule="evenodd"/>
              </g>
              <g id="Grupo_1231079" data-name="Grupo 1231079" transform="translate(3.649 9.823)">
                <g id="Grupo_1231075" data-name="Grupo 1231075">
                  <g id="Grupo_1231073" data-name="Grupo 1231073" transform="translate(2.259 6.223)">
                    <path id="Trazado_1185001" data-name="Trazado 1185001" d="M395.348,1277.567a2.248,2.248,0,0,1-2.248-2.248v-11.171a2.248,2.248,0,0,1,4.5,0v11.171A2.245,2.245,0,0,1,395.348,1277.567Z" transform="translate(-393.1 -1261.9)" fill-rule="evenodd"/>
                  </g>
                  <g id="Grupo_1231074" data-name="Grupo 1231074">
                    <path id="Trazado_1185002" data-name="Trazado 1185002" d="M339.432,1100.55a4.462,4.462,0,1,0,4,4.882A4.465,4.465,0,0,0,339.432,1100.55Z" transform="translate(-334.528 -1100.528)" fill-rule="evenodd"/>
                  </g>
                </g>
                <g id="Grupo_1231078" data-name="Grupo 1231078" transform="translate(0.003 29.213)">
                  <g id="Grupo_1231076" data-name="Grupo 1231076" transform="translate(2.255)">
                    <path id="Trazado_1185003" data-name="Trazado 1185003" d="M395.348,1873.767a2.248,2.248,0,0,1-2.248-2.248v-11.171a2.248,2.248,0,0,1,4.5,0v11.171A2.243,2.243,0,0,1,395.348,1873.767Z" transform="translate(-393.1 -1858.1)" fill-rule="evenodd"/>
                  </g>
                  <g id="Grupo_1231077" data-name="Grupo 1231077" transform="translate(0 13.008)">
                    <path id="Trazado_1185004" data-name="Trazado 1185004" d="M343.514,2199.453a4.462,4.462,0,1,0-4,4.878A4.463,4.463,0,0,0,343.514,2199.453Z" transform="translate(-334.611 -2195.428)" fill-rule="evenodd"/>
                  </g>
                </g>
              </g>
              <g id="Grupo_1231080" data-name="Grupo 1231080" transform="translate(120.884 6.255)">
                <path id="Trazado_1185005" data-name="Trazado 1185005" d="M3377.048,1022.811a2.248,2.248,0,0,1-2.248-2.248v-10.315a2.248,2.248,0,0,1,4.5,0v10.315A2.246,2.246,0,0,1,3377.048,1022.811Z" transform="translate(-3374.8 -1008)" fill-rule="evenodd"/>
              </g>
              <g id="Grupo_1231081" data-name="Grupo 1231081" transform="translate(118.694)">
                <path id="Trazado_1185006" data-name="Trazado 1185006" d="M3326.907,849.941a4.461,4.461,0,1,0-4.134,4.766A4.458,4.458,0,0,0,3326.907,849.941Z" transform="translate(-3317.996 -845.796)" fill-rule="evenodd"/>
              </g>
              <g id="Grupo_1231082" data-name="Grupo 1231082" transform="translate(120.884 28.393)">
                <path id="Trazado_1185007" data-name="Trazado 1185007" d="M3377.048,1598.184a2.248,2.248,0,0,1-2.248-2.248v-11.587a2.248,2.248,0,0,1,4.5,0v11.591A2.245,2.245,0,0,1,3377.048,1598.184Z" transform="translate(-3374.8 -1582.1)" fill-rule="evenodd"/>
              </g>
              <g id="Grupo_1231083" data-name="Grupo 1231083" transform="translate(118.675 42.224)">
                <path id="Trazado_1185008" data-name="Trazado 1185008" d="M3326.423,1945.261a4.461,4.461,0,1,0-4.461,4.462A4.461,4.461,0,0,0,3326.423,1945.261Z" transform="translate(-3317.5 -1940.8)" fill-rule="evenodd"/>
              </g>
            </g>
          </g>
        </g>
      </g>
      <g id="Grupo_1231088" data-name="Grupo 1231088" transform="translate(244.396 865.847)">
        <path id="Trazado_1185009" data-name="Trazado 1185009" d="M356.5,1668.1h3.528c.042,0,.089,0,.135,0s.089,0,.131,0h3.532v7.323H356.5V1668.1Z" transform="translate(-356.5 -1656.443)" fill="#f0f0f0" fill-rule="evenodd"/>
        <path id="Trazado_1185010" data-name="Trazado 1185010" d="M1767,1367.408v5.715h7.323V1365.8H1767v1.608Z" transform="translate(-1712.61 -1365.8)" fill="#f0f0f0" fill-rule="evenodd"/>
        <path id="Trazado_1185011" data-name="Trazado 1185011" d="M3330.6,1395.786v3.536h7.323V1392H3330.6v3.54C3330.6,1395.625,3330.6,1395.706,3330.6,1395.786Z" transform="translate(-3215.916 -1390.99)" fill="#f0f0f0" fill-rule="evenodd"/>
        <path id="Trazado_1185012" data-name="Trazado 1185012" d="M2535.8,2058.3l2.236,27.467,5.781-11.348a2.243,2.243,0,0,1,2.132-1.226l12.448.729Z" transform="translate(-2451.764 -2031.597)" fill="#fcd770" fill-rule="evenodd"/>
      </g>
    </g>
  </g>
</svg>
