<svg xmlns="http://www.w3.org/2000/svg" width="85.001" height="85" viewBox="0 0 85.001 85">
  <g id="Grupo_1230986" data-name="Grupo 1230986" transform="translate(-180.05 -769.975)">
    <g id="Grupo_1230630" data-name="Grupo 1230630" transform="translate(180.05 769.975)">
      <g id="Grupo_1198274" data-name="Grupo 1198274" transform="translate(0 0)">
        <g id="Grupo_1112424" data-name="Grupo 1112424">
          <g id="Grupo_1112415" data-name="Grupo 1112415">
            <g id="Grupo_1098742" data-name="Grupo 1098742" transform="translate(0 0)">
              <g id="Rect치ngulo_400898" data-name="Rect치ngulo 400898" transform="translate(0.001)" fill="#f5f2ce" stroke="#908619" stroke-width="3">
                <rect width="85" height="85" rx="42.5" stroke="none"/>
                <rect x="1.5" y="1.5" width="82" height="82" rx="41" fill="none"/>
              </g>
              <g id="Rect치ngulo_400907" data-name="Rect치ngulo 400907" fill="none" stroke="#908619" stroke-width="3">
                <rect width="85" height="85" rx="42.5" stroke="none"/>
                <rect x="1.5" y="1.5" width="82" height="82" rx="41" fill="none"/>
              </g>
            </g>
          </g>
        </g>
      </g>
    </g>
    <g id="notification_12892664" transform="translate(194.601 784.716)">
      <path id="Trazado_1184816" data-name="Trazado 1184816" d="M23.012,5.5a4.705,4.705,0,0,1,9.4-.028Z" transform="translate(-1.202 -0.057)" fill="#e2a438"/>
      <path id="Trazado_1184817" data-name="Trazado 1184817" d="M36.858,47v1.886a9.428,9.428,0,0,1-18.856,0V47Z" transform="translate(-0.915 -2.688)" fill="#e2a438"/>
      <path id="Trazado_1184818" data-name="Trazado 1184818" d="M42.6,25.742v4.8a7.5,7.5,0,0,0,4.139,6.7l1.4.7a3.617,3.617,0,0,1,2,3.234V44.6a1.891,1.891,0,0,1-1.886,1.886H4.888A1.891,1.891,0,0,1,3,44.6V41.175a3.617,3.617,0,0,1,2-3.234l1.4-.7a7.5,7.5,0,0,0,4.139-6.7V21.433A16.293,16.293,0,0,1,26.487,5a16,16,0,0,1,7.656,1.9Z" transform="translate(-0.057 -0.286)" fill="#f4c236"/>
      <path id="Trazado_1184821" data-name="Trazado 1184821" d="M11.314,0A11.314,11.314,0,1,1,0,11.314,11.314,11.314,0,0,1,11.314,0Z" transform="translate(31.229 2.828)" fill="#1dda10"/>
      <g id="Grupo_1230985" data-name="Grupo 1230985" transform="translate(2)">
        <path id="Trazado_1184819" data-name="Trazado 1184819" d="M54.8,14.142a12.272,12.272,0,0,0-4.085-9.135.943.943,0,1,0-1.258,1.4,10.371,10.371,0,1,1-6.914-2.641,10.283,10.283,0,0,1,4.321.94A.943.943,0,0,0,47.648,3,12.253,12.253,0,0,0,33.889,5.469a16.977,16.977,0,0,0-1.809-.747,5.646,5.646,0,0,0-11.146.034A17.388,17.388,0,0,0,9.542,21.146v9.107a6.526,6.526,0,0,1-3.616,5.86l-1.407.7A4.533,4.533,0,0,0,2,40.889v3.422a2.832,2.832,0,0,0,2.828,2.828H16.19a10.365,10.365,0,0,0,20.646,0H48.2a2.832,2.832,0,0,0,2.828-2.828V40.889A4.532,4.532,0,0,0,48.5,36.811l-1.4-.7a6.526,6.526,0,0,1-3.619-5.861v-3.9A12.265,12.265,0,0,0,54.8,14.141ZM26.513,1.886a3.747,3.747,0,0,1,3.441,2.25,17.086,17.086,0,0,0-3.474-.364h-.057a16.533,16.533,0,0,0-3.354.362,3.756,3.756,0,0,1,3.443-2.248Zm0,52.8a8.494,8.494,0,0,1-8.43-7.542H34.943a8.494,8.494,0,0,1-8.43,7.542ZM46.259,37.8l1.4.7a2.656,2.656,0,0,1,1.477,2.39v3.422a.943.943,0,0,1-.943.943H4.828a.943.943,0,0,1-.943-.943V40.889A2.657,2.657,0,0,1,5.361,38.5l1.409-.7a8.4,8.4,0,0,0,4.657-7.546V21.147a15.327,15.327,0,0,1,15-15.49h.054a14.957,14.957,0,0,1,6.146,1.3A12.224,12.224,0,0,0,41.6,26.35v3.9A8.406,8.406,0,0,0,46.258,37.8Z" transform="translate(-2)" fill="#161616"/>
        <path id="Trazado_1184820" data-name="Trazado 1184820" d="M41.943,19.314a.943.943,0,1,0,0,1.886H47.6a.943.943,0,1,0,0-1.886H45.714V8.943A.943.943,0,0,0,44.1,8.276L41.276,11.1a.943.943,0,0,0,1.333,1.333l1.219-1.219v8.095Z" transform="translate(-4.231 -0.458)" fill="#161616"/>
      </g>
    </g>
  </g>
</svg>
