<svg xmlns="http://www.w3.org/2000/svg" width="117" height="119" viewBox="0 0 117 119">
  <g id="Grupo_1231059" data-name="Grupo 1231059" transform="translate(-4549.253 -4062.782)">
    <g id="Grupo_1230696" data-name="Grupo 1230696" transform="translate(3286.127 1420.782)">
      <g id="Grupo_1230674" data-name="Grupo 1230674" transform="translate(16)">
        <rect id="Rectángulo_423331" data-name="Rectángulo 423331" width="94" height="55" rx="12" transform="translate(1247.126 2681)" fill="#497d74"/>
        <rect id="Rectángulo_423332" data-name="Rectángulo 423332" width="74" height="119" rx="12" transform="translate(1290.126 2642)" fill="#345953"/>
      </g>
    </g>
    <g id="monitor_927886" transform="translate(4565.097 4060.116)">
      <path id="Trazado_1184955" data-name="Trazado 1184955" d="M85.385,41.954v50.58a3.931,3.931,0,0,1-3.93,3.93H11.43a3.93,3.93,0,0,1-3.93-3.93V41.954a2.643,2.643,0,0,1,2.645-2.644H82.74A2.644,2.644,0,0,1,85.385,41.954Z" transform="translate(-6.325 -6.326)" fill="#ccfefb"/>
      <path id="Trazado_1184956" data-name="Trazado 1184956" d="M207.061,396.764v.144a1.691,1.691,0,0,1-1.691,1.691H186.412a1.692,1.692,0,0,1-1.692-1.691v-.144a1.71,1.71,0,0,1,.984-1.536,9.364,9.364,0,0,0,4.462-5.353,17.546,17.546,0,0,0,1.063-5.045h9.324a17.581,17.581,0,0,0,1.064,5.045,9.358,9.358,0,0,0,4.462,5.353A1.712,1.712,0,0,1,207.061,396.764Z" transform="translate(-155.772 -297.699)" fill="#e6f3ff"/>
      <path id="Trazado_1184957" data-name="Trazado 1184957" d="M230.921,389.876H219.47a17.546,17.546,0,0,0,1.063-5.045h9.324A17.582,17.582,0,0,0,230.921,389.876Z" transform="translate(-185.077 -297.699)" fill="#c7d5e0"/>
      <path id="Trazado_1184958" data-name="Trazado 1184958" d="M85.385,330.73v7.555a3.931,3.931,0,0,1-3.93,3.93H11.43a3.93,3.93,0,0,1-3.93-3.93V330.73Z" transform="translate(-6.325 -252.077)" fill="#7df4e9"/>
      <path id="Trazado_1184959" data-name="Trazado 1184959" d="M85.385,343.729v5.518a3.931,3.931,0,0,1-3.93,3.93H11.43a3.93,3.93,0,0,1-3.93-3.93v-5.518Z" transform="translate(-6.325 -263.039)" fill="#e6f3ff"/>
      <g id="Grupo_1231058" data-name="Grupo 1231058" transform="translate(13.005 39.486)">
        <circle id="Elipse_12570" data-name="Elipse 12570" cx="2.543" cy="2.543" r="2.543" fill="#b809b0"/>
        <circle id="Elipse_12571" data-name="Elipse 12571" cx="2.543" cy="2.543" r="2.543" transform="translate(29.617 29.617)" fill="#b809b0"/>
      </g>
      <path id="Trazado_1184960" data-name="Trazado 1184960" d="M77.677,231.579V224.69a.462.462,0,0,0-.462-.462H70.326a.462.462,0,0,0-.327.789l1.236,1.236-3.257,3.257a.462.462,0,0,0,0,.654l3.611,3.611a.462.462,0,0,0,.654,0l3.257-3.257,1.388,1.388A.462.462,0,0,0,77.677,231.579Z" transform="translate(-57.21 -162.265)" fill="#8da7b7"/>
      <rect id="Rectángulo_423500" data-name="Rectángulo 423500" width="7.139" height="29.305" transform="translate(62.189 43.907)" fill="#c7d5e0"/>
      <path id="Trazado_1184961" data-name="Trazado 1184961" d="M403.983,90.154h-7.139V86.962a.973.973,0,0,1,.973-.973h5.194a.973.973,0,0,1,.973.973v3.192Z" transform="translate(-334.654 -45.689)" fill="#8da7b7"/>
      <path id="Trazado_1184962" data-name="Trazado 1184962" d="M350.609,396.522h-9.845a1.175,1.175,0,1,0,0,2.351h9.845a1.175,1.175,0,0,0,0-2.351Z" transform="translate(-286.372 -307.558)"/>
      <path id="Trazado_1184963" data-name="Trazado 1184963" d="M76.416,31.809h-47.1a1.175,1.175,0,1,0,0,2.351h47.1a1.471,1.471,0,0,1,1.469,1.469V79.515H2.351V35.629A1.471,1.471,0,0,1,3.82,34.16H23.963a1.175,1.175,0,1,0,0-2.351H3.82A3.824,3.824,0,0,0,0,35.629v50.58a5.111,5.111,0,0,0,5.105,5.105H33.453c-.051.151-.1.3-.159.446a8.09,8.09,0,0,1-3.872,4.71,2.868,2.868,0,0,0-1.65,2.595v.144a2.87,2.87,0,0,0,2.868,2.866H49.6a2.869,2.869,0,0,0,2.866-2.866v-.144a2.869,2.869,0,0,0-1.647-2.594,8.089,8.089,0,0,1-3.873-4.711c-.055-.146-.108-.295-.16-.446h2.253a1.175,1.175,0,0,0,0-2.351H5.105a2.758,2.758,0,0,1-2.755-2.755V81.866H77.885v4.343a2.758,2.758,0,0,1-2.755,2.755H69.594a1.175,1.175,0,0,0,0,2.351h5.537a5.111,5.111,0,0,0,5.105-5.105V35.629A3.824,3.824,0,0,0,76.416,31.809ZM44.745,92.592a10.34,10.34,0,0,0,5.05,6,.536.536,0,0,1,.318.477v.144a.516.516,0,0,1-.516.515H30.64a.517.517,0,0,1-.517-.515v-.144a.537.537,0,0,1,.32-.477,10.342,10.342,0,0,0,5.05-6c.155-.409.3-.838.425-1.278h8.4C44.45,91.754,44.59,92.182,44.745,92.592Z"/>
      <path id="Trazado_1184964" data-name="Trazado 1184964" d="M81.368,80.061a3.727,3.727,0,1,0-2.25.682,38.478,38.478,0,0,0,26.006,26.006,3.765,3.765,0,1,0,.682-2.25A36.126,36.126,0,0,1,81.368,80.061Zm-3.116-4a1.368,1.368,0,1,1,0,1.935A1.364,1.364,0,0,1,78.251,76.063Zm29.617,29.617a1.368,1.368,0,1,1,0,1.935A1.363,1.363,0,0,1,107.869,105.681Z" transform="translate(-63.67 -35)"/>
      <path id="Trazado_1184965" data-name="Trazado 1184965" d="M60.343,223.515a1.627,1.627,0,0,0,.48,1.158l3.611,3.61a1.637,1.637,0,0,0,2.316,0l2.426-2.426.558.558a1.638,1.638,0,0,0,2.8-1.158v-6.889a1.639,1.639,0,0,0-1.638-1.637H64a1.638,1.638,0,0,0-1.158,2.8l.4.4-2.426,2.426A1.625,1.625,0,0,0,60.343,223.515Zm5.4-2.753a1.175,1.175,0,0,0,0-1.662l-.018-.018h4.454v4.454l-.171-.171a1.175,1.175,0,0,0-1.662,0l-2.753,2.753-2.6-2.6Z" transform="translate(-50.887 -155.943)"/>
      <path id="Trazado_1184966" data-name="Trazado 1184966" d="M397.659,113.753a1.175,1.175,0,0,0,1.175-1.175V80.638a2.15,2.15,0,0,0-2.148-2.148h-5.194a2.15,2.15,0,0,0-2.148,2.148v31.94a1.175,1.175,0,0,0,1.175,1.175Zm-5.964-2.351v-26.4h4.789v26.4Zm0-30.562h4.789v1.814h-4.789Z" transform="translate(-328.329 -39.366)"/>
      <path id="Trazado_1184967" data-name="Trazado 1184967" d="M411.639,130.315h-.758a1.175,1.175,0,0,0,0,2.351h.758a1.175,1.175,0,0,0,0-2.351Z" transform="translate(-345.5 -83.069)"/>
      <path id="Trazado_1184968" data-name="Trazado 1184968" d="M411.639,156.193h-.758a1.175,1.175,0,0,0,0,2.351h.758a1.175,1.175,0,0,0,0-2.351Z" transform="translate(-345.5 -104.892)"/>
      <path id="Trazado_1184969" data-name="Trazado 1184969" d="M411.639,182.072h-.758a1.175,1.175,0,0,0,0,2.351h.758a1.175,1.175,0,0,0,0-2.351Z" transform="translate(-345.5 -126.715)"/>
      <path id="Trazado_1184970" data-name="Trazado 1184970" d="M411.639,207.951h-.758a1.175,1.175,0,0,0,0,2.351h.758a1.175,1.175,0,0,0,0-2.351Z" transform="translate(-345.5 -148.539)"/>
      <path id="Trazado_1184971" data-name="Trazado 1184971" d="M411.639,233.829h-.758a1.175,1.175,0,0,0,0,2.351h.758a1.175,1.175,0,0,0,0-2.351Z" transform="translate(-345.5 -170.361)"/>
      <path id="Trazado_1184972" data-name="Trazado 1184972" d="M411.639,259.708h-.758a1.175,1.175,0,0,0,0,2.351h.758a1.175,1.175,0,0,0,0-2.351Z" transform="translate(-345.5 -192.185)"/>
      <path id="Trazado_1184973" data-name="Trazado 1184973" d="M290.257,102.893a1.175,1.175,0,0,0,0-2.351h-7.168a1.175,1.175,0,0,0,0,2.351Z" transform="translate(-237.735 -57.962)"/>
      <path id="Trazado_1184974" data-name="Trazado 1184974" d="M231.126,124.058a1.175,1.175,0,0,0,1.175,1.175h15.127a1.175,1.175,0,0,0,0-2.351H232.3A1.175,1.175,0,0,0,231.126,124.058Z" transform="translate(-194.906 -76.802)"/>
      <path id="Trazado_1184975" data-name="Trazado 1184975" d="M280.912,145.223h-8.9a1.175,1.175,0,0,0,0,2.351h8.9a1.175,1.175,0,1,0,0-2.351Z" transform="translate(-228.39 -95.641)"/>
      <path id="Trazado_1184976" data-name="Trazado 1184976" d="M232.3,147.574h2.915a1.175,1.175,0,1,0,0-2.351H232.3a1.175,1.175,0,0,0,0,2.351Z" transform="translate(-194.906 -95.641)"/>
      <path id="Trazado_1184977" data-name="Trazado 1184977" d="M310.645,167.564h-3.379a1.175,1.175,0,0,0,0,2.351h3.379a1.175,1.175,0,1,0,0-2.351Z" transform="translate(-258.123 -114.481)"/>
      <path id="Trazado_1184978" data-name="Trazado 1184978" d="M290.257,189.9h-7.168a1.175,1.175,0,0,0,0,2.351h7.168a1.175,1.175,0,0,0,0-2.351Z" transform="translate(-237.735 -133.32)"/>
      <path id="Trazado_1184979" data-name="Trazado 1184979" d="M328.827,216.663a1.175,1.175,0,0,0-1.175,1.175v.116a1.175,1.175,0,1,0,2.351,0v-.116A1.175,1.175,0,0,0,328.827,216.663Z" transform="translate(-276.305 -155.885)"/>
    </g>
  </g>
</svg>
