<svg xmlns="http://www.w3.org/2000/svg" width="117" height="119" viewBox="0 0 117 119">
  <g id="Grupo_1231056" data-name="Grupo 1231056" transform="translate(-4549.253 -2202.782)">
    <g id="Grupo_1230687" data-name="Grupo 1230687" transform="translate(3286.127 -439.218)">
      <g id="Grupo_1230674" data-name="Grupo 1230674" transform="translate(16)">
        <rect id="Rect치ngulo_423331" data-name="Rect치ngulo 423331" width="94" height="55" rx="12" transform="translate(1247.126 2681)" fill="#497d74"/>
        <rect id="Rect치ngulo_423332" data-name="Rect치ngulo 423332" width="74" height="119" rx="12" transform="translate(1290.126 2642)" fill="#345953"/>
      </g>
    </g>
    <g id="Page-1" transform="translate(4552.138 2226.262)">
      <g id="_039---Transform-Tool" data-name="039---Transform-Tool" transform="translate(0 0)">
        <g id="Icons_copy" transform="translate(1.751 1.562)">
          <rect id="Rectangle-path" width="12" height="13" rx="1" transform="translate(0.111 0.176)" fill="#02a9f4"/>
          <path id="Shape" d="M8.686,0H4A1.562,1.562,0,0,1,5.562,1.562v9.372A1.562,1.562,0,0,1,4,12.5H8.686a1.562,1.562,0,0,0,1.562-1.562V1.562A1.562,1.562,0,0,0,8.686,0Z" transform="translate(2.06)" fill="#0377bc"/>
          <rect id="Rectangle-path-2" data-name="Rectangle-path" width="12" height="13" rx="1" transform="translate(34.111 0.176)" fill="#02a9f4"/>
          <path id="Shape-2" data-name="Shape" d="M30.686,0H26a1.562,1.562,0,0,1,1.562,1.562v9.372A1.562,1.562,0,0,1,26,12.5h4.686a1.562,1.562,0,0,0,1.562-1.562V1.562A1.562,1.562,0,0,0,30.686,0Z" transform="translate(14.425)" fill="#0377bc"/>
          <rect id="Rectangle-path-3" data-name="Rectangle-path" width="12" height="13" rx="1" transform="translate(69.111 0.176)" fill="#02a9f4"/>
          <path id="Shape-3" data-name="Shape" d="M52.686,0H48a1.562,1.562,0,0,1,1.562,1.562v9.372A1.562,1.562,0,0,1,48,12.5h4.686a1.562,1.562,0,0,0,1.562-1.562V1.562A1.562,1.562,0,0,0,52.686,0Z" transform="translate(26.791)" fill="#0377bc"/>
          <rect id="Rectangle-path-4" data-name="Rectangle-path" width="12" height="13" rx="1" transform="translate(0.111 71.176)" fill="#02a9f4"/>
          <path id="Shape-4" data-name="Shape" d="M8.686,46H4a1.562,1.562,0,0,1,1.562,1.562v9.372A1.562,1.562,0,0,1,4,58.5H8.686a1.562,1.562,0,0,0,1.562-1.562V47.562A1.562,1.562,0,0,0,8.686,46Z" transform="translate(2.06 25.855)" fill="#0377bc"/>
          <rect id="Rectangle-path-5" data-name="Rectangle-path" width="12" height="13" rx="1" transform="translate(34.111 71.176)" fill="#02a9f4"/>
          <path id="Shape-5" data-name="Shape" d="M30.686,46H26a1.562,1.562,0,0,1,1.562,1.562v9.372A1.562,1.562,0,0,1,26,58.5h4.686a1.562,1.562,0,0,0,1.562-1.562V47.562A1.562,1.562,0,0,0,30.686,46Z" transform="translate(14.425 25.855)" fill="#0377bc"/>
          <rect id="Rectangle-path-6" data-name="Rectangle-path" width="12" height="14" rx="1" transform="translate(0.111 35.176)" fill="#02a9f4"/>
          <path id="Shape-6" data-name="Shape" d="M8.686,23H4a1.562,1.562,0,0,1,1.562,1.562v9.372A1.562,1.562,0,0,1,4,35.5H8.686a1.562,1.562,0,0,0,1.562-1.562V24.562A1.562,1.562,0,0,0,8.686,23Z" transform="translate(2.06 12.928)" fill="#0377bc"/>
          <rect id="Rectangle-path-7" data-name="Rectangle-path" width="12" height="14" rx="1" transform="translate(69.111 35.176)" fill="#02a9f4"/>
          <path id="Shape-7" data-name="Shape" d="M52.686,23H48a1.562,1.562,0,0,1,1.562,1.562v9.372A1.562,1.562,0,0,1,48,35.5h4.686a1.562,1.562,0,0,0,1.562-1.562V24.562A1.562,1.562,0,0,0,52.686,23Z" transform="translate(26.791 12.928)" fill="#0377bc"/>
          <rect id="Rectangle-path-8" data-name="Rectangle-path" width="12" height="13" rx="1" transform="translate(69.111 71.176)" fill="#02a9f4"/>
          <path id="Shape-8" data-name="Shape" d="M52.686,46H48a1.562,1.562,0,0,1,1.562,1.562v9.372A1.562,1.562,0,0,1,48,58.5h4.686a1.562,1.562,0,0,0,1.562-1.562V47.562A1.562,1.562,0,0,0,52.686,46Z" transform="translate(26.791 25.855)" fill="#0377bc"/>
          <g id="Grupo_1231057" data-name="Grupo 1231057" transform="translate(6.06 6.248)">
            <path id="Shape-9" data-name="Shape" d="M58.117,31V54.431H53.431a1.562,1.562,0,0,0-1.562,1.562v4.686H30V60.07A35.147,35.147,0,0,0,57.586,31Z" transform="translate(10.614 11.176)" fill="#00bcd4"/>
            <path id="Shape-10" data-name="Shape" d="M32.117,60.07v.609H10.248V55.993a1.562,1.562,0,0,0-1.562-1.562H4V31h.531A35.147,35.147,0,0,0,32.117,60.07Z" transform="translate(-4 11.176)" fill="#00bcd4"/>
            <path id="Shape-11" data-name="Shape" d="M58.117,10.248V33.679h-.531A35.147,35.147,0,0,0,30,4.609V4H51.869V8.686a1.562,1.562,0,0,0,1.562,1.562Z" transform="translate(10.614 -4)" fill="#00bcd4"/>
            <path id="Shape-12" data-name="Shape" d="M32.117,4v.609A35.147,35.147,0,0,0,4.531,33.679H4V10.248H8.686a1.562,1.562,0,0,0,1.562-1.562V4Z" transform="translate(-4 -4)" fill="#00bcd4"/>
          </g>
          <path id="Shape-13" data-name="Shape" d="M67.854,45.957h4.155a35.147,35.147,0,0,1-27.586,29.07V70.95a1.562,1.562,0,0,0-1.562-1.562H33.488a1.562,1.562,0,0,0-1.562,1.562v4.077A35.147,35.147,0,0,1,4.34,45.957H8.5a1.562,1.562,0,0,0,1.562-1.562V35.022A1.562,1.562,0,0,0,8.5,33.46H4.34A35.147,35.147,0,0,1,31.926,4.39V8.467a1.562,1.562,0,0,0,1.562,1.562h9.372a1.562,1.562,0,0,0,1.562-1.562V4.39A35.147,35.147,0,0,1,72.009,33.46H67.854a1.562,1.562,0,0,0-1.562,1.562v9.372A1.562,1.562,0,0,0,67.854,45.957Z" transform="translate(2.251 2.467)" fill="#ef314c"/>
          <path id="Shape-14" data-name="Shape" d="M19,5.666v2.8a1.562,1.562,0,0,0,1.562,1.562h4.686a1.562,1.562,0,0,1-1.562-1.562V4.39A32.862,32.862,0,0,0,19,5.666Z" transform="translate(10.491 2.467)" fill="#bb193b"/>
          <path id="Shape-15" data-name="Shape" d="M19,47.562v2.8a32.862,32.862,0,0,0,4.686,1.276V47.562A1.562,1.562,0,0,1,25.248,46H20.562A1.562,1.562,0,0,0,19,47.562Z" transform="translate(10.491 25.855)" fill="#bb193b"/>
          <path id="Shape-16" data-name="Shape" d="M51.869,44.395V35.022a1.562,1.562,0,0,1,1.562-1.562h4.155A35.147,35.147,0,0,0,30,4.39V5.666A35.445,35.445,0,0,1,52.9,33.46H48.745a1.562,1.562,0,0,0-1.562,1.562v9.372a1.562,1.562,0,0,0,1.562,1.562H52.9A35.445,35.445,0,0,1,30,73.751v1.276a35.147,35.147,0,0,0,27.586-29.07H53.431A1.562,1.562,0,0,1,51.869,44.395Z" transform="translate(16.673 2.467)" fill="#bb193b"/>
        </g>
        <g id="Icons">
          <path id="Shape-17" data-name="Shape" d="M90.338,38.185a1.562,1.562,0,1,0-2.6,1.734l1.5,2.257H84.352V39.052a3.124,3.124,0,0,0-3.124-3.124H78.1V15.621h3.124A3.124,3.124,0,0,0,84.352,12.5V3.124A3.124,3.124,0,0,0,81.228,0H71.855a3.124,3.124,0,0,0-3.124,3.124V6.248H49.986V3.124A3.124,3.124,0,0,0,46.862,0H37.49a3.124,3.124,0,0,0-3.124,3.124V6.248H15.621V3.124A3.124,3.124,0,0,0,12.5,0H3.124A3.124,3.124,0,0,0,0,3.124V12.5a3.124,3.124,0,0,0,3.124,3.124H6.248V35.928H3.124A3.124,3.124,0,0,0,0,39.052v9.372a3.124,3.124,0,0,0,3.124,3.124H6.248V71.855H3.124A3.124,3.124,0,0,0,0,74.979v9.372a3.124,3.124,0,0,0,3.124,3.124H12.5a3.124,3.124,0,0,0,3.124-3.124V81.228H34.366v3.124a3.124,3.124,0,0,0,3.124,3.124h9.372a3.124,3.124,0,0,0,3.124-3.124V81.228H68.731v3.124a3.124,3.124,0,0,0,3.124,3.124h9.372a3.124,3.124,0,0,0,3.124-3.124V74.979a3.124,3.124,0,0,0-3.124-3.124H78.1V51.548h3.124a3.124,3.124,0,0,0,3.124-3.124V45.3h4.891l-1.5,2.257a1.562,1.562,0,0,0,2.6,1.734L93.462,44.6a1.562,1.562,0,0,0,0-1.734ZM71.855,3.124h9.372V12.5H71.855Zm0,12.5h3.124V28.486A36.856,36.856,0,0,0,56.516,9.372H68.731V12.5A3.124,3.124,0,0,0,71.855,15.621ZM37.49,3.124h9.372V12.5H37.49Zm-34.366,0H12.5V12.5H3.124Zm9.372,12.5A3.124,3.124,0,0,0,15.621,12.5V9.372H27.836A36.856,36.856,0,0,0,9.372,28.486V15.621ZM3.124,39.052H12.5v9.372H3.124Zm0,45.3V74.979H12.5v9.372Zm9.372-12.5H9.372V58.99A36.856,36.856,0,0,0,27.836,78.1H15.621V74.979A3.124,3.124,0,0,0,12.5,71.855Zm21.869,3.124v2.109a33.639,33.639,0,0,1-24.111-25.54H12.5a3.124,3.124,0,0,0,3.124-3.124V39.052A3.124,3.124,0,0,0,12.5,35.928H10.255a33.639,33.639,0,0,1,24.111-25.54V12.5a3.124,3.124,0,0,0,3.124,3.124h9.372A3.124,3.124,0,0,0,49.986,12.5V10.388A33.639,33.639,0,0,1,74.1,35.928H71.855a3.124,3.124,0,0,0-3.124,3.124v3.124H63.84l1.5-2.257a1.562,1.562,0,1,0-2.6-1.734l-3.124,4.686a1.562,1.562,0,0,0,0,1.734l3.124,4.686a1.562,1.562,0,1,0,2.6-1.734L63.84,45.3h4.891v3.124a3.124,3.124,0,0,0,3.124,3.124H74.1a33.639,33.639,0,0,1-24.111,25.54V74.979a3.124,3.124,0,0,0-3.124-3.124H37.49A3.124,3.124,0,0,0,34.366,74.979Zm3.124,9.372V74.979h9.372v9.372Zm43.738,0H71.855V74.979h9.372Zm-9.372-12.5a3.124,3.124,0,0,0-3.124,3.124V78.1H56.516A36.856,36.856,0,0,0,74.979,58.99V71.855Zm0-23.431V39.052h9.372v9.372Z" transform="translate(0 0)"/>
        </g>
      </g>
    </g>
  </g>
</svg>
