<svg xmlns="http://www.w3.org/2000/svg" width="117" height="119" viewBox="0 0 117 119">
  <g id="Grupo_1231065" data-name="Grupo 1231065" transform="translate(-1140 -16317.783)">
    <g id="Grupo_1230705" data-name="Grupo 1230705" transform="translate(-123.126 13675.783)">
      <g id="Grupo_1230674" data-name="Grupo 1230674" transform="translate(16)">
        <rect id="Rect치ngulo_423331" data-name="Rect치ngulo 423331" width="94" height="55" rx="12" transform="translate(1247.126 2681)" fill="#497d74"/>
        <rect id="Rect치ngulo_423332" data-name="Rect치ngulo 423332" width="74" height="119" rx="12" transform="translate(1290.126 2642)" fill="#345953"/>
      </g>
    </g>
    <g id="interior-design_16954300" transform="translate(1136.305 16310.92)">
      <g id="Grupo_1231063" data-name="Grupo 1231063" transform="translate(18.553 28.824)">
        <g id="Grupo_1231061" data-name="Grupo 1231061" transform="translate(0 0)">
          <path id="Trazado_1184980" data-name="Trazado 1184980" d="M113.868,191.339a6.854,6.854,0,0,1-6.854-6.854V173.516c.6,0-8.109-1.55-10.414-1.958v-.1l-.277.049-.277-.049v.1c-2.305.409-11.009,1.958-10.414,1.958v10.968a6.854,6.854,0,0,1-6.854,6.854H72.151v5.484H120.5v-5.484Z" transform="translate(-49.281 -109.7)" fill="#a5a5a4"/>
          <g id="Grupo_1231060" data-name="Grupo 1231060">
            <path id="Trazado_1184981" data-name="Trazado 1184981" d="M106.668,101.85H27a7.207,7.207,0,0,1-7.207-7.207V34.868a4.8,4.8,0,0,1,4.8-4.8h84.474a4.8,4.8,0,0,1,4.8,4.8V94.643A7.207,7.207,0,0,1,106.668,101.85Z" transform="translate(-19.792 -30.063)" fill="#bdc3c7"/>
            <path id="Trazado_1184982" data-name="Trazado 1184982" d="M34.439,44.513h81.289V94.15H34.439Z" transform="translate(-28.041 -38.201)" fill="#4482c3"/>
            <circle id="Elipse_12572" data-name="Elipse 12572" cx="3.199" cy="3.199" r="3.199" transform="translate(77.176 60.613)" fill="#a5a5a4"/>
          </g>
        </g>
        <g id="Grupo_1231062" data-name="Grupo 1231062" transform="translate(63.357 15.512)">
          <path id="Trazado_1184983" data-name="Trazado 1184983" d="M164.846,73.518h17.579V91.16H164.846Z" transform="translate(-164.846 -70.05)" fill="#a5a5a4"/>
          <path id="Trazado_1184984" data-name="Trazado 1184984" d="M164.846,65.577h17.579v6.592H164.846Z" transform="translate(-164.846 -65.577)" fill="#3f5c6c"/>
          <path id="Trazado_1184985" data-name="Trazado 1184985" d="M165.924,91.521h16.794v4.944H165.924Z" transform="translate(-165.453 -80.189)" fill="#a5a5a4"/>
        </g>
      </g>
      <g id="Grupo_1231064" data-name="Grupo 1231064" transform="translate(17.592 27.863)">
        <path id="Trazado_1184986" data-name="Trazado 1184986" d="M25.76,101.572H53.943v2.037A5.9,5.9,0,0,1,48.05,109.5H41.423a.961.961,0,0,0-.961.961v5.484a.961.961,0,0,0,.961.961H89.767a.961.961,0,0,0,.961-.961v-5.484a.961.961,0,0,0-.961-.961H83.14a5.9,5.9,0,0,1-5.893-5.893v-2.037H105.43A8.177,8.177,0,0,0,113.6,93.4V33.629a5.772,5.772,0,0,0-5.766-5.766H23.358a5.772,5.772,0,0,0-5.766,5.766V93.4a8.177,8.177,0,0,0,8.168,8.168Zm57.379,9.852h5.666v3.562H42.383v-3.562H48.05a7.824,7.824,0,0,0,7.815-7.815v-2.037h19.46v2.037a7.824,7.824,0,0,0,7.815,7.815Zm-63.625-77.8a3.848,3.848,0,0,1,3.844-3.844h84.474a3.848,3.848,0,0,1,3.844,3.844V93.4a6.253,6.253,0,0,1-6.246,6.246H25.76A6.253,6.253,0,0,1,19.514,93.4Z" transform="translate(-17.592 -27.863)"/>
        <path id="Trazado_1184987" data-name="Trazado 1184987" d="M33.2,93.872h81.289a.961.961,0,0,0,.961-.961V43.274a.961.961,0,0,0-.961-.961H33.2a.961.961,0,0,0-.961.961V92.911A.961.961,0,0,0,33.2,93.872Zm.961-49.637h79.367V91.95H34.16Z" transform="translate(-25.841 -36.001)"/>
        <path id="Trazado_1184988" data-name="Trazado 1184988" d="M198.444,166.633a4.16,4.16,0,1,0,4.159,4.16A4.164,4.164,0,0,0,198.444,166.633Zm0,6.4a2.238,2.238,0,1,1,2.238-2.238A2.24,2.24,0,0,1,198.444,173.03Z" transform="translate(-117.108 -106.02)"/>
        <path id="Trazado_1184989" data-name="Trazado 1184989" d="M168.648,124.547l-.042-.2-9.37-3.608-.155.155,3.608,9.37.2.042,2.2-2.2,4.877,4.877.679-.68.679-.68-4.877-4.877Z" transform="translate(-97.281 -80.174)"/>
        <path id="Trazado_1184990" data-name="Trazado 1184990" d="M181.185,63.2H163.606a.961.961,0,0,0-.961.961V85.347a.961.961,0,0,0,.961.961h17.579a.961.961,0,0,0,.961-.961V64.158A.961.961,0,0,0,181.185,63.2Zm-.961,21.189H164.567V81.474h15.657Zm0-4.834H164.567V76.53h15.657Zm0-4.944H164.567V71.79h15.657Zm0-4.74H164.567V65.2h15.657Z" transform="translate(-99.289 -47.764)"/>
        <path id="Trazado_1184991" data-name="Trazado 1184991" d="M93.382,58.571H48.654a.961.961,0,0,0-.961.961V94.858a.961.961,0,0,0,.961.961H70.423V93.9H60.018v-3.46H58.1V93.9H49.615V80.669H58.1v3.956h1.922V80.669h7.052V78.747H49.615V60.492H78.18V78.747h-5.3v1.922H83.611V78.747H80.1V60.492h12.32V78.747H88.942v1.922h3.479V93.9h-10.9l-7.1-6.456L73.13,88.864l7.376,6.706a.961.961,0,0,0,.646.25h12.23a.961.961,0,0,0,.961-.961V59.531a.961.961,0,0,0-.961-.961Z" transform="translate(-34.545 -45.158)"/>
      </g>
    </g>
  </g>
</svg>
