<svg xmlns="http://www.w3.org/2000/svg" width="117" height="119" viewBox="0 0 117 119">
  <g id="Grupo_1231011" data-name="Grupo 1231011" transform="translate(-1140 -17874.781)">
    <g id="Grupo_1230722" data-name="Grupo 1230722" transform="translate(-123.126 15232.782)">
      <g id="Grupo_1230674" data-name="Grupo 1230674" transform="translate(16)">
        <rect id="Rect치ngulo_423331" data-name="Rect치ngulo 423331" width="94" height="55" rx="12" transform="translate(1247.126 2681)" fill="#497d74"/>
        <rect id="Rect치ngulo_423332" data-name="Rect치ngulo 423332" width="74" height="119" rx="12" transform="translate(1290.126 2642)" fill="#345953"/>
      </g>
    </g>
    <g id="touchpad_12640536" transform="translate(1164.056 17895.781)">
      <path id="Trazado_900410" data-name="Trazado 900410" d="M6,17H52.9V47.149H6Z" transform="translate(3.375 11.474)" fill="#ccc"/>
      <path id="Trazado_900411" data-name="Trazado 900411" d="M44.523,17H6V47.149h8.375Z" transform="translate(3.375 11.474)" fill="#efefef"/>
      <g id="Grupo_1212353" data-name="Grupo 1212353" transform="translate(2.675 1.675)">
        <path id="Trazado_900412" data-name="Trazado 900412" d="M10,9H43.5v6.7H10Z" transform="translate(3.399 4.399)" fill="#5e5e5e"/>
        <path id="Trazado_900413" data-name="Trazado 900413" d="M18,1h6.7V7.7H18Z" transform="translate(8.799 -1)" fill="#5e5e5e"/>
        <path id="Trazado_900414" data-name="Trazado 900414" d="M26,1h6.7V7.7H26Z" transform="translate(14.198 -1)" fill="#5e5e5e"/>
        <path id="Trazado_900415" data-name="Trazado 900415" d="M34,1h6.7V7.7H34Z" transform="translate(19.598 -1)" fill="#5e5e5e"/>
        <path id="Trazado_900416" data-name="Trazado 900416" d="M10,1h6.7V7.7H10Z" transform="translate(3.399 -1)" fill="#5e5e5e"/>
        <path id="Trazado_900417" data-name="Trazado 900417" d="M2,1H8.7V7.7H2Z" transform="translate(-2 -1)" fill="#5e5e5e"/>
        <path id="Trazado_900418" data-name="Trazado 900418" d="M34,9h6.7v6.7H34Z" transform="translate(19.598 4.399)" fill="#5e5e5e"/>
        <path id="Trazado_900419" data-name="Trazado 900419" d="M2,9H8.7v6.7H2Z" transform="translate(-2 4.399)" fill="#5e5e5e"/>
      </g>
      <path id="Trazado_900420" data-name="Trazado 900420" d="M30.1,9H10v6.7H23.4Z" transform="translate(6.074 6.074)" fill="#919191"/>
      <path id="Trazado_900421" data-name="Trazado 900421" d="M18,7.7V1h6.7Z" transform="translate(11.474 0.675)" fill="#919191"/>
      <path id="Trazado_900422" data-name="Trazado 900422" d="M26,7.7V1h6.7Z" transform="translate(16.873 0.675)" fill="#919191"/>
      <path id="Trazado_900423" data-name="Trazado 900423" d="M34,7.7V1h6.7Z" transform="translate(22.273 0.675)" fill="#919191"/>
      <path id="Trazado_900424" data-name="Trazado 900424" d="M10,7.7V1h6.7Z" transform="translate(6.074 0.675)" fill="#919191"/>
      <path id="Trazado_900425" data-name="Trazado 900425" d="M2,7.7V1H8.7Z" transform="translate(0.675 0.675)" fill="#919191"/>
      <path id="Trazado_900426" data-name="Trazado 900426" d="M34,15.7V9h6.7Z" transform="translate(22.273 6.074)" fill="#919191"/>
      <path id="Trazado_900427" data-name="Trazado 900427" d="M42,1h6.7V7.7H42Z" transform="translate(27.672 0.675)" fill="#5e5e5e"/>
      <path id="Trazado_900428" data-name="Trazado 900428" d="M42,9h6.7v6.7H42Z" transform="translate(27.672 6.074)" fill="#5e5e5e"/>
      <path id="Trazado_900429" data-name="Trazado 900429" d="M42,7.7V1h6.7Z" transform="translate(27.672 0.675)" fill="#919191"/>
      <path id="Trazado_900430" data-name="Trazado 900430" d="M42,15.7V9h6.7Z" transform="translate(27.672 6.074)" fill="#919191"/>
      <path id="Trazado_900431" data-name="Trazado 900431" d="M2,15.7V9H8.7Z" transform="translate(0.675 6.074)" fill="#919191"/>
      <path id="Trazado_900432" data-name="Trazado 900432" d="M38.8,36.074H32.1V24.35a3.35,3.35,0,0,0-6.7,0,3.35,3.35,0,0,0-6.7,0v13.4l-4.852,2.425A3.344,3.344,0,0,0,12,43.164v8.772a3.346,3.346,0,0,0,.441,1.658L18.7,64.548H38.8l3.11-7.777a3.319,3.319,0,0,0,.24-1.241V39.419A3.345,3.345,0,0,0,38.8,36.074Z" transform="translate(7.424 14.173)" fill="#f2d6ad"/>
      <path id="Trazado_900433" data-name="Trazado 900433" d="M16.872,61.351l24.3-24.3a3.337,3.337,0,0,0-2.365-.98H32.1V24.35a3.35,3.35,0,0,0-6.7,0,3.35,3.35,0,0,0-6.7,0v13.4l-4.852,2.425A3.344,3.344,0,0,0,12,43.164v8.772a3.346,3.346,0,0,0,.441,1.658Z" transform="translate(7.424 14.173)" fill="#fcf6f2"/>
      <path id="Trazado_900434" data-name="Trazado 900434" d="M76.372,13.4h-6.7A1.676,1.676,0,0,0,68,15.074v6.7a1.676,1.676,0,0,0,1.675,1.675h6.7a1.676,1.676,0,0,0,1.675-1.675v-6.7A1.676,1.676,0,0,0,76.372,13.4ZM74.7,20.1h-3.35v-3.35H74.7ZM56.273,10.05h6.7a1.676,1.676,0,0,0,1.675-1.675v-6.7A1.676,1.676,0,0,0,62.972,0h-6.7A1.676,1.676,0,0,0,54.6,1.675v6.7A1.676,1.676,0,0,0,56.273,10.05Zm1.675-6.7H61.3V6.7h-3.35ZM11.05,21.774v-6.7A1.676,1.676,0,0,0,9.375,13.4h-6.7A1.676,1.676,0,0,0,1,15.074v6.7a1.676,1.676,0,0,0,1.675,1.675h6.7A1.676,1.676,0,0,0,11.05,21.774ZM7.7,20.1H4.35v-3.35H7.7ZM76.372,0h-6.7A1.676,1.676,0,0,0,68,1.675v6.7a1.676,1.676,0,0,0,1.675,1.675h6.7a1.676,1.676,0,0,0,1.675-1.675v-6.7A1.676,1.676,0,0,0,76.372,0ZM74.7,6.7h-3.35V3.35H74.7ZM56.273,23.449h6.7a1.676,1.676,0,0,0,1.675-1.675v-6.7A1.676,1.676,0,0,0,62.972,13.4h-6.7A1.676,1.676,0,0,0,54.6,15.074v6.7A1.676,1.676,0,0,0,56.273,23.449Zm1.675-6.7H61.3V20.1h-3.35Zm-15.074-6.7h6.7a1.676,1.676,0,0,0,1.675-1.675v-6.7A1.676,1.676,0,0,0,49.573,0h-6.7A1.676,1.676,0,0,0,41.2,1.675v6.7A1.676,1.676,0,0,0,42.873,10.05Zm1.675-6.7H47.9V6.7h-3.35ZM56.273,26.8H9.375A1.676,1.676,0,0,0,7.7,28.474V58.622A1.676,1.676,0,0,0,9.375,60.3h8.375v5.812a5.022,5.022,0,0,0,.662,2.489L24.67,79.552a1.673,1.673,0,0,0,1.454.844h20.1a1.675,1.675,0,0,0,1.554-1.052l3.112-7.778a4.992,4.992,0,0,0,.358-1.863V60.3h5.025a1.676,1.676,0,0,0,1.675-1.675V28.474A1.676,1.676,0,0,0,56.273,26.8ZM47.9,69.7a1.671,1.671,0,0,1-.119.62l-2.69,6.723H27.1L21.32,66.935a1.644,1.644,0,0,1-.221-.826V57.338a1.661,1.661,0,0,1,.923-1.492l2.427-1.213V60.3a1.675,1.675,0,1,0,3.35,0V38.523a1.675,1.675,0,0,1,3.35,0V50.248a1.675,1.675,0,1,0,3.35,0V38.523a1.675,1.675,0,0,1,3.35,0V50.248a1.676,1.676,0,0,0,1.675,1.675h6.7a1.671,1.671,0,0,1,1.67,1.67Zm6.7-12.756h-3.35V53.593a5.024,5.024,0,0,0-5.02-5.02H41.2V38.523a5.022,5.022,0,0,0-8.375-3.742,5.022,5.022,0,0,0-8.375,3.742V50.888l-3.926,1.963a4.982,4.982,0,0,0-2.747,4.1H11.05v-26.8H54.6ZM2.675,10.05h6.7A1.676,1.676,0,0,0,11.05,8.375v-6.7A1.676,1.676,0,0,0,9.375,0h-6.7A1.676,1.676,0,0,0,1,1.675v6.7A1.676,1.676,0,0,0,2.675,10.05ZM4.35,3.35H7.7V6.7H4.35Zm11.724,20.1h33.5a1.676,1.676,0,0,0,1.675-1.675v-6.7A1.676,1.676,0,0,0,49.573,13.4h-33.5A1.676,1.676,0,0,0,14.4,15.074v6.7A1.676,1.676,0,0,0,16.074,23.449Zm1.675-6.7H47.9V20.1H17.749Zm11.724-6.7h6.7a1.676,1.676,0,0,0,1.675-1.675v-6.7A1.676,1.676,0,0,0,36.173,0h-6.7A1.676,1.676,0,0,0,27.8,1.675v6.7A1.676,1.676,0,0,0,29.474,10.05Zm1.675-6.7H34.5V6.7h-3.35ZM77.556,60.786a1.673,1.673,0,0,1,0,2.368l-6.7,6.7a1.689,1.689,0,0,1-2.37,0l-6.7-6.7a1.675,1.675,0,0,1,2.368-2.368L68,64.629V38.523a1.675,1.675,0,0,1,3.35,0v26.1l3.841-3.841A1.676,1.676,0,0,1,77.556,60.786ZM16.074,10.05h6.7a1.676,1.676,0,0,0,1.675-1.675v-6.7A1.676,1.676,0,0,0,22.774,0h-6.7A1.676,1.676,0,0,0,14.4,1.675v6.7A1.676,1.676,0,0,0,16.074,10.05Zm1.675-6.7H21.1V6.7h-3.35Z" fill="#12263f"/>
    </g>
  </g>
</svg>
