<svg xmlns="http://www.w3.org/2000/svg" width="117" height="119" viewBox="0 0 117 119">
  <g id="Grupo_1231090" data-name="Grupo 1231090" transform="translate(-4544.552 -15355.471)">
    <g id="Grupo_1230766" data-name="Grupo 1230766" transform="translate(4544.552 15355.471)">
      <g id="Grupo_1230660" data-name="Grupo 1230660" transform="translate(0)">
        <rect id="Rect치ngulo_423318" data-name="Rect치ngulo 423318" width="94" height="55" rx="12" transform="translate(0 39)" fill="#497d74"/>
        <rect id="Rect치ngulo_423319" data-name="Rect치ngulo 423319" width="74" height="119" rx="12" transform="translate(43)" fill="#345953"/>
      </g>
    </g>
    <g id="Layer_x0020_1" transform="translate(4566.368 15373.152)">
      <path id="Trazado_1185013" data-name="Trazado 1185013" d="M18.381,61.737H11.622a.7.7,0,0,0-.724.628V72.7a.7.7,0,0,0,.724.628H24.9a.7.7,0,0,0,.724-.628V62.365a.7.7,0,0,0-.724-.628ZM74.628,83.318H9.691A8.716,8.716,0,0,1,1,74.628V9.691A8.716,8.716,0,0,1,9.691,1H74.628a8.716,8.716,0,0,1,8.691,8.691V74.628A8.747,8.747,0,0,1,74.628,83.318ZM9.691,2.593a7.109,7.109,0,0,0-7.1,7.1V74.628a7.109,7.109,0,0,0,7.1,7.1H74.628a7.068,7.068,0,0,0,7.049-7.1V9.691a7.068,7.068,0,0,0-7.049-7.1ZM74.628,79.6H9.691a4.966,4.966,0,0,1-4.973-4.973V9.691A4.966,4.966,0,0,1,9.691,4.718H74.628A4.966,4.966,0,0,1,79.6,9.691V74.628A5,5,0,0,1,74.628,79.6ZM9.691,6.311a3.421,3.421,0,0,0-3.38,3.38V74.628a3.421,3.421,0,0,0,3.38,3.38H74.628a3.38,3.38,0,0,0,3.331-3.38V9.691a3.38,3.38,0,0,0-3.331-3.38ZM20.65,60.144A43.3,43.3,0,0,1,27.7,40.3a7.074,7.074,0,0,1-1.352-.676c-.966,1.352-1.448,2.849-2.414,2.269a.789.789,0,0,1-.241-1.11,20.214,20.214,0,0,1,1.4-2.124,8.676,8.676,0,0,1-.917-.966,47.927,47.927,0,0,0-7.87,22.45h1.352c.048-.531,0-1.642.917-1.545s.724,1.062.676,1.545ZM28.906,39a7.82,7.82,0,0,0,1.642.241,6.536,6.536,0,0,0,6.276-8.208c-.048-.1-.048-.145-.1-.241a6.508,6.508,0,0,0-6.18-4.538,6.409,6.409,0,0,0-6.47,6.47A6.476,6.476,0,0,0,28.906,39Zm.435,1.738a42.273,42.273,0,0,0-7.1,19.409H24.9a2.308,2.308,0,0,1,2.317,2.269V72.7A2.277,2.277,0,0,1,24.9,74.966H11.622A2.277,2.277,0,0,1,9.3,72.7V62.413a2.308,2.308,0,0,1,2.317-2.269h3.042A49.576,49.576,0,0,1,23.257,36.2,8.1,8.1,0,0,1,33.541,25.189a50.108,50.108,0,0,1,26.6-10.573V11.573A2.267,2.267,0,0,1,62.413,9.3H72.7a2.277,2.277,0,0,1,2.317,2.269V24.851A2.35,2.35,0,0,1,72.7,27.168H62.413a2.308,2.308,0,0,1-2.269-2.317V22.292a42.028,42.028,0,0,0-21.678,8.739A8.108,8.108,0,0,1,29.341,40.735Zm8.594-11.346A43.787,43.787,0,0,1,60.144,20.65v-1.5c-1.448.1-3.042.628-3.235-.483a.817.817,0,0,1,.724-.917,19.278,19.278,0,0,1,2.511-.193v-1.3a48.442,48.442,0,0,0-25.058,9.753,7.206,7.206,0,0,1,1.3,1.11c.1-.676,2.173-1.786,3.042-2.366a.825.825,0,0,1,.869,1.4,19.826,19.826,0,0,1-3.138,1.883A12.278,12.278,0,0,1,37.935,29.389Zm23.8-8.063v3.524a.69.69,0,0,0,.676.676H72.7a.7.7,0,0,0,.724-.676l-.048-13.277A.691.691,0,0,0,72.7,10.9H62.413a.727.727,0,0,0-.676.676ZM51.115,70.234a.734.734,0,0,1-.772-.579L42.714,45.418A.781.781,0,0,1,43.68,44.4l24.237,7.628a.816.816,0,0,1,.338,1.352l-4.973,4.973,4.1,4.1a.735.735,0,0,1,0,1.11l-5.552,5.552a.734.734,0,0,1-1.11,0l-4.1-4.1-4.925,4.973A1,1,0,0,1,51.115,70.234ZM44.694,46.384l6.759,21.533,4.635-4.587a.734.734,0,0,1,1.11,0l4.1,4.1L65.7,62.992l-4.1-4.1a.818.818,0,0,1,0-1.11l4.635-4.635Zm2.269-23.851a.812.812,0,0,1-.338-1.545c1.014-.435,2.028-.869,3.042-1.207a.794.794,0,1,1,.531,1.5ZM19.974,52.322a.813.813,0,0,1-.772-1.014c.29-1.062.628-2.076,1.014-3.09a.794.794,0,1,1,1.5.531C20.988,50.729,20.94,52.322,19.974,52.322Z" fill-rule="evenodd"/>
      <path id="Trazado_1185014" data-name="Trazado 1185014" d="M36.124,106.035V41.1A4.966,4.966,0,0,1,41.1,36.124h64.937a4.966,4.966,0,0,1,4.973,4.973v64.937a5,5,0,0,1-4.973,4.973H41.1A4.966,4.966,0,0,1,36.124,106.035Zm4.973,7.1h64.937a7.068,7.068,0,0,0,7.049-7.1V41.1a7.068,7.068,0,0,0-7.049-7.1H41.1A7.109,7.109,0,0,0,34,41.1v64.937A7.109,7.109,0,0,0,41.1,113.132Z" transform="translate(-31.407 -31.407)" fill="#2a78c6" fill-rule="evenodd"/>
      <path id="Trazado_1185015" data-name="Trazado 1185015" d="M111,114.38v64.937a3.421,3.421,0,0,0,3.38,3.38h64.937a3.38,3.38,0,0,0,3.331-3.38V114.38a3.38,3.38,0,0,0-3.331-3.38H114.38A3.421,3.421,0,0,0,111,114.38Zm2.993,63.006V167.1a2.308,2.308,0,0,1,2.317-2.269h3.042a49.576,49.576,0,0,1,8.594-23.947,8.1,8.1,0,0,1,10.284-11.008,50.108,50.108,0,0,1,26.6-10.573v-3.042a2.267,2.267,0,0,1,2.269-2.269h10.284a2.277,2.277,0,0,1,2.317,2.269V129.54a2.35,2.35,0,0,1-2.317,2.317H167.1a2.308,2.308,0,0,1-2.269-2.317v-2.559a42.028,42.028,0,0,0-21.678,8.739,8.108,8.108,0,0,1-9.125,9.7,42.273,42.273,0,0,0-7.1,19.409h2.655a2.308,2.308,0,0,1,2.317,2.269v10.284a2.277,2.277,0,0,1-2.317,2.269H116.311A2.277,2.277,0,0,1,113.993,177.386Zm41.811-2.462a.734.734,0,0,1-.772-.579L147.4,150.107a.781.781,0,0,1,.966-1.014l24.237,7.628a.816.816,0,0,1,.338,1.352l-4.973,4.973,4.1,4.1a.735.735,0,0,1,0,1.11l-5.552,5.552a.734.734,0,0,1-1.11,0l-4.1-4.1-4.925,4.973A1,1,0,0,1,155.8,174.923Z" transform="translate(-104.689 -104.689)" fill="#c9f4ff" fill-rule="evenodd"/>
      <path id="Trazado_1185016" data-name="Trazado 1185016" d="M206.724,1259a.7.7,0,0,0-.724.628v10.332a.7.7,0,0,0,.724.628H220a.7.7,0,0,0,.724-.628v-10.332A.7.7,0,0,0,220,1259H206.724Z" transform="translate(-195.102 -1197.263)" fill="#2a78c6" fill-rule="evenodd"/>
      <path id="Trazado_1185017" data-name="Trazado 1185017" d="M325.87,761A47.927,47.927,0,0,0,318,783.451h1.352c.048-.531,0-1.642.917-1.545s.724,1.062.676,1.545h1.4a43.3,43.3,0,0,1,7.049-19.843,7.074,7.074,0,0,1-1.352-.676c-.966,1.352-1.448,2.849-2.414,2.269a.789.789,0,0,1-.241-1.11,20.184,20.184,0,0,1,1.4-2.124A8.671,8.671,0,0,1,325.87,761Zm-4.2,14.629a.813.813,0,0,1-.772-1.014c.29-1.062.628-2.076,1.014-3.09a.794.794,0,1,1,1.5.531C322.683,774.036,322.635,775.629,321.669,775.629Z" transform="translate(-301.695 -723.307)" fill="#ffcf00" fill-rule="evenodd"/>
      <path id="Trazado_1185018" data-name="Trazado 1185018" d="M479,530.47a6.476,6.476,0,0,0,4.828,6.276,7.82,7.82,0,0,0,1.642.241,6.536,6.536,0,0,0,6.276-8.208c-.048-.1-.048-.145-.1-.241A6.508,6.508,0,0,0,485.47,524,6.409,6.409,0,0,0,479,530.47Z" transform="translate(-454.922 -497.749)" fill="#2a78c6" fill-rule="evenodd"/>
      <path id="Trazado_1185019" data-name="Trazado 1185019" d="M711.345,325.5a.825.825,0,0,1,.869,1.4,19.833,19.833,0,0,1-3.138,1.883,12.279,12.279,0,0,1,.772,1.352,43.787,43.787,0,0,1,22.209-8.739v-1.5c-1.448.1-3.042.628-3.235-.483a.817.817,0,0,1,.724-.917,19.278,19.278,0,0,1,2.51-.193V317A48.442,48.442,0,0,0,707,326.753a7.207,7.207,0,0,1,1.3,1.11C708.4,327.187,710.476,326.077,711.345,325.5Zm7.532-2.221a.812.812,0,0,1-.338-1.545c1.014-.435,2.028-.869,3.042-1.207a.794.794,0,1,1,.531,1.5Z" transform="translate(-671.914 -300.743)" fill="#ffcf00" fill-rule="evenodd"/>
      <path id="Trazado_1185020" data-name="Trazado 1185020" d="M1259,206.676v13.277a.691.691,0,0,0,.676.676h10.284a.7.7,0,0,0,.724-.676l-.048-13.277a.69.69,0,0,0-.676-.676h-10.284A.727.727,0,0,0,1259,206.676Z" transform="translate(-1197.263 -195.102)" fill="#2a78c6" fill-rule="evenodd"/>
      <path id="Trazado_1185021" data-name="Trazado 1185021" d="M927.533,947.759,906,941l6.759,21.533,4.635-4.587a.734.734,0,0,1,1.11,0l4.1,4.1L927,957.609l-4.1-4.1a.818.818,0,0,1,0-1.111Z" transform="translate(-861.306 -894.616)" fill="#fff" fill-rule="evenodd"/>
    </g>
  </g>
</svg>
