<svg xmlns="http://www.w3.org/2000/svg" width="117" height="119" viewBox="0 0 117 119">
  <g id="Grupo_1231137" data-name="Grupo 1231137" transform="translate(-4544.552 -20221.128)">
    <g id="Grupo_1230787" data-name="Grupo 1230787" transform="translate(4544.552 20221.129)">
      <g id="Grupo_1230660" data-name="Grupo 1230660" transform="translate(0)">
        <rect id="Rect치ngulo_423318" data-name="Rect치ngulo 423318" width="94" height="55" rx="12" transform="translate(0 39)" fill="#497d74"/>
        <rect id="Rect치ngulo_423319" data-name="Rect치ngulo 423319" width="74" height="119" rx="12" transform="translate(43)" fill="#345953"/>
      </g>
    </g>
    <g id="search_12523087" transform="translate(4542.89 20224.467)">
      <circle id="Elipse_12573" data-name="Elipse 12573" cx="26.519" cy="26.519" r="26.519" transform="translate(25.877 33.643)" fill="#f05073"/>
      <path id="Trazado_1185052" data-name="Trazado 1185052" d="M106.806,75.076a2.406,2.406,0,0,0-1.779-2.033L87.375,68.432A38.709,38.709,0,1,0,68.432,87.376l4.611,17.652a2.405,2.405,0,0,0,4.437.546l9.932-18.161,18.161-9.932a2.4,2.4,0,0,0,1.233-2.4ZM52.216,86.122A33.895,33.895,0,1,1,82.638,67.2l-16.93-4.422a2.405,2.405,0,0,0-2.935,2.935L67.2,82.638A33.959,33.959,0,0,1,52.216,86.122Zm32.27-2.592a2.406,2.406,0,0,0-.956.956L76.166,97.951l-7.7-29.486,29.486,7.7ZM54.622,76.487a2.4,2.4,0,0,1-2.405,2.405A26.706,26.706,0,0,1,25.541,52.216a2.405,2.405,0,0,1,4.811,0A21.89,21.89,0,0,0,52.216,74.082,2.4,2.4,0,0,1,54.622,76.487ZM49.811,27.946a2.4,2.4,0,0,1,2.405-2.405A26.706,26.706,0,0,1,78.892,52.216a2.405,2.405,0,1,1-4.811,0A21.89,21.89,0,0,0,52.216,30.351,2.4,2.4,0,0,1,49.811,27.946Z"/>
    </g>
  </g>
</svg>
