<svg xmlns="http://www.w3.org/2000/svg" width="105" height="105" viewBox="0 0 105 105">
  <g id="Grupo_1231309" data-name="Grupo 1231309" transform="translate(-1168 -30397.531)">
    <g id="Grupo_1230779" data-name="Grupo 1230779" transform="translate(0 11594.323)">
      <g id="Grupo_1198272" data-name="Grupo 1198272" transform="translate(1168 18803.207)">
        <g id="Grupo_1098742" data-name="Grupo 1098742" transform="translate(0)">
          <g id="Rect치ngulo_400898" data-name="Rect치ngulo 400898" transform="translate(0.001 0)" fill="#eabe94" stroke="#ae967f" stroke-width="1">
            <rect width="104.999" height="104.999" rx="52.5" stroke="none"/>
            <rect x="0.5" y="0.5" width="103.999" height="103.999" rx="52" fill="none"/>
          </g>
          <g id="Rect치ngulo_400907" data-name="Rect치ngulo 400907" transform="translate(0 0)" fill="none" stroke="#ae967f" stroke-width="1">
            <rect width="104.999" height="104.999" rx="52.5" stroke="none"/>
            <rect x="0.5" y="0.5" width="103.999" height="103.999" rx="52" fill="none"/>
          </g>
        </g>
      </g>
    </g>
    <g id="Arrows-Filledoutline" transform="translate(1183.154 30412.465)">
      <g id="Grupo_1231132" data-name="Grupo 1231132" transform="translate(3.28 3.28)">
        <path id="Trazado_1185044" data-name="Trazado 1185044" d="M35.911,25.171V12.983a1.843,1.843,0,0,0-1.843-1.843H30.38a1.843,1.843,0,0,0-1.843,1.843V25.171L19.78,18.616v6.964a2.56,2.56,0,0,0,.947,1.946l9.858,7.963a2.56,2.56,0,0,0,3.124,0l9.934-7.963a2.56,2.56,0,0,0,.947-1.946V18.616Z" transform="translate(24.464 10.982)" fill="#5eb9ff"/>
        <path id="Trazado_1185045" data-name="Trazado 1185045" d="M21.992,35.911H34.18a1.843,1.843,0,0,0,1.843-1.843V30.38a1.843,1.843,0,0,0-1.843-1.843H21.992l6.555-8.757H21.583a2.56,2.56,0,0,0-1.946.947l-7.963,9.858a2.56,2.56,0,0,0,0,3.124l7.963,9.934a2.56,2.56,0,0,0,1.946.947h6.964Z" transform="translate(10.986 24.464)" fill="#5eb9ff"/>
        <path id="Trazado_1185046" data-name="Trazado 1185046" d="M11.257,21.992V34.18A1.843,1.843,0,0,0,13.1,36.023h3.687a1.843,1.843,0,0,0,1.843-1.843V21.992l8.757,6.555V21.583a2.56,2.56,0,0,0-.947-1.946l-9.858-7.963a2.56,2.56,0,0,0-3.124,0L3.447,19.637A2.56,2.56,0,0,0,2.5,21.583v6.964Z" transform="translate(-2.5 10.986)" fill="#5eb9ff"/>
        <path id="Trazado_1185047" data-name="Trazado 1185047" d="M25.171,11.257H12.983A1.843,1.843,0,0,0,11.14,13.1v3.687a1.843,1.843,0,0,0,1.843,1.843H25.171l-6.555,8.757h6.964a2.56,2.56,0,0,0,1.946-.947l7.963-9.858a2.56,2.56,0,0,0,0-3.124L27.527,3.447A2.56,2.56,0,0,0,25.581,2.5H18.616Z" transform="translate(10.982 -2.5)" fill="#5eb9ff"/>
      </g>
      <path id="Trazado_1185048" data-name="Trazado 1185048" d="M46.011,18.244a1.306,1.306,0,0,0-1.331.128l-6.708,5.121v-9.73a3.124,3.124,0,0,0-3.124-3.124H31.16a3.124,3.124,0,0,0-3.124,3.124v9.627L21.328,18.27A1.255,1.255,0,0,0,20,18.142a1.306,1.306,0,0,0-.717,1.152v6.964A3.764,3.764,0,0,0,20.688,29.2l9.96,7.963A3.866,3.866,0,0,0,33,37.985a3.815,3.815,0,0,0,2.356-.819l9.96-7.963a3.764,3.764,0,0,0,1.408-2.842V19.4a1.306,1.306,0,0,0-.717-1.152Zm-1.843,8.116a1.178,1.178,0,0,1-.461.947l-9.934,7.963a1.2,1.2,0,0,1-1.511,0L22.3,27.308a1.255,1.255,0,0,1-.461-.947v-4.4l6.708,5.121A1.28,1.28,0,0,0,30.6,26.054V13.764a.563.563,0,0,1,.563-.563h3.687a.563.563,0,0,1,.563.563V25.951a1.28,1.28,0,0,0,2.048,1.024l6.708-5.121Z" transform="translate(26.964 13.482)" fill="#231f20"/>
      <path id="Trazado_1185049" data-name="Trazado 1185049" d="M30.426,20a1.306,1.306,0,0,0-1.152-.717H22.31a3.764,3.764,0,0,0-2.944,1.408l-7.86,9.96a3.764,3.764,0,0,0,0,4.711l7.963,9.96a3.764,3.764,0,0,0,2.944,1.408h6.964a1.306,1.306,0,0,0,1.152-.717,1.255,1.255,0,0,0-.128-1.331L25.28,37.971h9.627a3.124,3.124,0,0,0,3.124-3.124V31.16a3.124,3.124,0,0,0-3.124-3.124H25.28L30.4,21.328A1.255,1.255,0,0,0,30.426,20Zm-8.68,8.552a1.255,1.255,0,0,0-.128,1.331,1.306,1.306,0,0,0,1.152.717H34.958a.563.563,0,0,1,.563.563v3.687a.563.563,0,0,1-.563.563H22.719a1.306,1.306,0,0,0-1.152.717,1.255,1.255,0,0,0,.128,1.331l5.121,6.708H22.31a1.178,1.178,0,0,1-.947-.461L13.4,33.772a1.255,1.255,0,0,1,0-1.511l7.963-9.96a1.255,1.255,0,0,1,.947-.461h4.4Z" transform="translate(13.539 26.964)" fill="#231f20"/>
      <path id="Trazado_1185050" data-name="Trazado 1185050" d="M2.717,30.426A1.306,1.306,0,0,0,4.048,30.3l6.708-5.121V34.8a3.124,3.124,0,0,0,3.124,3.124h3.687a3.124,3.124,0,0,0,3.124-3.021V25.28L27.4,30.4a1.28,1.28,0,0,0,2.048-1.024V22.31a3.764,3.764,0,0,0-1.408-2.944l-9.96-7.86a3.764,3.764,0,0,0-4.711,0l-9.96,7.86A3.764,3.764,0,0,0,2,22.31v6.964a1.306,1.306,0,0,0,.717,1.152ZM4.56,22.31a1.178,1.178,0,0,1,.461-.947L14.956,13.4a1.2,1.2,0,0,1,1.511,0l9.96,7.963a1.255,1.255,0,0,1,.461.947v4.4l-6.708-4.967a1.28,1.28,0,0,0-2.048,1.024V34.958a.563.563,0,0,1-.563.563H13.88a.563.563,0,0,1-.563-.563V22.719a1.306,1.306,0,0,0-.717-1.152,1.383,1.383,0,0,0-.563,0,1.2,1.2,0,0,0-.768.256L4.56,26.714Z" transform="translate(0 13.539)" fill="#231f20"/>
      <path id="Trazado_1185051" data-name="Trazado 1185051" d="M37.166,13.368l-7.86-9.96A3.764,3.764,0,0,0,26.361,2H19.4a1.306,1.306,0,0,0-1.152.717,1.255,1.255,0,0,0,.128,1.331l5.121,6.708h-9.73A3.124,3.124,0,0,0,10.64,13.88v3.687a3.124,3.124,0,0,0,3.124,3.124h9.627L18.27,27.4a1.255,1.255,0,0,0-.128,1.331,1.306,1.306,0,0,0,1.152.717h6.964A3.764,3.764,0,0,0,29.2,28.039l7.963-9.96A3.764,3.764,0,0,0,37.166,13.368Zm-2,3.1-7.963,9.96a1.255,1.255,0,0,1-.947.461h-4.3l4.967-6.708a1.255,1.255,0,0,0,.128-1.331,1.306,1.306,0,0,0-1.152-.717H13.764a.563.563,0,0,1-.563-.563V13.88a.563.563,0,0,1,.563-.563H25.951A1.306,1.306,0,0,0,27.1,12.6a1.255,1.255,0,0,0-.179-1.331L21.957,4.56h4.4a1.178,1.178,0,0,1,.947.461l7.963,9.934a1.255,1.255,0,0,1,0,1.511Z" transform="translate(13.482)" fill="#231f20"/>
    </g>
  </g>
</svg>
