<svg xmlns="http://www.w3.org/2000/svg" width="105" height="105" viewBox="0 0 105 105">
  <g id="Grupo_1231130" data-name="Grupo 1231130" transform="translate(-327 -30369.218)">
    <g id="Grupo_1230777" data-name="Grupo 1230777" transform="translate(0 11566.01)">
      <g id="Grupo_1198269" data-name="Grupo 1198269" transform="translate(327.001 18803.207)">
        <g id="Grupo_1098742" data-name="Grupo 1098742" transform="translate(0)">
          <g id="Rect치ngulo_400898" data-name="Rect치ngulo 400898" transform="translate(0.001 0)" fill="#eabe94" stroke="#ae967f" stroke-width="1">
            <rect width="104.999" height="104.999" rx="52.5" stroke="none"/>
            <rect x="0.5" y="0.5" width="103.999" height="103.999" rx="52" fill="none"/>
          </g>
          <g id="Rect치ngulo_400907" data-name="Rect치ngulo 400907" transform="translate(0 0)" fill="none" stroke="#ae967f" stroke-width="1">
            <rect width="104.999" height="104.999" rx="52.5" stroke="none"/>
            <rect x="0.5" y="0.5" width="103.999" height="103.999" rx="52" fill="none"/>
          </g>
        </g>
      </g>
    </g>
    <g id="arrow_5234323" transform="translate(334.219 30378.57)">
      <g id="Grupo_1231128" data-name="Grupo 1231128" transform="translate(8.426 8.427)">
        <g id="Grupo_1231111" data-name="Grupo 1231111" transform="translate(0 26.349)">
          <g id="Grupo_1231110" data-name="Grupo 1231110">
            <g id="Grupo_1231102" data-name="Grupo 1231102" transform="translate(0 0)">
              <g id="Grupo_1231097" data-name="Grupo 1231097">
                <g id="Grupo_1231096" data-name="Grupo 1231096">
                  <path id="Trazado_1185024" data-name="Trazado 1185024" d="M39.3,101.321H25.606l.847-.606a3.319,3.319,0,1,0-3.862-5.4L12.547,102.5a3.319,3.319,0,0,0,0,5.4l10.044,7.185a3.319,3.319,0,1,0,3.862-5.4l-.848-.606H39.3a3.88,3.88,0,1,0,0-7.76Z" transform="translate(-11.159 -94.696)" fill="#3193f3"/>
                </g>
              </g>
              <g id="Grupo_1231099" data-name="Grupo 1231099" transform="translate(0.001 0.001)">
                <g id="Grupo_1231098" data-name="Grupo 1231098">
                  <path id="Trazado_1185025" data-name="Trazado 1185025" d="M26.166,115.272a3.33,3.33,0,0,1-1.646.436,3.293,3.293,0,0,1-1.928-.622L12.549,107.9a3.318,3.318,0,0,1,0-5.4l10.044-7.185a3.315,3.315,0,0,1,3.572-.186,3.375,3.375,0,0,0-.289.186L15.832,102.5a3.318,3.318,0,0,0,0,5.4l10.044,7.185c.094.068.193.129.291.186Z" transform="translate(-11.161 -94.698)" fill="#35b1fc"/>
                </g>
              </g>
              <g id="Grupo_1231101" data-name="Grupo 1231101" transform="translate(24.855 6.624)">
                <g id="Grupo_1231100" data-name="Grupo 1231100">
                  <path id="Trazado_1185026" data-name="Trazado 1185026" d="M97.119,119.577a3.881,3.881,0,0,1-3.88,3.88H89.956a3.88,3.88,0,1,0,0-7.761h3.283A3.881,3.881,0,0,1,97.119,119.577Z" transform="translate(-89.956 -115.697)" fill="#307fed"/>
                </g>
              </g>
            </g>
            <g id="Grupo_1231109" data-name="Grupo 1231109" transform="translate(41.692)">
              <g id="Grupo_1231104" data-name="Grupo 1231104" transform="translate(0 0.001)">
                <g id="Grupo_1231103" data-name="Grupo 1231103">
                  <path id="Trazado_1185027" data-name="Trazado 1185027" d="M147.214,109.084h13.692l-.847.606a3.319,3.319,0,1,0,3.862,5.4l10.044-7.185a3.319,3.319,0,0,0,0-5.4L163.92,95.32a3.319,3.319,0,1,0-3.862,5.4l.848.606H147.214a3.88,3.88,0,1,0,0,7.759Z" transform="translate(-143.334 -94.7)" fill="#3193f3"/>
                </g>
              </g>
              <g id="Grupo_1231106" data-name="Grupo 1231106" transform="translate(17.012)">
                <g id="Grupo_1231105" data-name="Grupo 1231105">
                  <path id="Trazado_1185028" data-name="Trazado 1185028" d="M197.268,95.132a3.33,3.33,0,0,1,1.646-.436,3.293,3.293,0,0,1,1.928.622l10.044,7.185a3.318,3.318,0,0,1,0,5.4l-10.044,7.185a3.315,3.315,0,0,1-3.572.186,3.372,3.372,0,0,0,.289-.186L207.6,107.9a3.318,3.318,0,0,0,0-5.4l-10.044-7.185A3.406,3.406,0,0,0,197.268,95.132Z" transform="translate(-197.268 -94.696)" fill="#35b1fc"/>
                </g>
              </g>
              <g id="Grupo_1231108" data-name="Grupo 1231108" transform="translate(0 6.625)">
                <g id="Grupo_1231107" data-name="Grupo 1231107">
                  <path id="Trazado_1185029" data-name="Trazado 1185029" d="M143.334,119.579a3.881,3.881,0,0,1,3.88-3.88H150.5a3.88,3.88,0,1,0,0,7.761h-3.283A3.881,3.881,0,0,1,143.334,119.579Z" transform="translate(-143.334 -115.699)" fill="#307fed"/>
                </g>
              </g>
            </g>
          </g>
        </g>
        <g id="Grupo_1231127" data-name="Grupo 1231127" transform="translate(26.35)">
          <g id="Grupo_1231126" data-name="Grupo 1231126">
            <g id="Grupo_1231118" data-name="Grupo 1231118" transform="translate(0 41.69)">
              <g id="Grupo_1231113" data-name="Grupo 1231113">
                <g id="Grupo_1231112" data-name="Grupo 1231112">
                  <path id="Trazado_1185030" data-name="Trazado 1185030" d="M101.321,147.214v13.692l-.606-.847a3.319,3.319,0,1,0-5.4,3.862l7.185,10.044a3.319,3.319,0,0,0,5.4,0l7.185-10.044a3.319,3.319,0,1,0-5.4-3.862l-.606.848V147.214a3.88,3.88,0,1,0-7.76,0Z" transform="translate(-94.696 -143.334)" fill="#3193f3"/>
                </g>
              </g>
              <g id="Grupo_1231115" data-name="Grupo 1231115" transform="translate(0.001 17.012)">
                <g id="Grupo_1231114" data-name="Grupo 1231114">
                  <path id="Trazado_1185031" data-name="Trazado 1185031" d="M115.272,197.268a3.33,3.33,0,0,1,.436,1.646,3.293,3.293,0,0,1-.622,1.928L107.9,210.886a3.318,3.318,0,0,1-5.4,0l-7.185-10.044a3.315,3.315,0,0,1-.186-3.572,3.374,3.374,0,0,0,.186.289L102.5,207.6a3.318,3.318,0,0,0,5.4,0l7.185-10.044C115.153,197.465,115.215,197.366,115.272,197.268Z" transform="translate(-94.698 -197.268)" fill="#35b1fc"/>
                </g>
              </g>
              <g id="Grupo_1231117" data-name="Grupo 1231117" transform="translate(6.624)">
                <g id="Grupo_1231116" data-name="Grupo 1231116">
                  <path id="Trazado_1185032" data-name="Trazado 1185032" d="M119.577,143.334a3.881,3.881,0,0,1,3.88,3.88V150.5a3.88,3.88,0,1,0-7.761,0v-3.283A3.881,3.881,0,0,1,119.577,143.334Z" transform="translate(-115.697 -143.334)" fill="#307fed"/>
                </g>
              </g>
            </g>
            <g id="Grupo_1231125" data-name="Grupo 1231125">
              <g id="Grupo_1231120" data-name="Grupo 1231120" transform="translate(0.001)">
                <g id="Grupo_1231119" data-name="Grupo 1231119">
                  <path id="Trazado_1185033" data-name="Trazado 1185033" d="M109.083,39.3V25.608l.606.847a3.319,3.319,0,0,0,5.4-3.862L107.9,12.55a3.321,3.321,0,0,0-5.4,0L95.319,22.594a3.319,3.319,0,0,0,5.4,3.862l.606-.848V39.3a3.88,3.88,0,1,0,7.76,0Z" transform="translate(-94.699 -11.163)" fill="#3193f3"/>
                </g>
              </g>
              <g id="Grupo_1231122" data-name="Grupo 1231122" transform="translate(0 0.001)">
                <g id="Grupo_1231121" data-name="Grupo 1231121">
                  <path id="Trazado_1185034" data-name="Trazado 1185034" d="M95.132,26.169a3.33,3.33,0,0,1-.436-1.646,3.293,3.293,0,0,1,.622-1.928L102.5,12.551a3.32,3.32,0,0,1,5.4,0l7.185,10.044a3.315,3.315,0,0,1,.186,3.572,3.373,3.373,0,0,0-.186-.289L107.9,15.834a3.32,3.32,0,0,0-5.4,0L95.318,25.878a3.4,3.4,0,0,0-.186.291Z" transform="translate(-94.696 -11.165)" fill="#35b1fc"/>
                </g>
              </g>
              <g id="Grupo_1231124" data-name="Grupo 1231124" transform="translate(6.625 24.853)">
                <g id="Grupo_1231123" data-name="Grupo 1231123" transform="translate(0 0)">
                  <path id="Trazado_1185035" data-name="Trazado 1185035" d="M119.579,97.119a3.881,3.881,0,0,1-3.88-3.88V89.956a3.88,3.88,0,0,0,7.761,0v3.283A3.881,3.881,0,0,1,119.579,97.119Z" transform="translate(-115.699 -89.956)" fill="#307fed"/>
                </g>
              </g>
            </g>
          </g>
        </g>
      </g>
      <g id="Grupo_1231129" data-name="Grupo 1231129" transform="translate(7.167 7.167)">
        <path id="Trazado_1185036" data-name="Trazado 1185036" d="M25.891,107.6H36.565a5.142,5.142,0,0,0,0-10.284H25.891a4.582,4.582,0,0,0-6.767-5.769L9.08,98.733a4.584,4.584,0,0,0,0,7.451l10.044,7.185a4.582,4.582,0,0,0,6.767-5.769Zm-3.018-2.523a1.263,1.263,0,0,0-.734,2.288l.848.606a2.057,2.057,0,0,1-2.394,3.346l-10.044-7.185a2.059,2.059,0,0,1,0-3.346L20.592,93.6a2.057,2.057,0,0,1,2.394,3.346l-.848.606a1.263,1.263,0,0,0,.734,2.288H36.564a2.618,2.618,0,0,1,0,5.237Z" transform="translate(-7.167 -64.346)" fill="#231f20"/>
        <path id="Trazado_1185037" data-name="Trazado 1185037" d="M171.96,98.739l-10.044-7.185a4.582,4.582,0,0,0-6.767,5.769H144.475a5.142,5.142,0,0,0,0,10.284h10.673a4.582,4.582,0,0,0,6.767,5.769l10.044-7.185A4.584,4.584,0,0,0,171.96,98.739Zm-1.468,5.4-10.044,7.185a2.057,2.057,0,0,1-2.394-3.346l.848-.606a1.263,1.263,0,0,0-.734-2.288H144.475a2.618,2.618,0,0,1,0-5.237h13.692a1.263,1.263,0,0,0,.734-2.288l-.848-.606a2.057,2.057,0,0,1,2.394-3.346l10.044,7.185A2.059,2.059,0,0,1,170.492,104.138Z" transform="translate(-97.645 -64.351)" fill="#231f20"/>
        <path id="Trazado_1185038" data-name="Trazado 1185038" d="M112.31,155.525a4.578,4.578,0,0,0-4.709-.376V144.475a5.142,5.142,0,0,0-10.284,0v10.673a4.582,4.582,0,0,0-5.769,6.767l7.185,10.044a4.584,4.584,0,0,0,7.451,0l7.185-10.044A4.582,4.582,0,0,0,112.31,155.525Zm-.992,4.922-7.185,10.044a2.059,2.059,0,0,1-3.346,0L93.6,160.448a2.057,2.057,0,0,1,3.346-2.394l.606.848a1.263,1.263,0,0,0,2.288-.734V144.476a2.618,2.618,0,0,1,5.237,0v13.692a1.263,1.263,0,0,0,2.288.734l.606-.848a2.057,2.057,0,0,1,3.346,2.393Z" transform="translate(-64.346 -97.645)" fill="#231f20"/>
        <path id="Trazado_1185039" data-name="Trazado 1185039" d="M92.615,25.515a4.579,4.579,0,0,0,4.709.376V36.565a5.142,5.142,0,0,0,10.284,0V25.891a4.582,4.582,0,0,0,5.769-6.767L106.191,9.08a4.584,4.584,0,0,0-7.451,0L91.554,19.124A4.582,4.582,0,0,0,92.615,25.515Zm.992-4.922,7.185-10.044a2.059,2.059,0,0,1,3.346,0l7.185,10.044a2.057,2.057,0,0,1-3.346,2.394l-.606-.848a1.263,1.263,0,0,0-2.288.734V36.564a2.618,2.618,0,0,1-5.237,0V22.873a1.263,1.263,0,0,0-2.288-.734l-.606.848a2.057,2.057,0,0,1-3.346-2.394Z" transform="translate(-64.351 -7.167)" fill="#231f20"/>
      </g>
    </g>
  </g>
</svg>
