<svg xmlns="http://www.w3.org/2000/svg" xmlns:xlink="http://www.w3.org/1999/xlink" width="117" height="119" viewBox="0 0 117 119">
  <defs>
    <clipPath id="clip-path">
      <path id="path5384" d="M0-682.665H110.273v110.273H0Z" transform="translate(0 682.665)"/>
    </clipPath>
  </defs>
  <g id="Grupo_1230646" data-name="Grupo 1230646" transform="translate(-1263.126 -2642)">
    <g id="Grupo_1230645" data-name="Grupo 1230645" transform="translate(16)">
      <rect id="Rect치ngulo_423304" data-name="Rect치ngulo 423304" width="94" height="55" rx="12" transform="translate(1247.126 2681)" fill="#497d74"/>
      <rect id="Rect치ngulo_423305" data-name="Rect치ngulo 423305" width="74" height="119" rx="12" transform="translate(1290.126 2642)" fill="#345953"/>
    </g>
    <g id="g5370" transform="translate(1263.126 3332.392)">
      <path id="path5372" d="M134.25-79.613h13.38v-13.38H134.25Z" transform="translate(-112.564 -494.42)" fill="#50c5ff"/>
      <path id="path5374" d="M134.25-79.613h6.461v-13.38H134.25Z" transform="translate(-112.564 -494.42)" fill="#45b3f6"/>
      <path id="path5376" d="M465.582-659.124h13.38V-672.5h-13.38Z" transform="translate(-390.375 -8.52)" fill="#50c5ff"/>
      <path id="path5378" d="M465.582-659.124h6.461V-672.5h-6.461Z" transform="translate(-390.375 -8.52)" fill="#45b3f6"/>
      <g id="g5380" transform="translate(0 -682.665)">
        <g id="g5382" clip-path="url(#clip-path)">
          <g id="g5388" transform="translate(1.616 48.421)">
            <path id="path5390" d="M-69.453-34.726a6.69,6.69,0,0,1-6.69,6.69,6.69,6.69,0,0,1-6.69-6.69,6.69,6.69,0,0,1,6.69-6.69,6.69,6.69,0,0,1,6.69,6.69" transform="translate(82.833 41.416)" fill="#497e9b"/>
          </g>
          <g id="g5392" transform="translate(1.616 48.421)">
            <path id="path5394" d="M-33.539-34.726a6.687,6.687,0,0,1,3.459-5.858,6.658,6.658,0,0,0-3.231-.832A6.69,6.69,0,0,0-40-34.726a6.69,6.69,0,0,0,6.69,6.69,6.658,6.658,0,0,0,3.231-.831,6.688,6.688,0,0,1-3.459-5.859" transform="translate(40 41.416)" fill="#396f8e"/>
          </g>
          <g id="g5396" transform="translate(95.277 48.421)">
            <path id="path5398" d="M-69.452-34.726a6.69,6.69,0,0,1-6.69,6.69,6.69,6.69,0,0,1-6.69-6.69,6.69,6.69,0,0,1,6.69-6.69,6.69,6.69,0,0,1,6.69,6.69" transform="translate(82.832 41.416)" fill="#497e9b"/>
          </g>
          <g id="g5400" transform="translate(95.277 48.421)">
            <path id="path5402" d="M-33.539-34.726a6.687,6.687,0,0,1,3.459-5.858,6.658,6.658,0,0,0-3.231-.832A6.69,6.69,0,0,0-40-34.726a6.69,6.69,0,0,0,6.69,6.69,6.658,6.658,0,0,0,3.231-.831,6.687,6.687,0,0,1-3.459-5.859" transform="translate(40 41.416)" fill="#396f8e"/>
          </g>
          <g id="g5404" transform="translate(1.616 48.421)">
            <path id="path5406" d="M-69.453-34.726a6.69,6.69,0,0,1-6.69,6.69,6.69,6.69,0,0,1-6.69-6.69,6.69,6.69,0,0,1,6.69-6.69A6.69,6.69,0,0,1-69.453-34.726Z" transform="translate(82.833 41.416)" fill="none" stroke="#000" stroke-linecap="round" stroke-linejoin="round" stroke-miterlimit="10" stroke-width="2"/>
          </g>
          <g id="g5408" transform="translate(95.277 48.421)">
            <path id="path5410" d="M-69.452-34.726a6.69,6.69,0,0,1-6.69,6.69,6.69,6.69,0,0,1-6.69-6.69,6.69,6.69,0,0,1,6.69-6.69A6.69,6.69,0,0,1-69.452-34.726Z" transform="translate(82.832 41.416)" fill="none" stroke="#000" stroke-linecap="round" stroke-linejoin="round" stroke-miterlimit="10" stroke-width="2"/>
          </g>
          <g id="g5412" transform="translate(85.416 55.111)">
            <path id="path5414" d="M-51.18,0h-9.86" transform="translate(61.04)" fill="none" stroke="#000" stroke-linecap="round" stroke-linejoin="round" stroke-miterlimit="10" stroke-width="2"/>
          </g>
          <g id="g5416" transform="translate(14.997 55.111)">
            <path id="path5418" d="M-51.18,0h-9.86" transform="translate(61.04)" fill="none" stroke="#000" stroke-linecap="round" stroke-linejoin="round" stroke-miterlimit="10" stroke-width="2"/>
          </g>
          <g id="g5420" transform="translate(31.895 55.111)">
            <path id="path5422" d="M-85.916,0h-16.552" transform="translate(102.468)" fill="none" stroke="#000" stroke-linecap="round" stroke-linejoin="round" stroke-miterlimit="10" stroke-width="2"/>
          </g>
          <g id="g5424" transform="translate(61.826 55.111)">
            <path id="path5426" d="M-85.916,0h-16.552" transform="translate(102.468)" fill="none" stroke="#000" stroke-linecap="round" stroke-linejoin="round" stroke-miterlimit="10" stroke-width="2"/>
          </g>
          <path id="path5428" d="M134.25-79.613h13.38v-13.38H134.25Z" transform="translate(-112.564 188.245)" fill="none" stroke="#000" stroke-linecap="round" stroke-linejoin="round" stroke-miterlimit="10" stroke-width="2"/>
          <path id="path5430" d="M465.582-659.124h13.38V-672.5h-13.38Z" transform="translate(-390.375 674.145)" fill="none" stroke="#000" stroke-linecap="round" stroke-linejoin="round" stroke-miterlimit="10" stroke-width="2"/>
          <g id="g5432" transform="translate(61.826 27.911)">
            <path id="path5434" d="M-104.182,0V.439a26.684,26.684,0,0,1-7.838,18.923,26.749,26.749,0,0,1-12.233,7" transform="translate(124.253)" fill="none" stroke="#000" stroke-linecap="round" stroke-linejoin="round" stroke-miterlimit="10" stroke-width="2"/>
          </g>
          <g id="g5436" transform="translate(81.897 14.971)">
            <path id="path5438" d="M0-30.632v-5.9" transform="translate(0 36.533)" fill="none" stroke="#000" stroke-linecap="round" stroke-linejoin="round" stroke-miterlimit="10" stroke-width="2"/>
          </g>
          <g id="g5440" transform="translate(28.376 55.953)">
            <path id="path5442" d="M0-203.982v-13.379a26.776,26.776,0,0,1,20.071-25.918" transform="translate(0 243.279)" fill="none" stroke="#000" stroke-linecap="round" stroke-linejoin="round" stroke-miterlimit="10" stroke-width="2"/>
          </g>
          <path id="path5444" d="M299.915-369.527H313.3v-13.38h-13.38Z" transform="translate(-251.469 431.328)" fill="#50c5ff"/>
          <path id="path5446" d="M299.915-369.527h6.461v-13.38h-6.461Z" transform="translate(-251.469 431.328)" fill="#45b3f6"/>
          <path id="path5448" d="M299.915-369.527H313.3v-13.38h-13.38Z" transform="translate(-251.469 431.328)" fill="none" stroke="#000" stroke-linecap="round" stroke-linejoin="round" stroke-miterlimit="10" stroke-width="2"/>
        </g>
      </g>
    </g>
  </g>
</svg>
