<svg xmlns="http://www.w3.org/2000/svg" width="117" height="119" viewBox="0 0 117 119">
  <g id="Grupo_1231050" data-name="Grupo 1231050" transform="translate(-1139.254 -12328.5)">
    <g id="Grupo_1230678" data-name="Grupo 1230678" transform="translate(-123.873 9686.5)">
      <g id="Grupo_1230677" data-name="Grupo 1230677" transform="translate(16)">
        <rect id="Rect치ngulo_423335" data-name="Rect치ngulo 423335" width="94" height="55" rx="12" transform="translate(1247.126 2681)" fill="#497d74"/>
        <rect id="Rect치ngulo_423336" data-name="Rect치ngulo 423336" width="74" height="119" rx="12" transform="translate(1290.126 2642)" fill="#345953"/>
      </g>
    </g>
    <g id="graphic-tool_6163057" transform="translate(1141.046 12337.5)">
      <g id="Grupo_1231041" data-name="Grupo 1231041" transform="translate(45.252 46.029)">
        <circle id="Elipse_12566" data-name="Elipse 12566" cx="6.737" cy="6.737" r="6.737" transform="translate(1.99 1.992)" fill="#e3334f"/>
        <path id="Trazado_1184934" data-name="Trazado 1184934" d="M34.342,43.072a8.729,8.729,0,1,1,8.729-8.729A8.738,8.738,0,0,1,34.342,43.072Zm0-13.477a4.748,4.748,0,1,0,4.748,4.748A4.752,4.752,0,0,0,34.342,29.595Z" transform="translate(-25.615 -25.614)"/>
      </g>
      <g id="Grupo_1231042" data-name="Grupo 1231042" transform="translate(5.786 47.562)">
        <circle id="Elipse_12567" data-name="Elipse 12567" cx="5.205" cy="5.205" r="5.205" transform="translate(1.99 1.991)" fill="#e3334f"/>
        <path id="Trazado_1184935" data-name="Trazado 1184935" d="M12.982,40.776a7.2,7.2,0,1,1,7.2-7.2,7.2,7.2,0,0,1-7.2,7.2Zm0-10.41A3.215,3.215,0,1,0,16.2,33.58,3.219,3.219,0,0,0,12.982,30.365Z" transform="translate(-5.786 -26.385)"/>
      </g>
      <g id="Grupo_1231043" data-name="Grupo 1231043" transform="translate(87.784 47.562)">
        <circle id="Elipse_12568" data-name="Elipse 12568" cx="5.205" cy="5.205" r="5.205" transform="translate(1.99 1.991)" fill="#e3334f"/>
        <path id="Trazado_1184936" data-name="Trazado 1184936" d="M54.18,40.776a7.2,7.2,0,1,1,7.194-7.2A7.2,7.2,0,0,1,54.18,40.776Zm0-10.41a3.215,3.215,0,1,0,3.213,3.215A3.219,3.219,0,0,0,54.18,30.365Z" transform="translate(-46.984 -26.385)"/>
      </g>
      <g id="Grupo_1231044" data-name="Grupo 1231044" transform="translate(58.736 52.768)">
        <path id="Trazado_1184937" data-name="Trazado 1184937" d="M63.43,32.981H34.38a1.99,1.99,0,0,1,0-3.981H63.43a1.99,1.99,0,0,1,0,3.981Z" transform="translate(-32.39 -29)"/>
      </g>
      <g id="Grupo_1231045" data-name="Grupo 1231045" transform="translate(16.189 52.768)">
        <path id="Trazado_1184938" data-name="Trazado 1184938" d="M42.074,32.981H13A1.99,1.99,0,0,1,13,29H42.074a1.99,1.99,0,0,1,0,3.981Z" transform="translate(-11.013 -29)"/>
      </g>
      <g id="Grupo_1231046" data-name="Grupo 1231046" transform="translate(87.899 5)">
        <path id="Trazado_1184939" data-name="Trazado 1184939" d="M48.042,6H58.219V16.177H48.042Z" transform="translate(-46.052 -4.01)" fill="#e7eef9"/>
        <path id="Trazado_1184940" data-name="Trazado 1184940" d="M59.211,19.158H49.032a1.989,1.989,0,0,1-1.99-1.99V6.99A1.989,1.989,0,0,1,49.032,5H59.211A1.989,1.989,0,0,1,61.2,6.99V17.167A1.989,1.989,0,0,1,59.211,19.158Zm-8.189-3.981h6.2v-6.2h-6.2Z" transform="translate(-47.042 -5)"/>
      </g>
      <g id="Grupo_1231047" data-name="Grupo 1231047" transform="translate(58.728 15.16)">
        <path id="Trazado_1184941" data-name="Trazado 1184941" d="M34.376,51.693a1.99,1.99,0,0,1,0-3.981c21.489,0,30.656-18.482,32.069-35.779a1.991,1.991,0,1,1,3.969.323C68.855,31.322,58.569,51.693,34.376,51.693Z" transform="translate(-32.386 -10.105)"/>
      </g>
      <g id="Grupo_1231048" data-name="Grupo 1231048" transform="translate(5.903 90.358)">
        <path id="Trazado_1184942" data-name="Trazado 1184942" d="M0,0H10.177V10.177H0Z" transform="translate(12.165 12.167) rotate(180)" fill="#e7eef9"/>
        <path id="Trazado_1184943" data-name="Trazado 1184943" d="M18.012,62.044H7.835a1.989,1.989,0,0,1-1.99-1.99V49.877a1.989,1.989,0,0,1,1.99-1.99H18.012A1.989,1.989,0,0,1,20,49.877V60.054A1.989,1.989,0,0,1,18.012,62.044ZM9.825,58.064h6.2v-6.2h-6.2Z" transform="translate(-5.845 -47.887)"/>
      </g>
      <g id="Grupo_1231049" data-name="Grupo 1231049" transform="translate(11.196 52.768)">
        <path id="Trazado_1184944" data-name="Trazado 1184944" d="M10.5,70.589q-.082,0-.163-.006a1.992,1.992,0,0,1-1.823-2.146C10.07,49.372,20.356,29,44.551,29a1.99,1.99,0,0,1,0,3.981c-21.489,0-30.658,18.482-32.071,35.779A1.991,1.991,0,0,1,10.5,70.589Z" transform="translate(-8.504 -29)"/>
      </g>
    </g>
  </g>
</svg>
