<svg xmlns="http://www.w3.org/2000/svg" xmlns:xlink="http://www.w3.org/1999/xlink" width="88" height="88" viewBox="0 0 88 88">
  <defs>
    <filter id="Trazado_896985" x="0" y="0" width="88" height="88" filterUnits="userSpaceOnUse">
      <feOffset dy="3" input="SourceAlpha"/>
      <feGaussianBlur stdDeviation="3" result="blur"/>
      <feFlood flood-opacity="0.161"/>
      <feComposite operator="in" in2="blur"/>
      <feComposite in="SourceGraphic"/>
    </filter>
  </defs>
  <g id="Grupo_1230933" data-name="Grupo 1230933" transform="translate(-510.669 -16421.433)">
    <g id="Grupo_1212746" data-name="Grupo 1212746" transform="translate(313.703 7264.162)">
      <g id="Grupo_1212198" data-name="Grupo 1212198" transform="translate(205.967 9163.27)">
        <g id="Grupo_1200012" data-name="Grupo 1200012" transform="translate(0 0)">
          <g id="Grupo_1198723" data-name="Grupo 1198723" transform="translate(0 0)">
            <g id="Grupo_1198139" data-name="Grupo 1198139">
              <g id="Grupo_1111318" data-name="Grupo 1111318">
                <g id="Grupo_1109826" data-name="Grupo 1109826" transform="translate(0)">
                  <g id="Grupo_1098742" data-name="Grupo 1098742">
                    <g transform="matrix(1, 0, 0, 1, -9, -6)" filter="url(#Trazado_896985)">
                      <g id="Trazado_896985-2" data-name="Trazado 896985" transform="translate(9 6)" fill="#d0c110" opacity="0.859">
                        <path d="M 34.99995040893555 69.49998474121094 C 30.34226989746094 69.49998474121094 25.82417106628418 68.58788299560547 21.57117080688477 66.78900909423828 C 17.4630012512207 65.05139923095703 13.77338027954102 62.56376266479492 10.6048002243042 59.39518356323242 C 7.436220645904541 56.22661209106445 4.948580265045166 52.53699111938477 3.210970401763916 48.4288215637207 C 1.412100434303284 44.17582321166992 0.5000004172325134 39.65772247314453 0.5000004172325134 35.00004196166992 C 0.5000004172325134 30.34233283996582 1.412100434303284 25.82422256469727 3.210970401763916 21.57120323181152 C 4.948580265045166 17.46302223205566 7.436220645904541 13.77339267730713 10.6048002243042 10.60481262207031 C 13.77338027954102 7.436232566833496 17.46298980712891 4.948582172393799 21.57117080688477 3.210972309112549 C 25.82417106628418 1.412102341651917 30.34226036071777 0.500002384185791 34.99995040893555 0.500002384185791 C 39.65763092041016 0.500002384185791 44.17573165893555 1.412102341651917 48.42873001098633 3.210972309112549 C 52.53689956665039 4.948582172393799 56.22652053833008 7.436222553253174 59.39509963989258 10.60480213165283 C 62.56367874145508 13.77338218688965 65.05132293701172 17.46299171447754 66.78893280029297 21.57116317749023 C 68.58779907226562 25.82416152954102 69.49990081787109 30.34226226806641 69.49990081787109 34.99994277954102 C 69.49990081787109 39.65765380859375 68.58779907226562 44.17576217651367 66.78893280029297 48.42878341674805 C 65.05132293701172 52.53696060180664 62.56367874145508 56.22659301757812 59.39509963989258 59.39517211914062 C 56.22652053833008 62.56375122070312 52.53691101074219 65.05139923095703 48.42873001098633 66.78900909423828 C 44.17573165893555 68.58788299560547 39.65763854980469 69.49998474121094 34.99995040893555 69.49998474121094 Z" stroke="none"/>
                        <path d="M 34.99995040893555 1 C 30.40954208374023 1 25.95698165893555 1.898811340332031 21.76594161987305 3.671485900878906 C 17.71736907958984 5.383880615234375 14.08116912841797 7.835540771484375 10.95835113525391 10.9583625793457 C 7.835540771484375 14.08119201660156 5.383872985839844 17.71740341186523 3.671470642089844 21.76598358154297 C 1.898811340332031 25.95703125 1 30.40961074829102 1 35.00004196166992 C 1 39.5904541015625 1.898811340332031 44.04301452636719 3.671470642089844 48.23405456542969 C 5.383872985839844 52.28262329101562 7.835540771484375 55.9188117980957 10.95835113525391 59.04163360595703 C 14.08116912841797 62.16445159912109 17.71736907958984 64.61611175537109 21.76594161987305 66.32851409912109 C 25.95698165893555 68.10117340087891 30.40954208374023 68.99998474121094 34.99995040893555 68.99998474121094 C 39.59036254882812 68.99998474121094 44.04292297363281 68.10117340087891 48.23396301269531 66.32851409912109 C 52.28253173828125 64.61610412597656 55.91873168945312 62.16444396972656 59.04154968261719 59.04162216186523 C 62.16436004638672 55.91879272460938 64.61602783203125 52.2825927734375 66.32843017578125 48.23401260375977 C 68.10108947753906 44.04295349121094 68.99990081787109 39.59037017822266 68.99990081787109 34.99994277954102 C 68.99990081787109 30.40954208374023 68.10108947753906 25.95698165893555 66.32843017578125 21.76594161987305 C 64.61602783203125 17.71737289428711 62.16436004638672 14.08117294311523 59.04154968261719 10.95835113525391 C 55.91873168945312 7.835533142089844 52.28253173828125 5.383872985839844 48.23396301269531 3.671470642089844 C 44.04292297363281 1.898811340332031 39.59036254882812 1 34.99995040893555 1 M 34.99995040893555 0 C 54.32989120483398 0 69.99990081787109 15.67001342773438 69.99990081787109 34.99994277954102 L 69.99990081787109 35.00004196166992 C 69.99990081787109 54.32998275756836 54.32989120483398 69.99998474121094 34.99995040893555 69.99998474121094 C 15.67000961303711 69.99998474121094 0 54.32998275756836 0 35.00004196166992 L 0 34.99994277954102 C 0 15.67001342773438 15.67000961303711 0 34.99995040893555 0 Z" stroke="none" fill="#fff"/>
                      </g>
                    </g>
                    <g id="Rectángulo_400907" data-name="Rectángulo 400907" transform="translate(0)" fill="none" stroke="#fff" stroke-width="1">
                      <rect width="70" height="70" rx="35" stroke="none"/>
                      <rect x="0.5" y="0.5" width="69" height="69" rx="34.5" fill="none"/>
                    </g>
                  </g>
                </g>
              </g>
            </g>
          </g>
        </g>
      </g>
    </g>
    <g id="aggregate-supply_6762699_2_" data-name="aggregate-supply_6762699 (2)" transform="translate(533.877 16441.207)">
      <g id="Grupo_1230931" data-name="Grupo 1230931" transform="translate(0.569 0.569)">
        <g id="Grupo_1230930" data-name="Grupo 1230930" transform="translate(2.687 19.271)">
          <path id="Trazado_1184676" data-name="Trazado 1184676" d="M78.569,74.455A.568.568,0,0,1,78,73.886v-1.2a.569.569,0,0,1,1.137,0v1.2a.568.568,0,0,1-.569.569Z" transform="translate(-55.914 -68.528)" fill="#ecfffc"/>
          <path id="Trazado_1184677" data-name="Trazado 1184677" d="M78.569,87.352A.568.568,0,0,1,78,86.783v-1.2a.569.569,0,0,1,1.137,0v1.2a.568.568,0,0,1-.569.569Z" transform="translate(-55.914 -77.235)" fill="#ecfffc"/>
          <path id="Trazado_1184678" data-name="Trazado 1184678" d="M78.569,100.247A.568.568,0,0,1,78,99.678v-1.2a.569.569,0,0,1,1.137,0v1.2A.568.568,0,0,1,78.569,100.247Z" transform="translate(-55.914 -85.941)" fill="#ecfffc"/>
          <path id="Trazado_1184679" data-name="Trazado 1184679" d="M78.569,113.144a.568.568,0,0,1-.569-.569v-1.2a.569.569,0,0,1,1.137,0v1.2a.568.568,0,0,1-.569.569Z" transform="translate(-55.914 -94.648)" fill="#ecfffc"/>
          <path id="Trazado_1184680" data-name="Trazado 1184680" d="M12.761,62.205H10.589a.569.569,0,1,1,0-1.137h2.173a.569.569,0,1,1,0,1.137Z" transform="translate(-10.02 -61.068)" fill="#ecfffc"/>
          <path id="Trazado_1184681" data-name="Trazado 1184681" d="M27.761,62.205H25.589a.569.569,0,1,1,0-1.137h2.173a.569.569,0,0,1,0,1.137Z" transform="translate(-20.147 -61.068)" fill="#ecfffc"/>
          <path id="Trazado_1184682" data-name="Trazado 1184682" d="M42.761,62.205H40.589a.569.569,0,0,1,0-1.137h2.173a.569.569,0,1,1,0,1.137Z" transform="translate(-30.274 -61.068)" fill="#ecfffc"/>
          <path id="Trazado_1184683" data-name="Trazado 1184683" d="M59.135,62.205H55.589a.569.569,0,1,1,0-1.137h3.547a.569.569,0,0,1,0,1.137Z" transform="translate(-40.4 -61.068)" fill="#ecfffc"/>
        </g>
        <path id="Trazado_1184684" data-name="Trazado 1184684" d="M42.2,42.2H1.75V1.75H5v37.2H42.2Z" transform="translate(-1.75 -1.75)" fill="#2d4a59"/>
        <path id="Trazado_1184685" data-name="Trazado 1184685" d="M19.75,36.35h6.1A39.891,39.891,0,0,0,43.71,3.2V1.75H40.461V3.2A36.617,36.617,0,0,1,19.75,36.08Z" transform="translate(-13.902 -1.75)" fill="#a6d12d"/>
      </g>
      <g id="Grupo_1230932" data-name="Grupo 1230932">
        <path id="Trazado_1184686" data-name="Trazado 1184686" d="M79.137,72.687a.569.569,0,0,0-1.137,0v1.2a.569.569,0,1,0,1.137,0Z" transform="translate(-52.659 -48.688)"/>
        <path id="Trazado_1184687" data-name="Trazado 1184687" d="M79.137,85.584a.569.569,0,0,0-1.137,0v1.2a.569.569,0,0,0,1.137,0Z" transform="translate(-52.659 -57.395)"/>
        <path id="Trazado_1184688" data-name="Trazado 1184688" d="M78.569,97.911A.568.568,0,0,0,78,98.48v1.2a.569.569,0,0,0,1.137,0v-1.2a.568.568,0,0,0-.569-.569Z" transform="translate(-52.659 -66.101)"/>
        <path id="Trazado_1184689" data-name="Trazado 1184689" d="M25.589,62.205h2.173a.569.569,0,1,0,0-1.137H25.589a.569.569,0,1,0,0,1.137Z" transform="translate(-16.891 -41.228)"/>
        <path id="Trazado_1184690" data-name="Trazado 1184690" d="M40.589,62.205h2.173a.569.569,0,1,0,0-1.137H40.589a.569.569,0,0,0,0,1.137Z" transform="translate(-27.018 -41.228)"/>
        <path id="Trazado_1184691" data-name="Trazado 1184691" d="M30.6,20.977h2.65a36.273,36.273,0,0,1-14.923,13.41A.568.568,0,0,0,18,34.9v.269a.569.569,0,0,0,.569.569h6.1a.571.571,0,0,0,.314-.095A40.253,40.253,0,0,0,43.1,2.021V.569A.568.568,0,0,0,42.529,0H39.28a.568.568,0,0,0-.569.569V2.021a35.6,35.6,0,0,1-1.269,9.416.569.569,0,1,0,1.1.306,36.737,36.737,0,0,0,1.311-9.722V1.137H41.96v.884A39.119,39.119,0,0,1,24.5,34.6H20.4A37.541,37.541,0,0,0,37.547,14.818a.569.569,0,1,0-1.066-.4,35.691,35.691,0,0,1-2.549,5.417H30.6a.569.569,0,1,0,0,1.137Z" transform="translate(-12.152 0)"/>
        <path id="Trazado_1184692" data-name="Trazado 1184692" d="M41.016,37.2H37.881a.569.569,0,0,0,0,1.137h2.567v2.112H1.137V1.137H3.249V37.768a.569.569,0,0,0,.569.569H30.344a.569.569,0,1,0,0-1.137H26.478v-.631a.569.569,0,0,0-1.137,0V37.2H4.386V20.977H6A.569.569,0,1,0,6,19.84H4.386V.569A.569.569,0,0,0,3.817,0H.569A.569.569,0,0,0,0,.569V41.016a.569.569,0,0,0,.569.569H41.016a.568.568,0,0,0,.569-.569V37.768a.568.568,0,0,0-.569-.569Z"/>
        <path id="Trazado_1184693" data-name="Trazado 1184693" d="M101.333,115.637h1.615a.569.569,0,1,0,0-1.137h-1.615a.569.569,0,1,0,0,1.137Z" transform="translate(-68.028 -77.301)"/>
      </g>
    </g>
  </g>
</svg>
