<svg xmlns="http://www.w3.org/2000/svg" width="105" height="105" viewBox="0 0 105 105">
  <g id="Grupo_1230919" data-name="Grupo 1230919" transform="translate(-748 -7079.207)">
    <g id="Grupo_1212453" data-name="Grupo 1212453" transform="translate(-0.051 -11724)">
      <g id="Grupo_1212451" data-name="Grupo 1212451">
        <g id="Grupo_1198271" data-name="Grupo 1198271" transform="translate(748.051 18803.207)">
          <g id="Grupo_1098742" data-name="Grupo 1098742" transform="translate(0)">
            <g id="Rect치ngulo_400898" data-name="Rect치ngulo 400898" transform="translate(0.001 0)" fill="#eabe94" stroke="#ae967f" stroke-width="1">
              <rect width="104.999" height="104.999" rx="52.5" stroke="none"/>
              <rect x="0.5" y="0.5" width="103.999" height="103.999" rx="52" fill="none"/>
            </g>
            <g id="Rect치ngulo_400907" data-name="Rect치ngulo 400907" transform="translate(0 0)" fill="none" stroke="#ae967f" stroke-width="1">
              <rect width="104.999" height="104.999" rx="52.5" stroke="none"/>
              <rect x="0.5" y="0.5" width="103.999" height="103.999" rx="52" fill="none"/>
            </g>
          </g>
        </g>
      </g>
    </g>
    <g id="toggle_6223846" transform="translate(765.743 7062.176)">
      <g id="Grupo_1230906" data-name="Grupo 1230906" transform="translate(1.018 42.413)">
        <g id="Grupo_1230905" data-name="Grupo 1230905" transform="translate(0 0)">
          <path id="Trazado_1184586" data-name="Trazado 1184586" d="M12.678,79.454H46.784a5.178,5.178,0,0,0,0-10.357H12.678a5.178,5.178,0,0,0,0,10.357Z" transform="translate(-7.5 -66.354)" fill="#31a7fb"/>
          <g id="Grupo_1230904" data-name="Grupo 1230904" transform="translate(36.426)">
            <g id="Grupo_1230902" data-name="Grupo 1230902">
              <circle id="Elipse_12524" data-name="Elipse 12524" cx="8.036" cy="8.036" r="8.036" fill="#27d1b3"/>
              <path id="Trazado_1184587" data-name="Trazado 1184587" d="M329.78,56.932A8.04,8.04,0,0,1,319.663,64.7a8.037,8.037,0,0,0,0-15.526,8.04,8.04,0,0,1,10.117,7.763Z" transform="translate(-313.707 -48.896)" fill="#20b69f"/>
            </g>
            <g id="Grupo_1230903" data-name="Grupo 1230903" transform="translate(4.439 4.439)">
              <circle id="Elipse_12525" data-name="Elipse 12525" cx="3.597" cy="3.597" r="3.597" transform="translate(0 0)" fill="#c7f1e6"/>
              <path id="Trazado_1184588" data-name="Trazado 1184588" d="M325.248,85.185a3.6,3.6,0,0,1-5.692,2.926,2.93,2.93,0,0,0,0-5.852,3.6,3.6,0,0,1,5.691,2.927Z" transform="translate(-318.053 -81.587)" fill="#89e6cf"/>
            </g>
          </g>
        </g>
      </g>
      <g id="Grupo_1230911" data-name="Grupo 1230911" transform="translate(1.018 62.495)">
        <g id="Grupo_1230910" data-name="Grupo 1230910">
          <path id="Trazado_1184589" data-name="Trazado 1184589" d="M105.975,227.368H71.869a5.178,5.178,0,0,1,0-10.357h34.105a5.178,5.178,0,1,1,0,10.357Z" transform="translate(-58.655 -214.268)" fill="#688d97"/>
          <path id="Trazado_1184590" data-name="Trazado 1184590" d="M333.537,222.188a5.178,5.178,0,0,1-5.178,5.18H324.01a5.179,5.179,0,1,0,0-10.358h4.349A5.179,5.179,0,0,1,333.537,222.188Z" transform="translate(-281.038 -214.267)" fill="#557983"/>
          <g id="Grupo_1230909" data-name="Grupo 1230909">
            <g id="Grupo_1230907" data-name="Grupo 1230907">
              <circle id="Elipse_12526" data-name="Elipse 12526" cx="8.036" cy="8.036" r="8.036" fill="#fc5a95"/>
              <path id="Trazado_1184591" data-name="Trazado 1184591" d="M61.485,204.846a8.04,8.04,0,0,1-10.117,7.763,8.037,8.037,0,0,0,0-15.526,8.04,8.04,0,0,1,10.117,7.763Z" transform="translate(-45.412 -196.81)" fill="#fb3a82"/>
            </g>
            <g id="Grupo_1230908" data-name="Grupo 1230908" transform="translate(4.439 4.439)">
              <circle id="Elipse_12527" data-name="Elipse 12527" cx="3.597" cy="3.597" r="3.597" transform="translate(0 0)" fill="#ffc8dc"/>
              <path id="Trazado_1184592" data-name="Trazado 1184592" d="M56.953,233.1a3.6,3.6,0,0,1-5.692,2.926,2.93,2.93,0,0,0,0-5.852,3.6,3.6,0,0,1,5.691,2.927Z" transform="translate(-49.758 -229.501)" fill="#fda6c6"/>
            </g>
          </g>
        </g>
      </g>
      <g id="Grupo_1230918" data-name="Grupo 1230918" transform="translate(0 41.395)">
        <g id="Grupo_1230916" data-name="Grupo 1230916" transform="translate(1.018 41.182)">
          <g id="Grupo_1230915" data-name="Grupo 1230915">
            <path id="Trazado_1184593" data-name="Trazado 1184593" d="M105.975,375.282H71.869a5.178,5.178,0,0,1,0-10.357h34.105a5.178,5.178,0,1,1,0,10.357Z" transform="translate(-58.655 -362.182)" fill="#688d97"/>
            <path id="Trazado_1184594" data-name="Trazado 1184594" d="M333.537,370.1a5.178,5.178,0,0,1-5.178,5.178H324.01a5.179,5.179,0,1,0,0-10.358h4.349A5.179,5.179,0,0,1,333.537,370.1Z" transform="translate(-281.038 -362.178)" fill="#557983"/>
            <g id="Grupo_1230914" data-name="Grupo 1230914">
              <g id="Grupo_1230912" data-name="Grupo 1230912">
                <circle id="Elipse_12528" data-name="Elipse 12528" cx="8.036" cy="8.036" r="8.036" fill="#fc5a95"/>
                <path id="Trazado_1184595" data-name="Trazado 1184595" d="M61.485,352.76a8.04,8.04,0,0,1-10.117,7.763,8.037,8.037,0,0,0,0-15.526,8.04,8.04,0,0,1,10.117,7.763Z" transform="translate(-45.412 -344.724)" fill="#fb3a82"/>
              </g>
              <g id="Grupo_1230913" data-name="Grupo 1230913" transform="translate(4.439 4.439)">
                <circle id="Elipse_12529" data-name="Elipse 12529" cx="3.597" cy="3.597" r="3.597" transform="translate(0 0)" fill="#ffc8dc"/>
                <path id="Trazado_1184596" data-name="Trazado 1184596" d="M56.953,381.013a3.6,3.6,0,0,1-5.692,2.926,2.93,2.93,0,0,0,0-5.852,3.6,3.6,0,0,1,5.691,2.927Z" transform="translate(-49.758 -377.415)" fill="#fda6c6"/>
              </g>
            </g>
          </g>
        </g>
        <g id="Grupo_1230917" data-name="Grupo 1230917" transform="translate(0 0)">
          <path id="Trazado_1184597" data-name="Trazado 1184597" d="M6.2,56.531H24.546a1.018,1.018,0,1,0,0-2.037H6.2a4.16,4.16,0,0,1,0-8.32H37.5a9.03,9.03,0,0,0-.118,8.32H29.3a1.018,1.018,0,1,0,0,2.037h9.478A9.056,9.056,0,1,0,39,44.138H6.2a6.2,6.2,0,1,0,0,12.393Zm39.284-13.1a7.018,7.018,0,1,1-7.018,7.018A7.026,7.026,0,0,1,45.48,43.432Z" transform="translate(0 -41.395)"/>
          <path id="Trazado_1184598" data-name="Trazado 1184598" d="M305.6,83.32a4.616,4.616,0,1,0-4.616-4.616A4.621,4.621,0,0,0,305.6,83.32Zm0-7.2a2.579,2.579,0,1,1-2.579,2.579A2.582,2.582,0,0,1,305.6,76.125Z" transform="translate(-260.123 -69.649)"/>
          <path id="Trazado_1184599" data-name="Trazado 1184599" d="M468.668,67.967h3.985a1.018,1.018,0,0,0,0-2.037h-3.985a1.018,1.018,0,0,0,0,2.037Z" transform="translate(-404.158 -62.599)"/>
          <path id="Trazado_1184600" data-name="Trazado 1184600" d="M418.885,98.061h5.093a1.018,1.018,0,1,0,0-2.037h-5.093a1.018,1.018,0,1,0,0,2.037Z" transform="translate(-361.134 -88.607)"/>
          <path id="Trazado_1184601" data-name="Trazado 1184601" d="M429.629,126.117H418.885a1.018,1.018,0,1,0,0,2.037h10.744a1.018,1.018,0,0,0,0-2.037Z" transform="translate(-361.134 -114.614)"/>
          <path id="Trazado_1184602" data-name="Trazado 1184602" d="M418.885,67.992a1.018,1.018,0,0,0,1.018-1.018v-.014a1.018,1.018,0,0,0-2.037,0v.014A1.018,1.018,0,0,0,418.885,67.992Z" transform="translate(-361.134 -62.608)"/>
          <path id="Trazado_1184603" data-name="Trazado 1184603" d="M442.414,67.992a1.018,1.018,0,0,0,1.018-1.018v-.014a1.018,1.018,0,1,0-2.036,0v.014A1.018,1.018,0,0,0,442.414,67.992Z" transform="translate(-381.468 -62.608)"/>
          <path id="Trazado_1184604" data-name="Trazado 1184604" d="M48.557,192.057c-.049,0-33.005-.006-33.005-.006a9.065,9.065,0,1,0,.2,12.394H48.338a6.2,6.2,0,0,0,.219-12.389ZM40.7,202.409,43,194.088h4.122l-2.305,8.321Zm-6.235,0,2.3-8.321h4.122l-2.305,8.321Zm-6.235,0,2.305-8.321h4.122l-2.3,8.321Zm-6.235,0,2.305-8.321h4.122l-2.305,8.321Zm-4.941-2.742a1.018,1.018,0,0,0-1.265.688,7.017,7.017,0,1,1-.052-4.154,1.018,1.018,0,0,0,1.938-.627,9.123,9.123,0,0,0-.632-1.486h5.146l-2.305,8.321H17.151a8.909,8.909,0,0,0,.586-1.477A1.018,1.018,0,0,0,17.049,199.667Zm31.289,2.742H46.93l2.279-8.229a4.161,4.161,0,0,1-.871,8.229Z" transform="translate(0 -169.227)"/>
          <path id="Trazado_1184605" data-name="Trazado 1184605" d="M37.309,222a4.616,4.616,0,1,0,4.616,4.616A4.621,4.621,0,0,0,37.309,222Zm0,7.195a2.579,2.579,0,1,1,2.579-2.579A2.582,2.582,0,0,1,37.309,229.2Z" transform="translate(-28.254 -197.482)"/>
          <path id="Trazado_1184606" data-name="Trazado 1184606" d="M472.653,213.844h-3.985a1.018,1.018,0,0,0,0,2.037h3.985a1.018,1.018,0,0,0,0-2.037Z" transform="translate(-404.158 -190.431)"/>
          <path id="Trazado_1184607" data-name="Trazado 1184607" d="M418.885,245.974h5.093a1.018,1.018,0,1,0,0-2.037h-5.093a1.018,1.018,0,1,0,0,2.037Z" transform="translate(-361.134 -216.439)"/>
          <path id="Trazado_1184608" data-name="Trazado 1184608" d="M429.629,274.031H418.885a1.018,1.018,0,1,0,0,2.037h10.744a1.018,1.018,0,0,0,0-2.037Z" transform="translate(-361.134 -242.446)"/>
          <path id="Trazado_1184609" data-name="Trazado 1184609" d="M418.885,215.906a1.018,1.018,0,0,0,1.018-1.018v-.014a1.018,1.018,0,0,0-2.037,0v.014A1.018,1.018,0,0,0,418.885,215.906Z" transform="translate(-361.134 -190.44)"/>
          <path id="Trazado_1184610" data-name="Trazado 1184610" d="M443.432,214.888v-.014a1.018,1.018,0,1,0-2.036,0v.014a1.018,1.018,0,1,0,2.036,0Z" transform="translate(-381.468 -190.44)"/>
          <path id="Trazado_1184611" data-name="Trazado 1184611" d="M48.552,339.971c-.046,0-33.015-.005-33.015-.005a9.051,9.051,0,0,0-14.511,10.5,1.018,1.018,0,1,0,1.805-.943,6.936,6.936,0,0,1-.795-3.243,7.017,7.017,0,1,1,3.719,6.195,1.018,1.018,0,0,0-.959,1.8,9.048,9.048,0,0,0,10.96-1.91H48.338a6.2,6.2,0,0,0,.213-12.389ZM40.7,350.324,43,342h4.122l-2.305,8.321Zm-6.235,0,2.3-8.321h4.122l-2.305,8.321Zm-6.235,0L30.531,342h4.122l-2.3,8.321Zm-6.235,0L24.3,342h4.122l-2.305,8.321ZM17.033,342h5.149l-2.305,8.321H17.151A9.031,9.031,0,0,0,17.033,342Zm31.305,8.321H46.93l2.279-8.229a4.161,4.161,0,0,1-.871,8.229Z" transform="translate(0 -297.06)"/>
          <path id="Trazado_1184612" data-name="Trazado 1184612" d="M37.309,379.148a4.616,4.616,0,1,0-4.616-4.616A4.621,4.621,0,0,0,37.309,379.148Zm0-7.195a2.579,2.579,0,1,1-2.579,2.579A2.582,2.582,0,0,1,37.309,371.953Z" transform="translate(-28.254 -325.313)"/>
          <path id="Trazado_1184613" data-name="Trazado 1184613" d="M472.653,361.758h-3.985a1.018,1.018,0,1,0,0,2.036h3.985a1.018,1.018,0,1,0,0-2.036Z" transform="translate(-404.158 -318.263)"/>
          <path id="Trazado_1184614" data-name="Trazado 1184614" d="M418.885,393.889h5.093a1.018,1.018,0,1,0,0-2.037h-5.093a1.018,1.018,0,1,0,0,2.037Z" transform="translate(-361.134 -344.271)"/>
          <path id="Trazado_1184615" data-name="Trazado 1184615" d="M429.629,421.946H418.885a1.018,1.018,0,1,0,0,2.037h10.744a1.018,1.018,0,0,0,0-2.037Z" transform="translate(-361.134 -370.279)"/>
          <path id="Trazado_1184616" data-name="Trazado 1184616" d="M418.885,363.82A1.018,1.018,0,0,0,419.9,362.8v-.014a1.018,1.018,0,0,0-2.037,0v.014A1.018,1.018,0,0,0,418.885,363.82Z" transform="translate(-361.134 -318.272)"/>
          <path id="Trazado_1184617" data-name="Trazado 1184617" d="M443.432,362.8v-.014a1.018,1.018,0,1,0-2.036,0v.014a1.018,1.018,0,1,0,2.036,0Z" transform="translate(-381.468 -318.272)"/>
        </g>
      </g>
    </g>
  </g>
</svg>
