<svg xmlns="http://www.w3.org/2000/svg" xmlns:xlink="http://www.w3.org/1999/xlink" width="118" height="118" viewBox="0 0 118 118">
  <defs>
    <filter id="Trazado_896985" x="0" y="0" width="118" height="118" filterUnits="userSpaceOnUse">
      <feOffset dy="3" input="SourceAlpha"/>
      <feGaussianBlur stdDeviation="3" result="blur"/>
      <feFlood flood-opacity="0.161"/>
      <feComposite operator="in" in2="blur"/>
      <feComposite in="SourceGraphic"/>
    </filter>
  </defs>
  <g id="Grupo_1212716" data-name="Grupo 1212716" transform="translate(-196.967 -9161.27)">
    <g id="Grupo_1212198" data-name="Grupo 1212198" transform="translate(0.076 -8767.73)">
      <g id="Grupo_1200012" data-name="Grupo 1200012" transform="translate(-0.949 13650.111)">
        <g id="Grupo_1198723" data-name="Grupo 1198723" transform="translate(0.95 -182.434)">
          <g id="Grupo_1198139" data-name="Grupo 1198139" transform="translate(-129 615.322)">
            <g id="Grupo_1111318" data-name="Grupo 1111318" transform="translate(334.891 3852)">
              <g id="Grupo_1109826" data-name="Grupo 1109826" transform="translate(0)">
                <g id="Grupo_1098742" data-name="Grupo 1098742" transform="translate(0 0)">
                  <g transform="matrix(1, 0, 0, 1, -9, -6)" filter="url(#Trazado_896985)">
                    <g id="Trazado_896985-2" data-name="Trazado 896985" transform="translate(9 6)" fill="#d0c110" opacity="0.859">
                      <path d="M 49.99993515014648 99.5 C 43.31726837158203 99.5 36.83476257324219 98.19129943847656 30.73248100280762 95.61025238037109 C 24.83812141418457 93.11714172363281 19.54434776306152 89.54795837402344 14.99820137023926 85.00179290771484 C 10.45204162597656 80.45565032958984 6.88285493850708 75.16187286376953 4.389748573303223 69.26751708984375 C 1.808695197105408 63.16523742675781 0.5000017881393433 56.6827278137207 0.5000017881393433 50.00006103515625 C 0.5000017881393433 43.31726455688477 1.808695197105408 36.83475494384766 4.389748573303223 30.73247528076172 C 6.88285493850708 24.83811569213867 10.45204162597656 19.54434204101562 14.99820137023926 14.99819660186768 C 19.54434776306152 10.45203590393066 24.83812141418457 6.88284969329834 30.73248100280762 4.389742851257324 C 36.83476257324219 1.808689475059509 43.31726837158203 0.4999961853027344 49.99993515014648 0.4999961853027344 C 56.68260192871094 0.4999961853027344 63.16510772705078 1.808689475059509 69.26738739013672 4.389742851257324 C 75.16175079345703 6.88284969329834 80.45552062988281 10.45203590393066 85.00167083740234 14.99819660186768 C 89.54782867431641 19.54434204101562 93.11701202392578 24.83811569213867 95.61012268066406 30.73247528076172 C 98.19117736816406 36.83475494384766 99.49987030029297 43.31726455688477 99.49987030029297 49.99993133544922 C 99.49987030029297 56.6827278137207 98.19117736816406 63.16523742675781 95.61012268066406 69.26751708984375 C 93.11701202392578 75.16187286376953 89.54782867431641 80.45565032958984 85.00167083740234 85.00179290771484 C 80.45552062988281 89.54795837402344 75.16175079345703 93.11714172363281 69.26738739013672 95.61025238037109 C 63.16510772705078 98.19129943847656 56.68260192871094 99.5 49.99993515014648 99.5 Z" stroke="none"/>
                      <path d="M 49.99993515014648 0.9999923706054688 C 43.38454818725586 0.9999923706054688 36.96757507324219 2.29541015625 30.92725372314453 4.850250244140625 C 25.09249877929688 7.318145751953125 19.85213470458984 10.85135650634766 15.35174560546875 15.35174560546875 C 10.85136413574219 19.85212707519531 7.318145751953125 25.09249114990234 4.850257873535156 30.92724609375 C 2.295417785644531 36.96757125854492 1 43.38454437255859 1 50.00006103515625 C 1 56.61544799804688 2.295417785644531 63.03242111206055 4.850257873535156 69.07273864746094 C 7.318145751953125 74.90750122070312 10.85136413574219 80.14786529541016 15.35174560546875 84.64824676513672 C 19.85213470458984 89.14863586425781 25.09249877929688 92.68184661865234 30.92725372314453 95.14974212646484 C 36.96757507324219 97.70458221435547 43.38454818725586 99 49.99993515014648 99 C 56.61532211303711 99 63.03229522705078 97.70458221435547 69.07261657714844 95.14974212646484 C 74.90737915039062 92.68184661865234 80.14773559570312 89.14863586425781 84.64812469482422 84.64824676513672 C 89.14850616455078 80.14786529541016 92.68172454833984 74.90750122070312 95.14961242675781 69.07273864746094 C 97.70445251464844 63.03242111206055 98.99987030029297 56.61544799804688 98.99987030029297 49.99993133544922 C 98.99987030029297 43.38454437255859 97.70445251464844 36.96757125854492 95.14961242675781 30.92724609375 C 92.68172454833984 25.09249114990234 89.14850616455078 19.85212707519531 84.64812469482422 15.35174560546875 C 80.14773559570312 10.85135650634766 74.90737915039062 7.318145751953125 69.07261657714844 4.850250244140625 C 63.03229522705078 2.29541015625 56.61532211303711 0.9999923706054688 49.99993515014648 0.9999923706054688 M 49.99993515014648 -7.62939453125e-06 C 77.6141357421875 -7.62939453125e-06 99.99987030029297 22.38572692871094 99.99987030029297 49.99993133544922 L 99.99987030029297 50.00006103515625 C 99.99987030029297 77.61426544189453 77.6141357421875 100 49.99993515014648 100 C 22.38573455810547 100 0 77.61426544189453 0 50.00006103515625 L 0 49.99993133544922 C 0 22.38572692871094 22.38573455810547 -7.62939453125e-06 49.99993515014648 -7.62939453125e-06 Z" stroke="none" fill="#fff"/>
                    </g>
                  </g>
                  <g id="Rectángulo_400907" data-name="Rectángulo 400907" transform="translate(0)" fill="none" stroke="#fff" stroke-width="1">
                    <rect width="100" height="100" rx="50" stroke="none"/>
                    <rect x="0.5" y="0.5" width="99" height="99" rx="49.5" fill="none"/>
                  </g>
                </g>
              </g>
            </g>
          </g>
        </g>
      </g>
    </g>
    <g id="design_1081853" transform="translate(225.486 9189.461)">
      <path id="Trazado_900451" data-name="Trazado 900451" d="M215.914,326.7h9.546v15.89h-9.546Zm0,0" transform="translate(-190.206 -287.36)" fill="#464646"/>
      <path id="Trazado_900452" data-name="Trazado 900452" d="M260.773,326.7v12.017h-2.285A2.489,2.489,0,0,1,256,336.227V326.7Zm0,0" transform="translate(-225.519 -287.36)" fill="#5a5a5a"/>
      <path id="Trazado_900453" data-name="Trazado 900453" d="M65.653,48.137H8.55A1.035,1.035,0,0,1,7.516,47.1V9.609A1.035,1.035,0,0,1,8.55,8.574h57.1a1.035,1.035,0,0,1,1.035,1.035V47.1A1.035,1.035,0,0,1,65.653,48.137Zm0,0" transform="translate(-6.621 -7.113)" fill="#5a5a5a"/>
      <path id="Trazado_900454" data-name="Trazado 900454" d="M87.3,38.8V69.977a.6.6,0,0,1-.6.6H35.171a.6.6,0,0,1-.6-.6V38.8a.6.6,0,0,1,.6-.6H86.707A.6.6,0,0,1,87.3,38.8Zm0,0" transform="translate(-30.458 -33.21)" fill="#d2d2d7"/>
      <path id="Trazado_900455" data-name="Trazado 900455" d="M114.919,38.8V67.41h-48.4a.6.6,0,0,1-.6-.6V38.2h48.4A.6.6,0,0,1,114.919,38.8Zm0,0" transform="translate(-58.073 -33.21)" fill="#ebebf0"/>
      <path id="Trazado_900456" data-name="Trazado 900456" d="M134.22,455.006a1.165,1.165,0,0,1-1.165,1.165H97.319a1.164,1.164,0,0,1-1.163-1.165,5.043,5.043,0,0,1,5.041-5.041h27.982a5.04,5.04,0,0,1,5.041,5.041Zm0,0" transform="translate(-84.707 -395.949)" fill="#5a5a5a"/>
      <path id="Trazado_900457" data-name="Trazado 900457" d="M171.688,476.194a1.165,1.165,0,0,1-1.165,1.165H138.688a5.052,5.052,0,0,1,4.748-3.342h27.758a5.007,5.007,0,0,1,.494,2.178Zm0,0" transform="translate(-122.175 -417.136)" fill="#828282"/>
      <path id="Trazado_900458" data-name="Trazado 900458" d="M161.847,66.487v24.72a.6.6,0,0,1-.6.6H124.022a.6.6,0,0,1-.6-.6V66.487a.6.6,0,0,1,.6-.6h37.229a.6.6,0,0,1,.6.6Zm0,0" transform="translate(-108.73 -57.605)" fill="#6990d7"/>
      <path id="Trazado_900459" data-name="Trazado 900459" d="M200.079,140.481H182.436a.6.6,0,0,1-.6-.6V127.952a.6.6,0,0,1,.6-.6h17.643a.6.6,0,0,1,.6.6v11.932A.6.6,0,0,1,200.079,140.481Zm0,0" transform="translate(-160.188 -111.751)" fill="#caed73"/>
      <path id="Trazado_900460" data-name="Trazado 900460" d="M69.356,91.8H66.194a.268.268,0,0,1-.268-.268V66.159a.268.268,0,0,1,.268-.268h3.162a.268.268,0,0,1,.268.268V91.535A.268.268,0,0,1,69.356,91.8Zm0,0" transform="translate(-58.076 -57.604)" fill="#828282"/>
      <g id="Grupo_1212361" data-name="Grupo 1212361" transform="translate(7.849 11.846)">
        <path id="Trazado_900461" data-name="Trazado 900461" d="M65.926,95.789h3.7v3.759h-3.7Zm0,0" transform="translate(-65.926 -95.789)" fill="#5a5a5a"/>
        <path id="Trazado_900462" data-name="Trazado 900462" d="M65.926,158.926h3.7v3.758h-3.7Zm0,0" transform="translate(-65.926 -151.409)" fill="#5a5a5a"/>
        <path id="Trazado_900463" data-name="Trazado 900463" d="M65.926,222.059h3.7v3.759h-3.7Zm0,0" transform="translate(-65.926 -207.024)" fill="#5a5a5a"/>
      </g>
      <path id="Trazado_900464" data-name="Trazado 900464" d="M368.359,136.094l-6.466-1.733a.7.7,0,0,0-.855.855l1.733,6.466a.7.7,0,0,0,1.168.313l1.419-1.419,1.116,1.116a1.34,1.34,0,0,0,1.9-1.9l-1.116-1.116,1.419-1.419a.7.7,0,0,0-.313-1.168Zm0,0" transform="translate(-318.028 -117.902)" fill="#464646"/>
      <path id="Trazado_900465" data-name="Trazado 900465" d="M59.033.5H9.683a.895.895,0,1,0,0,1.79h49.35a.141.141,0,0,1,.14.14V39.922a.139.139,0,0,1-.14.14H1.929a.139.139,0,0,1-.14-.14V2.429a.141.141,0,0,1,.14-.14H6.1A.895.895,0,0,0,6.1.5H1.929A1.932,1.932,0,0,0,0,2.429V39.922a1.931,1.931,0,0,0,1.929,1.93H24.813v11.27H16.49a5.943,5.943,0,0,0-5.936,5.936,2.061,2.061,0,0,0,2.058,2.06h36.9a.9.9,0,0,0,.895-.9V59.058a5.943,5.943,0,0,0-5.936-5.936H36.149V41.852H59.033a1.931,1.931,0,0,0,1.929-1.93V2.429A1.932,1.932,0,0,0,59.033.5ZM26.6,41.852h7.756v11.27H26.6Zm17.869,13.06a4.147,4.147,0,0,1,4.146,4.146.27.27,0,0,1-.27.27H12.612a.269.269,0,0,1-.268-.267,4.152,4.152,0,0,1,4.146-4.149Zm0,0" transform="translate(0)"/>
      <path id="Trazado_900466" data-name="Trazado 900466" d="M50.723,64.851H80.086a1.493,1.493,0,0,0,1.492-1.492V32.179a1.493,1.493,0,0,0-1.492-1.492H28.55a1.493,1.493,0,0,0-1.492,1.492V63.36a1.493,1.493,0,0,0,1.492,1.492H47.143a.9.9,0,0,0,0-1.79H28.849V32.477H79.787V63.061H50.723a.9.9,0,0,0,0,1.79Zm0,0" transform="translate(-23.837 -26.593)"/>
      <path id="Trazado_900467" data-name="Trazado 900467" d="M361.963,128.607c-6.879-1.824-6.508-1.787-6.881-1.787a1.593,1.593,0,0,0-1.536,2.006l1.733,6.466a1.6,1.6,0,0,0,1.542,1.181c.964,0,1.311-.748,1.91-1.253l.482.484a2.236,2.236,0,0,0,3.162-3.161l-.483-.483.786-.786a1.6,1.6,0,0,0-.715-2.666Zm-1.169,5.959a.444.444,0,0,1-.315-.129c-.973-.887-1.15-1.379-1.748-1.379s-.752.471-1.811,1.44l-1.556-5.807,5.807,1.556-1.178,1.178a.9.9,0,0,0,0,1.266l1.116,1.116a.445.445,0,0,1-.315.759Zm0,0" transform="translate(-311.401 -111.279)"/>
      <path id="Trazado_900468" data-name="Trazado 900468" d="M59.569,58.375a1.165,1.165,0,0,0-1.163,1.163V84.915a1.165,1.165,0,0,0,1.163,1.163h3.162a1.164,1.164,0,0,0,1.163-1.163V59.538a1.164,1.164,0,0,0-1.163-1.163Zm2.536,25.913H60.2v-1.77h1.909Zm0-3.56H60.2V78.759h1.909Zm0-3.759H60.2V75h1.909Zm0-3.759H60.2V71.242h1.909Zm0-3.759H60.2V67.483h1.909Zm0-3.759H60.2V63.725h1.909Zm0-3.759H60.2v-1.77h1.909Zm0,0" transform="translate(-51.452 -50.984)"/>
      <path id="Trazado_900469" data-name="Trazado 900469" d="M155.228,71.361a.9.9,0,0,0,.895-.895V59.27a.9.9,0,0,0-.895-.895H116.806a.9.9,0,0,0-.9.895V85.184a.9.9,0,0,0,.9.895h38.422a.9.9,0,0,0,.895-.895V74.046a.895.895,0,1,0-1.79,0V84.289H117.7V80.609h3.112a.895.895,0,0,0,0-1.79H117.7V74.047h3.112a.9.9,0,0,0,0-1.79H117.7V67.484h3.112a.895.895,0,1,0,0-1.79H117.7V60.165h4.313v3.112a.895.895,0,0,0,1.79,0V60.165h4.773v3.112a.9.9,0,0,0,1.79,0V60.165h4.773v3.112a.895.895,0,0,0,1.79,0V60.165H141.7v3.112a.895.895,0,1,0,1.79,0V60.165h4.773v3.112a.9.9,0,0,0,1.79,0V60.165h4.278v10.3a.9.9,0,0,0,.895.895Zm0,0" transform="translate(-102.109 -50.984)"/>
      <path id="Trazado_900470" data-name="Trazado 900470" d="M194.055,119.836H175.219a.9.9,0,0,0-.895.895v13.126a.894.894,0,0,0,.895.895h18.836a.894.894,0,0,0,.9-.895V120.731A.9.9,0,0,0,194.055,119.836Zm-.895,13.126H176.114V121.626h17.047Zm0,0" transform="translate(-153.568 -105.127)"/>
    </g>
  </g>
</svg>
