<svg xmlns="http://www.w3.org/2000/svg" width="117" height="119" viewBox="0 0 117 119">
  <g id="Grupo_1231052" data-name="Grupo 1231052" transform="translate(-1139.254 -12760.5)">
    <g id="Grupo_1230682" data-name="Grupo 1230682" transform="translate(-123.873 10118.5)">
      <g id="Grupo_1230677" data-name="Grupo 1230677" transform="translate(16)">
        <rect id="Rect치ngulo_423335" data-name="Rect치ngulo 423335" width="94" height="55" rx="12" transform="translate(1247.126 2681)" fill="#497d74"/>
        <rect id="Rect치ngulo_423336" data-name="Rect치ngulo 423336" width="74" height="119" rx="12" transform="translate(1290.126 2642)" fill="#345953"/>
      </g>
    </g>
    <g id="ponytail_1047332" transform="translate(1154.534 12771.455)">
      <path id="Trazado_1184951" data-name="Trazado 1184951" d="M110.269,470.484a33.127,33.127,0,0,1-9.644-1.426,3.356,3.356,0,1,1,1.953-6.422,26.573,26.573,0,0,0,16.361-.319,3.356,3.356,0,1,1,2.2,6.341,33.066,33.066,0,0,1-10.873,1.827Zm0,0" transform="translate(-79.038 -371.79)" fill="#0188d0"/>
      <path id="Trazado_1184952" data-name="Trazado 1184952" d="M410.532,168.108a33.121,33.121,0,0,1,1.27,9.664,3.357,3.357,0,0,1-6.712-.117,26.571,26.571,0,0,0-4.79-15.646,3.357,3.357,0,0,1,5.5-3.856,33.062,33.062,0,0,1,4.737,9.955Zm0,0" transform="translate(-321.556 -126.087)" fill="#da3b3f"/>
      <path id="Trazado_1184953" data-name="Trazado 1184953" d="M34.824,11.351a33.155,33.155,0,0,1,9-3.742,3.356,3.356,0,1,1,1.635,6.511,26.556,26.556,0,0,0-13.86,8.7,3.357,3.357,0,0,1-5.155-4.3,33.068,33.068,0,0,1,8.379-7.166Zm0,0" transform="translate(-20.648 -6.04)" fill="#ff9565"/>
      <path id="Trazado_1184954" data-name="Trazado 1184954" d="M90.387,41.619a34.5,34.5,0,0,0-4.947-10.4A4.832,4.832,0,0,0,79.7,29.517a31.418,31.418,0,0,0-20.429-9.581c-.39-.794-.815-1.572-1.266-2.321A31.225,31.225,0,0,0,28.276,2.6,4.831,4.831,0,0,0,22.82.145a1.467,1.467,0,1,0,.714,2.846,1.889,1.889,0,1,1,.921,3.665,28.046,28.046,0,0,0-14.63,9.182,1.889,1.889,0,1,1-2.9-2.42A31.574,31.574,0,0,1,14.932,6.57c.788-.473,1.6-.917,2.426-1.319.192-.094.386-.186.58-.276A1.467,1.467,0,0,0,16.7,2.313q-.32.149-.635.3c-.9.438-1.788.922-2.647,1.439a34.515,34.515,0,0,0-8.75,7.483,4.824,4.824,0,0,0-.155,5.985,31.212,31.212,0,0,0-.137,32.109A31.234,31.234,0,0,0,17.748,93.753a4.826,4.826,0,0,0,3.413,4.919,34.609,34.609,0,0,0,7.755,1.413c.033,0,.066,0,.1,0a1.467,1.467,0,0,0,.1-2.931,31.637,31.637,0,0,1-7.1-1.294,1.889,1.889,0,1,1,1.1-3.614,28.043,28.043,0,0,0,17.269-.337,1.889,1.889,0,1,1,1.24,3.569,31.523,31.523,0,0,1-7.2,1.586,1.467,1.467,0,0,0,.292,2.92,34.456,34.456,0,0,0,7.871-1.734A4.824,4.824,0,0,0,45.8,93.206,31.2,31.2,0,0,0,57.591,82.322,31.252,31.252,0,0,0,87.917,56.339a4.833,4.833,0,0,0,3.8-4.628,34.593,34.593,0,0,0-1.327-10.092ZM55.941,79.368A28.383,28.383,0,0,1,32.425,64.905a31.287,31.287,0,0,0,23.838-12.52,28.3,28.3,0,0,1-.322,26.983ZM31.008,61.99a28.833,28.833,0,0,1-1.1-3.142,27.991,27.991,0,0,1,2.5-21.536,28.2,28.2,0,0,1,22.2,12.333A28.331,28.331,0,0,1,31.009,61.99Zm-3.92-2.337q.307,1.073.69,2.122A28.307,28.307,0,0,1,7.855,49.633,28.16,28.16,0,0,1,29.076,37.371a31.355,31.355,0,0,0-1.988,22.282ZM56.261,46.907A31.1,31.1,0,0,0,34.21,34.5,28.355,28.355,0,0,1,57.349,22.8a28.155,28.155,0,0,1-1.089,24.109ZM2.947,32.889A28.374,28.374,0,0,1,6.92,19.222a4.815,4.815,0,0,0,5.158-1.5A25.1,25.1,0,0,1,25.169,9.5a4.835,4.835,0,0,0,3.6-3.994A28.294,28.294,0,0,1,55.489,19.127c.15.25.3.5.44.759A31.286,31.286,0,0,0,30.758,34.36,31.077,31.077,0,0,0,6.208,46.894a28.171,28.171,0,0,1-3.261-14ZM44.621,90.505a4.831,4.831,0,0,0-5.2-1.365,25.111,25.111,0,0,1-15.453.3,4.831,4.831,0,0,0-5.141,1.568A28.3,28.3,0,0,1,6.205,52.369,31.25,31.25,0,0,0,29.084,64.851,31.326,31.326,0,0,0,54.138,82.182a28.235,28.235,0,0,1-9.517,8.323ZM64.878,78.3a28.447,28.447,0,0,1-5.6,1A31.229,31.229,0,0,0,58.09,49.646,31.086,31.086,0,0,0,60.58,23.01a28.49,28.49,0,0,1,16.849,8.379,4.83,4.83,0,0,0,.114,5.376,25.092,25.092,0,0,1,4.524,14.778,4.831,4.831,0,0,0,2.918,4.515A28.284,28.284,0,0,1,64.878,78.3Zm21.979-24.79A1.892,1.892,0,0,1,85,51.593a28.03,28.03,0,0,0-5.057-16.514,1.889,1.889,0,0,1,3.093-2.17,31.816,31.816,0,0,1,5.742,18.751,1.9,1.9,0,0,1-1.922,1.856Zm0,0" transform="translate(0 0)"/>
    </g>
  </g>
</svg>
