<svg xmlns="http://www.w3.org/2000/svg" xmlns:xlink="http://www.w3.org/1999/xlink" width="88" height="88" viewBox="0 0 88 88">
  <defs>
    <filter id="Trazado_896985" x="0" y="0" width="88" height="88" filterUnits="userSpaceOnUse">
      <feOffset dy="3" input="SourceAlpha"/>
      <feGaussianBlur stdDeviation="3" result="blur"/>
      <feFlood flood-opacity="0.161"/>
      <feComposite operator="in" in2="blur"/>
      <feComposite in="SourceGraphic"/>
    </filter>
  </defs>
  <g id="Grupo_1230929" data-name="Grupo 1230929" transform="translate(-195.669 -16421.433)">
    <g id="Grupo_1212744" data-name="Grupo 1212744" transform="translate(-1.297 7264.162)">
      <g id="Grupo_1212198" data-name="Grupo 1212198" transform="translate(205.967 9163.27)">
        <g id="Grupo_1200012" data-name="Grupo 1200012" transform="translate(0 0)">
          <g id="Grupo_1198723" data-name="Grupo 1198723" transform="translate(0 0)">
            <g id="Grupo_1198139" data-name="Grupo 1198139">
              <g id="Grupo_1111318" data-name="Grupo 1111318">
                <g id="Grupo_1109826" data-name="Grupo 1109826" transform="translate(0)">
                  <g id="Grupo_1098742" data-name="Grupo 1098742">
                    <g transform="matrix(1, 0, 0, 1, -9, -6)" filter="url(#Trazado_896985)">
                      <g id="Trazado_896985-2" data-name="Trazado 896985" transform="translate(9 6)" fill="#d0c110" opacity="0.859">
                        <path d="M 34.99995040893555 69.49998474121094 C 30.34226989746094 69.49998474121094 25.82417106628418 68.58788299560547 21.57117080688477 66.78900909423828 C 17.4630012512207 65.05139923095703 13.77338027954102 62.56376266479492 10.6048002243042 59.39518356323242 C 7.436220645904541 56.22661209106445 4.948580265045166 52.53699111938477 3.210970401763916 48.4288215637207 C 1.412100434303284 44.17582321166992 0.5000004172325134 39.65772247314453 0.5000004172325134 35.00004196166992 C 0.5000004172325134 30.34233283996582 1.412100434303284 25.82422256469727 3.210970401763916 21.57120323181152 C 4.948580265045166 17.46302223205566 7.436220645904541 13.77339267730713 10.6048002243042 10.60481262207031 C 13.77338027954102 7.436232566833496 17.46298980712891 4.948582172393799 21.57117080688477 3.210972309112549 C 25.82417106628418 1.412102341651917 30.34226036071777 0.500002384185791 34.99995040893555 0.500002384185791 C 39.65763092041016 0.500002384185791 44.17573165893555 1.412102341651917 48.42873001098633 3.210972309112549 C 52.53689956665039 4.948582172393799 56.22652053833008 7.436222553253174 59.39509963989258 10.60480213165283 C 62.56367874145508 13.77338218688965 65.05132293701172 17.46299171447754 66.78893280029297 21.57116317749023 C 68.58779907226562 25.82416152954102 69.49990081787109 30.34226226806641 69.49990081787109 34.99994277954102 C 69.49990081787109 39.65765380859375 68.58779907226562 44.17576217651367 66.78893280029297 48.42878341674805 C 65.05132293701172 52.53696060180664 62.56367874145508 56.22659301757812 59.39509963989258 59.39517211914062 C 56.22652053833008 62.56375122070312 52.53691101074219 65.05139923095703 48.42873001098633 66.78900909423828 C 44.17573165893555 68.58788299560547 39.65763854980469 69.49998474121094 34.99995040893555 69.49998474121094 Z" stroke="none"/>
                        <path d="M 34.99995040893555 1 C 30.40954208374023 1 25.95698165893555 1.898811340332031 21.76594161987305 3.671485900878906 C 17.71736907958984 5.383880615234375 14.08116912841797 7.835540771484375 10.95835113525391 10.9583625793457 C 7.835540771484375 14.08119201660156 5.383872985839844 17.71740341186523 3.671470642089844 21.76598358154297 C 1.898811340332031 25.95703125 1 30.40961074829102 1 35.00004196166992 C 1 39.5904541015625 1.898811340332031 44.04301452636719 3.671470642089844 48.23405456542969 C 5.383872985839844 52.28262329101562 7.835540771484375 55.9188117980957 10.95835113525391 59.04163360595703 C 14.08116912841797 62.16445159912109 17.71736907958984 64.61611175537109 21.76594161987305 66.32851409912109 C 25.95698165893555 68.10117340087891 30.40954208374023 68.99998474121094 34.99995040893555 68.99998474121094 C 39.59036254882812 68.99998474121094 44.04292297363281 68.10117340087891 48.23396301269531 66.32851409912109 C 52.28253173828125 64.61610412597656 55.91873168945312 62.16444396972656 59.04154968261719 59.04162216186523 C 62.16436004638672 55.91879272460938 64.61602783203125 52.2825927734375 66.32843017578125 48.23401260375977 C 68.10108947753906 44.04295349121094 68.99990081787109 39.59037017822266 68.99990081787109 34.99994277954102 C 68.99990081787109 30.40954208374023 68.10108947753906 25.95698165893555 66.32843017578125 21.76594161987305 C 64.61602783203125 17.71737289428711 62.16436004638672 14.08117294311523 59.04154968261719 10.95835113525391 C 55.91873168945312 7.835533142089844 52.28253173828125 5.383872985839844 48.23396301269531 3.671470642089844 C 44.04292297363281 1.898811340332031 39.59036254882812 1 34.99995040893555 1 M 34.99995040893555 0 C 54.32989120483398 0 69.99990081787109 15.67001342773438 69.99990081787109 34.99994277954102 L 69.99990081787109 35.00004196166992 C 69.99990081787109 54.32998275756836 54.32989120483398 69.99998474121094 34.99995040893555 69.99998474121094 C 15.67000961303711 69.99998474121094 0 54.32998275756836 0 35.00004196166992 L 0 34.99994277954102 C 0 15.67001342773438 15.67000961303711 0 34.99995040893555 0 Z" stroke="none" fill="#fff"/>
                      </g>
                    </g>
                    <g id="Rectángulo_400907" data-name="Rectángulo 400907" transform="translate(0)" fill="none" stroke="#fff" stroke-width="1">
                      <rect width="70" height="70" rx="35" stroke="none"/>
                      <rect x="0.5" y="0.5" width="69" height="69" rx="34.5" fill="none"/>
                    </g>
                  </g>
                </g>
              </g>
            </g>
          </g>
        </g>
      </g>
    </g>
    <g id="target_15130642" transform="translate(216.077 16441.078)">
      <path id="Trazado_1184671" data-name="Trazado 1184671" d="M1,35.328a4.785,4.785,0,0,0,4.785,4.785H42.466a4.785,4.785,0,0,0,4.785-4.785V13H1Z" transform="translate(-0.203 -2.633)" fill="#4e98ec"/>
      <path id="Trazado_1184672" data-name="Trazado 1184672" d="M8.177,1.8V27.315a.8.8,0,0,1-.8.8H5.785A4.785,4.785,0,0,0,1,32.9V5.785A4.785,4.785,0,0,1,5.785,1H7.379A.8.8,0,0,1,8.177,1.8Z" transform="translate(-0.203 -0.203)" fill="#67acf6"/>
      <path id="Trazado_1184673" data-name="Trazado 1184673" d="M57.177,5.785V32.9a4.785,4.785,0,0,0-4.785-4.785H50.8a.8.8,0,0,1-.8-.8V1.8a.8.8,0,0,1,.8-.8h1.595a4.785,4.785,0,0,1,4.785,4.785Z" transform="translate(-10.129 -0.203)" fill="#67acf6"/>
      <circle id="Elipse_12541" data-name="Elipse 12541" cx="2" cy="2" r="2" transform="translate(21.923 29.923)" fill="#3d5760"/>
      <g id="Grupo_1230928" data-name="Grupo 1230928" transform="translate(0)">
        <path id="Trazado_1184674" data-name="Trazado 1184674" d="M42.264,0H40.669a1.6,1.6,0,0,0-1.595,1.595V9.569H11.164a.8.8,0,1,0,0,1.595h27.91V27.113a1.6,1.6,0,0,0,1.595,1.595h1.595a3.987,3.987,0,1,1,0,7.974H35.742a12.647,12.647,0,0,0,.9-3.987h2.433a.8.8,0,0,0,0-1.595H36.641A12.759,12.759,0,0,0,24.72,19.179V16.746a.8.8,0,1,0-1.595,0v2.433A12.759,12.759,0,0,0,11.2,31.1H8.772a.8.8,0,0,0,0,1.595H11.2a12.647,12.647,0,0,0,.9,3.987H5.582a3.987,3.987,0,0,1,0-7.974H7.177a1.6,1.6,0,0,0,1.595-1.595V1.595A1.6,1.6,0,0,0,7.177,0H5.582A5.589,5.589,0,0,0,0,5.582V32.695a5.589,5.589,0,0,0,5.582,5.582H12.89a12.754,12.754,0,0,0,10.235,6.339v2.433a.8.8,0,1,0,1.595,0V44.615a12.754,12.754,0,0,0,10.235-6.339h7.308a5.589,5.589,0,0,0,5.582-5.582V5.582A5.589,5.589,0,0,0,42.264,0ZM1.595,5.582A3.992,3.992,0,0,1,5.582,1.595H7.177V27.113H5.582a5.566,5.566,0,0,0-3.987,1.675ZM12.8,32.695h2.352a.8.8,0,0,0,0-1.595H12.8A11.164,11.164,0,0,1,23.125,20.774v2.352a.8.8,0,0,0,1.595,0V20.774A11.164,11.164,0,0,1,35.046,31.1H32.695a.8.8,0,1,0,0,1.595h2.352a11.056,11.056,0,0,1-1.052,3.987H13.851A11.056,11.056,0,0,1,12.8,32.695ZM24.72,43.02V40.669a.8.8,0,0,0-1.595,0V43.02a11.153,11.153,0,0,1-8.351-4.744h18.3A11.153,11.153,0,0,1,24.72,43.02ZM46.251,28.787a5.566,5.566,0,0,0-3.987-1.675H40.669V1.595h1.595a3.992,3.992,0,0,1,3.987,3.987Z" transform="translate(0)" fill="#12263f"/>
        <path id="Trazado_1184675" data-name="Trazado 1184675" d="M29.19,36a3.19,3.19,0,1,0,3.19,3.19A3.19,3.19,0,0,0,29.19,36Zm0,4.785a1.595,1.595,0,1,1,1.595-1.595A1.595,1.595,0,0,1,29.19,40.785Z" transform="translate(-5.267 -7.293)" fill="#12263f"/>
      </g>
    </g>
  </g>
</svg>
