<svg xmlns="http://www.w3.org/2000/svg" width="117" height="119" viewBox="0 0 117 119">
  <g id="Grupo_1231051" data-name="Grupo 1231051" transform="translate(-1139.254 -12544.5)">
    <g id="Grupo_1230680" data-name="Grupo 1230680" transform="translate(-123.873 9902.5)">
      <g id="Grupo_1230677" data-name="Grupo 1230677" transform="translate(16)">
        <rect id="Rect치ngulo_423335" data-name="Rect치ngulo 423335" width="94" height="55" rx="12" transform="translate(1247.126 2681)" fill="#497d74"/>
        <rect id="Rect치ngulo_423336" data-name="Rect치ngulo 423336" width="74" height="119" rx="12" transform="translate(1290.126 2642)" fill="#345953"/>
      </g>
    </g>
    <g id="flickr_356022" transform="translate(1154.181 12566.354)">
      <circle id="Elipse_12569" data-name="Elipse 12569" cx="38.323" cy="38.323" r="38.323" transform="translate(1.25 1.25)" fill="#ece5dd"/>
      <path id="Trazado_1184945" data-name="Trazado 1184945" d="M228.662,8.084a38.676,38.676,0,0,0-5,.324,38.326,38.326,0,0,1,0,76,38.324,38.324,0,1,0,5-76.322Z" transform="translate(-189.089 -6.834)" fill="#d9cbbd"/>
      <path id="Trazado_1184946" data-name="Trazado 1184946" d="M134.527,218.395a8.414,8.414,0,1,1,8.414-8.414A8.424,8.424,0,0,1,134.527,218.395Z" transform="translate(-106.618 -170.408)" fill="#1d81ce"/>
      <path id="Trazado_1184947" data-name="Trazado 1184947" d="M285.433,218.395a8.414,8.414,0,1,1,8.414-8.414A8.424,8.424,0,0,1,285.433,218.395Z" transform="translate(-234.197 -170.408)" fill="#e4197c"/>
      <path id="Trazado_1184948" data-name="Trazado 1184948" d="M67.555,11.591A39.573,39.573,0,1,0,11.591,67.555,39.573,39.573,0,1,0,67.555,11.591ZM39.573,76.646A37.073,37.073,0,1,1,76.646,39.573,37.115,37.115,0,0,1,39.573,76.646Z" transform="translate(0 0)"/>
      <path id="Trazado_1184949" data-name="Trazado 1184949" d="M130.867,210.14a7.086,7.086,0,1,1,3.706-3.56,1.227,1.227,0,0,0,.253,1.382l.018.018a1.241,1.241,0,0,0,2-.366,9.584,9.584,0,1,0-5.025,4.835,1.238,1.238,0,0,0,.4-2.018l-.018-.018A1.225,1.225,0,0,0,130.867,210.14Z" transform="translate(-100.241 -164.029)"/>
      <path id="Trazado_1184950" data-name="Trazado 1184950" d="M279.055,194.021a9.581,9.581,0,1,0,9.581,9.581A9.591,9.591,0,0,0,279.055,194.021Zm0,16.662a7.082,7.082,0,1,1,7.082-7.082A7.089,7.089,0,0,1,279.055,210.683Z" transform="translate(-227.819 -164.029)"/>
    </g>
  </g>
</svg>
