<svg xmlns="http://www.w3.org/2000/svg" xmlns:xlink="http://www.w3.org/1999/xlink" width="88" height="88" viewBox="0 0 88 88">
  <defs>
    <filter id="Trazado_896985" x="0" y="0" width="88" height="88" filterUnits="userSpaceOnUse">
      <feOffset dy="3" input="SourceAlpha"/>
      <feGaussianBlur stdDeviation="3" result="blur"/>
      <feFlood flood-opacity="0.161"/>
      <feComposite operator="in" in2="blur"/>
      <feComposite in="SourceGraphic"/>
    </filter>
  </defs>
  <g id="Grupo_1230875" data-name="Grupo 1230875" transform="translate(-195.669 -1264.432)">
    <g id="Grupo_1212716" data-name="Grupo 1212716" transform="translate(-1.297 -7892.838)">
      <g id="Grupo_1212198" data-name="Grupo 1212198" transform="translate(205.967 9163.27)">
        <g id="Grupo_1200012" data-name="Grupo 1200012" transform="translate(0 0)">
          <g id="Grupo_1198723" data-name="Grupo 1198723" transform="translate(0 0)">
            <g id="Grupo_1198139" data-name="Grupo 1198139">
              <g id="Grupo_1111318" data-name="Grupo 1111318">
                <g id="Grupo_1109826" data-name="Grupo 1109826" transform="translate(0)">
                  <g id="Grupo_1098742" data-name="Grupo 1098742">
                    <g transform="matrix(1, 0, 0, 1, -9, -6)" filter="url(#Trazado_896985)">
                      <g id="Trazado_896985-2" data-name="Trazado 896985" transform="translate(9 6)" fill="#d0c110" opacity="0.859">
                        <path d="M 34.99995040893555 69.49998474121094 C 30.34226989746094 69.49998474121094 25.82417106628418 68.58788299560547 21.57117080688477 66.78900909423828 C 17.4630012512207 65.05139923095703 13.77338027954102 62.56376266479492 10.6048002243042 59.39518356323242 C 7.436220645904541 56.22661209106445 4.948580265045166 52.53699111938477 3.210970401763916 48.4288215637207 C 1.412100434303284 44.17582321166992 0.5000004172325134 39.65772247314453 0.5000004172325134 35.00004196166992 C 0.5000004172325134 30.34233283996582 1.412100434303284 25.82422256469727 3.210970401763916 21.57120323181152 C 4.948580265045166 17.46302223205566 7.436220645904541 13.77339267730713 10.6048002243042 10.60481262207031 C 13.77338027954102 7.436232566833496 17.46298980712891 4.948582172393799 21.57117080688477 3.210972309112549 C 25.82417106628418 1.412102341651917 30.34226036071777 0.500002384185791 34.99995040893555 0.500002384185791 C 39.65763092041016 0.500002384185791 44.17573165893555 1.412102341651917 48.42873001098633 3.210972309112549 C 52.53689956665039 4.948582172393799 56.22652053833008 7.436222553253174 59.39509963989258 10.60480213165283 C 62.56367874145508 13.77338218688965 65.05132293701172 17.46299171447754 66.78893280029297 21.57116317749023 C 68.58779907226562 25.82416152954102 69.49990081787109 30.34226226806641 69.49990081787109 34.99994277954102 C 69.49990081787109 39.65765380859375 68.58779907226562 44.17576217651367 66.78893280029297 48.42878341674805 C 65.05132293701172 52.53696060180664 62.56367874145508 56.22659301757812 59.39509963989258 59.39517211914062 C 56.22652053833008 62.56375122070312 52.53691101074219 65.05139923095703 48.42873001098633 66.78900909423828 C 44.17573165893555 68.58788299560547 39.65763854980469 69.49998474121094 34.99995040893555 69.49998474121094 Z" stroke="none"/>
                        <path d="M 34.99995040893555 1 C 30.40954208374023 1 25.95698165893555 1.898811340332031 21.76594161987305 3.671485900878906 C 17.71736907958984 5.383880615234375 14.08116912841797 7.835540771484375 10.95835113525391 10.9583625793457 C 7.835540771484375 14.08119201660156 5.383872985839844 17.71740341186523 3.671470642089844 21.76598358154297 C 1.898811340332031 25.95703125 1 30.40961074829102 1 35.00004196166992 C 1 39.5904541015625 1.898811340332031 44.04301452636719 3.671470642089844 48.23405456542969 C 5.383872985839844 52.28262329101562 7.835540771484375 55.9188117980957 10.95835113525391 59.04163360595703 C 14.08116912841797 62.16445159912109 17.71736907958984 64.61611175537109 21.76594161987305 66.32851409912109 C 25.95698165893555 68.10117340087891 30.40954208374023 68.99998474121094 34.99995040893555 68.99998474121094 C 39.59036254882812 68.99998474121094 44.04292297363281 68.10117340087891 48.23396301269531 66.32851409912109 C 52.28253173828125 64.61610412597656 55.91873168945312 62.16444396972656 59.04154968261719 59.04162216186523 C 62.16436004638672 55.91879272460938 64.61602783203125 52.2825927734375 66.32843017578125 48.23401260375977 C 68.10108947753906 44.04295349121094 68.99990081787109 39.59037017822266 68.99990081787109 34.99994277954102 C 68.99990081787109 30.40954208374023 68.10108947753906 25.95698165893555 66.32843017578125 21.76594161987305 C 64.61602783203125 17.71737289428711 62.16436004638672 14.08117294311523 59.04154968261719 10.95835113525391 C 55.91873168945312 7.835533142089844 52.28253173828125 5.383872985839844 48.23396301269531 3.671470642089844 C 44.04292297363281 1.898811340332031 39.59036254882812 1 34.99995040893555 1 M 34.99995040893555 0 C 54.32989120483398 0 69.99990081787109 15.67001342773438 69.99990081787109 34.99994277954102 L 69.99990081787109 35.00004196166992 C 69.99990081787109 54.32998275756836 54.32989120483398 69.99998474121094 34.99995040893555 69.99998474121094 C 15.67000961303711 69.99998474121094 0 54.32998275756836 0 35.00004196166992 L 0 34.99994277954102 C 0 15.67001342773438 15.67000961303711 0 34.99995040893555 0 Z" stroke="none" fill="#fff"/>
                      </g>
                    </g>
                    <g id="Rectángulo_400907" data-name="Rectángulo 400907" transform="translate(0)" fill="none" stroke="#fff" stroke-width="1">
                      <rect width="70" height="70" rx="35" stroke="none"/>
                      <rect x="0.5" y="0.5" width="69" height="69" rx="34.5" fill="none"/>
                    </g>
                  </g>
                </g>
              </g>
            </g>
          </g>
        </g>
      </g>
    </g>
    <g id="Layer_27" data-name="Layer 27" transform="translate(218.441 1284.203)">
      <path id="Trazado_1184461" data-name="Trazado 1184461" d="M39.194,41.152H3.958A1.958,1.958,0,0,1,2,39.194V3.958A1.958,1.958,0,0,1,3.958,2H39.194a1.958,1.958,0,0,1,1.958,1.958V39.194a1.958,1.958,0,0,1-1.958,1.958Z" transform="translate(-0.347 -0.347)" fill="#c2c3c5"/>
      <path id="Trazado_1184462" data-name="Trazado 1184462" d="M40.237,2H5V37.237a1.958,1.958,0,0,0,1.958,1.958H42.194V3.958A1.958,1.958,0,0,0,40.237,2Z" transform="translate(-1.39 -0.347)" fill="#dcdddf"/>
      <path id="Trazado_1184463" data-name="Trazado 1184463" d="M9,15H24.008V45.669H9Z" transform="translate(-2.78 -4.865)" fill="#6ec5e7"/>
      <path id="Trazado_1184464" data-name="Trazado 1184464" d="M24.7,46.364V17h-12.4A1.305,1.305,0,0,0,11,18.305V46.364Z" transform="translate(-3.475 -5.559)" fill="#b5deeb"/>
      <path id="Trazado_1184465" data-name="Trazado 1184465" d="M20,39h3.263v1.305H20Z" transform="translate(-6.602 -13.204)" fill="#fff"/>
      <path id="Trazado_1184466" data-name="Trazado 1184466" d="M20,47h3.263v1.305H20Z" transform="translate(-6.602 -15.983)" fill="#fff"/>
      <ellipse id="Elipse_12517" data-name="Elipse 12517" cx="1.131" cy="1.696" rx="1.131" ry="1.696" transform="translate(8.79 24.621)" fill="#2f6d56"/>
      <path id="Trazado_1184467" data-name="Trazado 1184467" d="M13,46h2.61v2.61H13Z" transform="translate(-4.17 -15.636)" fill="#2f6d56"/>
      <path id="Trazado_1184468" data-name="Trazado 1184468" d="M20,55h3.263v1.305H20Z" transform="translate(-6.602 -18.763)" fill="#fff"/>
      <circle id="Elipse_12518" data-name="Elipse 12518" cx="1.131" cy="1.131" r="1.131" transform="translate(8.79 35.928)" fill="#2f6d56"/>
      <path id="Trazado_1184469" data-name="Trazado 1184469" d="M39.194,2H3.958A1.958,1.958,0,0,0,2,3.958V4.61H41.152V3.958A1.958,1.958,0,0,0,39.194,2Z" transform="translate(-0.347 -0.347)" fill="#5a5b5d"/>
      <path id="Trazado_1184470" data-name="Trazado 1184470" d="M40.237,2H5V4.61H42.194V3.958A1.958,1.958,0,0,0,40.237,2Z" transform="translate(-1.39 -0.347)" fill="#77787c"/>
      <path id="Trazado_1184471" data-name="Trazado 1184471" d="M50,2h2.61V4.61H50Z" transform="translate(-17.026 -0.347)" fill="#409272"/>
      <path id="Trazado_1184472" data-name="Trazado 1184472" d="M58.653,2H58V4.61h2.61V3.958A1.958,1.958,0,0,0,58.653,2Z" transform="translate(-19.806 -0.347)" fill="#dd4334"/>
      <path id="Trazado_1184473" data-name="Trazado 1184473" d="M54,2h2.61V4.61H54Z" transform="translate(-18.416 -0.347)" fill="#f5b94c"/>
      <ellipse id="Elipse_12519" data-name="Elipse 12519" cx="1.131" cy="1.696" rx="1.131" ry="1.696" transform="translate(8.79 14.444)" fill="#2f6d56"/>
      <path id="Trazado_1184474" data-name="Trazado 1184474" d="M20,23h3.263v1.305H20Z" transform="translate(-6.602 -7.644)" fill="#fff"/>
      <path id="Trazado_1184475" data-name="Trazado 1184475" d="M20,31h3.263v1.305H20Z" transform="translate(-6.602 -10.424)" fill="#fff"/>
      <path id="Trazado_1184476" data-name="Trazado 1184476" d="M13,30h2.61v2.61H13Z" transform="translate(-4.17 -10.077)" fill="#2f6d56"/>
      <path id="Trazado_1184477" data-name="Trazado 1184477" d="M6,11H22.966v2.61H6Z" transform="translate(-1.737 -3.475)" fill="#3177a6"/>
      <path id="Trazado_1184478" data-name="Trazado 1184478" d="M8,11a1.305,1.305,0,0,0,1.305,1.305H23.661V11Z" transform="translate(-2.432 -3.475)" fill="#4197cd"/>
      <path id="Trazado_1184479" data-name="Trazado 1184479" d="M36,28.356v9.135H50.356V14H46.441l-1.305,2.61H36V28.356Z" transform="translate(-12.161 -4.517)" fill="#f9d161"/>
      <path id="Trazado_1184480" data-name="Trazado 1184480" d="M47.135,14,45.83,16.61H38V34.881a1.305,1.305,0,0,0,1.305,1.305H51.051V14Z" transform="translate(-12.856 -4.517)" fill="#fbe47f"/>
      <path id="Trazado_1184481" data-name="Trazado 1184481" d="M36,27H50.356v5.873H36Z" transform="translate(-12.161 -9.034)" fill="#f5b94c"/>
      <path id="Trazado_1184482" data-name="Trazado 1184482" d="M36,18H50.356v5.873H36Z" transform="translate(-12.161 -5.907)" fill="#bc9834"/>
      <path id="Trazado_1184483" data-name="Trazado 1184483" d="M47.135,14,45.83,16.61H38v5.873H51.051V14Z" transform="translate(-12.856 -4.517)" fill="#e7b541"/>
      <path id="Trazado_1184484" data-name="Trazado 1184484" d="M47.135,23,45.83,25.61H38v5.873H51.051V23Z" transform="translate(-12.856 -7.644)" fill="#f9d161"/>
      <path id="Trazado_1184485" data-name="Trazado 1184485" d="M50,34.61,51.305,32H55.22v2.61" transform="translate(-17.026 -10.771)" fill="#fbe47f"/>
      <path id="Trazado_1184486" data-name="Trazado 1184486" d="M38.847,1H3.61A2.61,2.61,0,0,0,1,3.61V38.847a2.61,2.61,0,0,0,2.61,2.61H38.847a2.61,2.61,0,0,0,2.61-2.61V3.61A2.61,2.61,0,0,0,38.847,1Zm1.305,2.61H38.847V2.305A1.305,1.305,0,0,1,40.152,3.61Zm-6.525,0V2.305h1.305V3.61Zm2.61-1.305h1.305V3.61H36.237Zm-32.627,0H32.322V3.61H2.305A1.305,1.305,0,0,1,3.61,2.305ZM20.576,9.483H4.915V8.178H20.576Zm-13.7,1.305h13.7V40.152H6.873ZM38.847,40.152H21.881V7.525a.653.653,0,0,0-.653-.653H4.263a.653.653,0,0,0-.653.653v2.61a.653.653,0,0,0,.653.653H5.568V40.152H3.61a1.305,1.305,0,0,1-1.305-1.305V4.915H40.152V38.847A1.305,1.305,0,0,1,38.847,40.152Z"/>
      <path id="Trazado_1184487" data-name="Trazado 1184487" d="M13.958,21a1.958,1.958,0,1,0,1.958,1.958A1.958,1.958,0,0,0,13.958,21Zm0,2.61a.653.653,0,1,1,.653-.653A.653.653,0,0,1,13.958,23.61Z" transform="translate(-3.822 -6.949)"/>
      <path id="Trazado_1184488" data-name="Trazado 1184488" d="M20,23h3.263v1.305H20Z" transform="translate(-6.602 -7.644)"/>
      <path id="Trazado_1184489" data-name="Trazado 1184489" d="M20,31h3.263v1.305H20Z" transform="translate(-6.602 -10.424)"/>
      <path id="Trazado_1184490" data-name="Trazado 1184490" d="M20,39h3.263v1.305H20Z" transform="translate(-6.602 -13.204)"/>
      <path id="Trazado_1184491" data-name="Trazado 1184491" d="M20,47h3.263v1.305H20Z" transform="translate(-6.602 -15.983)"/>
      <path id="Trazado_1184492" data-name="Trazado 1184492" d="M15.263,29h-2.61a.653.653,0,0,0-.653.653v2.61a.653.653,0,0,0,.653.653h2.61a.653.653,0,0,0,.653-.653v-2.61A.653.653,0,0,0,15.263,29Zm-.653,2.61H13.305V30.305H14.61Z" transform="translate(-3.822 -9.729)"/>
      <path id="Trazado_1184493" data-name="Trazado 1184493" d="M13.958,37a1.958,1.958,0,1,0,1.958,1.958A1.958,1.958,0,0,0,13.958,37Zm0,2.61a.653.653,0,1,1,.653-.653A.653.653,0,0,1,13.958,39.61Z" transform="translate(-3.822 -12.509)"/>
      <path id="Trazado_1184494" data-name="Trazado 1184494" d="M15.263,45h-2.61a.653.653,0,0,0-.653.653v2.61a.653.653,0,0,0,.653.653h2.61a.653.653,0,0,0,.653-.653v-2.61A.653.653,0,0,0,15.263,45Zm-.653,2.61H13.305V46.305H14.61Z" transform="translate(-3.822 -15.289)"/>
      <path id="Trazado_1184495" data-name="Trazado 1184495" d="M20,55h3.263v1.305H20Z" transform="translate(-6.602 -18.763)"/>
      <path id="Trazado_1184496" data-name="Trazado 1184496" d="M13.958,53a1.958,1.958,0,1,0,1.958,1.958A1.958,1.958,0,0,0,13.958,53Zm0,2.61a.653.653,0,1,1,.653-.653A.653.653,0,0,1,13.958,55.61Z" transform="translate(-3.822 -18.068)"/>
      <path id="Trazado_1184497" data-name="Trazado 1184497" d="M50.008,13H46.093a.653.653,0,0,0-.587.361L44.385,15.61H35.653a.653.653,0,0,0-.653.653V37.144a.653.653,0,0,0,.653.653H50.008a.653.653,0,0,0,.653-.653V13.653A.653.653,0,0,0,50.008,13ZM46.5,14.305h2.859V15.61H45.844Zm-1.708,2.61h4.568v1.958H46.093a.653.653,0,0,0-.587.361l-1.121,2.249h-8.08V16.915Zm1.305,7.83a.653.653,0,0,0-.587.361l-1.121,2.249h-8.08V22.788H49.356v1.958Zm3.263,1.305v1.305H45.844l.653-1.305Zm-3.512-4.568.653-1.305h2.859v1.305ZM36.305,36.491v-7.83H49.356v7.83Z" transform="translate(-11.814 -4.17)"/>
    </g>
  </g>
</svg>
