<svg xmlns="http://www.w3.org/2000/svg" width="100" height="100" viewBox="0 0 100 100">
  <g id="Grupo_1230843" data-name="Grupo 1230843" transform="translate(-180 -925)">
    <g id="Grupo_1212342" data-name="Grupo 1212342">
      <g id="Grupo_1198222" data-name="Grupo 1198222" transform="translate(0 -49)">
        <g id="Grupo_1112424" data-name="Grupo 1112424" transform="translate(16445.764 9993.525)">
          <g id="Grupo_1112415" data-name="Grupo 1112415" transform="translate(-16265.764 -9019.525)">
            <g id="Grupo_1098742" data-name="Grupo 1098742" transform="translate(0 0)">
              <g id="Rect치ngulo_400898" data-name="Rect치ngulo 400898" transform="translate(0.001 0)" fill="#ece69e" stroke="#908619" stroke-width="3">
                <rect width="100" height="100" rx="50" stroke="none"/>
                <rect x="1.5" y="1.5" width="97" height="97" rx="48.5" fill="none"/>
              </g>
              <g id="Rect치ngulo_400907" data-name="Rect치ngulo 400907" transform="translate(0 0)" fill="none" stroke="#908619" stroke-width="3">
                <rect width="100" height="100" rx="50" stroke="none"/>
                <rect x="1.5" y="1.5" width="97" height="97" rx="48.5" fill="none"/>
              </g>
            </g>
          </g>
        </g>
      </g>
    </g>
    <g id="reading_680607" transform="translate(116.72 935.735)">
      <path id="Trazado_1181176" data-name="Trazado 1181176" d="M144.411,283.715a5.4,5.4,0,0,0-1.582-1.979c-1.134-.886-1.059-.742-10.166-3.428h-16.6l.014-.009,0,0-8.566,2.527a5.6,5.6,0,0,0-3.669,4.268l-2.895,14.841h46.8C144.894,286.251,145.054,285.089,144.411,283.715Z" transform="translate(-11.148 -236.156)" fill="#4aa5d3"/>
      <path id="Trazado_1181177" data-name="Trazado 1181177" d="M111.36,287.482l-3.85,1.136a5.6,5.6,0,0,0-3.669,4.267l-2.895,14.841h4.939l2.895-16.507A5.537,5.537,0,0,1,111.36,287.482Z" transform="translate(-11.146 -243.95)" fill="#2594bf"/>
      <path id="Trazado_1181178" data-name="Trazado 1181178" d="M221.57,241.112v3.76l5.136,6.532,5.136-6.548v-.908h0v-.3h0v-.151h0v-.3h0V241.05A12.817,12.817,0,0,1,221.57,241.112Z" transform="translate(-113.504 -204.549)" fill="#eab883"/>
      <path id="Trazado_1181179" data-name="Trazado 1181179" d="M225.657,242.469a12.3,12.3,0,0,1-4.087-1.009v3.76l4.087,5.2Z" transform="translate(-113.504 -204.897)" fill="#e0a773"/>
      <path id="Trazado_1181180" data-name="Trazado 1181180" d="M157.363,27.566a3.885,3.885,0,0,1,4.424-3.412,17,17,0,0,0,13.786-3.694,1,1,0,0,1,1.525.276,4.882,4.882,0,0,0,3.861,2.634.6.6,0,0,1,.545.595c0,1.414,0,2.6,0,3.6a4.272,4.272,0,0,1,3.265.26c0-3.706,0-5.287-.023-5.67-.878-17.322-25.5-20.016-30.114-3.3-.57,2.071-.578,2.957-.565,8.972A4.277,4.277,0,0,1,157.363,27.566Z" transform="translate(-56.219 -6.487)" fill="#93482b"/>
      <path id="Trazado_1181181" data-name="Trazado 1181181" d="M162.138,18.859A14.654,14.654,0,0,1,173.056,8.081c-7.349-1.718-15.9,1.611-18.426,10.778-.57,2.071-.578,2.957-.565,8.972a4.277,4.277,0,0,1,3.3-.262,3.884,3.884,0,0,1,4.213-3.437A17.064,17.064,0,0,1,162.138,18.859Z" transform="translate(-56.219 -6.489)" fill="#873921"/>
      <g id="Grupo_1230837" data-name="Grupo 1230837" transform="translate(104.912 40.005)">
        <path id="Trazado_1181182" data-name="Trazado 1181182" d="M260.623,264.189l-5.136,6.851,4.631,1.751a1.006,1.006,0,0,0,1.547-.47l2.135-5.983Z" transform="translate(-247.197 -264.189)" fill="#2594bf"/>
        <path id="Trazado_1181183" data-name="Trazado 1181183" d="M203.9,264.291l5.136,6.835-4.608,1.751a1.006,1.006,0,0,1-1.547-.47l-2.135-5.983Z" transform="translate(-200.742 -264.276)" fill="#2594bf"/>
      </g>
      <g id="Grupo_1230838" data-name="Grupo 1230838" transform="translate(95.882 20.865)">
        <path id="Trazado_1181184" data-name="Trazado 1181184" d="M334.645,138.036c0,5.292.035,5.428-.112,6.6,2.569.906,5.35-.8,5.35-3.28C339.883,138.905,337.181,137.217,334.645,138.036Z" transform="translate(-305.242 -137.822)" fill="#eab883"/>
        <path id="Trazado_1181185" data-name="Trazado 1181185" d="M146.369,138.008c-2.545-.831-5.262.86-5.262,3.315,0,2.483,2.782,4.188,5.352,3.286C146.3,143.441,146.313,138.518,146.369,138.008Z" transform="translate(-141.107 -137.794)" fill="#eab883"/>
      </g>
      <g id="Grupo_1230839" data-name="Grupo 1230839" transform="translate(95.882 22.868)">
        <path id="Trazado_1181186" data-name="Trazado 1181186" d="M334.648,152.811a19.591,19.591,0,0,1-.116,3.017c2.569.905,5.35-.8,5.35-3.28a3.212,3.212,0,0,0-.385-1.526A4.1,4.1,0,0,1,334.648,152.811Z" transform="translate(-305.242 -151.022)" fill="#e0a773"/>
        <path id="Trazado_1181187" data-name="Trazado 1181187" d="M141.493,151.021a3.214,3.214,0,0,0-.384,1.526c0,2.483,2.782,4.188,5.352,3.286-.07-.513-.106-1.747-.121-3.015A4.108,4.108,0,0,1,141.493,151.021Z" transform="translate(-141.109 -151.021)" fill="#e0a773"/>
      </g>
      <path id="Trazado_1181188" data-name="Trazado 1181188" d="M149.961,340.574c-7.938-2.021-13.692.52-15.388.795a1.349,1.349,0,0,0-1.011,1.306v20.678a1.386,1.386,0,0,0,1.734,1.342l1.511-.391a28.507,28.507,0,0,1,15.219.309V341.1Z" transform="translate(-38.823 -288.345)" fill="#e6e6e6"/>
      <path id="Trazado_1181189" data-name="Trazado 1181189" d="M137.649,367.266V345.272a1.43,1.43,0,0,1,.138-.612c-1.518.36-2.618.737-3.214.833a1.349,1.349,0,0,0-1.011,1.306v20.678a1.386,1.386,0,0,0,1.734,1.342l1.511-.391c.387-.1.769-.188,1.146-.269A1.459,1.459,0,0,1,137.649,367.266Z" transform="translate(-38.823 -292.469)" fill="#ccc"/>
      <path id="Trazado_1181190" data-name="Trazado 1181190" d="M272.939,341.374l-2.974-.77a26.714,26.714,0,0,0-14.478.5v23.513l1.323-.337a28.763,28.763,0,0,1,15.407.419,1.386,1.386,0,0,0,1.734-1.342V342.68A1.349,1.349,0,0,0,272.939,341.374Z" transform="translate(-142.285 -288.35)" fill="#e6e6e6"/>
      <g id="Grupo_1230840" data-name="Grupo 1230840" transform="translate(113.202 51.8)">
        <path id="Trazado_1181191" data-name="Trazado 1181191" d="M259.614,342.079c-2.153.358-3.611.877-4.128.955v23.513l1.323-.337a28.106,28.106,0,0,1,2.8-.563Z" transform="translate(-255.486 -342.079)" fill="#ccc"/>
        <path id="Trazado_1181192" data-name="Trazado 1181192" d="M282.743,373.194v3.915a1.171,1.171,0,0,0,1.286,1.166,27.933,27.933,0,0,1,7.461.249,1.172,1.172,0,0,0,1.367-1.155v-3.856a1.172,1.172,0,0,0-.929-1.149,24.958,24.958,0,0,0-8.165-.334A1.171,1.171,0,0,0,282.743,373.194Z" transform="translate(-278.615 -367.333)" fill="#ccc"/>
      </g>
      <path id="Trazado_1181193" data-name="Trazado 1181193" d="M286.83,377.408V372.89a1.358,1.358,0,0,1,.487-1.042,24.956,24.956,0,0,0-3.554.185,1.17,1.17,0,0,0-1.02,1.164v3.915a1.171,1.171,0,0,0,1.286,1.166,27.925,27.925,0,0,1,3.019-.138A1.347,1.347,0,0,1,286.83,377.408Z" transform="translate(-165.413 -315.536)" fill="#bcbcbc"/>
      <path id="Trazado_1181194" data-name="Trazado 1181194" d="M229.256,342.246v23.567a38.29,38.29,0,0,1,3.972.875V343.175C231.506,342.752,230.778,342.509,229.256,342.246Z" transform="translate(-120.026 -290.421)" fill="#666"/>
      <path id="Trazado_1181195" data-name="Trazado 1181195" d="M199.288,93.837a.6.6,0,0,1,.545.595c0,10.172.007,8.685-.017,9.158-.691,13.639-20.077,15.759-23.71,2.6a11.434,11.434,0,0,1-.4-2.252c-.068-.854-.04-5.491-.04-5.477a3.883,3.883,0,0,1,4.447-3.838A17,17,0,0,0,193.9,90.927a1,1,0,0,1,1.525.276A4.881,4.881,0,0,0,199.288,93.837Z" transform="translate(-74.549 -76.954)" fill="#f7cf9c"/>
      <path id="Trazado_1181196" data-name="Trazado 1181196" d="M179.887,125.417c-.024-.47-.017,1-.017-9a3.882,3.882,0,0,0-4.2,3.865c0-.015-.028,4.622.04,5.477a11.454,11.454,0,0,0,.4,2.252,11.785,11.785,0,0,0,13.747,8.638A11.672,11.672,0,0,1,179.887,125.417Z" transform="translate(-74.547 -98.782)" fill="#eab883"/>
      <g id="Grupo_1230841" data-name="Grupo 1230841" transform="translate(88.869 63.31)">
        <path id="Trazado_1181197" data-name="Trazado 1181197" d="M368.392,426.258h-4.217a1.985,1.985,0,0,1-1.979-1.979v-4.217a1.985,1.985,0,0,1,1.979-1.979h4.217a1.985,1.985,0,0,1,1.979,1.979v4.217A1.985,1.985,0,0,1,368.392,426.258Z" transform="translate(-321.704 -418.084)" fill="#f7cf9c"/>
        <path id="Trazado_1181198" data-name="Trazado 1181198" d="M100.99,426.258H96.774a1.985,1.985,0,0,1-1.979-1.979v-4.217a1.985,1.985,0,0,1,1.979-1.979h4.217a1.985,1.985,0,0,1,1.979,1.979v4.217A1.985,1.985,0,0,1,100.99,426.258Z" transform="translate(-94.795 -418.084)" fill="#f7cf9c"/>
      </g>
      <g id="Grupo_1230842" data-name="Grupo 1230842" transform="translate(88.869 65.418)">
        <path id="Trazado_1181199" data-name="Trazado 1181199" d="M368.392,433.985h-4.217a1.985,1.985,0,0,1-1.979-1.979v4.087a1.985,1.985,0,0,0,1.979,1.979h4.217a1.985,1.985,0,0,0,1.979-1.979v-4.087A1.985,1.985,0,0,1,368.392,433.985Z" transform="translate(-321.704 -432.006)" fill="#eab883"/>
        <path id="Trazado_1181200" data-name="Trazado 1181200" d="M100.99,433.985H96.774a1.985,1.985,0,0,1-1.979-1.979v4.087a1.985,1.985,0,0,0,1.979,1.979h4.217a1.985,1.985,0,0,0,1.979-1.979v-4.087A1.985,1.985,0,0,1,100.99,433.985Z" transform="translate(-94.795 -432.006)" fill="#eab883"/>
      </g>
      <path id="Trazado_1181201" data-name="Trazado 1181201" d="M137.744,63c-.593-2.841-1.109-5.385-1.575-7.765a1.135,1.135,0,0,0-2.228.437c.4,2.021.829,4.162,1.312,6.5h-2.374V54.33a2.484,2.484,0,0,0-1.862-2.405l-2.974-.77a27.44,27.44,0,0,0-14.762.428,27.546,27.546,0,0,0-14.762-.428l-2.974.77a2.484,2.484,0,0,0-1.862,2.405v7.844H91.3l2.592-13.016a4.436,4.436,0,0,1,3-3.437l7.395-2.182c1.814,4.878,1.744,6.068,3.426,6.368a2.089,2.089,0,0,0,1.311-.187c.531-.263.974-.382,4.264-1.651,2.062.791,3.81,1.416,4.287,1.652a2.143,2.143,0,0,0,2.959-1.2l1.775-4.972c7.931,2.332,7.866,2.233,8.758,2.93,1.354,1.058,1.545,2.246,1.865,3.9a1.135,1.135,0,1,0,2.229-.432c-.432-2.23-.83-3.8-2.7-5.256-1.321-1.033-1.319-.9-10.375-3.572L119.552,39.4V37.665a12.408,12.408,0,0,0,6.622-8.634,4.916,4.916,0,0,0,5.562-4.637,4.5,4.5,0,0,0-1.974-3.691c0-3.394,0-4.7-.024-5.092C129.041,1.871,114-3.751,104.144,2.606a1.135,1.135,0,1,0,1.231,1.908c8.183-5.277,21.475-1.013,22.1,11.212.015.3.02,1.58.021,4.069a5.414,5.414,0,0,0-.994-.055c-.033-2.111.081-2.386-.12-2.9a1.732,1.732,0,0,0-1.452-1.089,3.529,3.529,0,0,1-2.241-1.054,4.6,4.6,0,0,1-.736-1,2.134,2.134,0,0,0-3.256-.588,15.8,15.8,0,0,1-12.886,3.434,5.032,5.032,0,0,0-5.432,3.21,5.436,5.436,0,0,0-1.318.038c0-4.643.054-5.4.527-7.121a14.974,14.974,0,0,1,2.255-4.8A1.135,1.135,0,1,0,100,6.548a17.235,17.235,0,0,0-2.6,5.52c-.6,2.174-.618,3.25-.607,8.64a4.5,4.5,0,0,0-1.963,3.686,4.924,4.924,0,0,0,5.587,4.639,12.777,12.777,0,0,0,6.6,8.7v1.682L104.518,41.1c-6.091,1.8-8.417,2.481-8.484,2.507a6.7,6.7,0,0,0-4.374,5.105L88.813,63.006a3.1,3.1,0,0,0-1,2.282v4.217a3.118,3.118,0,0,0,3.114,3.114h2.756v2.389a2.521,2.521,0,0,0,3.153,2.441c1.674-.429.642-.173,2.088-.531a1.135,1.135,0,0,0-.52-2.21c-1.43.353-.485.119-2.137.543a.25.25,0,0,1-.314-.243v-2.5a3.129,3.129,0,0,0,2.3-3.007c-.052-3.572.63-6.434-2.3-7.224V54.33c0-.3.243-.166,3.135-.977a23.9,23.9,0,0,1,9.086-.552V74.1a29.165,29.165,0,0,0-4.256-.144,1.135,1.135,0,1,0,.09,2.269c5.4-.214,8.509,1.171,9.264,1.177.816.009,6.763-2.461,14.944-.344a10.02,10.02,0,0,0,2.149.473,2.522,2.522,0,0,0,2.515-2.523V72.62h2.756a3.118,3.118,0,0,0,3.114-3.114V65.288A3.1,3.1,0,0,0,137.744,63Zm-19.3-15.4c-.12-.063,0,0-3.348-1.276l3.581-4.776,1.552,1.049Zm8.031-20.825c.035-.631.021-4.13.024-4.763a2.651,2.651,0,0,1,2.968,2.379A3.062,3.062,0,0,1,126.474,26.779ZM98.082,22.573a3.09,3.09,0,0,1,1.978-.562c-.023,3.587.029,4.755.029,4.773C97.439,26.956,96.015,24.072,98.082,22.573Zm4.647,6.359c-.585-2.127-.4-3.762-.4-7.428a2.754,2.754,0,0,1,3.149-2.714,18.023,18.023,0,0,0,14.561-3.849,6,6,0,0,0,4.182,3.006c.006,2.593.036,8.463-.1,9.546C122.709,39.019,105.931,40.533,102.729,28.932Zm14.552,9.654v1.041l-4,5.337-4-5.323v-1A14.023,14.023,0,0,0,117.281,38.586Zm-9.4,2.98,3.58,4.765c-3.334,1.27-3.207,1.21-3.325,1.273l-1.785-5ZM90.082,69.5V65.288a.844.844,0,0,1,.843-.843h3.891c.112.024.823-.144,1.1.515.119.281.043.118.066,4.544a.844.844,0,0,1-.843.843H90.926A.844.844,0,0,1,90.082,69.5Zm20.361,4.93V53.213c.672.156.421.1,1.7.425v21.17C111.659,74.686,111.012,74.541,110.443,74.435Zm20.067.772c-.426.33-6.8-2.732-16.1-.4V53.637a24.56,24.56,0,0,1,13.058-.284c2.893.811,3.134.674,3.134.977v7.951a3.125,3.125,0,0,0-2.277,2.619c-.044.354-.04,4.674,0,4.992a3.123,3.123,0,0,0,2.277,2.619C130.559,74.961,130.7,75.059,130.511,75.206Zm5.968-5.7a.844.844,0,0,1-.843.843h-4.217a.844.844,0,0,1-.843-.843V65.288a.844.844,0,0,1,.843-.843h4.217a.844.844,0,0,1,.843.843Z" transform="translate(0 0)"/>
      <path id="Trazado_1181202" data-name="Trazado 1181202" d="M288.145,367.147a2.316,2.316,0,0,0-1.833-2.261,26.054,26.054,0,0,0-8.536-.349,2.307,2.307,0,0,0-2.016,2.291v3.915a2.306,2.306,0,0,0,2.535,2.3,26.788,26.788,0,0,1,7.158.239A2.308,2.308,0,0,0,288.146,371v-3.856Zm-2.284,3.884a.032.032,0,0,1-.03.008,29.077,29.077,0,0,0-7.764-.259.026.026,0,0,1-.024-.008.034.034,0,0,1-.013-.028v-3.915a.037.037,0,0,1,.025-.037,23.785,23.785,0,0,1,7.793.319.038.038,0,0,1,.025.037C285.875,371.289,285.882,371.014,285.862,371.031Z" transform="translate(-159.489 -309.167)"/>
    </g>
  </g>
</svg>
