<svg xmlns="http://www.w3.org/2000/svg" xmlns:xlink="http://www.w3.org/1999/xlink" width="127" height="281.437" viewBox="0 0 127 281.437">
  <defs>
    <clipPath id="clip-path">
      <rect id="Rect치ngulo_408749" data-name="Rect치ngulo 408749" width="127" height="281.437" rx="12" transform="translate(180.949 5817)" fill="#6ab4a8"/>
    </clipPath>
  </defs>
  <g id="Enmascarar_grupo_1098798" data-name="Enmascarar grupo 1098798" transform="translate(-180.949 -5817)" clip-path="url(#clip-path)">
    <g id="Grupo_1230899" data-name="Grupo 1230899">
      <rect id="Rect치ngulo_408749-2" data-name="Rect치ngulo 408749" width="127" height="281.437" rx="12" transform="translate(180.949 5817)" fill="#6ab4a8"/>
      <g id="slider_1324262" transform="translate(203.566 5922.584)">
        <path id="Trazado_1184571" data-name="Trazado 1184571" d="M17.985,330a7.985,7.985,0,0,0,0,15.97h62.6V330Zm0,0" transform="translate(-8.403 -277.299)" fill="#ff644f"/>
        <path id="Trazado_1184572" data-name="Trazado 1184572" d="M122.6,170H60v15.97h62.6a7.985,7.985,0,0,0,0-15.97Zm0,0" transform="translate(-50.418 -142.851)" fill="#9de2eb"/>
        <path id="Trazado_1184573" data-name="Trazado 1184573" d="M17.985,10a7.985,7.985,0,0,0,0,15.97h62.6V10Zm0,0" transform="translate(-8.403 -8.403)" fill="#ff644f"/>
        <g id="Grupo_1230898" data-name="Grupo 1230898" transform="translate(1.597 1.597)">
          <path id="Trazado_1184574" data-name="Trazado 1184574" d="M409.985,10A7.985,7.985,0,1,1,402,17.985,7.986,7.986,0,0,1,409.985,10Zm0,0" transform="translate(-339.398 -10)" fill="#ececf1"/>
          <path id="Trazado_1184575" data-name="Trazado 1184575" d="M409.985,330A7.985,7.985,0,1,1,402,337.985,7.986,7.986,0,0,1,409.985,330Zm0,0" transform="translate(-339.398 -278.896)" fill="#ececf1"/>
          <path id="Trazado_1184576" data-name="Trazado 1184576" d="M17.985,170A7.985,7.985,0,1,1,10,177.985,7.986,7.986,0,0,1,17.985,170Zm0,0" transform="translate(-10 -144.448)" fill="#ececf1"/>
        </g>
        <path id="Trazado_1184577" data-name="Trazado 1184577" d="M313.6,50a1.6,1.6,0,1,0,1.6,1.6A1.6,1.6,0,0,0,313.6,50Zm0,0" transform="translate(-262.174 -42.015)"/>
        <path id="Trazado_1184578" data-name="Trazado 1184578" d="M313.6,370a1.6,1.6,0,1,0,1.6,1.6A1.6,1.6,0,0,0,313.6,370Zm0,0" transform="translate(-262.174 -310.911)"/>
        <path id="Trazado_1184579" data-name="Trazado 1184579" d="M181.6,210a1.6,1.6,0,1,0,1.6,1.6A1.6,1.6,0,0,0,181.6,210Zm0,0" transform="translate(-151.254 -176.463)"/>
        <path id="Trazado_1184580" data-name="Trazado 1184580" d="M72.184,160H9.582a9.582,9.582,0,0,0,0,19.164h62.6a9.582,9.582,0,1,0,0-19.164Zm-68.99,9.582a6.388,6.388,0,1,1,6.388,6.388A6.4,6.4,0,0,1,3.194,169.582Zm68.99,6.388H16.716a9.559,9.559,0,0,0,0-12.776H72.184a6.388,6.388,0,0,1,0,12.776Zm0,0" transform="translate(0 -134.448)"/>
        <path id="Trazado_1184581" data-name="Trazado 1184581" d="M252.259,210H221.6a1.6,1.6,0,1,0,0,3.194h30.662a1.6,1.6,0,0,0,0-3.194Zm0,0" transform="translate(-184.866 -176.463)"/>
        <path id="Trazado_1184582" data-name="Trazado 1184582" d="M112.259,50H81.6a1.6,1.6,0,1,0,0,3.194h30.662a1.6,1.6,0,0,0,0-3.194Zm0,0" transform="translate(-67.224 -42.015)"/>
        <path id="Trazado_1184583" data-name="Trazado 1184583" d="M112.259,370H81.6a1.6,1.6,0,1,0,0,3.194h30.662a1.6,1.6,0,1,0,0-3.194Zm0,0" transform="translate(-67.224 -310.911)"/>
        <path id="Trazado_1184584" data-name="Trazado 1184584" d="M72.184,320H9.582a9.582,9.582,0,1,0,0,19.164h62.6a9.582,9.582,0,1,0,0-19.164Zm-68.99,9.582a6.389,6.389,0,0,1,6.388-6.39H65.05a9.561,9.561,0,0,0,0,12.778H9.582A6.4,6.4,0,0,1,3.194,329.582Zm68.99,6.388a6.388,6.388,0,1,1,6.388-6.388A6.4,6.4,0,0,1,72.184,335.97Zm0,0" transform="translate(0 -268.896)"/>
        <path id="Trazado_1184585" data-name="Trazado 1184585" d="M72.184,0H9.582a9.582,9.582,0,0,0,0,19.164h62.6A9.582,9.582,0,1,0,72.184,0ZM3.194,9.582a6.389,6.389,0,0,1,6.388-6.39l55.468,0a9.559,9.559,0,0,0,0,12.776H9.582A6.4,6.4,0,0,1,3.194,9.582Zm68.99,6.388a6.388,6.388,0,1,1,6.388-6.388A6.4,6.4,0,0,1,72.184,15.97Zm0,0"/>
      </g>
    </g>
    <path id="Trazado_1184662" data-name="Trazado 1184662" d="M83,0A83,83,0,1,1,0,83,83,83,0,0,1,83,0Z" transform="translate(233 5999)" fill="#55a598"/>
    <g id="Elipse_12515" data-name="Elipse 12515" transform="translate(102 5778)" fill="none" stroke="#55a598" stroke-width="2">
      <circle cx="63" cy="63" r="63" stroke="none"/>
      <circle cx="63" cy="63" r="62" fill="none"/>
    </g>
  </g>
</svg>
