<svg xmlns="http://www.w3.org/2000/svg" width="126.838" height="119" viewBox="0 0 126.838 119">
  <g id="Grupo_1231067" data-name="Grupo 1231067" transform="translate(-4534.714 -9302.129)">
    <g id="Grupo_1230732" data-name="Grupo 1230732" transform="translate(4544.552 9302.129)">
      <g id="Grupo_1230660" data-name="Grupo 1230660" transform="translate(0)">
        <rect id="Rect치ngulo_423318" data-name="Rect치ngulo 423318" width="94" height="55" rx="12" transform="translate(0 39)" fill="#497d74"/>
        <rect id="Rect치ngulo_423319" data-name="Rect치ngulo 423319" width="74" height="119" rx="12" transform="translate(43)" fill="#345953"/>
      </g>
    </g>
    <g id="radar_657232" transform="translate(4574.528 9309.123) rotate(30)">
      <g id="Grupo_1231066" data-name="Grupo 1231066" transform="translate(35.05 17.189)">
        <path id="Trazado_1184992" data-name="Trazado 1184992" d="M222.479,215.031a6.5,6.5,0,1,0,6.5,6.5,6.5,6.5,0,0,0-6.5-6.5" transform="translate(-215.98 -198.102)" fill="#ff9500"/>
        <path id="Trazado_1184993" data-name="Trazado 1184993" d="M324.412,114.8a46.374,46.374,0,0,0-3.542-6.466l-29.732,19.818.552,1.011Z" transform="translate(-279.213 -108.334)" fill="#ff9500"/>
      </g>
      <path id="Trazado_1184994" data-name="Trazado 1184994" d="M57.844,31.714,76.22,19.467c.682,1.131,1.3,2.249,1.852,3.373Zm-16.3,13.778a4.874,4.874,0,1,1,4.874-4.874,4.88,4.88,0,0,1-4.874,4.874ZM81.734,23a47.5,47.5,0,0,0-3.665-6.691,1.623,1.623,0,0,0-2.265-.468l-1.426.952A40.552,40.552,0,1,0,81.383,48.6a1.623,1.623,0,1,0-3.184-.634,37.474,37.474,0,1,1-6.525-29.378l-5.42,3.61a30.794,30.794,0,1,0,5.579,24.484,1.626,1.626,0,0,0-3.188-.64,27.732,27.732,0,1,1-5.1-22.041l-5.41,3.607a21.091,21.091,0,1,0,4.1,17.154,1.623,1.623,0,1,0-3.184-.63,17.9,17.9,0,1,1-3.62-14.723l-8.172,5.446a8.118,8.118,0,1,0,2.4,5.758,8.225,8.225,0,0,0-.179-1.683L80.9,25.147A1.639,1.639,0,0,0,81.734,23Z"/>
      <path id="Trazado_1184995" data-name="Trazado 1184995" d="M80.126,236.206l-1.787-.354a1.615,1.615,0,0,0-1.836,1.02,37.34,37.34,0,0,1-72.15-10.089,1.626,1.626,0,0,0-1.612-1.491h0a1.623,1.623,0,0,0-1.621,1.478c-.1,1.118-.169,2.239-.169,3.4A40.621,40.621,0,0,0,81.4,238.117a1.623,1.623,0,0,0-1.277-1.911" transform="translate(-0.017 -189.544)" opacity="0.24"/>
    </g>
  </g>
</svg>
