<svg xmlns="http://www.w3.org/2000/svg" xmlns:xlink="http://www.w3.org/1999/xlink" width="190" height="148" viewBox="0 0 190 148">
  <defs>
    <clipPath id="clip-path">
      <rect id="Rectángulo_423274" data-name="Rectángulo 423274" width="190" height="148" transform="translate(1230.126 2621)" fill="#fff" stroke="#707070" stroke-width="1"/>
    </clipPath>
  </defs>
  <g id="Enmascarar_grupo_1098788" data-name="Enmascarar grupo 1098788" transform="translate(-1230.126 -2621)" clip-path="url(#clip-path)">
    <g id="Grupo_1230615" data-name="Grupo 1230615" transform="translate(6.605 -3)">
      <g id="Grupo_1230614" data-name="Grupo 1230614" transform="translate(16)">
        <rect id="Rectángulo_423272" data-name="Rectángulo 423272" width="94" height="55" rx="12" transform="translate(1247.126 2681)" fill="#497d74"/>
        <rect id="Rectángulo_423273" data-name="Rectángulo 423273" width="74" height="119" rx="12" transform="translate(1290.126 2642)" fill="#345953"/>
      </g>
      <g id="map_13668324" transform="translate(1242.675 2635.866)">
        <path id="Trazado_900389" data-name="Trazado 900389" d="M117.525,441.6H42.839a.981.981,0,0,0-.378.074L34.042,445.2l-.006,0c-.013.006-.025.015-.038.021a1,1,0,0,0-.126.069c-.023.015-.042.034-.063.05s-.055.044-.08.069-.04.048-.059.071a.7.7,0,0,0-.059.073c-.023.036-.042.075-.061.113-.008.017-.019.032-.027.05v0a.932.932,0,0,0-.055.18c0,.025,0,.05-.008.076a.626.626,0,0,0,0,.218c0,.025,0,.052.008.076a.977.977,0,0,0,.055.18v0a1.163,1.163,0,0,0,.078.145l.025.034a1.017,1.017,0,0,0,.08.1l.034.036a1.111,1.111,0,0,0,.105.088l.027.021a1.156,1.156,0,0,0,.151.082l.013.006,8.425,3.525a.97.97,0,0,0,.369.074l.017,0h70.909l.017,0h0l3.748,0a.919.919,0,0,0,.327-.061.412.412,0,0,0,.046-.013c.013-.006.023-.013.036-.019a.951.951,0,0,0,.546-.862v-7.047a.955.955,0,0,0-.955-.955Zm-75.65,6.57-5-2.09,5-2.09Zm70.943.478H43.785v-1.612h69.033Zm0-3.523H43.785V443.51h69.033Zm3.752,3.523h-1.842l0-2.568,0-2.569h1.842Z" transform="translate(0 -338.228)" fill="#23130d"/>
        <path id="Trazado_900390" data-name="Trazado 900390" d="M460.743,451.6v5.137H458.9l0-2.568,0-2.569Z" transform="translate(-344.174 -346.318)" fill="#ec7063"/>
        <path id="Trazado_900391" data-name="Trazado 900391" d="M460.743,466v2.386H458.9l0-1.193,0-1.193Z" transform="translate(-344.174 -357.967)" opacity="0.2"/>
        <path id="Trazado_900392" data-name="Trazado 900392" d="M87.55,470.05h69.033v1.612H87.55Z" transform="translate(-43.765 -361.243)" fill="#f9c139"/>
        <path id="Trazado_900393" data-name="Trazado 900393" d="M87.55,470.05h69.033v1.612H87.55Z" transform="translate(-43.765 -361.243)" opacity="0.2"/>
        <path id="Trazado_900394" data-name="Trazado 900394" d="M87.55,451.6h69.033v1.614H87.55Z" transform="translate(-43.765 -346.318)" fill="#f9c139"/>
        <path id="Trazado_900395" data-name="Trazado 900395" d="M56.4,454.11v4.18l-5-2.09Z" transform="translate(-14.521 -348.348)" fill="#e1e1e5"/>
        <path id="Trazado_900396" data-name="Trazado 900396" d="M56.4,462.674v1.433l-5-2.09,1.712-.716Z" transform="translate(-14.521 -354.165)" opacity="0.2"/>
        <path id="Trazado_900397" data-name="Trazado 900397" d="M117.525,350.29H34.405a.956.956,0,0,0-.955.955v12.293a.954.954,0,0,0,.955.955h83.12a.954.954,0,0,0,.955-.955V351.245A.956.956,0,0,0,117.525,350.29Zm-.955,12.293H35.36V352.2h3.989v5.192a.955.955,0,1,0,1.91,0V352.2h3.185v2.7a.955.955,0,0,0,1.91,0v-2.7h3.185v5.192a.955.955,0,1,0,1.91,0V352.2h3.183v2.7a.955.955,0,0,0,1.91,0v-2.7h3.185v5.192a.955.955,0,1,0,1.91,0V352.2h3.185v2.7a.955.955,0,0,0,1.91,0v-2.7h3.183v5.192a.955.955,0,1,0,1.91,0V352.2H75.01v2.7a.955.955,0,0,0,1.91,0v-2.7H80.1v5.192a.955.955,0,1,0,1.91,0V352.2H85.2v2.7a.955.955,0,0,0,1.91,0v-2.7h3.185v5.192a.955.955,0,1,0,1.91,0V352.2h3.183v2.7a.955.955,0,0,0,1.91,0v-2.7h3.185v5.192a.955.955,0,1,0,1.91,0V352.2h3.185v2.7a.955.955,0,0,0,1.91,0v-2.7h3.185v5.192a.955.955,0,1,0,1.91,0V352.2h3.989Z" transform="translate(0 -264.362)" fill="#23130d"/>
        <path id="Trazado_900398" data-name="Trazado 900398" d="M124.659,360.29v10.383H43.45V360.29h3.989v5.192a.955.955,0,0,0,1.91,0V360.29h3.185v2.7a.955.955,0,1,0,1.91,0v-2.7h3.185v5.192a.955.955,0,0,0,1.91,0V360.29h3.183v2.7a.955.955,0,1,0,1.91,0v-2.7h3.185v5.192a.955.955,0,0,0,1.91,0V360.29h3.185v2.7a.955.955,0,1,0,1.91,0v-2.7H78v5.192a.955.955,0,0,0,1.91,0V360.29H83.1v2.7a.955.955,0,1,0,1.91,0v-2.7h3.183v5.192a.955.955,0,0,0,1.91,0V360.29h3.185v2.7a.955.955,0,1,0,1.91,0v-2.7h3.185v5.192a.955.955,0,0,0,1.91,0V360.29h3.183v2.7a.955.955,0,1,0,1.91,0v-2.7h3.185v5.192a.955.955,0,0,0,1.91,0V360.29h3.185v2.7a.955.955,0,1,0,1.91,0v-2.7h3.185v5.192a.955.955,0,0,0,1.91,0V360.29Z" transform="translate(-8.09 -272.451)" fill="#ec7063"/>
        <path id="Trazado_900399" data-name="Trazado 900399" d="M43.45,404.64h81.209v1.91H43.45Z" transform="translate(-8.09 -308.329)" opacity="0.2"/>
        <path id="Trazado_900400" data-name="Trazado 900400" d="M109.48,23.5a9.011,9.011,0,0,0-8.948,8.045H34.405a.956.956,0,0,0-.955.955V80.925a.956.956,0,0,0,.955.955H109.48a9.009,9.009,0,0,0,9-9V32.5a9.01,9.01,0,0,0-9-9Zm0,56.47H35.36V33.455h65.12V72.881a.959.959,0,0,0,.955.955.956.956,0,0,0,.955-.955,7.089,7.089,0,1,1,7.089,7.089Zm7.089-12.624a8.984,8.984,0,0,0-14.179,0V32.5a7.089,7.089,0,1,1,14.179,0Z" transform="translate(0)" fill="#23130d"/>
        <path id="Trazado_900401" data-name="Trazado 900401" d="M408.509,40.589V75.436a8.984,8.984,0,0,0-14.179,0V40.589a7.089,7.089,0,1,1,14.179,0Z" transform="translate(-291.939 -8.09)" fill="#636368"/>
        <path id="Trazado_900402" data-name="Trazado 900402" d="M431.119,40.589V75.436a9.071,9.071,0,0,0-3.5-2.718V40.589a7.1,7.1,0,0,0-5.337-6.87,7.088,7.088,0,0,1,8.839,6.87Z" transform="translate(-314.55 -8.09)" opacity="0.2"/>
        <path id="Trazado_900403" data-name="Trazado 900403" d="M117.57,107.947a7.1,7.1,0,0,0-7.089,7.089.956.956,0,0,1-.955.955.959.959,0,0,1-.955-.955V75.61H43.45v46.515h74.12a7.089,7.089,0,1,0,0-14.179ZM97.681,110.9a.956.956,0,0,1-.955.955H88.682v4.14a.956.956,0,0,1-.955.955H58.582a.956.956,0,0,1-.955-.955v-8.046H53.489a.956.956,0,0,1-.955-.955V83.263a.956.956,0,0,1,.955-.955H72.784a.956.956,0,0,1,.955.955v8.383h4.14a.956.956,0,0,1,.955.955v9a.956.956,0,0,1-.955.955h-4.14v12.48H86.771V110.9a.956.956,0,0,1,.955-.955h8.044v-7.385H84.055a.956.956,0,0,1-.955-.955V89.884a.956.956,0,0,1,.955-.955H96.726a.956.956,0,0,1,.955.955Z" transform="translate(-8.09 -42.155)" fill="#e1e1e5"/>
        <path id="Trazado_900404" data-name="Trazado 900404" d="M405.7,244.88a7.09,7.09,0,0,0-6.079,3.446,7.085,7.085,0,0,1,9.722,9.722A7.087,7.087,0,0,0,405.7,244.88Z" transform="translate(-296.219 -179.089)" opacity="0.2"/>
        <path id="Trazado_900405" data-name="Trazado 900405" d="M135.192,117.291H122.521a.956.956,0,0,0-.955.955v11.718a.956.956,0,0,0,.955.955h11.716v7.385h-8.045a.956.956,0,0,0-.955.955v4.14H112.2V130.92h4.14a.956.956,0,0,0,.955-.955v-9a.956.956,0,0,0-.955-.955H112.2v-8.383a.956.956,0,0,0-.955-.955H91.955a.956.956,0,0,0-.955.955v23.729a.956.956,0,0,0,.955.955h4.138v8.046a.956.956,0,0,0,.955.955h29.144a.956.956,0,0,0,.955-.955v-4.14h8.045a.956.956,0,0,0,.955-.955V118.246A.956.956,0,0,0,135.192,117.291Zm-24.9,12.673V143.4H98v-8.046a.956.956,0,0,0-.955-.955H92.91V112.58h17.384v8.383a.956.956,0,0,0,.955.955h4.14v7.091h-4.14A.956.956,0,0,0,110.295,129.965Zm23.942-.955H123.476V119.2h10.761Z" transform="translate(-46.556 -70.517)" fill="#23130d"/>
        <path id="Trazado_900406" data-name="Trazado 900406" d="M261,155.33h10.761v9.808H261Z" transform="translate(-184.08 -106.646)" fill="#3594bf"/>
        <path id="Trazado_900407" data-name="Trazado 900407" d="M123.479,130.008V137.1h-4.14a.956.956,0,0,0-.955.955V151.49H106.093v-8.046a.956.956,0,0,0-.955-.955H101V120.67h17.384v8.383a.956.956,0,0,0,.955.955Z" transform="translate(-54.646 -78.607)" fill="#3594bf"/>
        <g id="Grupo_1212350" data-name="Grupo 1212350" transform="translate(76.92 48.684)" opacity="0.2">
          <path id="Trazado_900408" data-name="Trazado 900408" d="M270.806,156.285v7.9h-8.851v-7.9Zm.955-.955H261v9.808h10.761Z" transform="translate(-261 -155.33)"/>
        </g>
        <g id="Grupo_1212351" data-name="Grupo 1212351" transform="translate(46.354 42.063)" opacity="0.2">
          <path id="Trazado_900409" data-name="Trazado 900409" d="M117.429,121.625v7.427a1.913,1.913,0,0,0,1.91,1.91h3.185v5.181h-3.185a1.913,1.913,0,0,0-1.91,1.91v12.48H107.048v-7.091a1.913,1.913,0,0,0-1.91-1.91h-3.183V121.625Zm.955-.955H101v21.818h4.138a.956.956,0,0,1,.955.955v8.046h12.291V138.054a.956.956,0,0,1,.955-.955h4.14v-7.091h-4.14a.956.956,0,0,1-.955-.955Z" transform="translate(-101 -120.67)"/>
        </g>
      </g>
    </g>
  </g>
</svg>
