<svg xmlns="http://www.w3.org/2000/svg" width="117" height="119" viewBox="0 0 117 119">
  <g id="Grupo_1231012" data-name="Grupo 1231012" transform="translate(-1140 -18927.781)">
    <g id="Grupo_1230724" data-name="Grupo 1230724" transform="translate(-123.126 16285.782)">
      <g id="Grupo_1230674" data-name="Grupo 1230674" transform="translate(16)">
        <rect id="Rect치ngulo_423331" data-name="Rect치ngulo 423331" width="94" height="55" rx="12" transform="translate(1247.126 2681)" fill="#497d74"/>
        <rect id="Rect치ngulo_423332" data-name="Rect치ngulo 423332" width="74" height="119" rx="12" transform="translate(1290.126 2642)" fill="#345953"/>
      </g>
    </g>
    <g id="Page-1" transform="translate(1157.142 18948.789)">
      <g id="_043---Click-and-Drag" data-name="043---Click-and-Drag" transform="translate(0.009 -0.008)">
        <path id="Shape" d="M52.409,57.862H45.846a1.486,1.486,0,0,0-1.5,1.48v13.47a3,3,0,0,1-2.99,2.99H17.441a3,3,0,0,1-2.99-2.99V59.357a1.5,1.5,0,0,0-1.5-1.5H6.392a5.355,5.355,0,0,1-4.336-8.537L18.412,27.2l6.653-9.015a5.391,5.391,0,0,1,8.671,0L40.389,27.2,56.745,49.325a5.355,5.355,0,0,1-4.336,8.537Z" transform="translate(0.487 6.435)" fill="#7f8e94"/>
        <path id="Shape-2" data-name="Shape" d="M27.99,45.486V58.95A3,3,0,0,1,25,61.94h4.485a3,3,0,0,0,2.99-2.99V45.486A1.5,1.5,0,0,1,33.97,44H29.485A1.5,1.5,0,0,0,27.99,45.486Z" transform="translate(12.362 20.297)" fill="#545c60"/>
        <path id="Shape-3" data-name="Shape" d="M48.092,49.324,25.078,18.185A5.4,5.4,0,0,0,18.5,16.5a5.309,5.309,0,0,1,2.093,1.689L43.6,49.324a5.357,5.357,0,0,1-4.336,8.534h4.485a5.357,5.357,0,0,0,4.342-8.534Z" transform="translate(9.145 6.439)" fill="#545c60"/>
        <path id="Shape-4" data-name="Shape" d="M43.881,19.939a18,18,0,0,1-6.952,14.188l-6.653-9.015a5.391,5.391,0,0,0-8.671,0l-6.653,9.015A17.94,17.94,0,1,1,43.881,19.939Z" transform="translate(3.947 -0.492)" fill="#ef314c"/>
        <path id="Shape-5" data-name="Shape" d="M15.687,18.182l-4.793,6.488A17.89,17.89,0,0,0,13.519,27.2l6.653-9.015a5.288,5.288,0,0,1,2.093-1.688,5.382,5.382,0,0,0-6.578,1.688Z" transform="translate(5.38 6.437)" fill="#bb193b"/>
        <path id="Shape-6" data-name="Shape" d="M20.743,2a17.892,17.892,0,0,0-2.243.15A17.915,17.915,0,0,1,29.871,31.6l1.86,2.527A17.94,17.94,0,0,0,20.743,2Z" transform="translate(9.145 -0.493)" fill="#bb193b"/>
        <path id="Shape-7" data-name="Shape" d="M71.837,18.676,59.891,27.631a1.5,1.5,0,0,1-2.392-1.2V21.95a1.5,1.5,0,0,0-1.5-1.5H31.83a17.716,17.716,0,0,0,0-5.98H56a1.5,1.5,0,0,0,1.5-1.5V8.5a1.5,1.5,0,0,1,2.392-1.2l11.945,8.955a1.5,1.5,0,0,1,0,2.422Z" transform="translate(15.743 1.982)" fill="#f44335"/>
        <path id="Shape-8" data-name="Shape" d="M63.337,16.254,51.392,7.3A1.5,1.5,0,0,0,49,8.5v.374l9.852,7.385a1.5,1.5,0,0,1,0,2.422L49,26.061v.374a1.5,1.5,0,0,0,2.392,1.2l11.945-8.955a1.5,1.5,0,0,0,0-2.422Z" transform="translate(24.243 1.982)" fill="#c81e1e"/>
        <path id="Shape-9" data-name="Shape" d="M88.486,18.034,76.541,9.077a2.99,2.99,0,0,0-4.784,2.392v4.485H48.789a19.423,19.423,0,1,0-31.91,18.888L1.341,55.871A6.853,6.853,0,0,0,6.888,66.785h6.563V80.24a4.485,4.485,0,0,0,4.485,4.485h23.92a4.485,4.485,0,0,0,4.485-4.485V66.785H52.9a6.853,6.853,0,0,0,5.547-10.914L42.913,34.842a19.23,19.23,0,0,0,5.9-9.918H71.756v4.485A2.99,2.99,0,0,0,76.541,31.8l11.926-8.942a2.99,2.99,0,0,0,.019-4.826Zm-32.1,43.631a3.827,3.827,0,0,1-3.48,2.13H46.341a2.99,2.99,0,0,0-2.99,2.981V80.24a1.5,1.5,0,0,1-1.5,1.5H17.936a1.5,1.5,0,0,1-1.5-1.5V66.785a2.99,2.99,0,0,0-2.99-2.99H6.888a3.826,3.826,0,0,1-3.48-2.132,3.776,3.776,0,0,1,.341-4.017L26.757,26.5a3.908,3.908,0,0,1,6.279,0L56.044,57.644a3.782,3.782,0,0,1,.341,4.02ZM41.136,32.434l-5.693-7.705a6.9,6.9,0,0,0-11.09,0l-5.695,7.707a16.445,16.445,0,1,1,22.476,0Zm33.611-3.024V24.924a2.99,2.99,0,0,0-2.99-2.99H49.246c.039-.5.085-.991.085-1.5s-.037-1-.076-1.5h22.5a2.99,2.99,0,0,0,2.99-2.99V11.469l11.945,8.985Z" transform="translate(-0.009 -0.992)"/>
      </g>
    </g>
  </g>
</svg>
