<svg xmlns="http://www.w3.org/2000/svg" xmlns:xlink="http://www.w3.org/1999/xlink" width="88" height="88" viewBox="0 0 88 88">
  <defs>
    <filter id="Trazado_896985" x="0" y="0" width="88" height="88" filterUnits="userSpaceOnUse">
      <feOffset dy="3" input="SourceAlpha"/>
      <feGaussianBlur stdDeviation="3" result="blur"/>
      <feFlood flood-opacity="0.161"/>
      <feComposite operator="in" in2="blur"/>
      <feComposite in="SourceGraphic"/>
    </filter>
  </defs>
  <g id="Grupo_1230941" data-name="Grupo 1230941" transform="translate(-1139.72 -16559.433)">
    <g id="Grupo_1212751" data-name="Grupo 1212751" transform="translate(942.753 7402.162)">
      <g id="Grupo_1212198" data-name="Grupo 1212198" transform="translate(205.967 9163.27)">
        <g id="Grupo_1200012" data-name="Grupo 1200012" transform="translate(0 0)">
          <g id="Grupo_1198723" data-name="Grupo 1198723" transform="translate(0 0)">
            <g id="Grupo_1198139" data-name="Grupo 1198139">
              <g id="Grupo_1111318" data-name="Grupo 1111318">
                <g id="Grupo_1109826" data-name="Grupo 1109826" transform="translate(0)">
                  <g id="Grupo_1098742" data-name="Grupo 1098742">
                    <g transform="matrix(1, 0, 0, 1, -9, -6)" filter="url(#Trazado_896985)">
                      <g id="Trazado_896985-2" data-name="Trazado 896985" transform="translate(9 6)" fill="#d0c110" opacity="0.859">
                        <path d="M 34.99995040893555 69.49998474121094 C 30.34226989746094 69.49998474121094 25.82417106628418 68.58788299560547 21.57117080688477 66.78900909423828 C 17.4630012512207 65.05139923095703 13.77338027954102 62.56376266479492 10.6048002243042 59.39518356323242 C 7.436220645904541 56.22661209106445 4.948580265045166 52.53699111938477 3.210970401763916 48.4288215637207 C 1.412100434303284 44.17582321166992 0.5000004172325134 39.65772247314453 0.5000004172325134 35.00004196166992 C 0.5000004172325134 30.34233283996582 1.412100434303284 25.82422256469727 3.210970401763916 21.57120323181152 C 4.948580265045166 17.46302223205566 7.436220645904541 13.77339267730713 10.6048002243042 10.60481262207031 C 13.77338027954102 7.436232566833496 17.46298980712891 4.948582172393799 21.57117080688477 3.210972309112549 C 25.82417106628418 1.412102341651917 30.34226036071777 0.500002384185791 34.99995040893555 0.500002384185791 C 39.65763092041016 0.500002384185791 44.17573165893555 1.412102341651917 48.42873001098633 3.210972309112549 C 52.53689956665039 4.948582172393799 56.22652053833008 7.436222553253174 59.39509963989258 10.60480213165283 C 62.56367874145508 13.77338218688965 65.05132293701172 17.46299171447754 66.78893280029297 21.57116317749023 C 68.58779907226562 25.82416152954102 69.49990081787109 30.34226226806641 69.49990081787109 34.99994277954102 C 69.49990081787109 39.65765380859375 68.58779907226562 44.17576217651367 66.78893280029297 48.42878341674805 C 65.05132293701172 52.53696060180664 62.56367874145508 56.22659301757812 59.39509963989258 59.39517211914062 C 56.22652053833008 62.56375122070312 52.53691101074219 65.05139923095703 48.42873001098633 66.78900909423828 C 44.17573165893555 68.58788299560547 39.65763854980469 69.49998474121094 34.99995040893555 69.49998474121094 Z" stroke="none"/>
                        <path d="M 34.99995040893555 1 C 30.40954208374023 1 25.95698165893555 1.898811340332031 21.76594161987305 3.671485900878906 C 17.71736907958984 5.383880615234375 14.08116912841797 7.835540771484375 10.95835113525391 10.9583625793457 C 7.835540771484375 14.08119201660156 5.383872985839844 17.71740341186523 3.671470642089844 21.76598358154297 C 1.898811340332031 25.95703125 1 30.40961074829102 1 35.00004196166992 C 1 39.5904541015625 1.898811340332031 44.04301452636719 3.671470642089844 48.23405456542969 C 5.383872985839844 52.28262329101562 7.835540771484375 55.9188117980957 10.95835113525391 59.04163360595703 C 14.08116912841797 62.16445159912109 17.71736907958984 64.61611175537109 21.76594161987305 66.32851409912109 C 25.95698165893555 68.10117340087891 30.40954208374023 68.99998474121094 34.99995040893555 68.99998474121094 C 39.59036254882812 68.99998474121094 44.04292297363281 68.10117340087891 48.23396301269531 66.32851409912109 C 52.28253173828125 64.61610412597656 55.91873168945312 62.16444396972656 59.04154968261719 59.04162216186523 C 62.16436004638672 55.91879272460938 64.61602783203125 52.2825927734375 66.32843017578125 48.23401260375977 C 68.10108947753906 44.04295349121094 68.99990081787109 39.59037017822266 68.99990081787109 34.99994277954102 C 68.99990081787109 30.40954208374023 68.10108947753906 25.95698165893555 66.32843017578125 21.76594161987305 C 64.61602783203125 17.71737289428711 62.16436004638672 14.08117294311523 59.04154968261719 10.95835113525391 C 55.91873168945312 7.835533142089844 52.28253173828125 5.383872985839844 48.23396301269531 3.671470642089844 C 44.04292297363281 1.898811340332031 39.59036254882812 1 34.99995040893555 1 M 34.99995040893555 0 C 54.32989120483398 0 69.99990081787109 15.67001342773438 69.99990081787109 34.99994277954102 L 69.99990081787109 35.00004196166992 C 69.99990081787109 54.32998275756836 54.32989120483398 69.99998474121094 34.99995040893555 69.99998474121094 C 15.67000961303711 69.99998474121094 0 54.32998275756836 0 35.00004196166992 L 0 34.99994277954102 C 0 15.67001342773438 15.67000961303711 0 34.99995040893555 0 Z" stroke="none" fill="#fff"/>
                      </g>
                    </g>
                    <g id="Rectángulo_400907" data-name="Rectángulo 400907" transform="translate(0)" fill="none" stroke="#fff" stroke-width="1">
                      <rect width="70" height="70" rx="35" stroke="none"/>
                      <rect x="0.5" y="0.5" width="69" height="69" rx="34.5" fill="none"/>
                    </g>
                  </g>
                </g>
              </g>
            </g>
          </g>
        </g>
      </g>
    </g>
    <g id="font_8590018" transform="translate(1092.768 16570.859)">
      <g id="Grupo_1230939" data-name="Grupo 1230939" transform="translate(74.862 7.498)">
        <path id="Trazado_1184755" data-name="Trazado 1184755" d="M107.72,7.5V44.894l-7.664,7.68H74.865V7.5Z" transform="translate(-74.865 -7.5)" fill="#fff"/>
        <path id="Trazado_1184756" data-name="Trazado 1184756" d="M102.089,50.531l-2.036,2.041H74.862V7.5H76.9V50.531Z" transform="translate(-74.862 -7.498)" fill="#c5d9ec"/>
        <path id="Trazado_1184757" data-name="Trazado 1184757" d="M357.178,416.579v.294l-7.664,7.68h-.31v-7.974Z" transform="translate(-324.323 -379.479)" fill="#c5d9ec"/>
        <path id="Trazado_1184758" data-name="Trazado 1184758" d="M122.314,67.117H105.107V71.9h3.413V70.53h4.337V84.436H109.83v3.413H119.3V84.436H116.27V70.53h4.337V71.9h3.413V67.117Z" transform="translate(-102.364 -61.71)" fill="#94b7f7"/>
      </g>
      <g id="Grupo_1230940" data-name="Grupo 1230940" transform="translate(74.862 7.498)">
        <path id="Trazado_1184759" data-name="Trazado 1184759" d="M74.865,30.16V7.5H107.72V34.436" transform="translate(-74.865 -7.5)" fill="none" stroke="#000" stroke-miterlimit="10" stroke-width="1.3"/>
        <path id="Trazado_1184760" data-name="Trazado 1184760" d="M107.72,277.136v9.052l-7.664,7.68H74.865V272.86" transform="translate(-74.865 -248.794)" fill="none" stroke="#000" stroke-miterlimit="10" stroke-width="1.3"/>
        <path id="Trazado_1184761" data-name="Trazado 1184761" d="M357.178,416.579v.294l-7.664,7.68h-.31v-7.974Z" transform="translate(-324.324 -379.479)" fill="none" stroke="#000" stroke-miterlimit="10" stroke-width="1.3"/>
        <path id="Trazado_1184762" data-name="Trazado 1184762" d="M354.418,71.914l2.379-2.379,2.379,2.379" transform="translate(-329.065 -63.909)" fill="none" stroke="#000" stroke-miterlimit="10" stroke-width="1.3"/>
        <path id="Trazado_1184763" data-name="Trazado 1184763" d="M122.314,67.117H105.107V71.9h3.413V70.53h4.337V84.436H109.83v3.413H119.3V84.436H116.27V70.53h4.337V71.9h3.413V67.117Z" transform="translate(-102.364 -61.71)" fill="none" stroke="#000" stroke-miterlimit="10" stroke-width="1.3"/>
        <path id="Trazado_1184764" data-name="Trazado 1184764" d="M359.177,266.917,356.8,269.3l-2.379-2.379" transform="translate(-329.065 -243.39)" fill="none" stroke="#000" stroke-miterlimit="10" stroke-width="1.3"/>
        <line id="Línea_563" data-name="Línea 563" y2="20.732" transform="translate(27.732 5.407)" fill="none" stroke="#000" stroke-miterlimit="10" stroke-width="1.3"/>
        <path id="Trazado_1184765" data-name="Trazado 1184765" d="M285.933,332.491l2.379,2.379-2.379,2.379" transform="translate(-266.791 -303.017)" fill="none" stroke="#000" stroke-miterlimit="10" stroke-width="1.3"/>
        <path id="Trazado_1184766" data-name="Trazado 1184766" d="M108.97,337.25l-2.379-2.379,2.379-2.379" transform="translate(-103.714 -303.017)" fill="none" stroke="#000" stroke-miterlimit="10" stroke-width="1.3"/>
        <line id="Línea_564" data-name="Línea 564" x1="18.644" transform="translate(2.877 31.853)" fill="none" stroke="#000" stroke-miterlimit="10" stroke-width="1.3"/>
        <line id="Línea_565" data-name="Línea 565" x1="1.339" transform="translate(4.776 42.362)" fill="none" stroke="#000" stroke-miterlimit="10" stroke-width="1.3"/>
        <line id="Línea_566" data-name="Línea 566" x1="1.406" transform="translate(2.04 42.362)" fill="none" stroke="#000" stroke-miterlimit="10" stroke-width="1.3"/>
      </g>
    </g>
  </g>
</svg>
