<svg xmlns="http://www.w3.org/2000/svg" xmlns:xlink="http://www.w3.org/1999/xlink" width="118" height="118" viewBox="0 0 118 118">
  <defs>
    <filter id="Trazado_896985" x="0" y="0" width="118" height="118" filterUnits="userSpaceOnUse">
      <feOffset dy="3" input="SourceAlpha"/>
      <feGaussianBlur stdDeviation="3" result="blur"/>
      <feFlood flood-opacity="0.161"/>
      <feComposite operator="in" in2="blur"/>
      <feComposite in="SourceGraphic"/>
    </filter>
  </defs>
  <g id="Grupo_1231022" data-name="Grupo 1231022" transform="translate(-617.84 -22457.468)">
    <g id="Grupo_1212718" data-name="Grupo 1212718" transform="translate(0.874 13300.198)">
      <g id="Grupo_1212199" data-name="Grupo 1212199" transform="translate(0.076 -8771.73)">
        <g id="Grupo_1200068" data-name="Grupo 1200068" transform="translate(-0.949 13650.111)">
          <g id="Grupo_1198724" data-name="Grupo 1198724" transform="translate(0.95 -182.434)">
            <g id="Grupo_1198140" data-name="Grupo 1198140" transform="translate(291 615.322)">
              <g id="Grupo_1111318" data-name="Grupo 1111318" transform="translate(334.891 3852)">
                <g id="Grupo_1109826" data-name="Grupo 1109826" transform="translate(0)">
                  <g id="Grupo_1098742" data-name="Grupo 1098742" transform="translate(0 0)">
                    <g transform="matrix(1, 0, 0, 1, -9, -6)" filter="url(#Trazado_896985)">
                      <g id="Trazado_896985-2" data-name="Trazado 896985" transform="translate(9 6)" fill="#d0c110" opacity="0.859">
                        <path d="M 49.99993515014648 99.5 C 43.31726837158203 99.5 36.83476257324219 98.19129943847656 30.73248100280762 95.61025238037109 C 24.83812141418457 93.11714172363281 19.54434776306152 89.54795837402344 14.99820137023926 85.00179290771484 C 10.45204162597656 80.45565032958984 6.88285493850708 75.16187286376953 4.389748573303223 69.26751708984375 C 1.808695197105408 63.16523742675781 0.5000017881393433 56.6827278137207 0.5000017881393433 50.00006103515625 C 0.5000017881393433 43.31726455688477 1.808695197105408 36.83475494384766 4.389748573303223 30.73247528076172 C 6.88285493850708 24.83811569213867 10.45204162597656 19.54434204101562 14.99820137023926 14.99819660186768 C 19.54434776306152 10.45203590393066 24.83812141418457 6.88284969329834 30.73248100280762 4.389742851257324 C 36.83476257324219 1.808689475059509 43.31726837158203 0.4999961853027344 49.99993515014648 0.4999961853027344 C 56.68260192871094 0.4999961853027344 63.16510772705078 1.808689475059509 69.26738739013672 4.389742851257324 C 75.16175079345703 6.88284969329834 80.45552062988281 10.45203590393066 85.00167083740234 14.99819660186768 C 89.54782867431641 19.54434204101562 93.11701202392578 24.83811569213867 95.61012268066406 30.73247528076172 C 98.19117736816406 36.83475494384766 99.49987030029297 43.31726455688477 99.49987030029297 49.99993133544922 C 99.49987030029297 56.6827278137207 98.19117736816406 63.16523742675781 95.61012268066406 69.26751708984375 C 93.11701202392578 75.16187286376953 89.54782867431641 80.45565032958984 85.00167083740234 85.00179290771484 C 80.45552062988281 89.54795837402344 75.16175079345703 93.11714172363281 69.26738739013672 95.61025238037109 C 63.16510772705078 98.19129943847656 56.68260192871094 99.5 49.99993515014648 99.5 Z" stroke="none"/>
                        <path d="M 49.99993515014648 0.9999923706054688 C 43.38454818725586 0.9999923706054688 36.96757507324219 2.29541015625 30.92725372314453 4.850250244140625 C 25.09249877929688 7.318145751953125 19.85213470458984 10.85135650634766 15.35174560546875 15.35174560546875 C 10.85136413574219 19.85212707519531 7.318145751953125 25.09249114990234 4.850257873535156 30.92724609375 C 2.295417785644531 36.96757125854492 1 43.38454437255859 1 50.00006103515625 C 1 56.61544799804688 2.295417785644531 63.03242111206055 4.850257873535156 69.07273864746094 C 7.318145751953125 74.90750122070312 10.85136413574219 80.14786529541016 15.35174560546875 84.64824676513672 C 19.85213470458984 89.14863586425781 25.09249877929688 92.68184661865234 30.92725372314453 95.14974212646484 C 36.96757507324219 97.70458221435547 43.38454818725586 99 49.99993515014648 99 C 56.61532211303711 99 63.03229522705078 97.70458221435547 69.07261657714844 95.14974212646484 C 74.90737915039062 92.68184661865234 80.14773559570312 89.14863586425781 84.64812469482422 84.64824676513672 C 89.14850616455078 80.14786529541016 92.68172454833984 74.90750122070312 95.14961242675781 69.07273864746094 C 97.70445251464844 63.03242111206055 98.99987030029297 56.61544799804688 98.99987030029297 49.99993133544922 C 98.99987030029297 43.38454437255859 97.70445251464844 36.96757125854492 95.14961242675781 30.92724609375 C 92.68172454833984 25.09249114990234 89.14850616455078 19.85212707519531 84.64812469482422 15.35174560546875 C 80.14773559570312 10.85135650634766 74.90737915039062 7.318145751953125 69.07261657714844 4.850250244140625 C 63.03229522705078 2.29541015625 56.61532211303711 0.9999923706054688 49.99993515014648 0.9999923706054688 M 49.99993515014648 -7.62939453125e-06 C 77.6141357421875 -7.62939453125e-06 99.99987030029297 22.38572692871094 99.99987030029297 49.99993133544922 L 99.99987030029297 50.00006103515625 C 99.99987030029297 77.61426544189453 77.6141357421875 100 49.99993515014648 100 C 22.38573455810547 100 0 77.61426544189453 0 50.00006103515625 L 0 49.99993133544922 C 0 22.38572692871094 22.38573455810547 -7.62939453125e-06 49.99993515014648 -7.62939453125e-06 Z" stroke="none" fill="#fff"/>
                      </g>
                    </g>
                    <g id="Rectángulo_400907" data-name="Rectángulo 400907" transform="translate(0)" fill="none" stroke="#fff" stroke-width="1">
                      <rect width="100" height="100" rx="50" stroke="none"/>
                      <rect x="0.5" y="0.5" width="99" height="99" rx="49.5" fill="none"/>
                    </g>
                  </g>
                </g>
              </g>
            </g>
          </g>
        </g>
      </g>
    </g>
    <g id="optimization_2103666" transform="translate(645.012 22483.012)">
      <path id="Trazado_1184837" data-name="Trazado 1184837" d="M61,53l-8,8V53Z" transform="translate(-0.02 -0.02)" fill="#6599ed"/>
      <path id="Trazado_1184838" data-name="Trazado 1184838" d="M60.977,3V52.98h-8v8H3V3Z" transform="translate(0 0)" fill="#71d2df"/>
      <path id="Trazado_1184839" data-name="Trazado 1184839" d="M25,26.55V39.995l-4-.67V32.068Z" transform="translate(-0.007 -0.01)" fill="#db535b"/>
      <path id="Trazado_1184840" data-name="Trazado 1184840" d="M21,32.07v7.257l-4.7-.78Z" transform="translate(-0.006 -0.012)" fill="#db535b"/>
      <path id="Trazado_1184841" data-name="Trazado 1184841" d="M29,24.439V40.663l-4-.67V26.549l2.739-3.769Z" transform="translate(-0.009 -0.008)" fill="#db535b"/>
      <path id="Trazado_1184842" data-name="Trazado 1184842" d="M37,34.94l6.158,8.087L37,42Z" transform="translate(-0.014 -0.013)" fill="#db535b"/>
      <path id="Trazado_1184843" data-name="Trazado 1184843" d="M33,29.688V41.323l-4-.66V24.44Z" transform="translate(-0.011 -0.009)" fill="#db535b"/>
      <path id="Trazado_1184844" data-name="Trazado 1184844" d="M37,34.938V42l-4-.67V29.69Z" transform="translate(-0.012 -0.011)" fill="#db535b"/>
      <g id="Grupo_1231021" data-name="Grupo 1231021" transform="translate(2 2)">
        <path id="Trazado_1184845" data-name="Trazado 1184845" d="M60.977,2H3A1,1,0,0,0,2,3V60.977a1,1,0,0,0,1,1H52.98a1,1,0,0,0,.707-.293l8-8a1,1,0,0,0,.293-.707V3A1,1,0,0,0,60.977,2ZM4,4H59.977V51.98h-7a1,1,0,0,0-1,1v7H4ZM58.564,53.98,53.98,58.564V53.98Z" transform="translate(-2 -2)" fill="#1a1a1a"/>
        <path id="Trazado_1184846" data-name="Trazado 1184846" d="M49.188,52.589l1.59-1.213-5.3-6.962,9.343,1.557L55.146,44,43.706,42.092,28.973,22.758,37.8,10.587,36.18,9.413,27.709,21.1,18.79,9.394,17.2,10.607l9.281,12.182L15.851,37.451,7.165,36l-.329,1.972,7.7,1.284L7.191,49.4l1.618,1.174,7.935-10.945L42.6,43.934Zm-15.2-19.948,2,2.624v5.542l-2-.333Zm-2,7.5-2-.333V27.393l2,2.624Zm-4-15.372V39.474l-2-.333V26.869l1.755-2.42Zm-4,14.04-2-.333V32.385l2-2.758Zm-4-3.667v3l-1.94-.323Zm17.993,6V37.889l2.838,3.725Z" transform="translate(-2.002 -2.003)" fill="#1a1a1a"/>
        <path id="Trazado_1184847" data-name="Trazado 1184847" d="M47,20H57v2H47Z" transform="translate(-2.018 -2.007)" fill="#1a1a1a"/>
        <path id="Trazado_1184848" data-name="Trazado 1184848" d="M47,24H57v2H47Z" transform="translate(-2.018 -2.009)" fill="#1a1a1a"/>
        <path id="Trazado_1184849" data-name="Trazado 1184849" d="M47,28H57v2H47Z" transform="translate(-2.018 -2.01)" fill="#1a1a1a"/>
        <path id="Trazado_1184850" data-name="Trazado 1184850" d="M55,32h2v2H55Z" transform="translate(-2.021 -2.012)" fill="#1a1a1a"/>
        <path id="Trazado_1184851" data-name="Trazado 1184851" d="M51,32h2v2H51Z" transform="translate(-2.019 -2.012)" fill="#1a1a1a"/>
        <path id="Trazado_1184852" data-name="Trazado 1184852" d="M47,32h2v2H47Z" transform="translate(-2.018 -2.012)" fill="#1a1a1a"/>
        <path id="Trazado_1184853" data-name="Trazado 1184853" d="M36,24H34v5a1,1,0,0,0,1,1h5V28H37.413l6-6H45V20H43a1,1,0,0,0-.707.293L36,26.583Z" transform="translate(-2.013 -2.007)" fill="#1a1a1a"/>
      </g>
    </g>
  </g>
</svg>
