<svg xmlns="http://www.w3.org/2000/svg" width="117" height="119" viewBox="0 0 117 119">
  <g id="Grupo_1230990" data-name="Grupo 1230990" transform="translate(-1139.754 -2335.386)">
    <g id="Grupo_1230639" data-name="Grupo 1230639" transform="translate(-123.373 -306.614)">
      <g id="Grupo_1230638" data-name="Grupo 1230638" transform="translate(16)">
        <rect id="Rect치ngulo_423296" data-name="Rect치ngulo 423296" width="94" height="55" rx="12" transform="translate(1247.126 2681)" fill="#497d74"/>
        <rect id="Rect치ngulo_423297" data-name="Rect치ngulo 423297" width="74" height="119" rx="12" transform="translate(1290.126 2642)" fill="#345953"/>
      </g>
    </g>
    <g id="Page-1" transform="translate(1157.476 2349.828)">
      <g id="_013---Click" data-name="013---Click" transform="translate(0 0)">
        <path id="Shape" d="M1,1V20.088a5.206,5.206,0,0,1,5.206,5.206V33.97H27.029V25.293A24.293,24.293,0,0,0,2.735,1Z" transform="translate(52.792 0.735)" fill="#02a9f4"/>
        <path id="Shape-2" data-name="Shape" d="M11.735,1a24.342,24.342,0,0,1,3.47.276V20.088a5.206,5.206,0,0,1,5.206,5.206V33.97H15.206V25.293A5.206,5.206,0,0,0,10,20.088V1Z" transform="translate(43.792 0.735)" fill="#0377bc"/>
        <path id="Shape-3" data-name="Shape" d="M16,25.293V33.97h5.206V23.853a5.428,5.428,0,0,1,4.928-5.5,5.206,5.206,0,0,1,5.483,5.206V33.97h5.206V25.293a5.206,5.206,0,0,1,5.206-5.206V1H40.293A24.293,24.293,0,0,0,16,25.293Z" transform="translate(11.764 0.735)" fill="#02a9f4"/>
        <path id="Shape-4" data-name="Shape" d="M21.275,11a5.206,5.206,0,0,1,5.483,5.206V26.62H21.553V16.209A5.206,5.206,0,0,0,19,11.737,4.885,4.885,0,0,1,21.275,11Z" transform="translate(21.828 8.084)" fill="#0377bc"/>
        <path id="Shape-5" data-name="Shape" d="M40.293,1h1.735v.276A24.293,24.293,0,0,0,21.364,22.6a5.594,5.594,0,0,0-.158,1.255V33.97H16V25.293A24.293,24.293,0,0,1,40.293,1Z" transform="translate(11.764 0.735)" fill="#0377bc"/>
        <path id="Shape-6" data-name="Shape" d="M28,20v5.206a5.206,5.206,0,0,1,5.206,5.206V20Z" transform="translate(-0.236 14.705)" fill="#0377bc"/>
        <path id="Shape-7" data-name="Shape" d="M13,17.206V27.617a5.206,5.206,0,0,0,10.411,0V17.206a5.206,5.206,0,0,0-10.411,0Z" transform="translate(35.587 8.823)" fill="#f5f5f5"/>
        <path id="Shape-8" data-name="Shape" d="M16.024,13.527a5.145,5.145,0,0,1,6.287-.805,5.263,5.263,0,0,0-1.081.805A5.194,5.194,0,0,0,19.7,17.206V27.617a5.174,5.174,0,0,0,2.6,4.486A5.174,5.174,0,0,1,14.5,27.617V17.206a5.194,5.194,0,0,1,1.527-3.679Z" transform="translate(34.09 8.823)" fill="#cfd8dc"/>
        <path id="Shape-9" data-name="Shape" d="M1,20l.017,27.764A1.735,1.735,0,0,0,3.69,49.221c5.362-3.418,9.839-5.4,16.71-4.928a5.206,5.206,0,0,1,.278,10.377,13.816,13.816,0,0,0-9.145,4.3,61.646,61.646,0,0,1-6.125,7.2c-.521.555-1.076,1.128-1.666,1.683a24.7,24.7,0,0,0,5.935.729h3.47A24.293,24.293,0,0,0,37.44,44.293V20H16.617v1.735a5.206,5.206,0,0,1-10.411,0V20Z" transform="translate(42.381 14.705)" fill="#02a9f4"/>
        <path id="Shape-10" data-name="Shape" d="M12.6,26.941a5.161,5.161,0,0,1-2.6-.72,5.174,5.174,0,0,0,2.6-4.486V20h5.206v1.735A5.206,5.206,0,0,1,12.6,26.941Z" transform="translate(46.395 14.705)" fill="#0377bc"/>
        <path id="Shape-11" data-name="Shape" d="M12.762,48.709a13.816,13.816,0,0,1,9.145-4.3,5.206,5.206,0,0,0,.279-10.292,25.575,25.575,0,0,1,4.649-.085,5.206,5.206,0,0,1,.278,10.377,13.816,13.816,0,0,0-9.145,4.3,61.647,61.647,0,0,1-6.125,7.2c-.521.555-1.076,1.128-1.666,1.683a24.869,24.869,0,0,0,5.157.68c-.319.012-.635.049-.958.049h-3.47a24.7,24.7,0,0,1-5.935-.729c.59-.555,1.145-1.128,1.666-1.683a61.646,61.646,0,0,0,6.125-7.2Z" transform="translate(41.151 24.969)" fill="#0377bc"/>
        <path id="Shape-12" data-name="Shape" d="M24.2,20v1.746L24.213,47.7c-.831.472-1.669.97-2.533,1.52a1.735,1.735,0,0,1-2.672-1.458L18.99,20Z" transform="translate(24.391 14.705)" fill="#0377bc"/>
        <path id="Shape-13" data-name="Shape" d="M7.971,42.237V68.266c0,6.941,0,10.411,3.47,15.617,1.006,1.51,1.718,2.724,2.238,3.7a3.609,3.609,0,0,1,1.232-.226H42.676a2.95,2.95,0,0,1,.4.017,16.467,16.467,0,0,1,5.64-9.908,27.518,27.518,0,0,0,3.644-2.985c.59-.555,1.145-1.128,1.666-1.683a61.646,61.646,0,0,0,6.125-7.2,13.816,13.816,0,0,1,9.145-4.3,5.206,5.206,0,0,0-.278-10.377c-6.872-.469-11.348,1.51-16.71,4.928a1.735,1.735,0,0,1-2.672-1.458L49.617,26.62V16.209A5.206,5.206,0,0,0,44.134,11a5.428,5.428,0,0,0-4.928,5.5V37.032a5.206,5.206,0,1,0-10.411,0v1.735a5.206,5.206,0,0,0-10.411,0v3.47a5.206,5.206,0,0,0-10.411,0Z" transform="translate(-6.236 8.084)" fill="#ffe0b2"/>
        <path id="Shape-14" data-name="Shape" d="M23.477,43.973V16.5A5.426,5.426,0,0,1,27.641,11.1a5.178,5.178,0,0,1,3.687.64A5.624,5.624,0,0,0,28.682,16.5v24a3.47,3.47,0,0,1-3.47,3.47Z" transform="translate(9.493 8.085)" fill="#dfc49c"/>
        <path id="Shape-15" data-name="Shape" d="M41.309,27.527a5.145,5.145,0,0,1,6.287-.805,5.263,5.263,0,0,0-1.081.805,5.194,5.194,0,0,0-1.527,3.679V57.234c0,6.941,0,10.411,3.47,15.617.934,1.4,1.605,2.537,2.114,3.47H46.723a3.609,3.609,0,0,0-1.232.226c-.521-.972-1.232-2.186-2.238-3.7-3.47-5.206-3.47-8.676-3.47-15.617V31.206a5.194,5.194,0,0,1,1.527-3.679Z" transform="translate(-38.047 19.116)" fill="#dfc49c"/>
        <path id="Shape-16" data-name="Shape" d="M26.167,55.018a2.948,2.948,0,0,0-.4-.017h.4Z" transform="translate(10.672 40.438)" fill="#dfc49c"/>
        <path id="Shape-17" data-name="Shape" d="M24,58.471a3.47,3.47,0,0,0,3.47,3.47H55.234a3.448,3.448,0,0,0,2.447-1.006A3.4,3.4,0,0,0,58.7,58.471a3.47,3.47,0,0,0-3.071-3.436v-.017a2.95,2.95,0,0,0-.4-.017H27.47a3.609,3.609,0,0,0-1.232.226A3.526,3.526,0,0,0,24,58.471Z" transform="translate(-18.794 40.438)" fill="#00bcd4"/>
        <path id="Shape-18" data-name="Shape" d="M40.024,56.024a3.366,3.366,0,0,1,1.215-.8A3.61,3.61,0,0,1,42.471,55h5.206a3.609,3.609,0,0,0-1.232.226,3.526,3.526,0,0,0-2.238,3.245,3.47,3.47,0,0,0,3.47,3.47H42.471A3.47,3.47,0,0,1,39,58.47,3.392,3.392,0,0,1,40.024,56.024Z" transform="translate(-33.794 40.438)" fill="#00838f"/>
        <g id="Grupo_1230989" data-name="Grupo 1230989">
          <path id="Shape-19" data-name="Shape" d="M55.528,85.027h-3.47a26.35,26.35,0,0,1-5.379-.6,28.361,28.361,0,0,1-3.137,2.509A13.937,13.937,0,0,0,38.9,94.364a5.188,5.188,0,0,1-2.459,9.75H8.676a5.19,5.19,0,0,1-3.543-9c-.416-.7-.868-1.426-1.371-2.186C0,87.295,0,83.409,0,76.35V50.322a6.941,6.941,0,0,1,10.826-5.747,6.861,6.861,0,0,1,10.994-2.988,6.941,6.941,0,0,1,4.208-3.158v-12.4A26.058,26.058,0,0,1,52.057,0h3.47A26.058,26.058,0,0,1,81.556,26.029V59A26.058,26.058,0,0,1,55.528,85.027ZM8.676,100.644H36.44a1.735,1.735,0,1,0,0-3.47H8.676a1.735,1.735,0,1,0,0,3.47ZM24.293,45.116v8.676a1.735,1.735,0,0,1-3.47,0V46.851a3.47,3.47,0,0,0-6.941,0v8.676a1.735,1.735,0,0,1-3.47,0V50.322a3.47,3.47,0,0,0-6.941,0V76.35c0,6.788,0,9.891,3.179,14.656.644.965,1.189,1.858,1.692,2.731.113,0,.22-.035.335-.035h26.8A17.561,17.561,0,0,1,41.5,84.116,30.449,30.449,0,0,0,46.515,79.7a52.469,52.469,0,0,0,4.63-5.275c.265-.378.573-.816,1.426-1.848a15.725,15.725,0,0,1,10.288-4.928,3.47,3.47,0,0,0-.2-6.918c-6.347-.422-10.4,1.3-15.671,4.666a3.47,3.47,0,0,1-5.329-2.926l-.017-38.18A3.47,3.47,0,0,0,38,20.823,3.691,3.691,0,0,0,34.7,24.6V52.057a1.735,1.735,0,1,1-3.47,0V45.116a3.47,3.47,0,0,0-6.941,0Zm6.941-5.974v-2.7H29.5v1.989a6.887,6.887,0,0,1,1.735.72ZM29.5,26.029V32.97h1.735V24.6a7.2,7.2,0,0,1,6.573-7.232,6.832,6.832,0,0,1,5.142,1.9,6.984,6.984,0,0,1,2.167,5.032V32.97h1.735V26.029a6.941,6.941,0,0,1,5.206-6.695V3.47A22.584,22.584,0,0,0,29.5,26.029Zm24.293-3.47a3.47,3.47,0,0,0-3.47,3.47V36.44a3.47,3.47,0,0,0,6.941,0V26.029A3.47,3.47,0,0,0,53.792,22.558ZM55.528,3.47V19.334a6.941,6.941,0,0,1,5.206,6.695V32.97H78.086V26.029A22.584,22.584,0,0,0,55.528,3.47ZM78.086,36.44H60.733a6.941,6.941,0,0,1-13.882,0H45.116l.014,26.029c5.751-3.665,10.5-5.683,17.753-5.2A6.941,6.941,0,0,1,63.249,71.1a12.348,12.348,0,0,0-8,3.684c-.76.918-1.031,1.3-1.267,1.638a46.59,46.59,0,0,1-4.317,4.978,22.558,22.558,0,0,0,2.391.151h3.47A22.584,22.584,0,0,0,78.086,59Z" transform="translate(0 0)"/>
          <path id="Shape-20" data-name="Shape" d="M39.941,10.47H34.735a1.735,1.735,0,1,1,0-3.47h5.206a1.735,1.735,0,1,1,0,3.47Z" transform="translate(-17.383 5.147)"/>
          <path id="Shape-21" data-name="Shape" d="M38.437,9.039a1.735,1.735,0,0,1-1.227-.508L33.53,4.85A1.735,1.735,0,1,1,35.984,2.4l3.68,3.68a1.735,1.735,0,0,1-1.227,2.962Z" transform="translate(-15.879 1.372)"/>
          <path id="Shape-22" data-name="Shape" d="M33.47,1.735V6.941a1.735,1.735,0,1,1-3.47,0V1.735a1.735,1.735,0,0,1,3.47,0Z" transform="translate(-3.971 0)"/>
        </g>
      </g>
    </g>
  </g>
</svg>
