<svg xmlns="http://www.w3.org/2000/svg" width="117" height="119" viewBox="0 0 117 119">
  <g id="Grupo_1231031" data-name="Grupo 1231031" transform="translate(-1140 -22965.312)">
    <g id="Grupo_1230753" data-name="Grupo 1230753" transform="translate(-123.126 20323.313)">
      <g id="Grupo_1230674" data-name="Grupo 1230674" transform="translate(16)">
        <rect id="Rectángulo_423331" data-name="Rectángulo 423331" width="94" height="55" rx="12" transform="translate(1247.126 2681)" fill="#497d74"/>
        <rect id="Rectángulo_423332" data-name="Rectángulo 423332" width="74" height="119" rx="12" transform="translate(1290.126 2642)" fill="#345953"/>
      </g>
    </g>
    <g id="seize_8496341" transform="translate(1144 22970)">
      <path id="Trazado_1184854" data-name="Trazado 1184854" d="M8,8H19.18V19.18H8Z" fill="#656d78"/>
      <path id="Trazado_1184855" data-name="Trazado 1184855" d="M19.18,20.18H8a1,1,0,0,1-1-1V8A1,1,0,0,1,8,7H19.18a1,1,0,0,1,1,1V19.18A1,1,0,0,1,19.18,20.18ZM9,18.18h9.18V9H9Z"/>
      <path id="Trazado_1184856" data-name="Trazado 1184856" d="M90.82,90.82H102V102H90.82Z" fill="#656d78"/>
      <path id="Trazado_1184857" data-name="Trazado 1184857" d="M102,103H90.82a1,1,0,0,1-1-1V90.82a1,1,0,0,1,1-1H102a1,1,0,0,1,1,1V102A1,1,0,0,1,102,103Zm-10.18-2H101V91.82H91.82Z"/>
      <path id="Trazado_1184858" data-name="Trazado 1184858" d="M90.82,8H102V19.18H90.82Z" fill="#656d78"/>
      <path id="Trazado_1184859" data-name="Trazado 1184859" d="M102,20.18H90.82a1,1,0,0,1-1-1V8a1,1,0,0,1,1-1H102a1,1,0,0,1,1,1V19.18A1,1,0,0,1,102,20.18Zm-10.18-2H101V9H91.82Z"/>
      <path id="Trazado_1184860" data-name="Trazado 1184860" d="M49.41,90.82H60.59V102H49.41Z" fill="#656d78"/>
      <path id="Trazado_1184861" data-name="Trazado 1184861" d="M60.59,103H49.41a1,1,0,0,1-1-1V90.82a1,1,0,0,1,1-1H60.59a1,1,0,0,1,1,1V102A1,1,0,0,1,60.59,103Zm-10.18-2h9.18V91.82H50.41Z"/>
      <path id="Trazado_1184862" data-name="Trazado 1184862" d="M49.41,8H60.59V19.18H49.41Z" fill="#656d78"/>
      <path id="Trazado_1184863" data-name="Trazado 1184863" d="M60.59,20.18H49.41a1,1,0,0,1-1-1V8a1,1,0,0,1,1-1H60.59a1,1,0,0,1,1,1V19.18A1,1,0,0,1,60.59,20.18Zm-10.18-2h9.18V9H50.41Z"/>
      <path id="Trazado_1184864" data-name="Trazado 1184864" d="M8,49.41H19.18V60.59H8Z" fill="#656d78"/>
      <path id="Trazado_1184865" data-name="Trazado 1184865" d="M19.18,61.59H8a1,1,0,0,1-1-1V49.41a1,1,0,0,1,1-1H19.18a1,1,0,0,1,1,1V60.59A1,1,0,0,1,19.18,61.59ZM9,59.59h9.18V50.41H9Z"/>
      <path id="Trazado_1184866" data-name="Trazado 1184866" d="M90.82,49.41H102V60.59H90.82Z" fill="#656d78"/>
      <path id="Trazado_1184867" data-name="Trazado 1184867" d="M102,61.59H90.82a1,1,0,0,1-1-1V49.41a1,1,0,0,1,1-1H102a1,1,0,0,1,1,1V60.59A1,1,0,0,1,102,61.59Zm-10.18-2H101V50.41H91.82Z"/>
      <path id="Trazado_1184868" data-name="Trazado 1184868" d="M8,90.82H19.18V102H8Z" fill="#656d78"/>
      <path id="Trazado_1184869" data-name="Trazado 1184869" d="M19.18,103H8a1,1,0,0,1-1-1V90.82a1,1,0,0,1,1-1H19.18a1,1,0,0,1,1,1V102A1,1,0,0,1,19.18,103ZM9,101h9.18V91.82H9Z"/>
      <path id="Trazado_1184870" data-name="Trazado 1184870" d="M19.17,14.58a1.014,1.014,0,0,1-.92-.61,1.23,1.23,0,0,1-.08-.39,1,1,0,0,1,.3-.7.93.93,0,0,1,.15-.13l.17-.09.2-.06a1.27,1.27,0,0,1,.39,0l.17.06.19.09.14.13a.93.93,0,0,1,.29.7.85.85,0,0,1-.07.39,1,1,0,0,1-.22.32.93.93,0,0,1-.31.22,1.09,1.09,0,0,1-.4.07Z"/>
      <path id="Trazado_1184871" data-name="Trazado 1184871" d="M45.38,13.58a1,1,0,1,1,1,1A1,1,0,0,1,45.38,13.58Zm-3,0a.415.415,0,1,1-.01,0Zm-3,0a.418.418,0,1,1-.04,0Zm-3,0a.42.42,0,1,1-.06,0Zm-3,0a.424.424,0,1,1-.09,0Zm-3,0a.428.428,0,1,1-.12,0Zm-3,0a.43.43,0,1,1-.13,0Zm-3,0a.435.435,0,1,1-.16,0Zm-3,0a.436.436,0,1,1-.17,0Z"/>
      <path id="Trazado_1184872" data-name="Trazado 1184872" d="M49.42,14.58a1,1,0,0,1-.71-.29.77.77,0,0,1-.22-.32.85.85,0,0,1-.07-.39.93.93,0,0,1,.29-.7.8.8,0,0,1,.32-.22.94.94,0,0,1,.57-.06l.19.06.17.09a.53.53,0,0,1,.16.13.978.978,0,0,1,0,1.41.83.83,0,0,1-.33.22,1,1,0,0,1-.37.07Z"/>
      <path id="Trazado_1184873" data-name="Trazado 1184873" d="M60.58,14.58a1,1,0,0,1-.37-.07.83.83,0,0,1-.33-.22.85.85,0,0,1-.21-.32.94.94,0,0,1,.21-1.09.83.83,0,0,1,.33-.22,1,1,0,0,1,.76,0,.8.8,0,0,1,.32.22.93.93,0,0,1,.29.7.85.85,0,0,1-.07.39,1.014,1.014,0,0,1-.93.61Z"/>
      <path id="Trazado_1184874" data-name="Trazado 1184874" d="M86.79,13.58a1,1,0,1,1,1,1A1,1,0,0,1,86.79,13.58Zm-3,0a.415.415,0,1,1-.01,0Zm-3,0a.418.418,0,1,1-.04,0Zm-3,0a.421.421,0,1,1-.07,0Zm-3,0a.423.423,0,1,1-.08,0Zm-3,0a.427.427,0,1,1-.11,0Zm-3,0a.43.43,0,1,1-.13,0Zm-3,0a.435.435,0,1,1-.16,0Zm-3,0a.436.436,0,1,1-.17,0Z"/>
      <path id="Trazado_1184875" data-name="Trazado 1184875" d="M90.83,14.58a1,1,0,0,1-.4-.07.93.93,0,0,1-.31-.22,1.24,1.24,0,0,1-.23-.32,1,1,0,0,1-.06-.39.93.93,0,0,1,.29-.7,1.005,1.005,0,0,1,1.71.7,1.23,1.23,0,0,1-.08.39.973.973,0,0,1-.92.61Z"/>
      <path id="Trazado_1184876" data-name="Trazado 1184876" d="M19.17,97.41a1.038,1.038,0,0,1-.92-.62,1.23,1.23,0,0,1-.08-.38,1,1,0,0,1,.3-.71.93.93,0,0,1,.15-.13l.17-.09.2-.06a1.28,1.28,0,0,1,.39,0l.17.06.19.09.14.13a1,1,0,0,1,.21.32.76.76,0,0,1,.08.39.83.83,0,0,1-.07.38,1,1,0,0,1-.22.32.83.83,0,0,1-.33.22,1,1,0,0,1-.38.08Z"/>
      <path id="Trazado_1184877" data-name="Trazado 1184877" d="M45.38,96.41a1,1,0,1,1,1,1A1,1,0,0,1,45.38,96.41Zm-3,0a.415.415,0,1,1-.01,0Zm-3,0a.418.418,0,1,1-.04,0Zm-3,0a.42.42,0,1,1-.06,0Zm-3,0a.424.424,0,1,1-.09,0Zm-3,0a.428.428,0,1,1-.12,0Zm-3,0a.43.43,0,1,1-.13,0Zm-3,0a.435.435,0,1,1-.16,0Zm-3,0a.436.436,0,1,1-.17,0Z"/>
      <path id="Trazado_1184878" data-name="Trazado 1184878" d="M49.42,97.41a1,1,0,0,1-.39-.08.8.8,0,0,1-.32-.22.77.77,0,0,1-.22-.32.84.84,0,0,1-.08-.38,1,1,0,0,1,.3-.71.86.86,0,0,1,.14-.13l.18-.09.18-.06a1,1,0,0,1,.91.28.85.85,0,0,1,.21.32.966.966,0,0,1,0,.77.85.85,0,0,1-.21.32.83.83,0,0,1-.33.22,1,1,0,0,1-.37.08Z"/>
      <path id="Trazado_1184879" data-name="Trazado 1184879" d="M60.59,97.41a1,1,0,0,1-.71-.3.85.85,0,0,1-.21-.32,1,1,0,0,1-.09-.38,1.06,1.06,0,0,1,.09-.39.85.85,0,0,1,.21-.32,1,1,0,0,1,.33-.22.94.94,0,0,1,.58-.06l.18.06.17.09a.64.64,0,0,1,.15.13,1,1,0,0,1,.29.71.83.83,0,0,1-.07.38,1.038,1.038,0,0,1-.92.62Z"/>
      <path id="Trazado_1184880" data-name="Trazado 1184880" d="M86.79,96.41a1,1,0,1,1,1,1A1,1,0,0,1,86.79,96.41Zm-3,0a.415.415,0,1,1-.01,0Zm-3,0a.418.418,0,1,1-.04,0Zm-3,0a.421.421,0,1,1-.07,0Zm-3,0a.423.423,0,1,1-.08,0Zm-3,0a.427.427,0,1,1-.11,0Zm-3,0a.43.43,0,1,1-.13,0Zm-3,0a.435.435,0,1,1-.16,0Zm-3,0a.436.436,0,1,1-.17,0Z"/>
      <path id="Trazado_1184881" data-name="Trazado 1184881" d="M90.83,97.41a1.1,1.1,0,0,1-.4-.08.93.93,0,0,1-.31-.22,1.24,1.24,0,0,1-.23-.32,1.265,1.265,0,0,1,0-.77,1.24,1.24,0,0,1,.23-.32l.14-.13.17-.09.19-.06a1.28,1.28,0,0,1,.39,0l.2.06.17.09a.93.93,0,0,1,.15.13,1,1,0,0,1,.3.71,1.23,1.23,0,0,1-.08.38,1.015,1.015,0,0,1-.92.62Z"/>
      <path id="Trazado_1184882" data-name="Trazado 1184882" d="M96.41,20.17A1,1,0,0,1,96,20.1a.91.91,0,0,1-.32-.22.84.84,0,0,1-.22-.32.88.88,0,0,1-.08-.39.84.84,0,0,1,.08-.38,1,1,0,0,1,.22-.32.91.91,0,0,1,.32-.22,1,1,0,0,1,1.09.22.85.85,0,0,1,.21.32.966.966,0,0,1,0,.77.93.93,0,0,1-.21.32.971.971,0,0,1-.68.29Z"/>
      <path id="Trazado_1184883" data-name="Trazado 1184883" d="M95.42,46.38a1,1,0,1,1,1,1A1,1,0,0,1,95.42,46.38Zm0-3a1.025,1.025,0,1,0,0-.02Zm0-3a1.052,1.052,0,1,0,0-.04Zm0-3a1.1,1.1,0,1,0,0-.07Zm0-3a1.13,1.13,0,1,0,0-.09Zm0-3a1.166,1.166,0,1,0,0-.11Zm0-3a1.227,1.227,0,1,0,0-.14Zm0-3a1.273,1.273,0,1,0,0-.16Zm0-3a1.324,1.324,0,1,0,0-.18Z"/>
      <path id="Trazado_1184884" data-name="Trazado 1184884" d="M96.42,50.4a1,1,0,0,1-1-1,.91.91,0,0,1,.08-.39,1,1,0,0,1,.22-.32.86.86,0,0,1,.14-.13l.18-.09a1,1,0,0,1,1.09.22.85.85,0,0,1,.21.32,1.1,1.1,0,0,1,.09.39,1.025,1.025,0,0,1-1.01,1Z"/>
      <path id="Trazado_1184885" data-name="Trazado 1184885" d="M96.42,61.58a1,1,0,0,1-1-1,.83.83,0,0,1,.07-.38,1,1,0,0,1,.22-.32.86.86,0,0,1,.14-.13,1.51,1.51,0,0,1,.18-.09,1.269,1.269,0,0,1,.18-.06,1,1,0,0,1,.91.28.85.85,0,0,1,.21.32.99.99,0,0,1-.91,1.38Z"/>
      <path id="Trazado_1184886" data-name="Trazado 1184886" d="M95.42,87.79a1,1,0,1,1,1,1A1,1,0,0,1,95.42,87.79Zm0-3a1.025,1.025,0,1,0,0-.02Zm0-3a1.052,1.052,0,1,0,0-.04Zm0-3a1.1,1.1,0,1,0,0-.07Zm0-3a1.13,1.13,0,1,0,0-.09Zm0-3a1.166,1.166,0,1,0,0-.11Zm0-3a1.227,1.227,0,1,0,0-.14Zm0-3a1.273,1.273,0,1,0,0-.16Zm0-3a1.324,1.324,0,1,0,0-.18Z"/>
      <path id="Trazado_1184887" data-name="Trazado 1184887" d="M96.42,91.82a1.005,1.005,0,0,1-.71-1.71,1.07,1.07,0,0,1,.32-.22,1,1,0,0,1,.57,0h.19A.69.69,0,0,1,97,90a.61.61,0,0,1,.16.12,1,1,0,0,1,0,1.41.83.83,0,0,1-.33.22A1,1,0,0,1,96.42,91.82Z"/>
      <path id="Trazado_1184888" data-name="Trazado 1184888" d="M13.58,20.17a.971.971,0,0,1-.7-.29.93.93,0,0,1-.21-.32,1.06,1.06,0,0,1-.09-.39,1,1,0,0,1,.09-.38.85.85,0,0,1,.21-.32,1.008,1.008,0,0,1,1.63.32.83.83,0,0,1,.07.38.87.87,0,0,1-.07.39,1.14,1.14,0,0,1-.22.32.91.91,0,0,1-.32.22A1,1,0,0,1,13.58,20.17Z"/>
      <path id="Trazado_1184889" data-name="Trazado 1184889" d="M12.58,46.38a1,1,0,1,1,1,1A1,1,0,0,1,12.58,46.38Zm0-3a1.025,1.025,0,1,0,0-.02Zm0-3a1.052,1.052,0,1,0,0-.04Zm0-3a1.1,1.1,0,1,0,0-.07Zm0-3a1.13,1.13,0,1,0,0-.09Zm0-3a1.166,1.166,0,1,0,0-.11Zm0-3a1.227,1.227,0,1,0,0-.14Zm0-3a1.273,1.273,0,1,0,0-.16Zm0-3a1.324,1.324,0,1,0,0-.18Z"/>
      <path id="Trazado_1184890" data-name="Trazado 1184890" d="M13.58,50.4a1,1,0,0,1-.37-.07.83.83,0,0,1-.33-.22,1,1,0,0,1-.3-.7,1.1,1.1,0,0,1,.09-.39.85.85,0,0,1,.21-.32,1,1,0,0,1,.91-.27h.18l.17.09a.64.64,0,0,1,.15.13,1,1,0,0,1,.22.32.91.91,0,0,1,.08.39,1,1,0,0,1-.3.7.8.8,0,0,1-.32.22A1,1,0,0,1,13.58,50.4Z"/>
      <path id="Trazado_1184891" data-name="Trazado 1184891" d="M13.58,61.58a.971.971,0,0,1-.91-1.38.85.85,0,0,1,.21-.32,1,1,0,0,1,1.63.32.83.83,0,0,1,.07.38.99.99,0,0,1-1,1Z"/>
      <path id="Trazado_1184892" data-name="Trazado 1184892" d="M12.59,87.79a1,1,0,1,1,1,1A1,1,0,0,1,12.59,87.79Zm0-3a1.025,1.025,0,1,0,0-.02Zm0-3a1.052,1.052,0,1,0,0-.04Zm0-3a1.1,1.1,0,1,0,0-.07Zm0-3a1.13,1.13,0,1,0,0-.09Zm0-3a1.166,1.166,0,1,0,0-.11Zm0-3a1.227,1.227,0,1,0,0-.14Zm0-3a1.273,1.273,0,1,0,0-.16Zm0-3a1.324,1.324,0,1,0,0-.18Z"/>
      <path id="Trazado_1184893" data-name="Trazado 1184893" d="M13.58,91.82a1,1,0,0,1-.37-.08.83.83,0,0,1-.33-.22,1,1,0,0,1-.3-.7,1.06,1.06,0,0,1,.3-.71,1.12,1.12,0,0,1,.33-.22,1,1,0,0,1,.58,0h.18a1,1,0,0,1,.17.1.44.44,0,0,1,.15.12,1,1,0,0,1,.29.71.94.94,0,0,1-.29.7,1,1,0,0,1-.71.3Z"/>
      <path id="Trazado_1184894" data-name="Trazado 1184894" d="M27,37a1,1,0,0,1-1-1V27a1,1,0,0,1,1-1h9a1,1,0,0,1,0,2H28v8A1,1,0,0,1,27,37Z"/>
      <path id="Trazado_1184895" data-name="Trazado 1184895" d="M80.74,81.74h-9a1,1,0,0,1,0-2h8v-8a1,1,0,0,1,2,0v9A1,1,0,0,1,80.74,81.74Z"/>
      <path id="Trazado_1184896" data-name="Trazado 1184896" d="M80.74,81.74a1,1,0,0,1-.71-.29L66.51,67.92a1,1,0,0,1,1.41-1.41L81.45,80a1.031,1.031,0,0,1-.71,1.74Z"/>
      <path id="Trazado_1184897" data-name="Trazado 1184897" d="M40.55,41.55a1,1,0,0,1-.71-.3L26.31,27.73a1,1,0,0,1,1.42-1.42L41.25,39.84a1.005,1.005,0,0,1-.7,1.71Z"/>
      <path id="Trazado_1184898" data-name="Trazado 1184898" d="M80.74,37a1,1,0,0,1-1-1V28h-8a1,1,0,0,1,0-2h9a1,1,0,0,1,1,1v9A1,1,0,0,1,80.74,37Z"/>
      <path id="Trazado_1184899" data-name="Trazado 1184899" d="M36,81.74H27a1,1,0,0,1-1-1v-9a1,1,0,0,1,2,0v8h8a1,1,0,0,1,0,2Z"/>
      <path id="Trazado_1184900" data-name="Trazado 1184900" d="M27,81.74a1,1,0,0,1-.71-1.71l7.59-7.57a1,1,0,0,1,1.76.65,1.05,1.05,0,0,1-.29.73L27.7,81.46a1,1,0,0,1-.7.28Z"/>
      <path id="Trazado_1184901" data-name="Trazado 1184901" d="M76,32.74a1,1,0,0,1-.71-1.71L80,26.31a1,1,0,0,1,1.42,1.42L76.7,32.45A1,1,0,0,1,76,32.74Z"/>
      <circle id="Elipse_12561" data-name="Elipse 12561" cx="11.97" cy="11.97" r="11.97" transform="matrix(0.16, -0.987, 0.987, 0.16, 35.159, 68.754)" fill="#fb836f"/>
      <g id="Grupo_1231029" data-name="Grupo 1231029" opacity="0.1">
        <path id="Trazado_1184902" data-name="Trazado 1184902" d="M60.87,58.87A12,12,0,0,1,46.19,70.53a12,12,0,0,0,0-23.33A12,12,0,0,1,60.87,58.87Z"/>
      </g>
      <path id="Trazado_1184903" data-name="Trazado 1184903" d="M48.9,71.84a13,13,0,1,1,13-13A13,13,0,0,1,48.9,71.84Zm0-24a10.975,10.975,0,1,1,0,.05Z"/>
      <rect id="Rectángulo_423499" data-name="Rectángulo 423499" width="21.94" height="21.94" rx="2.04" transform="translate(48.9 36.92)" fill="#b4df80"/>
      <g id="Grupo_1231030" data-name="Grupo 1231030" opacity="0.1">
        <path id="Trazado_1184904" data-name="Trazado 1184904" d="M70.84,39V56.82a2,2,0,0,1-2,2h-6.4a2,2,0,0,0,2-2V39a2,2,0,0,0-2-2h6.35A2.05,2.05,0,0,1,70.84,39Z"/>
      </g>
      <path id="Trazado_1184905" data-name="Trazado 1184905" d="M68.8,59.86H51a3,3,0,0,1-3.05-3V39A3.06,3.06,0,0,1,51,36H68.8a3,3,0,0,1,3,3V56.82a3,3,0,0,1-3,3.04ZM51,37.92a1,1,0,0,0-1.05,1v17.9a1,1,0,0,0,1.05,1H68.8a1,1,0,0,0,1-1V39a1,1,0,0,0-1-1Z"/>
    </g>
  </g>
</svg>
