<svg xmlns="http://www.w3.org/2000/svg" xmlns:xlink="http://www.w3.org/1999/xlink" width="118" height="118" viewBox="0 0 118 118">
  <defs>
    <filter id="Trazado_896985" x="0" y="0" width="118" height="118" filterUnits="userSpaceOnUse">
      <feOffset dy="3" input="SourceAlpha"/>
      <feGaussianBlur stdDeviation="3" result="blur"/>
      <feFlood flood-opacity="0.161"/>
      <feComposite operator="in" in2="blur"/>
      <feComposite in="SourceGraphic"/>
    </filter>
  </defs>
  <g id="Grupo_1231024" data-name="Grupo 1231024" transform="translate(-1037.84 -22455.468)">
    <g id="Grupo_1212202" data-name="Grupo 1212202" transform="translate(0.949 4528.468)">
      <g id="Grupo_1200070" data-name="Grupo 1200070" transform="translate(-0.949 13648.111)">
        <g id="Grupo_1198726" data-name="Grupo 1198726" transform="translate(0.95 -182.434)">
          <g id="Grupo_1198141" data-name="Grupo 1198141" transform="translate(711 615.322)">
            <g id="Grupo_1111318" data-name="Grupo 1111318" transform="translate(334.891 3852)">
              <g id="Grupo_1109826" data-name="Grupo 1109826" transform="translate(0)">
                <g id="Grupo_1098742" data-name="Grupo 1098742" transform="translate(0 0)">
                  <g transform="matrix(1, 0, 0, 1, -9, -6)" filter="url(#Trazado_896985)">
                    <g id="Trazado_896985-2" data-name="Trazado 896985" transform="translate(9 6)" fill="#d0c110" opacity="0.859">
                      <path d="M 49.99993515014648 99.5 C 43.31726837158203 99.5 36.83476257324219 98.19129943847656 30.73248100280762 95.61025238037109 C 24.83812141418457 93.11714172363281 19.54434776306152 89.54795837402344 14.99820137023926 85.00179290771484 C 10.45204162597656 80.45565032958984 6.88285493850708 75.16187286376953 4.389748573303223 69.26751708984375 C 1.808695197105408 63.16523742675781 0.5000017881393433 56.6827278137207 0.5000017881393433 50.00006103515625 C 0.5000017881393433 43.31726455688477 1.808695197105408 36.83475494384766 4.389748573303223 30.73247528076172 C 6.88285493850708 24.83811569213867 10.45204162597656 19.54434204101562 14.99820137023926 14.99819660186768 C 19.54434776306152 10.45203590393066 24.83812141418457 6.88284969329834 30.73248100280762 4.389742851257324 C 36.83476257324219 1.808689475059509 43.31726837158203 0.4999961853027344 49.99993515014648 0.4999961853027344 C 56.68260192871094 0.4999961853027344 63.16510772705078 1.808689475059509 69.26738739013672 4.389742851257324 C 75.16175079345703 6.88284969329834 80.45552062988281 10.45203590393066 85.00167083740234 14.99819660186768 C 89.54782867431641 19.54434204101562 93.11701202392578 24.83811569213867 95.61012268066406 30.73247528076172 C 98.19117736816406 36.83475494384766 99.49987030029297 43.31726455688477 99.49987030029297 49.99993133544922 C 99.49987030029297 56.6827278137207 98.19117736816406 63.16523742675781 95.61012268066406 69.26751708984375 C 93.11701202392578 75.16187286376953 89.54782867431641 80.45565032958984 85.00167083740234 85.00179290771484 C 80.45552062988281 89.54795837402344 75.16175079345703 93.11714172363281 69.26738739013672 95.61025238037109 C 63.16510772705078 98.19129943847656 56.68260192871094 99.5 49.99993515014648 99.5 Z" stroke="none"/>
                      <path d="M 49.99993515014648 0.9999923706054688 C 43.38454818725586 0.9999923706054688 36.96757507324219 2.29541015625 30.92725372314453 4.850250244140625 C 25.09249877929688 7.318145751953125 19.85213470458984 10.85135650634766 15.35174560546875 15.35174560546875 C 10.85136413574219 19.85212707519531 7.318145751953125 25.09249114990234 4.850257873535156 30.92724609375 C 2.295417785644531 36.96757125854492 1 43.38454437255859 1 50.00006103515625 C 1 56.61544799804688 2.295417785644531 63.03242111206055 4.850257873535156 69.07273864746094 C 7.318145751953125 74.90750122070312 10.85136413574219 80.14786529541016 15.35174560546875 84.64824676513672 C 19.85213470458984 89.14863586425781 25.09249877929688 92.68184661865234 30.92725372314453 95.14974212646484 C 36.96757507324219 97.70458221435547 43.38454818725586 99 49.99993515014648 99 C 56.61532211303711 99 63.03229522705078 97.70458221435547 69.07261657714844 95.14974212646484 C 74.90737915039062 92.68184661865234 80.14773559570312 89.14863586425781 84.64812469482422 84.64824676513672 C 89.14850616455078 80.14786529541016 92.68172454833984 74.90750122070312 95.14961242675781 69.07273864746094 C 97.70445251464844 63.03242111206055 98.99987030029297 56.61544799804688 98.99987030029297 49.99993133544922 C 98.99987030029297 43.38454437255859 97.70445251464844 36.96757125854492 95.14961242675781 30.92724609375 C 92.68172454833984 25.09249114990234 89.14850616455078 19.85212707519531 84.64812469482422 15.35174560546875 C 80.14773559570312 10.85135650634766 74.90737915039062 7.318145751953125 69.07261657714844 4.850250244140625 C 63.03229522705078 2.29541015625 56.61532211303711 0.9999923706054688 49.99993515014648 0.9999923706054688 M 49.99993515014648 -7.62939453125e-06 C 77.6141357421875 -7.62939453125e-06 99.99987030029297 22.38572692871094 99.99987030029297 49.99993133544922 L 99.99987030029297 50.00006103515625 C 99.99987030029297 77.61426544189453 77.6141357421875 100 49.99993515014648 100 C 22.38573455810547 100 0 77.61426544189453 0 50.00006103515625 L 0 49.99993133544922 C 0 22.38572692871094 22.38573455810547 -7.62939453125e-06 49.99993515014648 -7.62939453125e-06 Z" stroke="none" fill="#fff"/>
                    </g>
                  </g>
                  <g id="Rectángulo_400907" data-name="Rectángulo 400907" transform="translate(0)" fill="none" stroke="#fff" stroke-width="1">
                    <rect width="100" height="100" rx="50" stroke="none"/>
                    <rect x="0.5" y="0.5" width="99" height="99" rx="49.5" fill="none"/>
                  </g>
                </g>
              </g>
            </g>
          </g>
        </g>
      </g>
    </g>
    <g id="Page-1" transform="translate(1066.29 22480.938)">
      <g id="_039---Transform-Tool" data-name="039---Transform-Tool" transform="translate(0 0)">
        <g id="Icons_copy" transform="translate(0.709 1.09)">
          <rect id="Rectangle-path" width="9" height="8" rx="1" transform="translate(0.001 0.438)" fill="#02a9f4"/>
          <path id="Shape" d="M7.271,0H4A1.09,1.09,0,0,1,5.09,1.09V7.632A1.09,1.09,0,0,1,4,8.723H7.271a1.09,1.09,0,0,0,1.09-1.09V1.09A1.09,1.09,0,0,0,7.271,0Z" transform="translate(0.743)" fill="#0377bc"/>
          <rect id="Rectangle-path-2" data-name="Rectangle-path" width="9" height="8" rx="1" transform="translate(24.001 0.438)" fill="#02a9f4"/>
          <path id="Shape-2" data-name="Shape" d="M29.271,0H26a1.09,1.09,0,0,1,1.09,1.09V7.632A1.09,1.09,0,0,1,26,8.723h3.271a1.09,1.09,0,0,0,1.09-1.09V1.09A1.09,1.09,0,0,0,29.271,0Z" transform="translate(2.73)" fill="#0377bc"/>
          <rect id="Rectangle-path-3" data-name="Rectangle-path" width="9" height="8" rx="1" transform="translate(48.001 0.438)" fill="#02a9f4"/>
          <path id="Shape-3" data-name="Shape" d="M51.271,0H48a1.09,1.09,0,0,1,1.09,1.09V7.632A1.09,1.09,0,0,1,48,8.723h3.271a1.09,1.09,0,0,0,1.09-1.09V1.09A1.09,1.09,0,0,0,51.271,0Z" transform="translate(4.717)" fill="#0377bc"/>
          <rect id="Rectangle-path-4" data-name="Rectangle-path" width="9" height="8" rx="1" transform="translate(0.001 50.438)" fill="#02a9f4"/>
          <path id="Shape-4" data-name="Shape" d="M7.271,46H4a1.09,1.09,0,0,1,1.09,1.09v6.542A1.09,1.09,0,0,1,4,54.723H7.271a1.09,1.09,0,0,0,1.09-1.09V47.09A1.09,1.09,0,0,0,7.271,46Z" transform="translate(0.743 4.155)" fill="#0377bc"/>
          <rect id="Rectangle-path-5" data-name="Rectangle-path" width="9" height="8" rx="1" transform="translate(24.001 50.438)" fill="#02a9f4"/>
          <path id="Shape-5" data-name="Shape" d="M29.271,46H26a1.09,1.09,0,0,1,1.09,1.09v6.542A1.09,1.09,0,0,1,26,54.723h3.271a1.09,1.09,0,0,0,1.09-1.09V47.09A1.09,1.09,0,0,0,29.271,46Z" transform="translate(2.73 4.155)" fill="#0377bc"/>
          <rect id="Rectangle-path-6" data-name="Rectangle-path" width="9" height="8" rx="1" transform="translate(0.001 25.438)" fill="#02a9f4"/>
          <path id="Shape-6" data-name="Shape" d="M7.271,23H4a1.09,1.09,0,0,1,1.09,1.09v6.542A1.09,1.09,0,0,1,4,31.723H7.271a1.09,1.09,0,0,0,1.09-1.09V24.09A1.09,1.09,0,0,0,7.271,23Z" transform="translate(0.743 2.078)" fill="#0377bc"/>
          <rect id="Rectangle-path-7" data-name="Rectangle-path" width="9" height="8" rx="1" transform="translate(48.001 25.438)" fill="#02a9f4"/>
          <path id="Shape-7" data-name="Shape" d="M51.271,23H48a1.09,1.09,0,0,1,1.09,1.09v6.542A1.09,1.09,0,0,1,48,31.723h3.271a1.09,1.09,0,0,0,1.09-1.09V24.09A1.09,1.09,0,0,0,51.271,23Z" transform="translate(4.717 2.078)" fill="#0377bc"/>
          <rect id="Rectangle-path-8" data-name="Rectangle-path" width="9" height="8" rx="1" transform="translate(48.001 50.438)" fill="#02a9f4"/>
          <path id="Shape-8" data-name="Shape" d="M51.271,46H48a1.09,1.09,0,0,1,1.09,1.09v6.542A1.09,1.09,0,0,1,48,54.723h3.271a1.09,1.09,0,0,0,1.09-1.09V47.09A1.09,1.09,0,0,0,51.271,46Z" transform="translate(4.717 4.155)" fill="#0377bc"/>
          <g id="Grupo_1231023" data-name="Grupo 1231023" transform="translate(4.743 4.361)">
            <path id="Shape-9" data-name="Shape" d="M49.626,31V47.355H46.355a1.09,1.09,0,0,0-1.09,1.09v3.271H30v-.425A24.532,24.532,0,0,0,49.255,31Z" transform="translate(-1.651 -1.561)" fill="#00bcd4"/>
            <path id="Shape-10" data-name="Shape" d="M23.626,51.291v.425H8.361V48.445a1.09,1.09,0,0,0-1.09-1.09H4V31h.371A24.533,24.533,0,0,0,23.626,51.291Z" transform="translate(-4 -1.561)" fill="#00bcd4"/>
            <path id="Shape-11" data-name="Shape" d="M49.626,8.361V24.716h-.371A24.533,24.533,0,0,0,30,4.425V4H45.265V7.271a1.09,1.09,0,0,0,1.09,1.09Z" transform="translate(-1.651 -4)" fill="#00bcd4"/>
            <path id="Shape-12" data-name="Shape" d="M23.626,4v.425A24.532,24.532,0,0,0,4.371,24.716H4V8.361H7.271a1.09,1.09,0,0,0,1.09-1.09V4Z" transform="translate(-4 -4)" fill="#00bcd4"/>
          </g>
          <path id="Shape-13" data-name="Shape" d="M48.673,33.4h2.9A24.533,24.533,0,0,1,32.318,53.695V50.849a1.09,1.09,0,0,0-1.09-1.09H24.686a1.09,1.09,0,0,0-1.09,1.09v2.846A24.532,24.532,0,0,1,4.34,33.4h2.9a1.09,1.09,0,0,0,1.09-1.09V25.771a1.09,1.09,0,0,0-1.09-1.09H4.34A24.533,24.533,0,0,1,23.6,4.39V7.236a1.09,1.09,0,0,0,1.09,1.09h6.542a1.09,1.09,0,0,0,1.09-1.09V4.39A24.532,24.532,0,0,1,51.573,24.681h-2.9a1.09,1.09,0,0,0-1.09,1.09v6.542A1.09,1.09,0,0,0,48.673,33.4Z" transform="translate(0.773 0.397)" fill="#ef314c"/>
          <path id="Shape-14" data-name="Shape" d="M19,5.281V7.236a1.09,1.09,0,0,0,1.09,1.09h3.271a1.09,1.09,0,0,1-1.09-1.09V4.39A22.938,22.938,0,0,0,19,5.281Z" transform="translate(2.098 0.397)" fill="#bb193b"/>
          <path id="Shape-15" data-name="Shape" d="M19,47.09v1.955a22.937,22.937,0,0,0,3.271.891V47.09A1.09,1.09,0,0,1,23.361,46H20.09A1.09,1.09,0,0,0,19,47.09Z" transform="translate(2.098 4.155)" fill="#bb193b"/>
          <path id="Shape-16" data-name="Shape" d="M45.265,32.313V25.771a1.09,1.09,0,0,1,1.09-1.09h2.9A24.533,24.533,0,0,0,30,4.39v.891a24.741,24.741,0,0,1,15.984,19.4h-2.9a1.09,1.09,0,0,0-1.09,1.09v6.542a1.09,1.09,0,0,0,1.09,1.09h2.9A24.741,24.741,0,0,1,30,52.8v.891A24.532,24.532,0,0,0,49.255,33.4h-2.9A1.09,1.09,0,0,1,45.265,32.313Z" transform="translate(3.091 0.397)" fill="#bb193b"/>
        </g>
        <g id="Icons">
          <path id="Shape-17" data-name="Shape" d="M63.056,26.653a1.09,1.09,0,1,0-1.814,1.21l1.05,1.576H58.878V27.258A2.181,2.181,0,0,0,56.7,25.078H54.517V10.9H56.7a2.181,2.181,0,0,0,2.181-2.181V2.181A2.181,2.181,0,0,0,56.7,0H50.155a2.181,2.181,0,0,0-2.181,2.181V4.361H34.891V2.181A2.181,2.181,0,0,0,32.71,0H26.168a2.181,2.181,0,0,0-2.181,2.181V4.361H10.9V2.181A2.181,2.181,0,0,0,8.723,0H2.181A2.181,2.181,0,0,0,0,2.181V8.723A2.181,2.181,0,0,0,2.181,10.9H4.361V25.078H2.181A2.181,2.181,0,0,0,0,27.258V33.8a2.181,2.181,0,0,0,2.181,2.181H4.361V50.155H2.181A2.181,2.181,0,0,0,0,52.336v6.542a2.181,2.181,0,0,0,2.181,2.181H8.723A2.181,2.181,0,0,0,10.9,58.878V56.7H23.987v2.181a2.181,2.181,0,0,0,2.181,2.181H32.71a2.181,2.181,0,0,0,2.181-2.181V56.7H47.975v2.181a2.181,2.181,0,0,0,2.181,2.181H56.7a2.181,2.181,0,0,0,2.181-2.181V52.336A2.181,2.181,0,0,0,56.7,50.155H54.517V35.981H56.7A2.181,2.181,0,0,0,58.878,33.8V31.62h3.414L61.242,33.2a1.09,1.09,0,1,0,1.814,1.21l2.181-3.271a1.09,1.09,0,0,0,0-1.21ZM50.155,2.181H56.7V8.723H50.155Zm0,8.723h2.181v8.98A25.725,25.725,0,0,0,39.448,6.542h8.526V8.723A2.181,2.181,0,0,0,50.155,10.9ZM26.168,2.181H32.71V8.723H26.168Zm-23.987,0H8.723V8.723H2.181ZM8.723,10.9A2.181,2.181,0,0,0,10.9,8.723V6.542H19.43A25.725,25.725,0,0,0,6.542,19.883V10.9ZM2.181,27.258H8.723V33.8H2.181Zm0,31.62V52.336H8.723v6.542Zm6.542-8.723H6.542v-8.98A25.725,25.725,0,0,0,19.43,54.517H10.9V52.336A2.181,2.181,0,0,0,8.723,50.155Zm15.265,2.181v1.472A23.48,23.48,0,0,1,7.158,35.981H8.723A2.181,2.181,0,0,0,10.9,33.8V27.258a2.181,2.181,0,0,0-2.181-2.181H7.158A23.48,23.48,0,0,1,23.987,7.251V8.723A2.181,2.181,0,0,0,26.168,10.9H32.71a2.181,2.181,0,0,0,2.181-2.181V7.251A23.48,23.48,0,0,1,51.72,25.078H50.155a2.181,2.181,0,0,0-2.181,2.181v2.181H44.561l1.05-1.576a1.09,1.09,0,0,0-1.814-1.21l-2.181,3.271a1.09,1.09,0,0,0,0,1.21L43.8,34.405a1.09,1.09,0,1,0,1.814-1.21l-1.05-1.576h3.414V33.8a2.181,2.181,0,0,0,2.181,2.181H51.72A23.48,23.48,0,0,1,34.891,53.808V52.336a2.181,2.181,0,0,0-2.181-2.181H26.168A2.181,2.181,0,0,0,23.987,52.336Zm2.181,6.542V52.336H32.71v6.542Zm30.529,0H50.155V52.336H56.7Zm-6.542-8.723a2.181,2.181,0,0,0-2.181,2.181v2.181H39.448A25.725,25.725,0,0,0,52.336,41.175v8.98Zm0-16.355V27.258H56.7V33.8Z" transform="translate(0 0)"/>
        </g>
      </g>
    </g>
  </g>
</svg>
