<svg xmlns="http://www.w3.org/2000/svg" xmlns:xlink="http://www.w3.org/1999/xlink" width="118" height="118" viewBox="0 0 118 118">
  <defs>
    <filter id="Trazado_896985" x="0" y="0" width="118" height="118" filterUnits="userSpaceOnUse">
      <feOffset dy="3" input="SourceAlpha"/>
      <feGaussianBlur stdDeviation="3" result="blur"/>
      <feFlood flood-opacity="0.161"/>
      <feComposite operator="in" in2="blur"/>
      <feComposite in="SourceGraphic"/>
    </filter>
  </defs>
  <g id="Grupo_1231173" data-name="Grupo 1231173" transform="translate(-201.366 -15265.084)">
    <g id="Grupo_1230824" data-name="Grupo 1230824" transform="translate(0.513 -10081.176)">
      <g id="Grupo_1212200" data-name="Grupo 1212200" transform="translate(3.962 7417.26)">
        <g id="Grupo_1200012" data-name="Grupo 1200012" transform="translate(-0.949 13650.111)">
          <g id="Grupo_1198723" data-name="Grupo 1198723" transform="translate(0.95 -182.434)">
            <g id="Grupo_1198139" data-name="Grupo 1198139" transform="translate(-129 615.322)">
              <g id="Grupo_1111318" data-name="Grupo 1111318" transform="translate(334.891 3852)">
                <g id="Grupo_1109826" data-name="Grupo 1109826" transform="translate(0)">
                  <g id="Grupo_1098742" data-name="Grupo 1098742" transform="translate(0 0)">
                    <g transform="matrix(1, 0, 0, 1, -9, -6)" filter="url(#Trazado_896985)">
                      <g id="Trazado_896985-2" data-name="Trazado 896985" transform="translate(9 6)" fill="#d0c110" opacity="0.859">
                        <path d="M 49.99993515014648 99.5 C 43.31726837158203 99.5 36.83476257324219 98.19129943847656 30.73248100280762 95.61025238037109 C 24.83812141418457 93.11714172363281 19.54434776306152 89.54795837402344 14.99820137023926 85.00179290771484 C 10.45204162597656 80.45565032958984 6.88285493850708 75.16187286376953 4.389748573303223 69.26751708984375 C 1.808695197105408 63.16523742675781 0.5000017881393433 56.6827278137207 0.5000017881393433 50.00006103515625 C 0.5000017881393433 43.31726455688477 1.808695197105408 36.83475494384766 4.389748573303223 30.73247528076172 C 6.88285493850708 24.83811569213867 10.45204162597656 19.54434204101562 14.99820137023926 14.99819660186768 C 19.54434776306152 10.45203590393066 24.83812141418457 6.88284969329834 30.73248100280762 4.389742851257324 C 36.83476257324219 1.808689475059509 43.31726837158203 0.4999961853027344 49.99993515014648 0.4999961853027344 C 56.68260192871094 0.4999961853027344 63.16510772705078 1.808689475059509 69.26738739013672 4.389742851257324 C 75.16175079345703 6.88284969329834 80.45552062988281 10.45203590393066 85.00167083740234 14.99819660186768 C 89.54782867431641 19.54434204101562 93.11701202392578 24.83811569213867 95.61012268066406 30.73247528076172 C 98.19117736816406 36.83475494384766 99.49987030029297 43.31726455688477 99.49987030029297 49.99993133544922 C 99.49987030029297 56.6827278137207 98.19117736816406 63.16523742675781 95.61012268066406 69.26751708984375 C 93.11701202392578 75.16187286376953 89.54782867431641 80.45565032958984 85.00167083740234 85.00179290771484 C 80.45552062988281 89.54795837402344 75.16175079345703 93.11714172363281 69.26738739013672 95.61025238037109 C 63.16510772705078 98.19129943847656 56.68260192871094 99.5 49.99993515014648 99.5 Z" stroke="none"/>
                        <path d="M 49.99993515014648 0.9999923706054688 C 43.38454818725586 0.9999923706054688 36.96757507324219 2.29541015625 30.92725372314453 4.850250244140625 C 25.09249877929688 7.318145751953125 19.85213470458984 10.85135650634766 15.35174560546875 15.35174560546875 C 10.85136413574219 19.85212707519531 7.318145751953125 25.09249114990234 4.850257873535156 30.92724609375 C 2.295417785644531 36.96757125854492 1 43.38454437255859 1 50.00006103515625 C 1 56.61544799804688 2.295417785644531 63.03242111206055 4.850257873535156 69.07273864746094 C 7.318145751953125 74.90750122070312 10.85136413574219 80.14786529541016 15.35174560546875 84.64824676513672 C 19.85213470458984 89.14863586425781 25.09249877929688 92.68184661865234 30.92725372314453 95.14974212646484 C 36.96757507324219 97.70458221435547 43.38454818725586 99 49.99993515014648 99 C 56.61532211303711 99 63.03229522705078 97.70458221435547 69.07261657714844 95.14974212646484 C 74.90737915039062 92.68184661865234 80.14773559570312 89.14863586425781 84.64812469482422 84.64824676513672 C 89.14850616455078 80.14786529541016 92.68172454833984 74.90750122070312 95.14961242675781 69.07273864746094 C 97.70445251464844 63.03242111206055 98.99987030029297 56.61544799804688 98.99987030029297 49.99993133544922 C 98.99987030029297 43.38454437255859 97.70445251464844 36.96757125854492 95.14961242675781 30.92724609375 C 92.68172454833984 25.09249114990234 89.14850616455078 19.85212707519531 84.64812469482422 15.35174560546875 C 80.14773559570312 10.85135650634766 74.90737915039062 7.318145751953125 69.07261657714844 4.850250244140625 C 63.03229522705078 2.29541015625 56.61532211303711 0.9999923706054688 49.99993515014648 0.9999923706054688 M 49.99993515014648 -7.62939453125e-06 C 77.6141357421875 -7.62939453125e-06 99.99987030029297 22.38572692871094 99.99987030029297 49.99993133544922 L 99.99987030029297 50.00006103515625 C 99.99987030029297 77.61426544189453 77.6141357421875 100 49.99993515014648 100 C 22.38573455810547 100 0 77.61426544189453 0 50.00006103515625 L 0 49.99993133544922 C 0 22.38572692871094 22.38573455810547 -7.62939453125e-06 49.99993515014648 -7.62939453125e-06 Z" stroke="none" fill="#fff"/>
                      </g>
                    </g>
                    <g id="Rectángulo_400907" data-name="Rectángulo 400907" transform="translate(0)" fill="none" stroke="#fff" stroke-width="1">
                      <rect width="100" height="100" rx="50" stroke="none"/>
                      <rect x="0.5" y="0.5" width="99" height="99" rx="49.5" fill="none"/>
                    </g>
                  </g>
                </g>
              </g>
            </g>
          </g>
        </g>
      </g>
    </g>
    <g id="copy_14264102" transform="translate(225.095 15286.555)">
      <g id="Grupo_1231163" data-name="Grupo 1231163" transform="translate(8.821 18.007)">
        <path id="Trazado_1185083" data-name="Trazado 1185083" d="M48.711,40.657V68.033a3.28,3.28,0,0,1-3.28,3.28H12.961a3.28,3.28,0,0,1-3.28-3.28V29.417a3.28,3.28,0,0,1,3.28-3.28h21.23Z" transform="translate(-9.681 -26.137)" fill="#ffca69"/>
      </g>
      <g id="Grupo_1231164" data-name="Grupo 1231164" transform="translate(28.336 18.009)" opacity="0.25">
        <path id="Trazado_1185084" data-name="Trazado 1185084" d="M58.946,40.658V68.034a3.281,3.281,0,0,1-3.28,3.28H39.429V26.14h4.992Z" transform="translate(-39.429 -26.14)" fill="#fff"/>
      </g>
      <g id="Grupo_1231165" data-name="Grupo 1231165" transform="translate(22.686 4.14)">
        <path id="Trazado_1185085" data-name="Trazado 1185085" d="M69.85,17.556V46.894a3.28,3.28,0,0,1-3.28,3.28H36.1a5.281,5.281,0,0,1-5.281-5.281V8.28A3.28,3.28,0,0,1,34.1,5H57.287Z" transform="translate(-30.817 -5)" fill="#ffed9d"/>
      </g>
      <g id="Grupo_1231166" data-name="Grupo 1231166" transform="translate(49.157 4.14)">
        <path id="Trazado_1185086" data-name="Trazado 1185086" d="M83.73,17.556H74.447a3.28,3.28,0,0,1-3.28-3.28V5Z" transform="translate(-71.167 -5)" fill="#ffca69"/>
      </g>
      <g id="Grupo_1231167" data-name="Grupo 1231167" transform="translate(42.205 4.14)" opacity="0.25">
        <path id="Trazado_1185087" data-name="Trazado 1185087" d="M80.086,17.556V46.894a3.281,3.281,0,0,1-3.28,3.28H60.569V5h6.954Z" transform="translate(-60.569 -5)" fill="#fff"/>
      </g>
      <g id="Grupo_1231168" data-name="Grupo 1231168" transform="translate(7.18 16.368)">
        <path id="Trazado_1185088" data-name="Trazado 1185088" d="M44.574,72.094H12.1a4.926,4.926,0,0,1-4.92-4.92V28.56a4.926,4.926,0,0,1,4.92-4.92H22.688a1.64,1.64,0,1,1,0,3.28H12.1a1.642,1.642,0,0,0-1.64,1.64V67.174a1.642,1.642,0,0,0,1.64,1.64H44.574a1.642,1.642,0,0,0,1.64-1.64V56.586a1.64,1.64,0,1,1,3.28,0V67.174A4.926,4.926,0,0,1,44.574,72.094Z" transform="translate(-7.18 -23.64)"/>
      </g>
      <g id="Grupo_1231169" data-name="Grupo 1231169" transform="translate(21.047 2.5)">
        <path id="Trazado_1185089" data-name="Trazado 1185089" d="M65.712,50.954H35.239a6.929,6.929,0,0,1-6.921-6.921V7.42a4.926,4.926,0,0,1,4.92-4.92H56.429a1.642,1.642,0,0,1,1.159.48L70.151,15.537a1.641,1.641,0,0,1,.48,1.16V46.034A4.926,4.926,0,0,1,65.712,50.954ZM33.238,5.78A1.642,1.642,0,0,0,31.6,7.42V44.033a3.645,3.645,0,0,0,3.641,3.641H65.712a1.642,1.642,0,0,0,1.64-1.64V17.377L55.75,5.78Z" transform="translate(-28.318 -2.5)"/>
      </g>
      <g id="Grupo_1231170" data-name="Grupo 1231170" transform="translate(47.518 2.5)">
        <path id="Trazado_1185090" data-name="Trazado 1185090" d="M82.871,18.337H73.588a4.926,4.926,0,0,1-4.92-4.92V4.14a1.64,1.64,0,0,1,2.8-1.16L84.031,15.537a1.64,1.64,0,0,1-1.16,2.8ZM71.948,8.1v5.319a1.642,1.642,0,0,0,1.64,1.64H78.91Z" transform="translate(-68.668 -2.5)"/>
      </g>
      <g id="Grupo_1231171" data-name="Grupo 1231171" transform="translate(30.403 25.09)">
        <path id="Trazado_1185091" data-name="Trazado 1185091" d="M64.541,40.215H44.219a1.64,1.64,0,0,1,0-3.28H64.541a1.64,1.64,0,0,1,0,3.28Z" transform="translate(-42.579 -36.935)"/>
      </g>
      <g id="Grupo_1231172" data-name="Grupo 1231172" transform="translate(30.403 35.124)">
        <path id="Trazado_1185092" data-name="Trazado 1185092" d="M64.541,55.51H44.219a1.64,1.64,0,1,1,0-3.28H64.541a1.64,1.64,0,0,1,0,3.28Z" transform="translate(-42.579 -52.229)"/>
      </g>
    </g>
  </g>
</svg>
