<svg xmlns="http://www.w3.org/2000/svg" xmlns:xlink="http://www.w3.org/1999/xlink" width="88" height="88" viewBox="0 0 88 88">
  <defs>
    <filter id="Trazado_896985" x="0" y="0" width="88" height="88" filterUnits="userSpaceOnUse">
      <feOffset dy="3" input="SourceAlpha"/>
      <feGaussianBlur stdDeviation="3" result="blur"/>
      <feFlood flood-opacity="0.161"/>
      <feComposite operator="in" in2="blur"/>
      <feComposite in="SourceGraphic"/>
    </filter>
  </defs>
  <g id="Grupo_1230935" data-name="Grupo 1230935" transform="translate(-1139.72 -16421.433)">
    <g id="Grupo_1212750" data-name="Grupo 1212750" transform="translate(942.753 7264.162)">
      <g id="Grupo_1212198" data-name="Grupo 1212198" transform="translate(205.967 9163.27)">
        <g id="Grupo_1200012" data-name="Grupo 1200012" transform="translate(0 0)">
          <g id="Grupo_1198723" data-name="Grupo 1198723" transform="translate(0 0)">
            <g id="Grupo_1198139" data-name="Grupo 1198139">
              <g id="Grupo_1111318" data-name="Grupo 1111318">
                <g id="Grupo_1109826" data-name="Grupo 1109826" transform="translate(0)">
                  <g id="Grupo_1098742" data-name="Grupo 1098742">
                    <g transform="matrix(1, 0, 0, 1, -9, -6)" filter="url(#Trazado_896985)">
                      <g id="Trazado_896985-2" data-name="Trazado 896985" transform="translate(9 6)" fill="#d0c110" opacity="0.859">
                        <path d="M 34.99995040893555 69.49998474121094 C 30.34226989746094 69.49998474121094 25.82417106628418 68.58788299560547 21.57117080688477 66.78900909423828 C 17.4630012512207 65.05139923095703 13.77338027954102 62.56376266479492 10.6048002243042 59.39518356323242 C 7.436220645904541 56.22661209106445 4.948580265045166 52.53699111938477 3.210970401763916 48.4288215637207 C 1.412100434303284 44.17582321166992 0.5000004172325134 39.65772247314453 0.5000004172325134 35.00004196166992 C 0.5000004172325134 30.34233283996582 1.412100434303284 25.82422256469727 3.210970401763916 21.57120323181152 C 4.948580265045166 17.46302223205566 7.436220645904541 13.77339267730713 10.6048002243042 10.60481262207031 C 13.77338027954102 7.436232566833496 17.46298980712891 4.948582172393799 21.57117080688477 3.210972309112549 C 25.82417106628418 1.412102341651917 30.34226036071777 0.500002384185791 34.99995040893555 0.500002384185791 C 39.65763092041016 0.500002384185791 44.17573165893555 1.412102341651917 48.42873001098633 3.210972309112549 C 52.53689956665039 4.948582172393799 56.22652053833008 7.436222553253174 59.39509963989258 10.60480213165283 C 62.56367874145508 13.77338218688965 65.05132293701172 17.46299171447754 66.78893280029297 21.57116317749023 C 68.58779907226562 25.82416152954102 69.49990081787109 30.34226226806641 69.49990081787109 34.99994277954102 C 69.49990081787109 39.65765380859375 68.58779907226562 44.17576217651367 66.78893280029297 48.42878341674805 C 65.05132293701172 52.53696060180664 62.56367874145508 56.22659301757812 59.39509963989258 59.39517211914062 C 56.22652053833008 62.56375122070312 52.53691101074219 65.05139923095703 48.42873001098633 66.78900909423828 C 44.17573165893555 68.58788299560547 39.65763854980469 69.49998474121094 34.99995040893555 69.49998474121094 Z" stroke="none"/>
                        <path d="M 34.99995040893555 1 C 30.40954208374023 1 25.95698165893555 1.898811340332031 21.76594161987305 3.671485900878906 C 17.71736907958984 5.383880615234375 14.08116912841797 7.835540771484375 10.95835113525391 10.9583625793457 C 7.835540771484375 14.08119201660156 5.383872985839844 17.71740341186523 3.671470642089844 21.76598358154297 C 1.898811340332031 25.95703125 1 30.40961074829102 1 35.00004196166992 C 1 39.5904541015625 1.898811340332031 44.04301452636719 3.671470642089844 48.23405456542969 C 5.383872985839844 52.28262329101562 7.835540771484375 55.9188117980957 10.95835113525391 59.04163360595703 C 14.08116912841797 62.16445159912109 17.71736907958984 64.61611175537109 21.76594161987305 66.32851409912109 C 25.95698165893555 68.10117340087891 30.40954208374023 68.99998474121094 34.99995040893555 68.99998474121094 C 39.59036254882812 68.99998474121094 44.04292297363281 68.10117340087891 48.23396301269531 66.32851409912109 C 52.28253173828125 64.61610412597656 55.91873168945312 62.16444396972656 59.04154968261719 59.04162216186523 C 62.16436004638672 55.91879272460938 64.61602783203125 52.2825927734375 66.32843017578125 48.23401260375977 C 68.10108947753906 44.04295349121094 68.99990081787109 39.59037017822266 68.99990081787109 34.99994277954102 C 68.99990081787109 30.40954208374023 68.10108947753906 25.95698165893555 66.32843017578125 21.76594161987305 C 64.61602783203125 17.71737289428711 62.16436004638672 14.08117294311523 59.04154968261719 10.95835113525391 C 55.91873168945312 7.835533142089844 52.28253173828125 5.383872985839844 48.23396301269531 3.671470642089844 C 44.04292297363281 1.898811340332031 39.59036254882812 1 34.99995040893555 1 M 34.99995040893555 0 C 54.32989120483398 0 69.99990081787109 15.67001342773438 69.99990081787109 34.99994277954102 L 69.99990081787109 35.00004196166992 C 69.99990081787109 54.32998275756836 54.32989120483398 69.99998474121094 34.99995040893555 69.99998474121094 C 15.67000961303711 69.99998474121094 0 54.32998275756836 0 35.00004196166992 L 0 34.99994277954102 C 0 15.67001342773438 15.67000961303711 0 34.99995040893555 0 Z" stroke="none" fill="#fff"/>
                      </g>
                    </g>
                    <g id="Rectángulo_400907" data-name="Rectángulo 400907" transform="translate(0)" fill="none" stroke="#fff" stroke-width="1">
                      <rect width="70" height="70" rx="35" stroke="none"/>
                      <rect x="0.5" y="0.5" width="69" height="69" rx="34.5" fill="none"/>
                    </g>
                  </g>
                </g>
              </g>
            </g>
          </g>
        </g>
      </g>
    </g>
    <g id="blending_16436212" transform="translate(1160.011 16433.916)">
      <path id="Trazado_1184694" data-name="Trazado 1184694" d="M9.347,24.5h31.3l7.1,36H2Z" transform="translate(-1.259 -12.906)" fill="#94e1e4"/>
      <path id="Trazado_1184695" data-name="Trazado 1184695" d="M49.138,100.29H6.906v-.741H48.823Z" transform="translate(-4.348 -60.152)" fill="#f5ffff" opacity="0.3"/>
      <path id="Trazado_1184696" data-name="Trazado 1184696" d="M59.022,4.53a9.426,9.426,0,0,0-9.42,9.021h6.982a2.212,2.212,0,0,1,1.574.652l6.583,6.583a2.129,2.129,0,0,1,.327.423A9.435,9.435,0,0,0,59.022,4.53Z" transform="translate(-31.227 -0.334)" fill="#fc785e"/>
      <path id="Trazado_1184697" data-name="Trazado 1184697" d="M49.793,39.889a.733.733,0,0,0-.141-.2L43.058,33.1a.743.743,0,0,0-.526-.219H28.021a.763.763,0,0,0-.741.741V48.132a.743.743,0,0,0,.219.526l6.594,6.594a.769.769,0,0,0,.526.219H49.13a.743.743,0,0,0,.741-.741V40.219a.731.731,0,0,0-.078-.33ZM33.878,52.94l-5.116-5.116V35.41l5.116,5.112ZM29.81,34.362H42.228l5.112,5.116H34.926ZM48.389,53.989H35.36V40.96H48.389Z" transform="translate(-17.174 -18.181)" fill="#12263f"/>
      <path id="Trazado_1184698" data-name="Trazado 1184698" d="M36.4,44.822V57.24L31.28,52.124V39.71Z" transform="translate(-19.692 -22.481)" fill="#ffdb80"/>
      <path id="Trazado_1184699" data-name="Trazado 1184699" d="M51.64,42H39.226L34.11,36.88H46.528Z" transform="translate(-21.474 -20.699)" fill="#ffdb80"/>
      <path id="Trazado_1184700" data-name="Trazado 1184700" d="M49.09,54.69H62.119V67.719H49.09Z" transform="translate(-30.904 -31.911)" fill="#ffdb80"/>
      <path id="Trazado_1184701" data-name="Trazado 1184701" d="M29.236,26l-.074.741H22.62L22.768,26Z" transform="translate(-14.24 -13.85)" fill="#f5ffff" opacity="0.3"/>
      <path id="Trazado_1184702" data-name="Trazado 1184702" d="M9.418,93.55h8.939l-.074.741H9.27Z" transform="translate(-5.836 -56.375)" fill="#426666" opacity="0.3"/>
      <path id="Trazado_1184703" data-name="Trazado 1184703" d="M51.64,42H39.226L34.11,36.88h.741l4.375,4.375H50.9Z" transform="translate(-21.474 -20.699)" fill="#ad9359" opacity="0.3"/>
      <path id="Trazado_1184704" data-name="Trazado 1184704" d="M36.4,44.822v.741L31.28,40.451V39.71Z" transform="translate(-19.692 -22.481)" fill="#f9edd2" opacity="0.5"/>
      <path id="Trazado_1184705" data-name="Trazado 1184705" d="M36.4,76.336v.741L31.28,71.961V71.22Z" transform="translate(-19.692 -42.318)" fill="#ad9359" opacity="0.3"/>
      <path id="Trazado_1184706" data-name="Trazado 1184706" d="M49.09,87.86H62.119V88.6H49.09Z" transform="translate(-30.904 -52.793)" fill="#ad9359" opacity="0.3"/>
      <path id="Trazado_1184707" data-name="Trazado 1184707" d="M49.09,54.69H62.119v.741H49.09Z" transform="translate(-30.904 -31.911)" fill="#f9edd2" opacity="0.5"/>
      <path id="Trazado_1184708" data-name="Trazado 1184708" d="M51.64,42H50.9l-4.371-4.375H34.851l-.741-.741H46.528Z" transform="translate(-21.474 -20.699)" fill="#f9edd2" opacity="0.5"/>
      <g id="Grupo_1230934" data-name="Grupo 1230934" transform="translate(1.081 19.055)">
        <path id="Trazado_1184709" data-name="Trazado 1184709" d="M20.711,44.64v.741H18.94l.148-.741Z" transform="translate(-13.004 -44.64)" fill="#426666" opacity="0.3"/>
        <path id="Trazado_1184710" data-name="Trazado 1184710" d="M100,68.84h-8.12l-.059-.589V67.51l.059.589h7.972Z" transform="translate(-58.885 -59.038)" fill="#426666" opacity="0.3"/>
        <path id="Trazado_1184711" data-name="Trazado 1184711" d="M17.664,69.1v.741H14.1l.148-.741Z" transform="translate(-9.957 -60.039)" fill="#426666" opacity="0.3"/>
        <path id="Trazado_1184712" data-name="Trazado 1184712" d="M103.287,94.291H94.274L94.2,93.55h8.939Z" transform="translate(-60.383 -75.431)" fill="#426666" opacity="0.3"/>
        <path id="Trazado_1184713" data-name="Trazado 1184713" d="M48.1,118.741H2.917V118H47.768Z" transform="translate(-2.917 -90.823)" fill="#426666" opacity="0.3"/>
      </g>
      <path id="Trazado_1184714" data-name="Trazado 1184714" d="M60.6,8a8.524,8.524,0,0,0-8.475,7.735h.1a8.517,8.517,0,0,1,16.886,1.089,2.739,2.739,0,0,0,.011-.3A8.531,8.531,0,0,0,60.6,8Z" transform="translate(-32.814 -2.518)" fill="#f9dbd7" opacity="0.3"/>
      <path id="Trazado_1184715" data-name="Trazado 1184715" d="M100.468,48.628h0l0-.007Z" transform="translate(-63.249 -28.091)" fill="#426666" opacity="0.3"/>
      <path id="Trazado_1184716" data-name="Trazado 1184716" d="M104.247,44.64h-2.168q-.2.409-.435.8c.012-.021.027-.041.039-.061h2.708Z" transform="translate(-63.989 -25.585)" fill="#426666" opacity="0.3"/>
      <path id="Trazado_1184717" data-name="Trazado 1184717" d="M58.063,4A10.013,10.013,0,0,0,48.1,13.217h1.491A8.516,8.516,0,1,1,63.71,20.37l.082.082a2.19,2.19,0,0,1,.417.567,2.287,2.287,0,0,1,.219.685A9.993,9.993,0,0,0,58.063,4Z" transform="translate(-30.278)" fill="#12263f"/>
      <path id="Trazado_1184718" data-name="Trazado 1184718" d="M15.885,50.6h2.74v.741h-2.74Z" transform="translate(-10 -29.339)" fill="#f5ffff" opacity="0.3"/>
      <path id="Trazado_1184719" data-name="Trazado 1184719" d="M92.26,75.741h9.13L101.1,75H92.26Z" transform="translate(-58.081 -44.697)" fill="#f5ffff" opacity="0.3"/>
      <path id="Trazado_1184720" data-name="Trazado 1184720" d="M15.52,75H10.906v.741h4.873A2.2,2.2,0,0,1,15.52,75Z" transform="translate(-6.866 -44.697)" fill="#f5ffff" opacity="0.3"/>
      <path id="Trazado_1184721" data-name="Trazado 1184721" d="M97.19,51.345h5.444l-.265-.741H97.85c-.209.255-.427.5-.659.741Z" transform="translate(-61.185 -29.339)" fill="#f5ffff" opacity="0.3"/>
      <path id="Trazado_1184722" data-name="Trazado 1184722" d="M.741,59.787H46.678A.741.741,0,0,0,47.4,58.9L40.228,22.6A.741.741,0,0,0,39.5,22h-.728a11.444,11.444,0,0,1,.5,3.334c0,.015,0,.031,0,.046L40.4,31.127H37.694a11.537,11.537,0,0,1-1.031,1.482H40.7l1.5,7.58H34.074l-.058-.589v8.28a2.062,2.062,0,0,1-2.06,2.06H17.444a2.179,2.179,0,0,1-1.538-.685l-.008-.008H13.938l.176-1.783-1.355-1.355-.31,3.138H3.433l1.5-7.577H8.825a2.078,2.078,0,0,1-.038-.387V40.188H5.224l1.5-7.58H8.787V31.127H7.015l1.511-7.645H15l-.122,1.229h1.449A11.447,11.447,0,0,1,16.8,22H7.918a.741.741,0,0,0-.727.6L.014,58.9a.741.741,0,0,0,.727.885ZM45.776,58.3H35.865l-.749-7.576h9.162ZM42.488,41.67l1.5,7.577H34.97l-.749-7.577ZM24.45,50.729h9.177l.749,7.576H24.45Zm-10.659,0h9.177V58.3H13.043Zm-10.651,0H12.3L11.554,58.3H1.643Z" transform="translate(0 -11.332)" fill="#12263f"/>
    </g>
  </g>
</svg>
