<svg xmlns="http://www.w3.org/2000/svg" width="85.001" height="85" viewBox="0 0 85.001 85">
  <g id="Grupo_1230611" data-name="Grupo 1230611" transform="translate(-180.05 -19975.997)">
    <g id="Grupo_1198274" data-name="Grupo 1198274" transform="translate(180.102 19976.004)">
      <g id="Grupo_1112424" data-name="Grupo 1112424" transform="translate(-0.051 0.045)">
        <g id="Grupo_1112415" data-name="Grupo 1112415">
          <g id="Grupo_1098742" data-name="Grupo 1098742" transform="translate(0 0)">
            <g id="Rect치ngulo_400898" data-name="Rect치ngulo 400898" transform="translate(0.001 -0.051)" fill="#c3e0db" stroke="#345953" stroke-width="3">
              <rect width="85" height="85" rx="42.5" stroke="none"/>
              <rect x="1.5" y="1.5" width="82" height="82" rx="41" fill="none"/>
            </g>
            <g id="Rect치ngulo_400907" data-name="Rect치ngulo 400907" transform="translate(0 -0.051)" fill="none" stroke="#345953" stroke-width="3">
              <rect width="85" height="85" rx="42.5" stroke="none"/>
              <rect x="1.5" y="1.5" width="82" height="82" rx="41" fill="none"/>
            </g>
          </g>
        </g>
      </g>
    </g>
    <g id="reading_680607" transform="translate(114.201 19985.24)">
      <path id="Trazado_1181176" data-name="Trazado 1181176" d="M136,282.666a4.354,4.354,0,0,0-1.276-1.6c-.915-.715-.854-.6-8.2-2.764H113.134l.011-.008,0,0-6.907,2.038a4.519,4.519,0,0,0-2.959,3.441l-2.334,11.968h37.743C136.387,284.711,136.515,283.774,136,282.666Z" transform="translate(-11.533 -244.314)" fill="#4aa5d3"/>
      <path id="Trazado_1181177" data-name="Trazado 1181177" d="M109.344,287.482l-3.1.916a4.519,4.519,0,0,0-2.959,3.441l-2.334,11.968h3.983l2.334-13.311A4.465,4.465,0,0,1,109.344,287.482Z" transform="translate(-11.531 -252.378)" fill="#2594bf"/>
      <path id="Trazado_1181178" data-name="Trazado 1181178" d="M221.57,241.1v3.032l4.142,5.268,4.142-5.28v-.732h0v-.244h0v-.122h0v-.244h0V241.05A10.336,10.336,0,0,1,221.57,241.1Z" transform="translate(-117.425 -211.616)" fill="#eab883"/>
      <path id="Trazado_1181179" data-name="Trazado 1181179" d="M224.866,242.274a9.922,9.922,0,0,1-3.3-.814v3.032l3.3,4.192Z" transform="translate(-117.425 -211.975)" fill="#e0a773"/>
      <path id="Trazado_1181180" data-name="Trazado 1181180" d="M156.724,23.709a3.133,3.133,0,0,1,3.567-2.752,13.708,13.708,0,0,0,11.117-2.979.805.805,0,0,1,1.23.223,3.937,3.937,0,0,0,3.113,2.124.483.483,0,0,1,.44.48c0,1.14,0,2.1,0,2.9a3.445,3.445,0,0,1,2.633.21c0-2.988,0-4.263-.018-4.572-.708-13.969-20.564-16.141-24.284-2.661-.459,1.67-.466,2.384-.456,7.235A3.449,3.449,0,0,1,156.724,23.709Z" transform="translate(-58.162 -6.711)" fill="#93482b"/>
      <path id="Trazado_1181181" data-name="Trazado 1181181" d="M160.575,16.688A11.817,11.817,0,0,1,169.379,8c-5.926-1.386-12.818,1.3-14.858,8.691-.459,1.67-.466,2.384-.456,7.235a3.449,3.449,0,0,1,2.659-.212,3.132,3.132,0,0,1,3.4-2.771A13.76,13.76,0,0,1,160.575,16.688Z" transform="translate(-58.162 -6.713)" fill="#873921"/>
      <g id="Grupo_1230837" data-name="Grupo 1230837" transform="translate(101.601 32.26)">
        <path id="Trazado_1181182" data-name="Trazado 1181182" d="M259.629,264.189l-4.142,5.524,3.734,1.412a.811.811,0,0,0,1.248-.379l1.722-4.825Z" transform="translate(-248.802 -264.189)" fill="#2594bf"/>
        <path id="Trazado_1181183" data-name="Trazado 1181183" d="M203.285,264.291l4.142,5.512-3.716,1.412a.811.811,0,0,1-1.248-.379l-1.722-4.825Z" transform="translate(-200.742 -264.279)" fill="#2594bf"/>
      </g>
      <g id="Grupo_1230838" data-name="Grupo 1230838" transform="translate(94.319 16.825)">
        <path id="Trazado_1181184" data-name="Trazado 1181184" d="M334.623,138a42.03,42.03,0,0,1-.09,5.319c2.071.73,4.315-.643,4.315-2.645A3.13,3.13,0,0,0,334.623,138Z" transform="translate(-310.913 -137.823)" fill="#eab883"/>
        <path id="Trazado_1181185" data-name="Trazado 1181185" d="M145.35,137.967a3.135,3.135,0,0,0-4.243,2.674c0,2,2.243,3.378,4.316,2.65C145.3,142.348,145.305,138.378,145.35,137.967Z" transform="translate(-141.107 -137.794)" fill="#eab883"/>
      </g>
      <g id="Grupo_1230839" data-name="Grupo 1230839" transform="translate(94.319 18.441)">
        <path id="Trazado_1181186" data-name="Trazado 1181186" d="M334.625,152.465a15.792,15.792,0,0,1-.093,2.433c2.072.73,4.315-.643,4.315-2.645a2.591,2.591,0,0,0-.31-1.231A3.309,3.309,0,0,1,334.625,152.465Z" transform="translate(-310.912 -151.022)" fill="#e0a773"/>
        <path id="Trazado_1181187" data-name="Trazado 1181187" d="M141.419,151.021a2.592,2.592,0,0,0-.31,1.231c0,2,2.243,3.378,4.316,2.65-.056-.413-.086-1.409-.1-2.431A3.312,3.312,0,0,1,141.419,151.021Z" transform="translate(-141.109 -151.021)" fill="#e0a773"/>
      </g>
      <path id="Trazado_1181188" data-name="Trazado 1181188" d="M146.787,340.424c-6.4-1.629-11.041.419-12.409.641a1.088,1.088,0,0,0-.815,1.053v16.675a1.118,1.118,0,0,0,1.4,1.082l1.219-.315a22.988,22.988,0,0,1,12.272.249V340.848Z" transform="translate(-40.164 -298.306)" fill="#e6e6e6"/>
      <path id="Trazado_1181189" data-name="Trazado 1181189" d="M136.858,362.889V345.153a1.153,1.153,0,0,1,.111-.493c-1.224.29-2.111.594-2.592.672a1.088,1.088,0,0,0-.815,1.053V363.06a1.118,1.118,0,0,0,1.4,1.082l1.219-.315c.312-.081.62-.151.924-.217A1.177,1.177,0,0,1,136.858,362.889Z" transform="translate(-40.164 -302.573)" fill="#ccc"/>
      <path id="Trazado_1181190" data-name="Trazado 1181190" d="M269.56,341.07l-2.4-.621a21.543,21.543,0,0,0-11.675.4v18.961l1.067-.272a23.2,23.2,0,0,1,12.424.338,1.118,1.118,0,0,0,1.4-1.082V342.124A1.088,1.088,0,0,0,269.56,341.07Z" transform="translate(-147.2 -298.312)" fill="#e6e6e6"/>
      <g id="Grupo_1230840" data-name="Grupo 1230840" transform="translate(108.287 41.772)">
        <path id="Trazado_1181191" data-name="Trazado 1181191" d="M258.814,342.079c-1.736.289-2.912.708-3.328.77V361.81l1.067-.271a22.665,22.665,0,0,1,2.262-.454Z" transform="translate(-255.486 -342.079)" fill="#ccc"/>
        <path id="Trazado_1181192" data-name="Trazado 1181192" d="M282.743,372.932v3.157a.944.944,0,0,0,1.037.941,22.526,22.526,0,0,1,6.017.2.945.945,0,0,0,1.1-.932V373.19a.945.945,0,0,0-.749-.926,20.127,20.127,0,0,0-6.584-.27A.944.944,0,0,0,282.743,372.932Z" transform="translate(-279.415 -368.206)" fill="#ccc"/>
      </g>
      <path id="Trazado_1181193" data-name="Trazado 1181193" d="M286.039,376.331v-3.643a1.1,1.1,0,0,1,.392-.84,20.126,20.126,0,0,0-2.866.149.944.944,0,0,0-.823.939v3.157a.944.944,0,0,0,1.037.941,22.505,22.505,0,0,1,2.434-.111A1.086,1.086,0,0,1,286.039,376.331Z" transform="translate(-171.128 -326.437)" fill="#bcbcbc"/>
      <path id="Trazado_1181194" data-name="Trazado 1181194" d="M229.256,342.246v19a30.89,30.89,0,0,1,3.2.706V343C231.071,342.654,230.483,342.458,229.256,342.246Z" transform="translate(-124.173 -300.454)" fill="#666"/>
      <path id="Trazado_1181195" data-name="Trazado 1181195" d="M194.714,93.227a.483.483,0,0,1,.44.48c0,8.2.005,7-.014,7.385-.557,11-16.191,12.708-19.12,2.1a9.22,9.22,0,0,1-.32-1.816c-.055-.689-.032-4.428-.032-4.416a3.131,3.131,0,0,1,3.586-3.095,13.708,13.708,0,0,0,11.117-2.979.805.805,0,0,1,1.23.223A3.936,3.936,0,0,0,194.714,93.227Z" transform="translate(-77.125 -79.613)" fill="#f7cf9c"/>
      <path id="Trazado_1181196" data-name="Trazado 1181196" d="M179.069,123.673c-.019-.379-.014.8-.014-7.254a3.13,3.13,0,0,0-3.389,3.117c0-.012-.023,3.728.032,4.416a9.237,9.237,0,0,0,.32,1.816,9.5,9.5,0,0,0,11.085,6.966A9.412,9.412,0,0,1,179.069,123.673Z" transform="translate(-77.123 -102.195)" fill="#eab883"/>
      <g id="Grupo_1230841" data-name="Grupo 1230841" transform="translate(88.664 51.053)">
        <path id="Trazado_1181197" data-name="Trazado 1181197" d="M367.193,424.676h-3.4a1.6,1.6,0,0,1-1.6-1.6v-3.4a1.6,1.6,0,0,1,1.6-1.6h3.4a1.6,1.6,0,0,1,1.6,1.6v3.4A1.6,1.6,0,0,1,367.193,424.676Z" transform="translate(-329.543 -418.084)" fill="#f7cf9c"/>
        <path id="Trazado_1181198" data-name="Trazado 1181198" d="M99.791,424.676h-3.4a1.6,1.6,0,0,1-1.6-1.6v-3.4a1.6,1.6,0,0,1,1.6-1.6h3.4a1.6,1.6,0,0,1,1.6,1.6v3.4A1.6,1.6,0,0,1,99.791,424.676Z" transform="translate(-94.795 -418.084)" fill="#f7cf9c"/>
      </g>
      <g id="Grupo_1230842" data-name="Grupo 1230842" transform="translate(88.664 52.753)">
        <path id="Trazado_1181199" data-name="Trazado 1181199" d="M367.193,433.6h-3.4a1.6,1.6,0,0,1-1.6-1.6v3.3a1.6,1.6,0,0,0,1.6,1.6h3.4a1.6,1.6,0,0,0,1.6-1.6v-3.3A1.6,1.6,0,0,1,367.193,433.6Z" transform="translate(-329.543 -432.006)" fill="#eab883"/>
        <path id="Trazado_1181200" data-name="Trazado 1181200" d="M99.791,433.6h-3.4a1.6,1.6,0,0,1-1.6-1.6v3.3a1.6,1.6,0,0,0,1.6,1.6h3.4a1.6,1.6,0,0,0,1.6-1.6v-3.3A1.6,1.6,0,0,1,99.791,433.6Z" transform="translate(-94.795 -432.006)" fill="#eab883"/>
      </g>
      <path id="Trazado_1181201" data-name="Trazado 1181201" d="M128.077,50.806c-.478-2.291-.894-4.343-1.27-6.262a.916.916,0,1,0-1.8.352c.32,1.63.668,3.356,1.058,5.24h-1.914V43.812a2,2,0,0,0-1.5-1.94l-2.4-.621a22.128,22.128,0,0,0-11.9.345,22.213,22.213,0,0,0-11.9-.345l-2.4.621a2,2,0,0,0-1.5,1.94v6.326H90.621l2.09-10.5a3.577,3.577,0,0,1,2.418-2.771l5.963-1.759c1.463,3.934,1.406,4.893,2.763,5.135a1.684,1.684,0,0,0,1.057-.151c.429-.212.785-.308,3.439-1.331,1.663.638,3.073,1.142,3.457,1.332a1.728,1.728,0,0,0,2.386-.97l1.431-4.01c6.4,1.88,6.343,1.8,7.062,2.363,1.092.853,1.246,1.811,1.5,3.144a.916.916,0,1,0,1.8-.348c-.348-1.8-.669-3.063-2.174-4.239-1.065-.833-1.063-.728-8.366-2.881l-2.041-1.381v-1.4a10.006,10.006,0,0,0,5.34-6.962,3.965,3.965,0,0,0,4.486-3.739,3.63,3.63,0,0,0-1.592-2.977c0-2.737,0-3.794-.02-4.106C121.059,1.508,108.931-3.025,100.982,2.1a.916.916,0,1,0,.993,1.539c6.6-4.256,17.318-.817,17.818,9.041.012.245.016,1.275.017,3.281a4.366,4.366,0,0,0-.8-.045c-.027-1.7.066-1.924-.1-2.337a1.4,1.4,0,0,0-1.171-.878,2.846,2.846,0,0,1-1.807-.85,3.706,3.706,0,0,1-.594-.807,1.721,1.721,0,0,0-2.625-.474,12.743,12.743,0,0,1-10.391,2.769,4.057,4.057,0,0,0-4.381,2.589,4.383,4.383,0,0,0-1.063.031c0-3.744.043-4.356.425-5.742a12.075,12.075,0,0,1,1.819-3.867A.916.916,0,0,0,97.638,5.28a13.9,13.9,0,0,0-2.1,4.451c-.482,1.753-.5,2.621-.49,6.967a3.632,3.632,0,0,0-1.583,2.973,3.971,3.971,0,0,0,4.506,3.741,10.3,10.3,0,0,0,5.32,7.017v1.357l-2.009,1.359c-4.912,1.449-6.787,2-6.842,2.021a5.4,5.4,0,0,0-3.527,4.117L88.619,50.808a2.5,2.5,0,0,0-.808,1.84v3.4a2.514,2.514,0,0,0,2.511,2.511h2.223v1.926a2.033,2.033,0,0,0,2.543,1.969c1.35-.346.518-.14,1.684-.428a.916.916,0,0,0-.419-1.783c-1.153.285-.391.1-1.723.438a.2.2,0,0,1-.253-.2V58.474a2.523,2.523,0,0,0,1.858-2.425c-.042-2.88.508-5.189-1.858-5.825V43.812c0-.245.2-.134,2.528-.788a19.274,19.274,0,0,1,7.327-.445V59.755a23.52,23.52,0,0,0-3.432-.116.916.916,0,1,0,.072,1.83,25.353,25.353,0,0,1,7.47.949,23.274,23.274,0,0,1,12.051-.278,8.08,8.08,0,0,0,1.733.381,2.034,2.034,0,0,0,2.028-2.034V58.561h2.222a2.514,2.514,0,0,0,2.511-2.511v-3.4A2.5,2.5,0,0,0,128.077,50.806ZM112.512,38.387c-.1-.051,0,0-2.7-1.029l2.888-3.852,1.251.846Zm6.476-16.793c.029-.509.017-3.331.019-3.841a2.138,2.138,0,0,1,2.393,1.918A2.469,2.469,0,0,1,118.989,21.594ZM96.093,18.2a2.492,2.492,0,0,1,1.6-.453c-.019,2.892.023,3.834.024,3.849C95.575,21.737,94.427,19.411,96.093,18.2Zm3.747,5.128c-.472-1.715-.319-3.034-.319-5.99a2.221,2.221,0,0,1,2.54-2.189,14.534,14.534,0,0,0,11.742-3.1,4.84,4.84,0,0,0,3.373,2.424c0,2.091.029,6.824-.079,7.7C115.953,31.465,102.423,32.686,99.841,23.331Zm11.735,7.785v.839l-3.227,4.3-3.225-4.292v-.809A11.308,11.308,0,0,0,111.576,31.116ZM104,33.519l2.887,3.842c-2.688,1.024-2.586.976-2.681,1.026l-1.44-4.034ZM89.642,56.049v-3.4a.681.681,0,0,1,.68-.68h3.138c.09.02.663-.116.889.416.1.227.035.1.054,3.665a.681.681,0,0,1-.68.68h-3.4A.681.681,0,0,1,89.642,56.049Zm16.42,3.975V42.911c.542.126.339.083,1.372.342V60.325C107.042,60.227,106.52,60.11,106.062,60.024Zm16.182.622c-.344.266-5.484-2.2-12.979-.322V43.253a19.805,19.805,0,0,1,10.53-.229c2.333.654,2.528.543,2.528.788v6.412a2.52,2.52,0,0,0-1.836,2.112c-.036.285-.032,3.769,0,4.026a2.518,2.518,0,0,0,1.836,2.112C122.283,60.448,122.4,60.528,122.244,60.647Zm4.812-4.6a.681.681,0,0,1-.68.68h-3.4a.681.681,0,0,1-.68-.68v-3.4a.681.681,0,0,1,.68-.68h3.4a.681.681,0,0,1,.68.68Z" transform="translate(0)"/>
      <path id="Trazado_1181202" data-name="Trazado 1181202" d="M285.748,366.6a1.868,1.868,0,0,0-1.478-1.823,21.01,21.01,0,0,0-6.883-.282,1.861,1.861,0,0,0-1.625,1.847V369.5a1.86,1.86,0,0,0,2.044,1.852,21.6,21.6,0,0,1,5.772.193,1.861,1.861,0,0,0,2.171-1.835V366.6Zm-1.841,3.132a.026.026,0,0,1-.024.007,23.448,23.448,0,0,0-6.261-.209.021.021,0,0,1-.019-.007.028.028,0,0,1-.01-.023v-3.157a.03.03,0,0,1,.02-.03,19.181,19.181,0,0,1,6.285.257.031.031,0,0,1,.02.03C283.917,369.944,283.922,369.722,283.906,369.736Z" transform="translate(-164.999 -319.848)"/>
    </g>
  </g>
</svg>
