<svg xmlns="http://www.w3.org/2000/svg" xmlns:xlink="http://www.w3.org/1999/xlink" width="88" height="88" viewBox="0 0 88 88">
  <defs>
    <filter id="Trazado_896985" x="0" y="0" width="88" height="88" filterUnits="userSpaceOnUse">
      <feOffset dy="3" input="SourceAlpha"/>
      <feGaussianBlur stdDeviation="3" result="blur"/>
      <feFlood flood-opacity="0.161"/>
      <feComposite operator="in" in2="blur"/>
      <feComposite in="SourceGraphic"/>
    </filter>
    <clipPath id="clip-path">
      <path id="path6966" d="M0-682.665H43.331v43.331H0Z" transform="translate(0 682.665)"/>
    </clipPath>
  </defs>
  <g id="Grupo_1230876" data-name="Grupo 1230876" transform="translate(-510.669 -1264.432)">
    <g id="Grupo_1212717" data-name="Grupo 1212717" transform="translate(313.703 -7892.838)">
      <g id="Grupo_1212198" data-name="Grupo 1212198" transform="translate(205.967 9163.27)">
        <g id="Grupo_1200012" data-name="Grupo 1200012" transform="translate(0 0)">
          <g id="Grupo_1198723" data-name="Grupo 1198723" transform="translate(0 0)">
            <g id="Grupo_1198139" data-name="Grupo 1198139">
              <g id="Grupo_1111318" data-name="Grupo 1111318">
                <g id="Grupo_1109826" data-name="Grupo 1109826" transform="translate(0)">
                  <g id="Grupo_1098742" data-name="Grupo 1098742">
                    <g transform="matrix(1, 0, 0, 1, -9, -6)" filter="url(#Trazado_896985)">
                      <g id="Trazado_896985-2" data-name="Trazado 896985" transform="translate(9 6)" fill="#d0c110" opacity="0.859">
                        <path d="M 34.99995040893555 69.49998474121094 C 30.34226989746094 69.49998474121094 25.82417106628418 68.58788299560547 21.57117080688477 66.78900909423828 C 17.4630012512207 65.05139923095703 13.77338027954102 62.56376266479492 10.6048002243042 59.39518356323242 C 7.436220645904541 56.22661209106445 4.948580265045166 52.53699111938477 3.210970401763916 48.4288215637207 C 1.412100434303284 44.17582321166992 0.5000004172325134 39.65772247314453 0.5000004172325134 35.00004196166992 C 0.5000004172325134 30.34233283996582 1.412100434303284 25.82422256469727 3.210970401763916 21.57120323181152 C 4.948580265045166 17.46302223205566 7.436220645904541 13.77339267730713 10.6048002243042 10.60481262207031 C 13.77338027954102 7.436232566833496 17.46298980712891 4.948582172393799 21.57117080688477 3.210972309112549 C 25.82417106628418 1.412102341651917 30.34226036071777 0.500002384185791 34.99995040893555 0.500002384185791 C 39.65763092041016 0.500002384185791 44.17573165893555 1.412102341651917 48.42873001098633 3.210972309112549 C 52.53689956665039 4.948582172393799 56.22652053833008 7.436222553253174 59.39509963989258 10.60480213165283 C 62.56367874145508 13.77338218688965 65.05132293701172 17.46299171447754 66.78893280029297 21.57116317749023 C 68.58779907226562 25.82416152954102 69.49990081787109 30.34226226806641 69.49990081787109 34.99994277954102 C 69.49990081787109 39.65765380859375 68.58779907226562 44.17576217651367 66.78893280029297 48.42878341674805 C 65.05132293701172 52.53696060180664 62.56367874145508 56.22659301757812 59.39509963989258 59.39517211914062 C 56.22652053833008 62.56375122070312 52.53691101074219 65.05139923095703 48.42873001098633 66.78900909423828 C 44.17573165893555 68.58788299560547 39.65763854980469 69.49998474121094 34.99995040893555 69.49998474121094 Z" stroke="none"/>
                        <path d="M 34.99995040893555 1 C 30.40954208374023 1 25.95698165893555 1.898811340332031 21.76594161987305 3.671485900878906 C 17.71736907958984 5.383880615234375 14.08116912841797 7.835540771484375 10.95835113525391 10.9583625793457 C 7.835540771484375 14.08119201660156 5.383872985839844 17.71740341186523 3.671470642089844 21.76598358154297 C 1.898811340332031 25.95703125 1 30.40961074829102 1 35.00004196166992 C 1 39.5904541015625 1.898811340332031 44.04301452636719 3.671470642089844 48.23405456542969 C 5.383872985839844 52.28262329101562 7.835540771484375 55.9188117980957 10.95835113525391 59.04163360595703 C 14.08116912841797 62.16445159912109 17.71736907958984 64.61611175537109 21.76594161987305 66.32851409912109 C 25.95698165893555 68.10117340087891 30.40954208374023 68.99998474121094 34.99995040893555 68.99998474121094 C 39.59036254882812 68.99998474121094 44.04292297363281 68.10117340087891 48.23396301269531 66.32851409912109 C 52.28253173828125 64.61610412597656 55.91873168945312 62.16444396972656 59.04154968261719 59.04162216186523 C 62.16436004638672 55.91879272460938 64.61602783203125 52.2825927734375 66.32843017578125 48.23401260375977 C 68.10108947753906 44.04295349121094 68.99990081787109 39.59037017822266 68.99990081787109 34.99994277954102 C 68.99990081787109 30.40954208374023 68.10108947753906 25.95698165893555 66.32843017578125 21.76594161987305 C 64.61602783203125 17.71737289428711 62.16436004638672 14.08117294311523 59.04154968261719 10.95835113525391 C 55.91873168945312 7.835533142089844 52.28253173828125 5.383872985839844 48.23396301269531 3.671470642089844 C 44.04292297363281 1.898811340332031 39.59036254882812 1 34.99995040893555 1 M 34.99995040893555 0 C 54.32989120483398 0 69.99990081787109 15.67001342773438 69.99990081787109 34.99994277954102 L 69.99990081787109 35.00004196166992 C 69.99990081787109 54.32998275756836 54.32989120483398 69.99998474121094 34.99995040893555 69.99998474121094 C 15.67000961303711 69.99998474121094 0 54.32998275756836 0 35.00004196166992 L 0 34.99994277954102 C 0 15.67001342773438 15.67000961303711 0 34.99995040893555 0 Z" stroke="none" fill="#fff"/>
                      </g>
                    </g>
                    <g id="Rectángulo_400907" data-name="Rectángulo 400907" transform="translate(0)" fill="none" stroke="#fff" stroke-width="1">
                      <rect width="70" height="70" rx="35" stroke="none"/>
                      <rect x="0.5" y="0.5" width="69" height="69" rx="34.5" fill="none"/>
                    </g>
                  </g>
                </g>
              </g>
            </g>
          </g>
        </g>
      </g>
    </g>
    <g id="g6960" transform="translate(533.004 1966.432)">
      <g id="g6962" transform="translate(0 -682.665)">
        <g id="g6964" clip-path="url(#clip-path)">
          <g id="g6970" transform="translate(38.622 0.635)">
            <path id="path6972" d="M-41.381-60.111h-2.381a.423.423,0,0,1-.423-.423v-3.228a.423.423,0,0,1,.423-.423h2.381a.423.423,0,0,1,.423.423v3.228a.423.423,0,0,1-.423.423" transform="translate(44.185 64.185)" fill="#fee45a"/>
          </g>
          <g id="g6974" transform="translate(40.665 0.635)">
            <path id="path6976" d="M-23.725,0h-1.608a.423.423,0,0,1,.423.423V3.651a.423.423,0,0,1-.423.423h1.608a.423.423,0,0,0,.423-.423V.423A.423.423,0,0,0-23.725,0" transform="translate(25.333)" fill="#fed402"/>
          </g>
          <g id="g6978" transform="translate(0.635 0.635)">
            <path id="path6980" d="M-41.381-60.111h-2.381a.423.423,0,0,1-.423-.423v-3.228a.423.423,0,0,1,.423-.423h2.381a.423.423,0,0,1,.423.423v3.228a.423.423,0,0,1-.423.423" transform="translate(44.185 64.185)" fill="#fee45a"/>
          </g>
          <g id="g6982" transform="translate(2.678 0.635)">
            <path id="path6984" d="M-23.725,0h-1.608a.423.423,0,0,1,.423.423V3.651a.423.423,0,0,1-.423.423h1.608a.423.423,0,0,0,.423-.423V.423A.423.423,0,0,0-23.725,0" transform="translate(25.333)" fill="#fed402"/>
          </g>
          <g id="g6986" transform="translate(38.622 38.622)">
            <path id="path6988" d="M-41.381-60.111h-2.381a.423.423,0,0,1-.423-.423v-3.228a.423.423,0,0,1,.423-.423h2.381a.423.423,0,0,1,.423.423v3.228a.423.423,0,0,1-.423.423" transform="translate(44.185 64.185)" fill="#fee45a"/>
          </g>
          <g id="g6990" transform="translate(40.665 38.622)">
            <path id="path6992" d="M-23.725,0h-1.608a.423.423,0,0,1,.423.423V3.651a.423.423,0,0,1-.423.423h1.608a.423.423,0,0,0,.423-.423V.423A.423.423,0,0,0-23.725,0" transform="translate(25.333 0)" fill="#fed402"/>
          </g>
          <g id="g6994" transform="translate(0.635 38.622)">
            <path id="path6996" d="M-41.381-60.111h-2.381a.423.423,0,0,1-.423-.423v-3.228a.423.423,0,0,1,.423-.423h2.381a.423.423,0,0,1,.423.423v3.228a.423.423,0,0,1-.423.423" transform="translate(44.185 64.185)" fill="#fee45a"/>
          </g>
          <g id="g6998" transform="translate(2.678 38.622)">
            <path id="path7000" d="M-23.725,0h-1.608a.423.423,0,0,1,.423.423V3.651a.423.423,0,0,1-.423.423h1.608a.423.423,0,0,0,.423-.423V.423A.423.423,0,0,0-23.725,0" transform="translate(25.333 0)" fill="#fed402"/>
          </g>
          <g id="g7002" transform="translate(33.293 9.346)">
            <path id="path7004" d="M-45.393-6.243V17.549a.423.423,0,0,1-.423.423h-2.23a.423.423,0,0,1-.423-.423V-6.243a.423.423,0,0,1,.423-.423h2.23a.423.423,0,0,1,.423.423" transform="translate(48.469 6.667)" fill="#fee45a"/>
          </g>
          <g id="g7006" transform="translate(35.185 9.346)">
            <path id="path7008" d="M-23.725,0h-1.608a.423.423,0,0,1,.423.423V24.216a.423.423,0,0,1-.423.423h1.608a.423.423,0,0,0,.423-.423V.423A.423.423,0,0,0-23.725,0" transform="translate(25.333 0)" fill="#fed402"/>
          </g>
          <g id="g7010" transform="translate(12.886 12.354)">
            <path id="path7012" d="M-222.215-57.88h-13.1a1.961,1.961,0,0,1-1.961-1.961,1.961,1.961,0,0,1,1.961-1.961h13.1a1.961,1.961,0,0,1,1.961,1.961,1.961,1.961,0,0,1-1.961,1.961" transform="translate(237.275 61.803)" fill="#7ec9fb"/>
          </g>
          <g id="g7014" transform="translate(25.408 12.354)">
            <path id="path7016" d="M-49.948,0h-3.385a1.961,1.961,0,0,1,1.961,1.961,1.961,1.961,0,0,1-1.961,1.961h3.385a1.961,1.961,0,0,0,1.961-1.961A1.961,1.961,0,0,0-49.948,0" transform="translate(53.333)" fill="#42b8fb"/>
          </g>
          <g id="g7018" transform="translate(6.115 19.704)">
            <path id="path7020" d="M-309.624-57.88h-19.023a1.961,1.961,0,0,1-1.961-1.961,1.961,1.961,0,0,1,1.961-1.961h19.023a1.961,1.961,0,0,1,1.961,1.961,1.961,1.961,0,0,1-1.961,1.961" transform="translate(330.609 61.803)" fill="#7ec9fb"/>
          </g>
          <g id="g7022" transform="translate(25.408 19.704)">
            <path id="path7024" d="M-49.948,0h-3.385a1.961,1.961,0,0,1,1.961,1.961,1.961,1.961,0,0,1-1.961,1.961h3.385a1.961,1.961,0,0,0,1.961-1.961A1.961,1.961,0,0,0-49.948,0" transform="translate(53.333)" fill="#42b8fb"/>
          </g>
          <g id="g7026" transform="translate(12.886 27.055)">
            <path id="path7028" d="M-222.215-57.88h-13.1a1.961,1.961,0,0,1-1.961-1.961,1.961,1.961,0,0,1,1.961-1.961h13.1a1.961,1.961,0,0,1,1.961,1.961,1.961,1.961,0,0,1-1.961,1.961" transform="translate(237.275 61.803)" fill="#7ec9fb"/>
          </g>
          <g id="g7030" transform="translate(25.408 27.055)">
            <path id="path7032" d="M-49.948,0h-3.385a1.961,1.961,0,0,1,1.961,1.961,1.961,1.961,0,0,1-1.961,1.961h3.385a1.961,1.961,0,0,0,1.961-1.961A1.961,1.961,0,0,0-49.948,0" transform="translate(53.333)" fill="#42b8fb"/>
          </g>
          <g id="g7034" transform="translate(38.622 0.635)">
            <path id="path7036" d="M-53.868-60.111H-57.1a.423.423,0,0,1-.423-.423v-3.228a.423.423,0,0,1,.423-.423h3.228a.423.423,0,0,1,.423.423v3.228A.423.423,0,0,1-53.868-60.111Z" transform="translate(57.519 64.185)" fill="none" stroke="#000" stroke-linecap="round" stroke-linejoin="round" stroke-miterlimit="10" stroke-width="1.3"/>
          </g>
          <g id="g7038" transform="translate(0.635 0.635)">
            <path id="path7040" d="M-53.868-60.111H-57.1a.423.423,0,0,1-.423-.423v-3.228a.423.423,0,0,1,.423-.423h3.228a.423.423,0,0,1,.423.423v3.228A.423.423,0,0,1-53.868-60.111Z" transform="translate(57.519 64.185)" fill="none" stroke="#000" stroke-linecap="round" stroke-linejoin="round" stroke-miterlimit="10" stroke-width="1.3"/>
          </g>
          <g id="g7042" transform="translate(38.622 38.622)">
            <path id="path7044" d="M-53.868-60.111H-57.1a.423.423,0,0,1-.423-.423v-3.228a.423.423,0,0,1,.423-.423h3.228a.423.423,0,0,1,.423.423v3.228A.423.423,0,0,1-53.868-60.111Z" transform="translate(57.519 64.185)" fill="none" stroke="#000" stroke-linecap="round" stroke-linejoin="round" stroke-miterlimit="10" stroke-width="1.3"/>
          </g>
          <g id="g7046" transform="translate(0.635 38.622)">
            <path id="path7048" d="M-53.868-60.111H-57.1a.423.423,0,0,1-.423-.423v-3.228a.423.423,0,0,1,.423-.423h3.228a.423.423,0,0,1,.423.423v3.228A.423.423,0,0,1-53.868-60.111Z" transform="translate(57.519 64.185)" fill="none" stroke="#000" stroke-linecap="round" stroke-linejoin="round" stroke-miterlimit="10" stroke-width="1.3"/>
          </g>
          <g id="g7050" transform="translate(31.969 40.662)">
            <path id="path7052" d="M-96.4,0h-6.534" transform="translate(102.938)" fill="none" stroke="#000" stroke-linecap="round" stroke-linejoin="round" stroke-miterlimit="10" stroke-width="1.3"/>
          </g>
          <g id="g7054" transform="translate(40.662 4.709)">
            <path id="path7056" d="M0,0V33.914" fill="none" stroke="#000" stroke-linecap="round" stroke-linejoin="round" stroke-miterlimit="10" stroke-width="1.3"/>
          </g>
          <g id="g7058" transform="translate(4.709 2.669)">
            <path id="path7060" d="M0,0H33.914" fill="none" stroke="#000" stroke-linecap="round" stroke-linejoin="round" stroke-miterlimit="10" stroke-width="1.3"/>
          </g>
          <g id="g7062" transform="translate(2.669 4.709)">
            <path id="path7064" d="M0-500.382V-534.3" transform="translate(0 534.296)" fill="none" stroke="#000" stroke-linecap="round" stroke-linejoin="round" stroke-miterlimit="10" stroke-width="1.3"/>
          </g>
          <g id="g7066" transform="translate(4.709 40.662)">
            <path id="path7068" d="M-361.4,0h-24.494" transform="translate(385.892)" fill="none" stroke="#000" stroke-linecap="round" stroke-linejoin="round" stroke-miterlimit="10" stroke-width="1.3"/>
          </g>
          <g id="g7070" transform="translate(12.886 12.354)">
            <path id="path7072" d="M-234.7-57.88h-13.946a1.961,1.961,0,0,1-1.961-1.961,1.961,1.961,0,0,1,1.961-1.961H-234.7a1.961,1.961,0,0,1,1.961,1.961A1.961,1.961,0,0,1-234.7-57.88Z" transform="translate(250.609 61.803)" fill="none" stroke="#000" stroke-linecap="round" stroke-linejoin="round" stroke-miterlimit="10" stroke-width="1.3"/>
          </g>
          <g id="g7074" transform="translate(6.115 19.704)">
            <path id="path7076" d="M-204.737-57.88h-11.915a1.961,1.961,0,0,1-1.961-1.961,1.961,1.961,0,0,1,1.961-1.961h20.716a1.961,1.961,0,0,1,1.961,1.961,1.961,1.961,0,0,1-1.961,1.961h-6.035" transform="translate(218.613 61.803)" fill="none" stroke="#000" stroke-linecap="round" stroke-linejoin="round" stroke-miterlimit="10" stroke-width="1.3"/>
          </g>
          <g id="g7078" transform="translate(12.886 27.055)">
            <path id="path7080" d="M-101.542,0h9.025a1.961,1.961,0,0,1,1.961,1.961,1.961,1.961,0,0,1-1.961,1.961h-13.946a1.961,1.961,0,0,1-1.961-1.961A1.961,1.961,0,0,1-106.462,0h2.154" transform="translate(108.424)" fill="none" stroke="#000" stroke-linecap="round" stroke-linejoin="round" stroke-miterlimit="10" stroke-width="1.3"/>
          </g>
          <g id="g7082" transform="translate(33.293 9.346)">
            <path id="path7084" d="M-57.88-6.243V17.549a.423.423,0,0,1-.423.423h-3.077a.423.423,0,0,1-.423-.423V-6.243a.423.423,0,0,1,.423-.423H-58.3A.423.423,0,0,1-57.88-6.243Z" transform="translate(61.803 6.667)" fill="none" stroke="#000" stroke-linecap="round" stroke-linejoin="round" stroke-miterlimit="10" stroke-width="1.3"/>
          </g>
        </g>
      </g>
    </g>
  </g>
</svg>
