<svg xmlns="http://www.w3.org/2000/svg" xmlns:xlink="http://www.w3.org/1999/xlink" width="88" height="88" viewBox="0 0 88 88">
  <defs>
    <filter id="Trazado_896985" x="0" y="0" width="88" height="88" filterUnits="userSpaceOnUse">
      <feOffset dy="3" input="SourceAlpha"/>
      <feGaussianBlur stdDeviation="3" result="blur"/>
      <feFlood flood-opacity="0.161"/>
      <feComposite operator="in" in2="blur"/>
      <feComposite in="SourceGraphic"/>
    </filter>
  </defs>
  <g id="Grupo_1230880" data-name="Grupo 1230880" transform="translate(-1139.72 -1264.432)">
    <g id="Grupo_1212719" data-name="Grupo 1212719" transform="translate(942.753 -7892.838)">
      <g id="Grupo_1212198" data-name="Grupo 1212198" transform="translate(205.967 9163.27)">
        <g id="Grupo_1200012" data-name="Grupo 1200012" transform="translate(0 0)">
          <g id="Grupo_1198723" data-name="Grupo 1198723" transform="translate(0 0)">
            <g id="Grupo_1198139" data-name="Grupo 1198139">
              <g id="Grupo_1111318" data-name="Grupo 1111318">
                <g id="Grupo_1109826" data-name="Grupo 1109826" transform="translate(0)">
                  <g id="Grupo_1098742" data-name="Grupo 1098742">
                    <g transform="matrix(1, 0, 0, 1, -9, -6)" filter="url(#Trazado_896985)">
                      <g id="Trazado_896985-2" data-name="Trazado 896985" transform="translate(9 6)" fill="#d0c110" opacity="0.859">
                        <path d="M 34.99995040893555 69.49998474121094 C 30.34226989746094 69.49998474121094 25.82417106628418 68.58788299560547 21.57117080688477 66.78900909423828 C 17.4630012512207 65.05139923095703 13.77338027954102 62.56376266479492 10.6048002243042 59.39518356323242 C 7.436220645904541 56.22661209106445 4.948580265045166 52.53699111938477 3.210970401763916 48.4288215637207 C 1.412100434303284 44.17582321166992 0.5000004172325134 39.65772247314453 0.5000004172325134 35.00004196166992 C 0.5000004172325134 30.34233283996582 1.412100434303284 25.82422256469727 3.210970401763916 21.57120323181152 C 4.948580265045166 17.46302223205566 7.436220645904541 13.77339267730713 10.6048002243042 10.60481262207031 C 13.77338027954102 7.436232566833496 17.46298980712891 4.948582172393799 21.57117080688477 3.210972309112549 C 25.82417106628418 1.412102341651917 30.34226036071777 0.500002384185791 34.99995040893555 0.500002384185791 C 39.65763092041016 0.500002384185791 44.17573165893555 1.412102341651917 48.42873001098633 3.210972309112549 C 52.53689956665039 4.948582172393799 56.22652053833008 7.436222553253174 59.39509963989258 10.60480213165283 C 62.56367874145508 13.77338218688965 65.05132293701172 17.46299171447754 66.78893280029297 21.57116317749023 C 68.58779907226562 25.82416152954102 69.49990081787109 30.34226226806641 69.49990081787109 34.99994277954102 C 69.49990081787109 39.65765380859375 68.58779907226562 44.17576217651367 66.78893280029297 48.42878341674805 C 65.05132293701172 52.53696060180664 62.56367874145508 56.22659301757812 59.39509963989258 59.39517211914062 C 56.22652053833008 62.56375122070312 52.53691101074219 65.05139923095703 48.42873001098633 66.78900909423828 C 44.17573165893555 68.58788299560547 39.65763854980469 69.49998474121094 34.99995040893555 69.49998474121094 Z" stroke="none"/>
                        <path d="M 34.99995040893555 1 C 30.40954208374023 1 25.95698165893555 1.898811340332031 21.76594161987305 3.671485900878906 C 17.71736907958984 5.383880615234375 14.08116912841797 7.835540771484375 10.95835113525391 10.9583625793457 C 7.835540771484375 14.08119201660156 5.383872985839844 17.71740341186523 3.671470642089844 21.76598358154297 C 1.898811340332031 25.95703125 1 30.40961074829102 1 35.00004196166992 C 1 39.5904541015625 1.898811340332031 44.04301452636719 3.671470642089844 48.23405456542969 C 5.383872985839844 52.28262329101562 7.835540771484375 55.9188117980957 10.95835113525391 59.04163360595703 C 14.08116912841797 62.16445159912109 17.71736907958984 64.61611175537109 21.76594161987305 66.32851409912109 C 25.95698165893555 68.10117340087891 30.40954208374023 68.99998474121094 34.99995040893555 68.99998474121094 C 39.59036254882812 68.99998474121094 44.04292297363281 68.10117340087891 48.23396301269531 66.32851409912109 C 52.28253173828125 64.61610412597656 55.91873168945312 62.16444396972656 59.04154968261719 59.04162216186523 C 62.16436004638672 55.91879272460938 64.61602783203125 52.2825927734375 66.32843017578125 48.23401260375977 C 68.10108947753906 44.04295349121094 68.99990081787109 39.59037017822266 68.99990081787109 34.99994277954102 C 68.99990081787109 30.40954208374023 68.10108947753906 25.95698165893555 66.32843017578125 21.76594161987305 C 64.61602783203125 17.71737289428711 62.16436004638672 14.08117294311523 59.04154968261719 10.95835113525391 C 55.91873168945312 7.835533142089844 52.28253173828125 5.383872985839844 48.23396301269531 3.671470642089844 C 44.04292297363281 1.898811340332031 39.59036254882812 1 34.99995040893555 1 M 34.99995040893555 0 C 54.32989120483398 0 69.99990081787109 15.67001342773438 69.99990081787109 34.99994277954102 L 69.99990081787109 35.00004196166992 C 69.99990081787109 54.32998275756836 54.32989120483398 69.99998474121094 34.99995040893555 69.99998474121094 C 15.67000961303711 69.99998474121094 0 54.32998275756836 0 35.00004196166992 L 0 34.99994277954102 C 0 15.67001342773438 15.67000961303711 0 34.99995040893555 0 Z" stroke="none" fill="#fff"/>
                      </g>
                    </g>
                    <g id="Rectángulo_400907" data-name="Rectángulo 400907" transform="translate(0)" fill="none" stroke="#fff" stroke-width="1">
                      <rect width="70" height="70" rx="35" stroke="none"/>
                      <rect x="0.5" y="0.5" width="69" height="69" rx="34.5" fill="none"/>
                    </g>
                  </g>
                </g>
              </g>
            </g>
          </g>
        </g>
      </g>
    </g>
    <g id="multiple_15603238_1_" data-name="multiple_15603238 (1)" transform="translate(1162.515 1281.175)">
      <path id="Trazado_1184499" data-name="Trazado 1184499" d="M12,45.8h4.272a3.56,3.56,0,0,0,3.56-3.56V35.476a5.34,5.34,0,0,1,10.68,0V42.24a3.56,3.56,0,0,0,3.56,3.56h2.848V43.664H34.073a1.424,1.424,0,0,1-1.424-1.424V35.476a7.476,7.476,0,1,0-14.952,0V42.24a1.424,1.424,0,0,1-1.424,1.424H12Z" transform="translate(-3.384 -7.992)" fill="#ffe164"/>
      <path id="Trazado_1184500" data-name="Trazado 1184500" d="M12,36.936H22.68a3.56,3.56,0,0,0,3.56-3.56V24.654a5.518,5.518,0,0,1,11.036,0V34.8a3.56,3.56,0,0,0,3.56,3.56h2.492V36.224H40.837A1.424,1.424,0,0,1,39.413,34.8V24.654a7.654,7.654,0,1,0-15.308,0v8.722A1.424,1.424,0,0,1,22.68,34.8H12Z" transform="translate(-3.384 -4.824)" fill="#fa4678"/>
      <path id="Trazado_1184501" data-name="Trazado 1184501" d="M17.7,40v5.7a1.424,1.424,0,0,1-1.424,1.424H12v2.136h4.272a3.56,3.56,0,0,0,3.56-3.56V40" transform="translate(-3.384 -11.448)" fill="#ffe164"/>
      <g id="Grupo_1230879" data-name="Grupo 1230879" transform="translate(9.328 3.329)">
        <circle id="Elipse_12521" data-name="Elipse 12521" cx="1.068" cy="1.068" r="1.068" fill="#5f5f7d"/>
        <circle id="Elipse_12522" data-name="Elipse 12522" cx="1.068" cy="1.068" r="1.068" transform="translate(0 4.272)" fill="#5f5f7d"/>
        <circle id="Elipse_12523" data-name="Elipse 12523" cx="1.068" cy="1.068" r="1.068" transform="translate(0 8.544)" fill="#5f5f7d"/>
      </g>
      <path id="Trazado_1184502" data-name="Trazado 1184502" d="M45.145,42.3l-3.916-2.848v1.78H4.916V4.916H6.7L3.848,1,1,4.916H2.78V43.365H41.229v1.78Z" transform="translate(-0.216 -0.216)" fill="#ebf5f5"/>
      <path id="Trazado_1184503" data-name="Trazado 1184503" d="M13.852,7.029a1.6,1.6,0,1,0-1.6-1.6A1.6,1.6,0,0,0,13.852,7.029Zm0-2.136a.534.534,0,1,1-.534.534.534.534,0,0,1,.534-.534Z" transform="translate(-3.456 -1.03)"/>
      <path id="Trazado_1184504" data-name="Trazado 1184504" d="M18.784,6.393h6.408a.534.534,0,0,0,0-1.068H18.784a.534.534,0,0,0,0,1.068Z" transform="translate(-5.184 -1.462)"/>
      <path id="Trazado_1184505" data-name="Trazado 1184505" d="M13.852,13.029a1.6,1.6,0,1,0-1.6-1.6A1.6,1.6,0,0,0,13.852,13.029Zm0-2.136a.534.534,0,1,1-.534.534.534.534,0,0,1,.534-.534Z" transform="translate(-3.456 -2.758)"/>
      <path id="Trazado_1184506" data-name="Trazado 1184506" d="M18.784,12.393h6.408a.534.534,0,0,0,0-1.068H18.784a.534.534,0,0,0,0,1.068Z" transform="translate(-5.184 -3.19)"/>
      <path id="Trazado_1184507" data-name="Trazado 1184507" d="M13.852,19.029a1.6,1.6,0,1,0-1.6-1.6A1.6,1.6,0,0,0,13.852,19.029Zm0-2.136a.534.534,0,1,1-.534.534.534.534,0,0,1,.534-.534Z" transform="translate(-3.456 -4.486)"/>
      <path id="Trazado_1184508" data-name="Trazado 1184508" d="M18.784,18.393h6.408a.534.534,0,0,0,0-1.068H18.784a.534.534,0,0,0,0,1.068Z" transform="translate(-5.184 -4.918)"/>
      <path id="Trazado_1184509" data-name="Trazado 1184509" d="M11.784,42.911h4.272a4.1,4.1,0,0,0,4.094-4.094v-1.6h2.314a4.1,4.1,0,0,0,4.094-4.094v-5.6a4.823,4.823,0,0,1,3.2,4.532v6.764a4.1,4.1,0,0,0,4.094,4.094H36.7a.534.534,0,0,0,.534-.534V40.241a.534.534,0,0,0-.534-.534H33.857a.891.891,0,0,1-.89-.89V32.053a8.049,8.049,0,0,0-6.4-7.848,4.984,4.984,0,1,1,9.965.194V34.545a4.1,4.1,0,0,0,4.094,4.094h2.492a.534.534,0,0,0,.534-.534V35.969a.534.534,0,0,0-.534-.534H40.621a.891.891,0,0,1-.89-.89V24.4a8.189,8.189,0,0,0-16.376-.2,8.049,8.049,0,0,0-6.408,7.849v1.958H11.784a.534.534,0,0,0-.534.534v2.136a.534.534,0,0,0,.534.534h5.162v1.6a.891.891,0,0,1-.89.89H11.784a.534.534,0,0,0-.534.534v2.136a.534.534,0,0,0,.534.534ZM31.9,32.053v6.764a1.96,1.96,0,0,0,1.958,1.958h2.314v1.068H33.857a3.03,3.03,0,0,1-3.026-3.026V32.053A5.893,5.893,0,0,0,26.558,26.4V25.3A6.978,6.978,0,0,1,31.9,32.053Zm-7.476,1.068V24.4a7.12,7.12,0,0,1,14.24,0V34.545A1.959,1.959,0,0,0,40.621,36.5h1.958v1.068H40.621a3.03,3.03,0,0,1-3.026-3.026V24.4a6.052,6.052,0,1,0-12.1,0v8.722a3.03,3.03,0,0,1-3.026,3.026H20.15V35.079h2.314A1.959,1.959,0,0,0,24.422,33.121Zm-4.272.89V32.053a4.823,4.823,0,0,1,3.2-4.532v5.6a.891.891,0,0,1-.89.89Zm-7.832,2.136V35.079h4.628v1.068Zm0,4.628h3.738a1.96,1.96,0,0,0,1.958-1.958V32.053a6.978,6.978,0,0,1,5.34-6.756v1.1a5.893,5.893,0,0,0-4.272,5.652v6.764a3.03,3.03,0,0,1-3.026,3.026H12.318Z" transform="translate(-3.168 -4.568)"/>
      <path id="Trazado_1184510" data-name="Trazado 1184510" d="M45.242,41.649,41.326,38.8a.535.535,0,0,0-.847.432v1.246H5.234V5.234H6.48a.535.535,0,0,0,.432-.849L4.064.469a.535.535,0,0,0-.864,0L.352,4.385a.535.535,0,0,0,.432.849H2.03V6.658H.784a.534.534,0,1,0,0,1.068H2.03V9.1H1.318a.534.534,0,0,0,0,1.068H2.03V11.54H.784a.534.534,0,0,0,0,1.068H2.03v1.373H1.318a.534.534,0,0,0,0,1.068H2.03v1.373H.784a.534.534,0,0,0,0,1.068H2.03v1.373H1.318a.534.534,0,1,0,0,1.068H2.03V21.3H.784a.534.534,0,0,0,0,1.068H2.03v1.373H1.318a.534.534,0,0,0,0,1.068H2.03v1.373H.784a.534.534,0,0,0,0,1.068H2.03v1.373H1.318a.534.534,0,0,0,0,1.068H2.03V31.07H.784a.534.534,0,0,0,0,1.068H2.03v1.373H1.318a.534.534,0,0,0,0,1.068H2.03v1.373H.784a.534.534,0,1,0,0,1.068H2.03v1.373H1.318a.534.534,0,0,0,0,1.068H2.03v1.373H.784a.534.534,0,1,0,0,1.068H2.03v1.246a.534.534,0,0,0,.534.534H3.81v1.246a.534.534,0,0,0,1.068,0V43.683H6.252v.712a.534.534,0,1,0,1.068,0v-.712H8.692v1.246a.534.534,0,0,0,1.068,0V43.683h1.373v.712a.534.534,0,1,0,1.068,0v-.712h1.373v1.246a.534.534,0,0,0,1.068,0V43.683h1.373v.712a.534.534,0,1,0,1.068,0v-.712h1.373v1.246a.534.534,0,0,0,1.068,0V43.683H20.9v.712a.534.534,0,1,0,1.068,0v-.712H23.34v1.246a.534.534,0,0,0,1.068,0V43.683h1.373v.712a.534.534,0,1,0,1.068,0v-.712h1.373v1.246a.534.534,0,0,0,1.068,0V43.683h1.373v.712a.534.534,0,1,0,1.068,0v-.712H33.1v1.246a.534.534,0,0,0,1.068,0V43.683h1.373v.712a.534.534,0,1,0,1.068,0v-.712h1.373v1.246a.534.534,0,0,0,1.068,0V43.683h1.424v1.246a.535.535,0,0,0,.849.432l3.916-2.848a.535.535,0,0,0,0-.864Zm-3.7,2.231v-.731a.534.534,0,0,0-.534-.534H3.1V4.7a.534.534,0,0,0-.534-.534H1.833l1.8-2.474,1.8,2.474H4.7a.534.534,0,0,0-.534.534V41.013a.534.534,0,0,0,.534.534H41.013a.534.534,0,0,0,.534-.534v-.731l2.474,1.8Z"/>
    </g>
  </g>
</svg>
