<svg xmlns="http://www.w3.org/2000/svg" xmlns:xlink="http://www.w3.org/1999/xlink" width="118" height="118" viewBox="0 0 118 118">
  <defs>
    <filter id="Trazado_896985" x="0" y="0" width="118" height="118" filterUnits="userSpaceOnUse">
      <feOffset dy="3" input="SourceAlpha"/>
      <feGaussianBlur stdDeviation="3" result="blur"/>
      <feFlood flood-opacity="0.161"/>
      <feComposite operator="in" in2="blur"/>
      <feComposite in="SourceGraphic"/>
    </filter>
  </defs>
  <g id="Grupo_1230983" data-name="Grupo 1230983" transform="translate(-1036.967 -5427.18)">
    <g id="Grupo_1212202" data-name="Grupo 1212202" transform="translate(0.076 -12499.82)">
      <g id="Grupo_1200070" data-name="Grupo 1200070" transform="translate(-0.949 13648.111)">
        <g id="Grupo_1198726" data-name="Grupo 1198726" transform="translate(0.95 -182.434)">
          <g id="Grupo_1198141" data-name="Grupo 1198141" transform="translate(711 615.322)">
            <g id="Grupo_1111318" data-name="Grupo 1111318" transform="translate(334.891 3852)">
              <g id="Grupo_1109826" data-name="Grupo 1109826" transform="translate(0)">
                <g id="Grupo_1098742" data-name="Grupo 1098742" transform="translate(0 0)">
                  <g transform="matrix(1, 0, 0, 1, -9, -6)" filter="url(#Trazado_896985)">
                    <g id="Trazado_896985-2" data-name="Trazado 896985" transform="translate(9 6)" fill="#d0c110" opacity="0.859">
                      <path d="M 49.99993515014648 99.5 C 43.31726837158203 99.5 36.83476257324219 98.19129943847656 30.73248100280762 95.61025238037109 C 24.83812141418457 93.11714172363281 19.54434776306152 89.54795837402344 14.99820137023926 85.00179290771484 C 10.45204162597656 80.45565032958984 6.88285493850708 75.16187286376953 4.389748573303223 69.26751708984375 C 1.808695197105408 63.16523742675781 0.5000017881393433 56.6827278137207 0.5000017881393433 50.00006103515625 C 0.5000017881393433 43.31726455688477 1.808695197105408 36.83475494384766 4.389748573303223 30.73247528076172 C 6.88285493850708 24.83811569213867 10.45204162597656 19.54434204101562 14.99820137023926 14.99819660186768 C 19.54434776306152 10.45203590393066 24.83812141418457 6.88284969329834 30.73248100280762 4.389742851257324 C 36.83476257324219 1.808689475059509 43.31726837158203 0.4999961853027344 49.99993515014648 0.4999961853027344 C 56.68260192871094 0.4999961853027344 63.16510772705078 1.808689475059509 69.26738739013672 4.389742851257324 C 75.16175079345703 6.88284969329834 80.45552062988281 10.45203590393066 85.00167083740234 14.99819660186768 C 89.54782867431641 19.54434204101562 93.11701202392578 24.83811569213867 95.61012268066406 30.73247528076172 C 98.19117736816406 36.83475494384766 99.49987030029297 43.31726455688477 99.49987030029297 49.99993133544922 C 99.49987030029297 56.6827278137207 98.19117736816406 63.16523742675781 95.61012268066406 69.26751708984375 C 93.11701202392578 75.16187286376953 89.54782867431641 80.45565032958984 85.00167083740234 85.00179290771484 C 80.45552062988281 89.54795837402344 75.16175079345703 93.11714172363281 69.26738739013672 95.61025238037109 C 63.16510772705078 98.19129943847656 56.68260192871094 99.5 49.99993515014648 99.5 Z" stroke="none"/>
                      <path d="M 49.99993515014648 0.9999923706054688 C 43.38454818725586 0.9999923706054688 36.96757507324219 2.29541015625 30.92725372314453 4.850250244140625 C 25.09249877929688 7.318145751953125 19.85213470458984 10.85135650634766 15.35174560546875 15.35174560546875 C 10.85136413574219 19.85212707519531 7.318145751953125 25.09249114990234 4.850257873535156 30.92724609375 C 2.295417785644531 36.96757125854492 1 43.38454437255859 1 50.00006103515625 C 1 56.61544799804688 2.295417785644531 63.03242111206055 4.850257873535156 69.07273864746094 C 7.318145751953125 74.90750122070312 10.85136413574219 80.14786529541016 15.35174560546875 84.64824676513672 C 19.85213470458984 89.14863586425781 25.09249877929688 92.68184661865234 30.92725372314453 95.14974212646484 C 36.96757507324219 97.70458221435547 43.38454818725586 99 49.99993515014648 99 C 56.61532211303711 99 63.03229522705078 97.70458221435547 69.07261657714844 95.14974212646484 C 74.90737915039062 92.68184661865234 80.14773559570312 89.14863586425781 84.64812469482422 84.64824676513672 C 89.14850616455078 80.14786529541016 92.68172454833984 74.90750122070312 95.14961242675781 69.07273864746094 C 97.70445251464844 63.03242111206055 98.99987030029297 56.61544799804688 98.99987030029297 49.99993133544922 C 98.99987030029297 43.38454437255859 97.70445251464844 36.96757125854492 95.14961242675781 30.92724609375 C 92.68172454833984 25.09249114990234 89.14850616455078 19.85212707519531 84.64812469482422 15.35174560546875 C 80.14773559570312 10.85135650634766 74.90737915039062 7.318145751953125 69.07261657714844 4.850250244140625 C 63.03229522705078 2.29541015625 56.61532211303711 0.9999923706054688 49.99993515014648 0.9999923706054688 M 49.99993515014648 -7.62939453125e-06 C 77.6141357421875 -7.62939453125e-06 99.99987030029297 22.38572692871094 99.99987030029297 49.99993133544922 L 99.99987030029297 50.00006103515625 C 99.99987030029297 77.61426544189453 77.6141357421875 100 49.99993515014648 100 C 22.38573455810547 100 0 77.61426544189453 0 50.00006103515625 L 0 49.99993133544922 C 0 22.38572692871094 22.38573455810547 -7.62939453125e-06 49.99993515014648 -7.62939453125e-06 Z" stroke="none" fill="#fff"/>
                    </g>
                  </g>
                  <g id="Rectángulo_400907" data-name="Rectángulo 400907" transform="translate(0)" fill="none" stroke="#fff" stroke-width="1">
                    <rect width="100" height="100" rx="50" stroke="none"/>
                    <rect x="0.5" y="0.5" width="99" height="99" rx="49.5" fill="none"/>
                  </g>
                </g>
              </g>
            </g>
          </g>
        </g>
      </g>
    </g>
    <g id="pie-chart_559132" transform="translate(1062.116 5449.327)">
      <path id="Trazado_1184811" data-name="Trazado 1184811" d="M62.659,7.505A31.28,31.28,0,1,0,93.94,38.785,31.28,31.28,0,0,0,62.659,7.505Zm0,51.685A20.405,20.405,0,1,1,83.064,38.785,20.4,20.4,0,0,1,62.659,59.19Z" transform="translate(-27.23 -6.511)" fill="#ffe1a0"/>
      <path id="Trazado_1184812" data-name="Trazado 1184812" d="M93.94,207.5a31.493,31.493,0,0,0-.494-5.571A31.279,31.279,0,0,1,62.66,232.608a31.279,31.279,0,0,1-30.786-30.682A31.31,31.31,0,0,0,62.66,238.778h0A31.281,31.281,0,0,0,93.94,207.5Z" transform="translate(-27.23 -175.223)" fill="#efcc86"/>
      <path id="Trazado_1184813" data-name="Trazado 1184813" d="M41.92,261.866v15.568a.663.663,0,0,1-.678.661A34.5,34.5,0,0,1,7.5,244.275a.663.663,0,0,1,.661-.678H23.73a.661.661,0,0,1,.66.639,17.615,17.615,0,0,0,16.893,16.971A.661.661,0,0,1,41.92,261.866Z" transform="translate(-6.509 -211.384)" fill="#44c1dd"/>
      <path id="Trazado_1184814" data-name="Trazado 1184814" d="M69.815,243.6H77.8a.661.661,0,0,1,.66.639,17.561,17.561,0,0,0,16.893,16.909.661.661,0,0,1,.638.66v8.847A29.753,29.753,0,0,1,69.815,243.6Z" transform="translate(-60.584 -211.383)" fill="#37b0c4"/>
      <path id="Trazado_1184815" data-name="Trazado 1184815" d="M58.25,9.454A32.269,32.269,0,0,0,3.177,31.283H1.653A1.655,1.655,0,0,0,0,32.972,35.437,35.437,0,0,0,34.714,67.7h.034A1.655,1.655,0,0,0,36.4,66.05V64.53a32.429,32.429,0,0,0,5.53-.64.992.992,0,0,0-.4-1.943,30.435,30.435,0,0,1-5.132.6v-8.9A21.4,21.4,0,0,0,53.075,20.168a.992.992,0,0,0-1.635,1.123A19.416,19.416,0,0,1,36.4,51.663V51.6h0V50.482a1.647,1.647,0,0,0-1.594-1.651A16.62,16.62,0,0,1,18.871,32.878a1.647,1.647,0,0,0-1.651-1.6H15.979c.117-.013.065-.062.065-.062A19.416,19.416,0,0,1,46.692,16.459a.992.992,0,0,0,1.152-1.615A21.4,21.4,0,0,0,14.057,31.283h-8.9a30.288,30.288,0,1,1,42.9,28.532.992.992,0,1,0,.827,1.8A32.28,32.28,0,0,0,58.25,9.454ZM22.305,45.387A18.483,18.483,0,0,0,34.42,50.8V65.713A33.341,33.341,0,0,1,1.991,33.267H16.9A18.477,18.477,0,0,0,22.305,45.387Z" transform="translate(0 0)"/>
    </g>
  </g>
</svg>
