<svg xmlns="http://www.w3.org/2000/svg" xmlns:xlink="http://www.w3.org/1999/xlink" width="88" height="88" viewBox="0 0 88 88">
  <defs>
    <filter id="Trazado_896985" x="0" y="0" width="88" height="88" filterUnits="userSpaceOnUse">
      <feOffset dy="3" input="SourceAlpha"/>
      <feGaussianBlur stdDeviation="3" result="blur"/>
      <feFlood flood-opacity="0.161"/>
      <feComposite operator="in" in2="blur"/>
      <feComposite in="SourceGraphic"/>
    </filter>
  </defs>
  <g id="Grupo_1212723" data-name="Grupo 1212723" transform="translate(-196.967 -9157.27)">
    <g id="Grupo_1212198" data-name="Grupo 1212198" transform="translate(205.967 9163.27)">
      <g id="Grupo_1200012" data-name="Grupo 1200012" transform="translate(0 0)">
        <g id="Grupo_1198723" data-name="Grupo 1198723" transform="translate(0 0)">
          <g id="Grupo_1198139" data-name="Grupo 1198139">
            <g id="Grupo_1111318" data-name="Grupo 1111318">
              <g id="Grupo_1109826" data-name="Grupo 1109826" transform="translate(0)">
                <g id="Grupo_1098742" data-name="Grupo 1098742">
                  <g transform="matrix(1, 0, 0, 1, -9, -6)" filter="url(#Trazado_896985)">
                    <g id="Trazado_896985-2" data-name="Trazado 896985" transform="translate(9 6)" fill="#d0c110" opacity="0.859">
                      <path d="M 34.99995040893555 69.49998474121094 C 30.34226989746094 69.49998474121094 25.82417106628418 68.58788299560547 21.57117080688477 66.78900909423828 C 17.4630012512207 65.05139923095703 13.77338027954102 62.56376266479492 10.6048002243042 59.39518356323242 C 7.436220645904541 56.22661209106445 4.948580265045166 52.53699111938477 3.210970401763916 48.4288215637207 C 1.412100434303284 44.17582321166992 0.5000004172325134 39.65772247314453 0.5000004172325134 35.00004196166992 C 0.5000004172325134 30.34233283996582 1.412100434303284 25.82422256469727 3.210970401763916 21.57120323181152 C 4.948580265045166 17.46302223205566 7.436220645904541 13.77339267730713 10.6048002243042 10.60481262207031 C 13.77338027954102 7.436232566833496 17.46298980712891 4.948582172393799 21.57117080688477 3.210972309112549 C 25.82417106628418 1.412102341651917 30.34226036071777 0.500002384185791 34.99995040893555 0.500002384185791 C 39.65763092041016 0.500002384185791 44.17573165893555 1.412102341651917 48.42873001098633 3.210972309112549 C 52.53689956665039 4.948582172393799 56.22652053833008 7.436222553253174 59.39509963989258 10.60480213165283 C 62.56367874145508 13.77338218688965 65.05132293701172 17.46299171447754 66.78893280029297 21.57116317749023 C 68.58779907226562 25.82416152954102 69.49990081787109 30.34226226806641 69.49990081787109 34.99994277954102 C 69.49990081787109 39.65765380859375 68.58779907226562 44.17576217651367 66.78893280029297 48.42878341674805 C 65.05132293701172 52.53696060180664 62.56367874145508 56.22659301757812 59.39509963989258 59.39517211914062 C 56.22652053833008 62.56375122070312 52.53691101074219 65.05139923095703 48.42873001098633 66.78900909423828 C 44.17573165893555 68.58788299560547 39.65763854980469 69.49998474121094 34.99995040893555 69.49998474121094 Z" stroke="none"/>
                      <path d="M 34.99995040893555 1 C 30.40954208374023 1 25.95698165893555 1.898811340332031 21.76594161987305 3.671485900878906 C 17.71736907958984 5.383880615234375 14.08116912841797 7.835540771484375 10.95835113525391 10.9583625793457 C 7.835540771484375 14.08119201660156 5.383872985839844 17.71740341186523 3.671470642089844 21.76598358154297 C 1.898811340332031 25.95703125 1 30.40961074829102 1 35.00004196166992 C 1 39.5904541015625 1.898811340332031 44.04301452636719 3.671470642089844 48.23405456542969 C 5.383872985839844 52.28262329101562 7.835540771484375 55.9188117980957 10.95835113525391 59.04163360595703 C 14.08116912841797 62.16445159912109 17.71736907958984 64.61611175537109 21.76594161987305 66.32851409912109 C 25.95698165893555 68.10117340087891 30.40954208374023 68.99998474121094 34.99995040893555 68.99998474121094 C 39.59036254882812 68.99998474121094 44.04292297363281 68.10117340087891 48.23396301269531 66.32851409912109 C 52.28253173828125 64.61610412597656 55.91873168945312 62.16444396972656 59.04154968261719 59.04162216186523 C 62.16436004638672 55.91879272460938 64.61602783203125 52.2825927734375 66.32843017578125 48.23401260375977 C 68.10108947753906 44.04295349121094 68.99990081787109 39.59037017822266 68.99990081787109 34.99994277954102 C 68.99990081787109 30.40954208374023 68.10108947753906 25.95698165893555 66.32843017578125 21.76594161987305 C 64.61602783203125 17.71737289428711 62.16436004638672 14.08117294311523 59.04154968261719 10.95835113525391 C 55.91873168945312 7.835533142089844 52.28253173828125 5.383872985839844 48.23396301269531 3.671470642089844 C 44.04292297363281 1.898811340332031 39.59036254882812 1 34.99995040893555 1 M 34.99995040893555 0 C 54.32989120483398 0 69.99990081787109 15.67001342773438 69.99990081787109 34.99994277954102 L 69.99990081787109 35.00004196166992 C 69.99990081787109 54.32998275756836 54.32989120483398 69.99998474121094 34.99995040893555 69.99998474121094 C 15.67000961303711 69.99998474121094 0 54.32998275756836 0 35.00004196166992 L 0 34.99994277954102 C 0 15.67001342773438 15.67000961303711 0 34.99995040893555 0 Z" stroke="none" fill="#fff"/>
                    </g>
                  </g>
                  <g id="Rectángulo_400907" data-name="Rectángulo 400907" transform="translate(0)" fill="none" stroke="#fff" stroke-width="1">
                    <rect width="70" height="70" rx="35" stroke="none"/>
                    <rect x="0.5" y="0.5" width="69" height="69" rx="34.5" fill="none"/>
                  </g>
                </g>
              </g>
            </g>
          </g>
        </g>
      </g>
    </g>
    <g id="Page-1" transform="translate(218.075 9175.371)">
      <g id="_044---Layers" data-name="044---Layers" transform="translate(-0.012 0)">
        <path id="Shape" d="M42.577,38.7l-16.19,8.129a1.553,1.553,0,0,1-1.374,0l-1.221-.611L8.823,38.7a.382.382,0,0,1,0-.687l6.336-3.183H36.234l6.343,3.183a.382.382,0,0,1,0,.687Z" transform="translate(-2.791 -8.243)" fill="#0ab1b1"/>
        <path id="Shape-2" data-name="Shape" d="M38.761,38.7,23.792,46.219,8.823,38.7a.382.382,0,0,1,0-.687l6.336-3.183H32.418l6.343,3.183a.382.382,0,0,1,0,.687Z" transform="translate(-2.791 -8.243)" fill="#0af3f4"/>
        <path id="Shape-3" data-name="Shape" d="M42.589,29.42,36.23,32.672l-9.839,5.038a1.491,1.491,0,0,1-1.389,0l-1.214-.618-3.977-2.038-1.7-.87-2.954-1.511L8.8,29.42a.377.377,0,0,1,0-.672c1.076-.557,3.366-1.725,5.923-3.038H36.673l5.916,3.03a.382.382,0,0,1,0,.679Z" transform="translate(-2.787 -6.085)" fill="#6a1b9a"/>
        <path id="Shape-4" data-name="Shape" d="M38.772,29.42l-6.359,3.252-8.626,4.42-3.977-2.038-1.7-.87-2.954-1.511L8.8,29.42a.377.377,0,0,1,0-.672c1.076-.557,3.366-1.725,5.923-3.038H32.856l5.916,3.03a.382.382,0,0,1,0,.679Z" transform="translate(-2.787 -6.085)" fill="#9d27b0"/>
        <path id="Shape-5" data-name="Shape" d="M42.58,19.079l-16.2,8.091a1.52,1.52,0,0,1-1.359,0l-1.229-.611-4.824-2.412-1.725-.863L8.826,19.079a.389.389,0,0,1,0-.687l14.969-7.481,1.229-.611a1.52,1.52,0,0,1,1.359,0l16.2,8.091a.389.389,0,0,1,0,.687Z" transform="translate(-2.794 -2.4)" fill="#ad1457"/>
        <path id="Shape-6" data-name="Shape" d="M38.764,19.318,23.795,26.8l-4.824-2.412-1.725-.863L8.826,19.318a.389.389,0,0,1,0-.687L23.795,11.15l14.969,7.481a.389.389,0,0,1,0,.687Z" transform="translate(-2.794 -2.639)" fill="#e91e63"/>
        <path id="Shape-7" data-name="Shape" d="M25.32,27.984a.763.763,0,0,1-.341-.076L7.422,19.13a.763.763,0,0,1,0-1.366L24.979,8.986a.763.763,0,0,1,.682,0l17.556,8.778a.763.763,0,0,1,0,1.366L25.661,27.908A.763.763,0,0,1,25.32,27.984ZM9.47,18.443l15.85,7.925,15.85-7.925L25.32,10.519Z" transform="translate(-2.411 -2.108)"/>
        <path id="Shape-8" data-name="Shape" d="M16.708,20.263a.763.763,0,0,1-.342-1.446L27.1,13.452a.763.763,0,1,1,.682,1.366L17.05,20.186A.772.772,0,0,1,16.708,20.263Z" transform="translate(-4.528 -3.164)"/>
        <path id="Shape-9" data-name="Shape" d="M16.7,29.975a.763.763,0,0,1-.342-1.447l3.1-1.549a.763.763,0,1,1,.682,1.366l-3.1,1.549A.757.757,0,0,1,16.7,29.975Z" transform="translate(-4.526 -6.366)"/>
        <path id="Shape-10" data-name="Shape" d="M16.763,39.824a.763.763,0,0,1-.342-1.446l3.9-1.947A.763.763,0,0,1,21,37.8l-3.9,1.951A.767.767,0,0,1,16.763,39.824Z" transform="translate(-4.541 -8.604)"/>
        <path id="Shape-11" data-name="Shape" d="M25.32,38.594a.763.763,0,0,1-.348-.084L7.415,29.527A.763.763,0,0,1,7,28.847c0-.471,0-.471,1.908-1.45l5.085-2.6a.764.764,0,0,1,.7,1.36l-1.409.721-3.849,1.97L25.32,36.974,41.2,28.839l-5.252-2.687a.764.764,0,1,1,.7-1.36l6.581,3.366a.763.763,0,0,1,0,1.359L25.668,38.51A.764.764,0,0,1,25.32,38.594Z" transform="translate(-2.411 -5.848)"/>
        <path id="Shape-12" data-name="Shape" d="M25.32,47.7a.764.764,0,0,1-.343-.081L7.421,38.8a.763.763,0,0,1,0-1.364l7.015-3.527a.764.764,0,1,1,.687,1.364L9.464,38.119,25.32,46.082,41.175,38.12l-5.664-2.844a.764.764,0,1,1,.687-1.364l7.023,3.527a.763.763,0,0,1,0,1.364L25.664,47.619A.763.763,0,0,1,25.32,47.7Z" transform="translate(-2.411 -8.007)"/>
        <path id="Shape-13" data-name="Shape" d="M4.763,15.266A.763.763,0,0,1,4,14.5V.763a.763.763,0,1,1,1.527,0V14.5A.763.763,0,0,1,4.763,15.266Z" transform="translate(-1.701 0)"/>
        <path id="Shape-14" data-name="Shape" d="M4.05,18.814a.763.763,0,0,1-.54-.224L1.221,16.3A.763.763,0,1,1,2.3,15.221l1.75,1.75,1.75-1.75A.763.763,0,0,1,6.88,16.3L4.59,18.59A.763.763,0,0,1,4.05,18.814Z" transform="translate(-0.988 -3.547)"/>
        <path id="Shape-15" data-name="Shape" d="M56.763,55.266A.763.763,0,0,1,56,54.5V40.763a.763.763,0,0,1,1.527,0V54.5A.763.763,0,0,1,56.763,55.266Z" transform="translate(-14.008 -9.467)"/>
        <path id="Shape-16" data-name="Shape" d="M58.346,43.817a.763.763,0,0,1-.54-.224l-1.75-1.75-1.75,1.75a.763.763,0,0,1-1.079-1.079l2.29-2.29a.763.763,0,0,1,1.079,0l2.29,2.29a.763.763,0,0,1-.54,1.3Z" transform="translate(-13.301 -9.467)"/>
      </g>
    </g>
  </g>
</svg>
