<svg xmlns="http://www.w3.org/2000/svg" width="85.001" height="85" viewBox="0 0 85.001 85">
  <g id="Grupo_1230996" data-name="Grupo 1230996" transform="translate(-180.05 -19975.999)">
    <g id="Grupo_1198274" data-name="Grupo 1198274" transform="translate(180.102 19976.004)">
      <g id="Grupo_1112424" data-name="Grupo 1112424" transform="translate(-0.051 0.045)">
        <g id="Grupo_1112415" data-name="Grupo 1112415">
          <g id="Grupo_1098742" data-name="Grupo 1098742" transform="translate(0 0)">
            <g id="Rect치ngulo_400898" data-name="Rect치ngulo 400898" transform="translate(0.001 -0.051)" fill="#f5f2ce" stroke="#908619" stroke-width="3">
              <rect width="85" height="85" rx="42.5" stroke="none"/>
              <rect x="1.5" y="1.5" width="82" height="82" rx="41" fill="none"/>
            </g>
            <g id="Rect치ngulo_400907" data-name="Rect치ngulo 400907" transform="translate(0 -0.051)" fill="none" stroke="#908619" stroke-width="3">
              <rect width="85" height="85" rx="42.5" stroke="none"/>
              <rect x="1.5" y="1.5" width="82" height="82" rx="41" fill="none"/>
            </g>
          </g>
        </g>
      </g>
    </g>
    <g id="reading_680607" transform="translate(113.305 19983.875)">
      <path id="Trazado_1181176" data-name="Trazado 1181176" d="M137.526,282.857a4.544,4.544,0,0,0-1.331-1.665c-.954-.746-.891-.624-8.555-2.885H113.666l.012-.008,0,0-7.209,2.126a4.716,4.716,0,0,0-3.088,3.592l-2.436,12.49h39.39C137.933,284.991,138.067,284.013,137.526,282.857Z" transform="translate(-11.463 -242.831)" fill="#4aa5d3"/>
      <path id="Trazado_1181177" data-name="Trazado 1181177" d="M109.71,287.482l-3.24.956a4.716,4.716,0,0,0-3.088,3.591l-2.436,12.49H105.1l2.436-13.892A4.66,4.66,0,0,1,109.71,287.482Z" transform="translate(-11.461 -250.846)" fill="#2594bf"/>
      <path id="Trazado_1181178" data-name="Trazado 1181178" d="M221.57,241.1v3.165l4.322,5.5,4.323-5.51v-.764h0v-.255h0v-.127h0v-.255h0v-1.8A10.786,10.786,0,0,1,221.57,241.1Z" transform="translate(-116.712 -210.331)" fill="#eab883"/>
      <path id="Trazado_1181179" data-name="Trazado 1181179" d="M225.01,242.309a10.355,10.355,0,0,1-3.44-.849v3.165L225.01,249Z" transform="translate(-116.712 -210.689)" fill="#e0a773"/>
      <path id="Trazado_1181180" data-name="Trazado 1181180" d="M156.84,24.41a3.269,3.269,0,0,1,3.723-2.872,14.306,14.306,0,0,0,11.6-3.109.84.84,0,0,1,1.284.232,4.109,4.109,0,0,0,3.249,2.216.5.5,0,0,1,.459.5c0,1.19,0,2.189,0,3.031a3.6,3.6,0,0,1,2.748.219c0-3.119,0-4.449-.019-4.772-.739-14.578-21.461-16.845-25.344-2.777-.479,1.743-.486,2.488-.476,7.551A3.6,3.6,0,0,1,156.84,24.41Z" transform="translate(-57.809 -6.67)" fill="#93482b"/>
      <path id="Trazado_1181181" data-name="Trazado 1181181" d="M160.859,17.082a12.333,12.333,0,0,1,9.189-9.07c-6.185-1.446-13.377,1.356-15.507,9.07-.479,1.743-.486,2.488-.476,7.551a3.6,3.6,0,0,1,2.775-.221,3.269,3.269,0,0,1,3.546-2.892A14.361,14.361,0,0,1,160.859,17.082Z" transform="translate(-57.809 -6.673)" fill="#873921"/>
      <g id="Grupo_1230837" data-name="Grupo 1230837" transform="translate(102.203 33.668)">
        <path id="Trazado_1181182" data-name="Trazado 1181182" d="M259.81,264.189l-4.323,5.765,3.9,1.474a.847.847,0,0,0,1.3-.4l1.8-5.035Z" transform="translate(-248.51 -264.189)" fill="#2594bf"/>
        <path id="Trazado_1181183" data-name="Trazado 1181183" d="M203.4,264.291l4.322,5.753-3.878,1.474a.847.847,0,0,1-1.3-.4l-1.8-5.035Z" transform="translate(-200.742 -264.278)" fill="#2594bf"/>
      </g>
      <g id="Grupo_1230838" data-name="Grupo 1230838" transform="translate(94.603 17.56)">
        <path id="Trazado_1181184" data-name="Trazado 1181184" d="M334.627,138a43.869,43.869,0,0,1-.094,5.551c2.162.762,4.5-.671,4.5-2.76C339.036,138.734,336.762,137.314,334.627,138Z" transform="translate(-309.882 -137.823)" fill="#eab883"/>
        <path id="Trazado_1181185" data-name="Trazado 1181185" d="M145.535,137.974c-2.142-.7-4.428.724-4.428,2.79,0,2.09,2.341,3.525,4.5,2.766C145.478,142.547,145.489,138.4,145.535,137.974Z" transform="translate(-141.107 -137.794)" fill="#eab883"/>
      </g>
      <g id="Grupo_1230839" data-name="Grupo 1230839" transform="translate(94.603 19.245)">
        <path id="Trazado_1181186" data-name="Trazado 1181186" d="M334.629,152.528a16.485,16.485,0,0,1-.1,2.539c2.162.762,4.5-.671,4.5-2.76a2.7,2.7,0,0,0-.324-1.285A3.453,3.453,0,0,1,334.629,152.528Z" transform="translate(-309.882 -151.022)" fill="#e0a773"/>
        <path id="Trazado_1181187" data-name="Trazado 1181187" d="M141.432,151.021a2.7,2.7,0,0,0-.323,1.285c0,2.09,2.341,3.525,4.5,2.766-.059-.431-.089-1.471-.1-2.538A3.457,3.457,0,0,1,141.432,151.021Z" transform="translate(-141.109 -151.021)" fill="#e0a773"/>
      </g>
      <path id="Trazado_1181188" data-name="Trazado 1181188" d="M147.364,340.451c-6.68-1.7-11.523.438-12.951.669a1.135,1.135,0,0,0-.851,1.1v17.4a1.167,1.167,0,0,0,1.459,1.129l1.272-.329a23.991,23.991,0,0,1,12.808.26V340.893Z" transform="translate(-39.92 -296.496)" fill="#e6e6e6"/>
      <path id="Trazado_1181189" data-name="Trazado 1181189" d="M137,363.685v-18.51a1.2,1.2,0,0,1,.116-.515c-1.278.3-2.2.62-2.705.7a1.135,1.135,0,0,0-.851,1.1v17.4a1.167,1.167,0,0,0,1.459,1.129l1.272-.329c.326-.084.647-.158.965-.226A1.228,1.228,0,0,1,137,363.685Z" transform="translate(-39.92 -300.737)" fill="#ccc"/>
      <path id="Trazado_1181190" data-name="Trazado 1181190" d="M270.174,341.126l-2.5-.648a22.483,22.483,0,0,0-12.184.421v19.788l1.113-.283a24.206,24.206,0,0,1,12.966.353,1.167,1.167,0,0,0,1.459-1.129v-17.4A1.136,1.136,0,0,0,270.174,341.126Z" transform="translate(-146.307 -296.501)" fill="#e6e6e6"/>
      <g id="Grupo_1230840" data-name="Grupo 1230840" transform="translate(109.18 43.594)">
        <path id="Trazado_1181191" data-name="Trazado 1181191" d="M258.96,342.079c-1.812.3-3.039.738-3.474.8v19.788l1.113-.283a23.658,23.658,0,0,1,2.361-.474Z" transform="translate(-255.486 -342.079)" fill="#ccc"/>
        <path id="Trazado_1181192" data-name="Trazado 1181192" d="M282.743,372.98v3.295a.985.985,0,0,0,1.082.982,23.509,23.509,0,0,1,6.279.21.986.986,0,0,0,1.151-.972v-3.245a.987.987,0,0,0-.782-.967A21,21,0,0,0,283.6,372,.985.985,0,0,0,282.743,372.98Z" transform="translate(-279.269 -368.047)" fill="#ccc"/>
      </g>
      <path id="Trazado_1181193" data-name="Trazado 1181193" d="M286.183,376.526v-3.8a1.143,1.143,0,0,1,.41-.877A21,21,0,0,0,283.6,372a.985.985,0,0,0-.858.98v3.295a.985.985,0,0,0,1.082.982,23.5,23.5,0,0,1,2.541-.116A1.133,1.133,0,0,1,286.183,376.526Z" transform="translate(-170.089 -324.456)" fill="#bcbcbc"/>
      <path id="Trazado_1181194" data-name="Trazado 1181194" d="M229.256,342.246V362.08a32.222,32.222,0,0,1,3.343.737V343.028C231.15,342.672,230.537,342.467,229.256,342.246Z" transform="translate(-123.419 -298.631)" fill="#666"/>
      <path id="Trazado_1181195" data-name="Trazado 1181195" d="M195.545,93.337a.5.5,0,0,1,.459.5c0,8.561.006,7.309-.014,7.707-.582,11.478-16.9,13.263-19.954,2.187a9.623,9.623,0,0,1-.334-1.9c-.057-.719-.033-4.622-.033-4.609A3.268,3.268,0,0,1,179.411,94a14.306,14.306,0,0,0,11.6-3.109.84.84,0,0,1,1.284.232A4.108,4.108,0,0,0,195.545,93.337Z" transform="translate(-76.656 -79.129)" fill="#f7cf9c"/>
      <path id="Trazado_1181196" data-name="Trazado 1181196" d="M179.218,123.99c-.02-.4-.015.838-.014-7.57a3.267,3.267,0,0,0-3.537,3.253c0-.012-.024,3.89.033,4.609a9.639,9.639,0,0,0,.334,1.9,9.918,9.918,0,0,0,11.569,7.269A9.823,9.823,0,0,1,179.218,123.99Z" transform="translate(-76.655 -101.575)" fill="#eab883"/>
      <g id="Grupo_1230841" data-name="Grupo 1230841" transform="translate(88.701 53.28)">
        <path id="Trazado_1181197" data-name="Trazado 1181197" d="M367.411,424.964h-3.549A1.67,1.67,0,0,1,362.2,423.3v-3.549a1.67,1.67,0,0,1,1.665-1.665h3.549a1.67,1.67,0,0,1,1.665,1.665V423.3A1.67,1.67,0,0,1,367.411,424.964Z" transform="translate(-328.119 -418.084)" fill="#f7cf9c"/>
        <path id="Trazado_1181198" data-name="Trazado 1181198" d="M100.009,424.964H96.46a1.67,1.67,0,0,1-1.665-1.665v-3.549a1.67,1.67,0,0,1,1.665-1.665h3.549a1.67,1.67,0,0,1,1.665,1.665V423.3A1.67,1.67,0,0,1,100.009,424.964Z" transform="translate(-94.795 -418.084)" fill="#f7cf9c"/>
      </g>
      <g id="Grupo_1230842" data-name="Grupo 1230842" transform="translate(88.701 55.055)">
        <path id="Trazado_1181199" data-name="Trazado 1181199" d="M367.411,433.671h-3.549a1.67,1.67,0,0,1-1.665-1.665v3.44a1.67,1.67,0,0,0,1.665,1.665h3.549a1.67,1.67,0,0,0,1.665-1.665v-3.44A1.67,1.67,0,0,1,367.411,433.671Z" transform="translate(-328.119 -432.006)" fill="#eab883"/>
        <path id="Trazado_1181200" data-name="Trazado 1181200" d="M100.009,433.671H96.46a1.67,1.67,0,0,1-1.665-1.665v3.44a1.67,1.67,0,0,0,1.665,1.665h3.549a1.67,1.67,0,0,0,1.665-1.665v-3.44A1.67,1.67,0,0,1,100.009,433.671Z" transform="translate(-94.795 -432.006)" fill="#eab883"/>
      </g>
      <path id="Trazado_1181201" data-name="Trazado 1181201" d="M129.834,53.023c-.5-2.391-.933-4.532-1.326-6.535a.956.956,0,1,0-1.875.368c.334,1.7.7,3.5,1.1,5.469h-2v-6.6a2.091,2.091,0,0,0-1.567-2.024l-2.5-.648a23.093,23.093,0,0,0-12.424.36,23.182,23.182,0,0,0-12.424-.36l-2.5.648a2.091,2.091,0,0,0-1.567,2.024v6.6H90.743l2.181-10.954a3.733,3.733,0,0,1,2.523-2.892l6.223-1.836c1.527,4.105,1.468,5.106,2.883,5.359a1.758,1.758,0,0,0,1.1-.157c.447-.222.819-.322,3.589-1.389,1.735.666,3.207,1.191,3.608,1.39a1.8,1.8,0,0,0,2.49-1.013l1.494-4.185c6.675,1.962,6.62,1.879,7.371,2.466,1.139.891,1.3,1.89,1.569,3.281a.956.956,0,1,0,1.876-.363c-.363-1.877-.7-3.2-2.269-4.424-1.112-.869-1.11-.76-8.731-3.007l-2.13-1.441V31.7a10.443,10.443,0,0,0,5.573-7.266,4.138,4.138,0,0,0,4.681-3.9,3.788,3.788,0,0,0-1.661-3.107c0-2.857,0-3.959-.02-4.285-.586-11.564-13.244-16.3-21.54-10.946A.955.955,0,1,0,102.592,3.8c6.886-4.441,18.074-.852,18.6,9.436.013.256.017,1.33.018,3.424a4.557,4.557,0,0,0-.836-.047c-.028-1.777.068-2.008-.1-2.439a1.457,1.457,0,0,0-1.222-.917,2.97,2.97,0,0,1-1.886-.887,3.867,3.867,0,0,1-.619-.842,1.8,1.8,0,0,0-2.74-.495,13.3,13.3,0,0,1-10.844,2.89,4.235,4.235,0,0,0-4.572,2.7,4.575,4.575,0,0,0-1.109.032c0-3.907.045-4.546.443-5.993a12.6,12.6,0,0,1,1.9-4.036.956.956,0,1,0-1.551-1.117,14.5,14.5,0,0,0-2.19,4.645c-.5,1.83-.52,2.735-.511,7.271a3.791,3.791,0,0,0-1.652,3.1,4.144,4.144,0,0,0,4.7,3.9,10.753,10.753,0,0,0,5.552,7.323v1.416l-2.1,1.418c-5.126,1.512-7.084,2.088-7.14,2.11A5.639,5.639,0,0,0,91.05,41l-2.4,12.028a2.611,2.611,0,0,0-.844,1.921v3.549a2.624,2.624,0,0,0,2.621,2.621h2.32v2.01a2.122,2.122,0,0,0,2.654,2.055c1.408-.361.541-.146,1.757-.447a.956.956,0,0,0-.437-1.86c-1.2.3-.408.1-1.8.457a.21.21,0,0,1-.264-.2v-2.1A2.633,2.633,0,0,0,96.6,58.495c-.044-3.006.53-5.415-1.939-6.08V45.723c0-.255.2-.139,2.638-.822a20.115,20.115,0,0,1,7.646-.465V62.362a24.545,24.545,0,0,0-3.582-.121.956.956,0,0,0,.075,1.91,26.46,26.46,0,0,1,7.8.99,24.29,24.29,0,0,1,12.577-.29,8.433,8.433,0,0,0,1.809.4,2.123,2.123,0,0,0,2.117-2.123v-2.01h2.319a2.624,2.624,0,0,0,2.621-2.621V54.946A2.611,2.611,0,0,0,129.834,53.023ZM113.59,40.062c-.1-.053,0,0-2.817-1.073l3.014-4.02,1.306.883Zm6.759-17.526c.03-.531.017-3.476.02-4.008a2.231,2.231,0,0,1,2.5,2A2.577,2.577,0,0,1,120.349,22.536ZM96.455,19a2.6,2.6,0,0,1,1.665-.473c-.019,3.018.024,4,.025,4.017C95.914,22.686,94.716,20.258,96.455,19Zm3.911,5.352c-.492-1.79-.333-3.166-.333-6.251a2.318,2.318,0,0,1,2.65-2.284,15.168,15.168,0,0,0,12.255-3.24,5.052,5.052,0,0,0,3.52,2.53c0,2.182.03,7.122-.082,8.034C117.181,32.838,103.061,34.112,100.366,24.349Zm12.247,8.124v.876l-3.368,4.492-3.366-4.48v-.844A11.8,11.8,0,0,0,112.613,32.473Zm-7.908,2.508,3.013,4.01c-2.806,1.069-2.7,1.019-2.8,1.071l-1.5-4.21ZM89.722,58.494V54.946a.711.711,0,0,1,.71-.71h3.275c.094.021.692-.121.928.434.1.237.036.1.056,3.825a.711.711,0,0,1-.71.71H90.432A.711.711,0,0,1,89.722,58.494Zm17.136,4.149V44.783c.565.131.354.086,1.432.357V62.957C107.882,62.854,107.337,62.733,106.858,62.643Zm16.888.649c-.359.278-5.723-2.3-13.546-.336V45.14a20.669,20.669,0,0,1,10.99-.239c2.435.683,2.638.567,2.638.822v6.692a2.63,2.63,0,0,0-1.916,2.2c-.037.3-.034,3.933,0,4.2a2.628,2.628,0,0,0,1.916,2.2C123.787,63.086,123.907,63.169,123.746,63.293Zm5.022-4.8a.711.711,0,0,1-.71.71H124.51a.711.711,0,0,1-.71-.71V54.946a.71.71,0,0,1,.71-.71h3.549a.711.711,0,0,1,.71.71Z" transform="translate(0)"/>
      <path id="Trazado_1181202" data-name="Trazado 1181202" d="M286.184,366.7a1.949,1.949,0,0,0-1.542-1.9,21.926,21.926,0,0,0-7.184-.294,1.942,1.942,0,0,0-1.7,1.928v3.295a1.941,1.941,0,0,0,2.134,1.932,22.545,22.545,0,0,1,6.024.2,1.942,1.942,0,0,0,2.265-1.915V366.7Zm-1.922,3.269a.027.027,0,0,1-.025.007,24.469,24.469,0,0,0-6.534-.218.022.022,0,0,1-.02-.007.029.029,0,0,1-.011-.024v-3.295a.031.031,0,0,1,.021-.031,20.017,20.017,0,0,1,6.559.269.032.032,0,0,1,.021.031C284.273,370.188,284.279,369.957,284.262,369.971Z" transform="translate(-163.997 -317.907)"/>
    </g>
  </g>
</svg>
