<svg xmlns="http://www.w3.org/2000/svg" xmlns:xlink="http://www.w3.org/1999/xlink" width="88" height="88" viewBox="0 0 88 88">
  <defs>
    <filter id="Trazado_896985" x="0" y="0" width="88" height="88" filterUnits="userSpaceOnUse">
      <feOffset dy="3" input="SourceAlpha"/>
      <feGaussianBlur stdDeviation="3" result="blur"/>
      <feFlood flood-opacity="0.161"/>
      <feComposite operator="in" in2="blur"/>
      <feComposite in="SourceGraphic"/>
    </filter>
  </defs>
  <g id="Grupo_1212721" data-name="Grupo 1212721" transform="translate(-196.967 -9157.27)">
    <g id="Grupo_1212198" data-name="Grupo 1212198" transform="translate(205.967 9163.27)">
      <g id="Grupo_1200012" data-name="Grupo 1200012" transform="translate(0 0)">
        <g id="Grupo_1198723" data-name="Grupo 1198723" transform="translate(0 0)">
          <g id="Grupo_1198139" data-name="Grupo 1198139">
            <g id="Grupo_1111318" data-name="Grupo 1111318">
              <g id="Grupo_1109826" data-name="Grupo 1109826" transform="translate(0)">
                <g id="Grupo_1098742" data-name="Grupo 1098742">
                  <g transform="matrix(1, 0, 0, 1, -9, -6)" filter="url(#Trazado_896985)">
                    <g id="Trazado_896985-2" data-name="Trazado 896985" transform="translate(9 6)" fill="#d0c110" opacity="0.859">
                      <path d="M 34.99995040893555 69.49998474121094 C 30.34226989746094 69.49998474121094 25.82417106628418 68.58788299560547 21.57117080688477 66.78900909423828 C 17.4630012512207 65.05139923095703 13.77338027954102 62.56376266479492 10.6048002243042 59.39518356323242 C 7.436220645904541 56.22661209106445 4.948580265045166 52.53699111938477 3.210970401763916 48.4288215637207 C 1.412100434303284 44.17582321166992 0.5000004172325134 39.65772247314453 0.5000004172325134 35.00004196166992 C 0.5000004172325134 30.34233283996582 1.412100434303284 25.82422256469727 3.210970401763916 21.57120323181152 C 4.948580265045166 17.46302223205566 7.436220645904541 13.77339267730713 10.6048002243042 10.60481262207031 C 13.77338027954102 7.436232566833496 17.46298980712891 4.948582172393799 21.57117080688477 3.210972309112549 C 25.82417106628418 1.412102341651917 30.34226036071777 0.500002384185791 34.99995040893555 0.500002384185791 C 39.65763092041016 0.500002384185791 44.17573165893555 1.412102341651917 48.42873001098633 3.210972309112549 C 52.53689956665039 4.948582172393799 56.22652053833008 7.436222553253174 59.39509963989258 10.60480213165283 C 62.56367874145508 13.77338218688965 65.05132293701172 17.46299171447754 66.78893280029297 21.57116317749023 C 68.58779907226562 25.82416152954102 69.49990081787109 30.34226226806641 69.49990081787109 34.99994277954102 C 69.49990081787109 39.65765380859375 68.58779907226562 44.17576217651367 66.78893280029297 48.42878341674805 C 65.05132293701172 52.53696060180664 62.56367874145508 56.22659301757812 59.39509963989258 59.39517211914062 C 56.22652053833008 62.56375122070312 52.53691101074219 65.05139923095703 48.42873001098633 66.78900909423828 C 44.17573165893555 68.58788299560547 39.65763854980469 69.49998474121094 34.99995040893555 69.49998474121094 Z" stroke="none"/>
                      <path d="M 34.99995040893555 1 C 30.40954208374023 1 25.95698165893555 1.898811340332031 21.76594161987305 3.671485900878906 C 17.71736907958984 5.383880615234375 14.08116912841797 7.835540771484375 10.95835113525391 10.9583625793457 C 7.835540771484375 14.08119201660156 5.383872985839844 17.71740341186523 3.671470642089844 21.76598358154297 C 1.898811340332031 25.95703125 1 30.40961074829102 1 35.00004196166992 C 1 39.5904541015625 1.898811340332031 44.04301452636719 3.671470642089844 48.23405456542969 C 5.383872985839844 52.28262329101562 7.835540771484375 55.9188117980957 10.95835113525391 59.04163360595703 C 14.08116912841797 62.16445159912109 17.71736907958984 64.61611175537109 21.76594161987305 66.32851409912109 C 25.95698165893555 68.10117340087891 30.40954208374023 68.99998474121094 34.99995040893555 68.99998474121094 C 39.59036254882812 68.99998474121094 44.04292297363281 68.10117340087891 48.23396301269531 66.32851409912109 C 52.28253173828125 64.61610412597656 55.91873168945312 62.16444396972656 59.04154968261719 59.04162216186523 C 62.16436004638672 55.91879272460938 64.61602783203125 52.2825927734375 66.32843017578125 48.23401260375977 C 68.10108947753906 44.04295349121094 68.99990081787109 39.59037017822266 68.99990081787109 34.99994277954102 C 68.99990081787109 30.40954208374023 68.10108947753906 25.95698165893555 66.32843017578125 21.76594161987305 C 64.61602783203125 17.71737289428711 62.16436004638672 14.08117294311523 59.04154968261719 10.95835113525391 C 55.91873168945312 7.835533142089844 52.28253173828125 5.383872985839844 48.23396301269531 3.671470642089844 C 44.04292297363281 1.898811340332031 39.59036254882812 1 34.99995040893555 1 M 34.99995040893555 0 C 54.32989120483398 0 69.99990081787109 15.67001342773438 69.99990081787109 34.99994277954102 L 69.99990081787109 35.00004196166992 C 69.99990081787109 54.32998275756836 54.32989120483398 69.99998474121094 34.99995040893555 69.99998474121094 C 15.67000961303711 69.99998474121094 0 54.32998275756836 0 35.00004196166992 L 0 34.99994277954102 C 0 15.67001342773438 15.67000961303711 0 34.99995040893555 0 Z" stroke="none" fill="#fff"/>
                    </g>
                  </g>
                  <g id="Rectángulo_400907" data-name="Rectángulo 400907" transform="translate(0)" fill="none" stroke="#fff" stroke-width="1">
                    <rect width="70" height="70" rx="35" stroke="none"/>
                    <rect x="0.5" y="0.5" width="69" height="69" rx="34.5" fill="none"/>
                  </g>
                </g>
              </g>
            </g>
          </g>
        </g>
      </g>
    </g>
    <g id="Layer_4" data-name="Layer 4" transform="translate(215.437 9171.425)">
      <path id="Trazado_1184538" data-name="Trazado 1184538" d="M25.709,7,7,15.8l18.709,8.8,18.709-8.8Z" transform="translate(0.101 0.704)" fill="#5ac0e0"/>
      <path id="Trazado_1184539" data-name="Trazado 1184539" d="M26.647,10.742,40.91,17.455,44.418,15.8,25.709,7,7,15.8l3.508,1.651,14.263-6.713A2.2,2.2,0,0,1,26.647,10.742Z" transform="translate(0.101 0.704)" fill="#9cdfef"/>
      <path id="Trazado_1184540" data-name="Trazado 1184540" d="M7,15V34.81l18.709,8.8V23.8Z" transform="translate(0.101 1.508)" fill="#769ab2"/>
      <path id="Trazado_1184541" data-name="Trazado 1184541" d="M10.3,18.641V16.55L7,15V34.81l18.709,8.8v-.961a4.4,4.4,0,0,0-2.53-3.984l-.242-.11A22.011,22.011,0,0,1,10.3,18.641Z" transform="translate(0.101 1.508)" fill="#54849e"/>
      <path id="Trazado_1184542" data-name="Trazado 1184542" d="M24,23.8v19.81l18.709-8.8V15Z" transform="translate(1.81 1.508)" fill="#cfd1d3"/>
      <path id="Trazado_1184543" data-name="Trazado 1184543" d="M36.5,27.2,38.7,25H31v7.7l2.2-2.2,5.5,5.5,3.3-3.3Z" transform="translate(2.513 2.513)" fill="#f9df10"/>
      <path id="Trazado_1184544" data-name="Trazado 1184544" d="M45.577,15.611c-.009-.032-.025-.061-.036-.091a1.2,1.2,0,0,0-.079-.175.97.97,0,0,0-.068-.094.788.788,0,0,0-.206-.212c-.026-.021-.047-.045-.076-.064a.431.431,0,0,0-.068-.031.55.55,0,0,0-.053-.035L26.282,6.1a1.1,1.1,0,0,0-.938,0l-18.709,8.8a1.044,1.044,0,0,0-.263.175L6.36,15.1a1.1,1.1,0,0,0-.22.3c-.008.015-.022.024-.03.04s0,.037-.013.055a1.092,1.092,0,0,0-.077.314c0,.025-.01.05-.011.075V15.9a1.108,1.108,0,0,0,.061.347c.01.029.025.054.037.081a1.132,1.132,0,0,0,.151.253,1,1,0,0,0,.07.083,1.092,1.092,0,0,0,.313.232l18.069,8.507V42.784L8.2,35.016V20.307a1.1,1.1,0,1,0-2.2,0V35.714a1.1,1.1,0,0,0,.632,1l18.709,8.8a.494.494,0,0,0,.055.012.973.973,0,0,0,.828,0,.5.5,0,0,0,.055-.012l11.005-5.179a1.1,1.1,0,0,0-.938-1.992L26.91,42.784V25.408l16.508-7.769V29.111a1.1,1.1,0,1,0,2.2,0V15.9a1.09,1.09,0,0,0-.042-.294ZM25.81,8.317,41.933,15.9,25.81,23.492,9.686,15.9Z" transform="translate(0 0.603)"/>
      <path id="Trazado_1184545" data-name="Trazado 1184545" d="M9.1,8.8h5.5a1.1,1.1,0,0,0,0-2.2h-2.89a24.175,24.175,0,0,1,30.2,1.914A1.1,1.1,0,1,0,43.4,6.89,26.364,26.364,0,0,0,10.2,4.984V3.3A1.1,1.1,0,0,0,8,3.3V7.7A1.1,1.1,0,0,0,9.1,8.8Z" transform="translate(0.201 0)"/>
      <path id="Trazado_1184546" data-name="Trazado 1184546" d="M42.658,40h-5.5a1.1,1.1,0,1,0,0,2.2h2.89a24.175,24.175,0,0,1-30.2-1.914,1.1,1.1,0,0,0-1.484,1.627,26.364,26.364,0,0,0,33.2,1.906V45.5a1.1,1.1,0,1,0,2.2,0V41.1A1.1,1.1,0,0,0,42.658,40Z" transform="translate(0.201 4.021)"/>
      <path id="Trazado_1184547" data-name="Trazado 1184547" d="M38.159,27.3l1.423-1.423A1.1,1.1,0,0,0,38.8,24H31.1A1.1,1.1,0,0,0,30,25.1v7.7a1.1,1.1,0,0,0,1.879.778L33.3,32.159l4.725,4.725a1.1,1.1,0,0,0,1.556,0l3.3-3.3a1.1,1.1,0,0,0,0-1.556ZM38.8,34.55,34.08,29.825a1.1,1.1,0,0,0-1.556,0l-.322.322V26.2h3.947l-.322.322a1.1,1.1,0,0,0,0,1.556L40.55,32.8Z" transform="translate(2.413 2.413)"/>
    </g>
  </g>
</svg>
