<svg xmlns="http://www.w3.org/2000/svg" width="117" height="119" viewBox="0 0 117 119">
  <g id="Grupo_1231039" data-name="Grupo 1231039" transform="translate(-1139.254 -12109.5)">
    <g id="Grupo_1230675" data-name="Grupo 1230675" transform="translate(-123.873 9467.5)">
      <g id="Grupo_1230674" data-name="Grupo 1230674" transform="translate(16)">
        <rect id="Rect치ngulo_423331" data-name="Rect치ngulo 423331" width="94" height="55" rx="12" transform="translate(1247.126 2681)" fill="#497d74"/>
        <rect id="Rect치ngulo_423332" data-name="Rect치ngulo 423332" width="74" height="119" rx="12" transform="translate(1290.126 2642)" fill="#345953"/>
      </g>
    </g>
    <g id="cryptocurrency_2101058" transform="translate(1153.751 12129.5)">
      <circle id="Elipse_12564" data-name="Elipse 12564" cx="42" cy="42" r="42" transform="translate(2.002 2.003)" fill="#c6c5ca"/>
      <path id="Trazado_1184925" data-name="Trazado 1184925" d="M0,0H22.195V22.195H0Z" transform="translate(55.1 32.905) rotate(90)" fill="#3d9ae2"/>
      <g id="Grupo_1231038" data-name="Grupo 1231038" transform="translate(7.936 7.936)">
        <circle id="Elipse_12565" data-name="Elipse 12565" cx="2" cy="2" r="2" transform="translate(34.066 34.066)" fill="#ffda44"/>
        <path id="Trazado_1184926" data-name="Trazado 1184926" d="M30,6h5.549v5.549H30Z" transform="translate(3.292 -6)" fill="#ffda44"/>
        <path id="Trazado_1184927" data-name="Trazado 1184927" d="M0,0H5.549V5.549H0Z" transform="translate(38.841 72.133) rotate(180)" fill="#ffda44"/>
        <path id="Trazado_1184928" data-name="Trazado 1184928" d="M0,0H5.549V5.549H0Z" transform="translate(72.133 33.292) rotate(90)" fill="#ffda44"/>
        <path id="Trazado_1184929" data-name="Trazado 1184929" d="M0,0H5.549V5.549H0Z" transform="translate(0 38.841) rotate(-90)" fill="#ffda44"/>
      </g>
      <path id="Trazado_1184930" data-name="Trazado 1184930" d="M33.162,37.323A4.162,4.162,0,1,0,29,33.162,4.162,4.162,0,0,0,33.162,37.323Zm0-5.549a1.387,1.387,0,1,1-1.387,1.387A1.387,1.387,0,0,1,33.162,31.774Z" transform="translate(10.841 10.841)"/>
      <path id="Trazado_1184931" data-name="Trazado 1184931" d="M78.52,38.292H72.971a1.387,1.387,0,0,0-1.387,1.387v1.387H54.938v-9.71a1.387,1.387,0,0,0-1.387-1.387h-9.71V13.323h1.387a1.387,1.387,0,0,0,1.387-1.387V6.387A1.387,1.387,0,0,0,45.228,5H39.679a1.387,1.387,0,0,0-1.387,1.387v5.549a1.387,1.387,0,0,0,1.387,1.387h1.387V29.969h-9.71a1.387,1.387,0,0,0-1.387,1.387v9.71H13.323V39.679a1.387,1.387,0,0,0-1.387-1.387H6.387A1.387,1.387,0,0,0,5,39.679v5.549a1.387,1.387,0,0,0,1.387,1.387h5.549a1.387,1.387,0,0,0,1.387-1.387V43.841H29.969v9.71a1.387,1.387,0,0,0,1.387,1.387h9.71V71.584H39.679a1.387,1.387,0,0,0-1.387,1.387V78.52a1.387,1.387,0,0,0,1.387,1.387h5.549a1.387,1.387,0,0,0,1.387-1.387V72.971a1.387,1.387,0,0,0-1.387-1.387H43.841V54.938h9.71a1.387,1.387,0,0,0,1.387-1.387v-9.71H71.584v1.387a1.387,1.387,0,0,0,1.387,1.387H78.52a1.387,1.387,0,0,0,1.387-1.387V39.679A1.387,1.387,0,0,0,78.52,38.292ZM41.066,7.774h2.774v2.774H41.066ZM10.549,43.841H7.774V41.066h2.774ZM43.841,77.133H41.066V74.359h2.774Zm8.323-24.969H32.743V32.743h19.42Zm24.969-8.323H74.359V41.066h2.774Z" transform="translate(1.549 1.549)"/>
      <path id="Trazado_1184932" data-name="Trazado 1184932" d="M44,1A43,43,0,1,0,87,44,43,43,0,0,0,44,1Zm0,83.23A40.228,40.228,0,1,1,84.23,44,40.228,40.228,0,0,1,44,84.23Z"/>
      <path id="Trazado_1184933" data-name="Trazado 1184933" d="M9.021,32.91a1.409,1.409,0,0,0,.4.06,1.387,1.387,0,0,0,1.328-.983,31.816,31.816,0,0,1,21.383-21.27,1.387,1.387,0,1,0-.794-2.658A34.584,34.584,0,0,0,8.1,31.178a1.387,1.387,0,0,0,.924,1.731Z" transform="translate(2.724 2.71)"/>
    </g>
  </g>
</svg>
