<svg xmlns="http://www.w3.org/2000/svg" xmlns:xlink="http://www.w3.org/1999/xlink" width="88" height="88" viewBox="0 0 88 88">
  <defs>
    <filter id="Trazado_896985" x="0" y="0" width="88" height="88" filterUnits="userSpaceOnUse">
      <feOffset dy="3" input="SourceAlpha"/>
      <feGaussianBlur stdDeviation="3" result="blur"/>
      <feFlood flood-opacity="0.161"/>
      <feComposite operator="in" in2="blur"/>
      <feComposite in="SourceGraphic"/>
    </filter>
  </defs>
  <g id="Grupo_1230885" data-name="Grupo 1230885" transform="translate(-1139.72 -1402.432)">
    <g id="Grupo_1212722" data-name="Grupo 1212722" transform="translate(942.753 -7754.838)">
      <g id="Grupo_1212198" data-name="Grupo 1212198" transform="translate(205.967 9163.27)">
        <g id="Grupo_1200012" data-name="Grupo 1200012" transform="translate(0 0)">
          <g id="Grupo_1198723" data-name="Grupo 1198723" transform="translate(0 0)">
            <g id="Grupo_1198139" data-name="Grupo 1198139">
              <g id="Grupo_1111318" data-name="Grupo 1111318">
                <g id="Grupo_1109826" data-name="Grupo 1109826" transform="translate(0)">
                  <g id="Grupo_1098742" data-name="Grupo 1098742">
                    <g transform="matrix(1, 0, 0, 1, -9, -6)" filter="url(#Trazado_896985)">
                      <g id="Trazado_896985-2" data-name="Trazado 896985" transform="translate(9 6)" fill="#d0c110" opacity="0.859">
                        <path d="M 34.99995040893555 69.49998474121094 C 30.34226989746094 69.49998474121094 25.82417106628418 68.58788299560547 21.57117080688477 66.78900909423828 C 17.4630012512207 65.05139923095703 13.77338027954102 62.56376266479492 10.6048002243042 59.39518356323242 C 7.436220645904541 56.22661209106445 4.948580265045166 52.53699111938477 3.210970401763916 48.4288215637207 C 1.412100434303284 44.17582321166992 0.5000004172325134 39.65772247314453 0.5000004172325134 35.00004196166992 C 0.5000004172325134 30.34233283996582 1.412100434303284 25.82422256469727 3.210970401763916 21.57120323181152 C 4.948580265045166 17.46302223205566 7.436220645904541 13.77339267730713 10.6048002243042 10.60481262207031 C 13.77338027954102 7.436232566833496 17.46298980712891 4.948582172393799 21.57117080688477 3.210972309112549 C 25.82417106628418 1.412102341651917 30.34226036071777 0.500002384185791 34.99995040893555 0.500002384185791 C 39.65763092041016 0.500002384185791 44.17573165893555 1.412102341651917 48.42873001098633 3.210972309112549 C 52.53689956665039 4.948582172393799 56.22652053833008 7.436222553253174 59.39509963989258 10.60480213165283 C 62.56367874145508 13.77338218688965 65.05132293701172 17.46299171447754 66.78893280029297 21.57116317749023 C 68.58779907226562 25.82416152954102 69.49990081787109 30.34226226806641 69.49990081787109 34.99994277954102 C 69.49990081787109 39.65765380859375 68.58779907226562 44.17576217651367 66.78893280029297 48.42878341674805 C 65.05132293701172 52.53696060180664 62.56367874145508 56.22659301757812 59.39509963989258 59.39517211914062 C 56.22652053833008 62.56375122070312 52.53691101074219 65.05139923095703 48.42873001098633 66.78900909423828 C 44.17573165893555 68.58788299560547 39.65763854980469 69.49998474121094 34.99995040893555 69.49998474121094 Z" stroke="none"/>
                        <path d="M 34.99995040893555 1 C 30.40954208374023 1 25.95698165893555 1.898811340332031 21.76594161987305 3.671485900878906 C 17.71736907958984 5.383880615234375 14.08116912841797 7.835540771484375 10.95835113525391 10.9583625793457 C 7.835540771484375 14.08119201660156 5.383872985839844 17.71740341186523 3.671470642089844 21.76598358154297 C 1.898811340332031 25.95703125 1 30.40961074829102 1 35.00004196166992 C 1 39.5904541015625 1.898811340332031 44.04301452636719 3.671470642089844 48.23405456542969 C 5.383872985839844 52.28262329101562 7.835540771484375 55.9188117980957 10.95835113525391 59.04163360595703 C 14.08116912841797 62.16445159912109 17.71736907958984 64.61611175537109 21.76594161987305 66.32851409912109 C 25.95698165893555 68.10117340087891 30.40954208374023 68.99998474121094 34.99995040893555 68.99998474121094 C 39.59036254882812 68.99998474121094 44.04292297363281 68.10117340087891 48.23396301269531 66.32851409912109 C 52.28253173828125 64.61610412597656 55.91873168945312 62.16444396972656 59.04154968261719 59.04162216186523 C 62.16436004638672 55.91879272460938 64.61602783203125 52.2825927734375 66.32843017578125 48.23401260375977 C 68.10108947753906 44.04295349121094 68.99990081787109 39.59037017822266 68.99990081787109 34.99994277954102 C 68.99990081787109 30.40954208374023 68.10108947753906 25.95698165893555 66.32843017578125 21.76594161987305 C 64.61602783203125 17.71737289428711 62.16436004638672 14.08117294311523 59.04154968261719 10.95835113525391 C 55.91873168945312 7.835533142089844 52.28253173828125 5.383872985839844 48.23396301269531 3.671470642089844 C 44.04292297363281 1.898811340332031 39.59036254882812 1 34.99995040893555 1 M 34.99995040893555 0 C 54.32989120483398 0 69.99990081787109 15.67001342773438 69.99990081787109 34.99994277954102 L 69.99990081787109 35.00004196166992 C 69.99990081787109 54.32998275756836 54.32989120483398 69.99998474121094 34.99995040893555 69.99998474121094 C 15.67000961303711 69.99998474121094 0 54.32998275756836 0 35.00004196166992 L 0 34.99994277954102 C 0 15.67001342773438 15.67000961303711 0 34.99995040893555 0 Z" stroke="none" fill="#fff"/>
                      </g>
                    </g>
                    <g id="Rectángulo_400907" data-name="Rectángulo 400907" transform="translate(0)" fill="none" stroke="#fff" stroke-width="1">
                      <rect width="70" height="70" rx="35" stroke="none"/>
                      <rect x="0.5" y="0.5" width="69" height="69" rx="34.5" fill="none"/>
                    </g>
                  </g>
                </g>
              </g>
            </g>
          </g>
        </g>
      </g>
    </g>
    <g id="monitor_949910" transform="translate(1162.247 1421.954)">
      <g id="Grupo_1230883" data-name="Grupo 1230883" transform="translate(0.716 0.72)">
        <path id="Trazado_1184548" data-name="Trazado 1184548" d="M46.656,8H10.867A2.863,2.863,0,0,0,8,10.867V39.5a2.863,2.863,0,0,0,2.863,2.863H46.656A2.863,2.863,0,0,0,49.519,39.5V10.867A2.863,2.863,0,0,0,46.656,8Zm0,28.631H10.867V10.867H46.656Z" transform="translate(-8.004 -8.004)" fill="#dbdce0"/>
        <path id="Trazado_1184549" data-name="Trazado 1184549" d="M11.583,440,8,442.867H49.519L45.94,440Z" transform="translate(-8.004 -401.352)" fill="#dbdce0"/>
      </g>
      <path id="Trazado_1184550" data-name="Trazado 1184550" d="M128,396.3h20.042L144.467,392H131.583Z" transform="translate(-116.551 -356.927)" fill="#989aa0"/>
      <path id="Trazado_1184551" data-name="Trazado 1184551" d="M40,65.772H75.793V40H40Z" transform="translate(-36.425 -36.421)" fill="#fff"/>
      <g id="Grupo_1230884" data-name="Grupo 1230884" transform="translate(13.899 6.339)">
        <rect id="Rectángulo_423486" data-name="Rectángulo 423486" width="22.708" height="3.785" transform="translate(0 0)" fill="#e3ac34"/>
        <rect id="Rectángulo_423487" data-name="Rectángulo 423487" width="22.708" height="3.785" transform="translate(0 7.569)" fill="#e3ac34"/>
        <rect id="Rectángulo_423488" data-name="Rectángulo 423488" width="22.708" height="5.046" transform="translate(0 13.877)" fill="#e3ac34"/>
      </g>
      <path id="Trazado_1184552" data-name="Trazado 1184552" d="M39.368,0H3.579A3.583,3.583,0,0,0,0,3.583V32.214a3.583,3.583,0,0,0,3.579,3.579H13.5l-2.386,2.863H4.295a.716.716,0,0,0-.447.157L.269,41.676a.716.716,0,0,0,.447,1.275H42.231a.716.716,0,0,0,.447-1.275L39.1,38.813a.716.716,0,0,0-.447-.157H31.83l-2.386-2.863h9.924a3.583,3.583,0,0,0,3.579-3.579V3.583A3.583,3.583,0,0,0,39.368,0Zm.822,41.515H2.757l1.789-1.432H38.4ZM29.966,38.656H12.981l2.386-2.863H27.581Zm11.549-6.442a2.147,2.147,0,0,1-2.147,2.147H3.579a2.147,2.147,0,0,1-2.147-2.147V3.583A2.147,2.147,0,0,1,3.579,1.436H39.368a2.147,2.147,0,0,1,2.147,2.147Z" transform="translate(0)"/>
      <path id="Trazado_1184553" data-name="Trazado 1184553" d="M68.509,32H32.72A.716.716,0,0,0,32,32.72V58.488a.716.716,0,0,0,.716.716H68.509a.716.716,0,0,0,.716-.716V32.72A.716.716,0,0,0,68.509,32Zm-.716,25.768H33.436V33.436H67.793Z" transform="translate(-29.141 -29.137)"/>
      <rect id="Rectángulo_423489" data-name="Rectángulo 423489" width="7.569" height="1.262" transform="translate(17.684 31.57)"/>
      <path id="Trazado_1184554" data-name="Trazado 1184554" d="M152.72,69.73h22.189a.716.716,0,0,0,.716-.716V64.72a.716.716,0,0,0-.716-.716H152.72a.716.716,0,0,0-.716.716v4.295A.716.716,0,0,0,152.72,69.73Zm.716-4.295h20.758V68.3H153.436Z" transform="translate(-138.404 -58.274)"/>
      <path id="Trazado_1184555" data-name="Trazado 1184555" d="M152.72,149.73h22.189a.716.716,0,0,0,.716-.716V144.72a.716.716,0,0,0-.716-.716H152.72a.716.716,0,0,0-.716.716v4.295A.716.716,0,0,0,152.72,149.73Zm.716-4.295h20.758V148.3H153.436Z" transform="translate(-138.404 -131.116)"/>
      <path id="Trazado_1184556" data-name="Trazado 1184556" d="M76.3,79.753h.039a.716.716,0,0,0,.52-.268l2.863-3.579L78.6,75.012l-2.362,2.955-.866-.866-1.012,1.012L75.8,79.544A.716.716,0,0,0,76.3,79.753Z" transform="translate(-67.711 -68.297)"/>
      <path id="Trazado_1184557" data-name="Trazado 1184557" d="M76.3,159.753h.039a.716.716,0,0,0,.52-.268l2.863-3.579-1.118-.895-2.362,2.955-.866-.866-1.012,1.012,1.432,1.432A.716.716,0,0,0,76.3,159.753Z" transform="translate(-67.711 -141.139)"/>
      <path id="Trazado_1184558" data-name="Trazado 1184558" d="M152.72,229.73h22.189a.716.716,0,0,0,.716-.716V224.72a.716.716,0,0,0-.716-.716H152.72a.716.716,0,0,0-.716.716v4.295A.716.716,0,0,0,152.72,229.73Zm.716-4.295h20.758V228.3H153.436Z" transform="translate(-138.404 -203.958)"/>
    </g>
  </g>
</svg>
